<svg width="27" height="27" viewBox="0 0 27 27" fill="none" xmlns="http://www.w3.org/2000/svg">
<g clip-path="url(#clip0_32_2875)">
<path d="M25.762 24.5394H1.22753C0.549668 24.5394 0.000488281 25.0886 0.000488281 25.767C0.000488281 26.4443 0.549668 26.9935 1.22753 26.9935H25.7614C26.4392 26.9935 26.9884 26.4443 26.9884 25.767C26.9879 25.0886 26.4387 24.5394 25.762 24.5394Z" fill="url(#paint0_linear_32_2875)"/>
<path d="M2.76073 21.3496C2.08287 21.3496 1.53369 21.8988 1.53369 22.5766C1.53369 23.2545 2.08287 23.8042 2.76073 23.8042H24.2281C24.906 23.8042 25.4552 23.2545 25.4552 22.5766C25.4552 21.8988 24.906 21.3496 24.2281 21.3496H23.922V10.3085H24.2281C24.5676 10.3085 24.8411 10.0339 24.8411 9.69559C24.8411 9.35723 24.5665 9.08264 24.2281 9.08264H2.76073C2.4218 9.08264 2.14778 9.35723 2.14778 9.69559C2.14778 10.0339 2.42237 10.3085 2.76073 10.3085H3.06749V21.349H2.76073V21.3496ZM21.4679 10.3085V21.349H17.7879V10.3085H21.4679ZM15.3338 10.3085V21.349H11.6539V10.3085H15.3338ZM5.52042 10.3085H9.20038V21.349H5.52042V10.3085Z" fill="url(#paint1_linear_32_2875)"/>
<path d="M1.22755 7.97926H25.7614C25.7654 7.97926 25.77 7.97926 25.7735 7.97926C26.4519 7.97926 27.0005 7.43008 27.0005 6.75223C27.0005 6.21339 26.6535 5.75669 26.1716 5.59125L13.9989 0.113814C13.6789 -0.0298 13.313 -0.0298 12.9924 0.113814L0.724326 5.63376C0.196401 5.87158 -0.0936992 6.44489 0.0280855 7.01016C0.149296 7.57542 0.649072 7.97926 1.22755 7.97926Z" fill="url(#paint2_linear_32_2875)"/>
</g>
<defs>
<linearGradient id="paint0_linear_32_2875" x1="14.8439" y1="24.1531" x2="14.8565" y2="28.5049" gradientUnits="userSpaceOnUse">
<stop stop-color="#FD749B"/>
<stop offset="1" stop-color="#281AC8"/>
</linearGradient>
<linearGradient id="paint1_linear_32_2875" x1="14.6905" y1="6.76536" x2="15.202" y2="32.8607" gradientUnits="userSpaceOnUse">
<stop stop-color="#FD749B"/>
<stop offset="1" stop-color="#281AC8"/>
</linearGradient>
<linearGradient id="paint2_linear_32_2875" x1="14.8505" y1="-1.24893" x2="14.9835" y2="12.8884" gradientUnits="userSpaceOnUse">
<stop stop-color="#FD749B"/>
<stop offset="1" stop-color="#281AC8"/>
</linearGradient>
<clipPath id="clip0_32_2875">
<rect width="27" height="27" fill="white" transform="translate(0.000488281)"/>
</clipPath>
</defs>
</svg>
