<svg width="157" height="54" viewBox="0 0 157 54" fill="none" xmlns="http://www.w3.org/2000/svg">
<rect x="0.000488281" width="157" height="54" rx="27" fill="url(#paint0_linear_32_2907)"/>
<path d="M47.2917 22.172C48.3277 22.172 49.233 22.3773 50.0077 22.788C50.7824 23.1987 51.3797 23.7773 51.7997 24.524C52.229 25.2613 52.4437 26.1153 52.4437 27.086C52.4437 28.0473 52.229 28.9013 51.7997 29.648C51.3797 30.3947 50.7777 30.9733 49.9937 31.384C49.219 31.7947 48.3184 32 47.2917 32H43.6097V22.172H47.2917ZM47.1377 29.928C48.043 29.928 48.7477 29.6807 49.2517 29.186C49.7557 28.6913 50.0077 27.9913 50.0077 27.086C50.0077 26.1807 49.7557 25.476 49.2517 24.972C48.7477 24.468 48.043 24.216 47.1377 24.216H46.0037V29.928H47.1377ZM56.1756 22.172V32H53.7816V22.172H56.1756ZM61.4665 32.098C60.7478 32.098 60.1038 31.9813 59.5345 31.748C58.9651 31.5147 58.5078 31.1693 58.1625 30.712C57.8265 30.2547 57.6491 29.704 57.6305 29.06H60.1785C60.2158 29.424 60.3418 29.704 60.5565 29.9C60.7711 30.0867 61.0511 30.18 61.3965 30.18C61.7511 30.18 62.0311 30.1007 62.2365 29.942C62.4418 29.774 62.5445 29.5453 62.5445 29.256C62.5445 29.0133 62.4605 28.8127 62.2925 28.654C62.1338 28.4953 61.9331 28.3647 61.6905 28.262C61.4571 28.1593 61.1211 28.0427 60.6825 27.912C60.0478 27.716 59.5298 27.52 59.1285 27.324C58.7271 27.128 58.3818 26.8387 58.0925 26.456C57.8031 26.0733 57.6585 25.574 57.6585 24.958C57.6585 24.0433 57.9898 23.3293 58.6525 22.816C59.3151 22.2933 60.1785 22.032 61.2425 22.032C62.3251 22.032 63.1978 22.2933 63.8605 22.816C64.5231 23.3293 64.8778 24.048 64.9245 24.972H62.3345C62.3158 24.6547 62.1991 24.4073 61.9845 24.23C61.7698 24.0433 61.4945 23.95 61.1585 23.95C60.8691 23.95 60.6358 24.0293 60.4585 24.188C60.2811 24.3373 60.1925 24.5567 60.1925 24.846C60.1925 25.1633 60.3418 25.4107 60.6405 25.588C60.9391 25.7653 61.4058 25.9567 62.0405 26.162C62.6751 26.3767 63.1885 26.582 63.5805 26.778C63.9818 26.974 64.3271 27.2587 64.6165 27.632C64.9058 28.0053 65.0505 28.486 65.0505 29.074C65.0505 29.634 64.9058 30.1427 64.6165 30.6C64.3365 31.0573 63.9258 31.4213 63.3845 31.692C62.8431 31.9627 62.2038 32.098 61.4665 32.098ZM66.1178 27.072C66.1178 26.1013 66.3278 25.238 66.7478 24.482C67.1678 23.7167 67.7511 23.124 68.4978 22.704C69.2538 22.2747 70.1078 22.06 71.0598 22.06C72.2264 22.06 73.2251 22.368 74.0558 22.984C74.8864 23.6 75.4418 24.44 75.7218 25.504H73.0898C72.8938 25.0933 72.6138 24.7807 72.2498 24.566C71.8951 24.3513 71.4891 24.244 71.0318 24.244C70.2944 24.244 69.6971 24.5007 69.2398 25.014C68.7824 25.5273 68.5538 26.2133 68.5538 27.072C68.5538 27.9307 68.7824 28.6167 69.2398 29.13C69.6971 29.6433 70.2944 29.9 71.0318 29.9C71.4891 29.9 71.8951 29.7927 72.2498 29.578C72.6138 29.3633 72.8938 29.0507 73.0898 28.64H75.7218C75.4418 29.704 74.8864 30.544 74.0558 31.16C73.2251 31.7667 72.2264 32.07 71.0598 32.07C70.1078 32.07 69.2538 31.86 68.4978 31.44C67.7511 31.0107 67.1678 30.418 66.7478 29.662C66.3278 28.906 66.1178 28.0427 66.1178 27.072ZM81.8358 32.098C80.9118 32.098 80.0625 31.8833 79.2878 31.454C78.5225 31.0247 77.9112 30.4273 77.4538 29.662C77.0058 28.8873 76.7818 28.0193 76.7818 27.058C76.7818 26.0967 77.0058 25.2333 77.4538 24.468C77.9112 23.7027 78.5225 23.1053 79.2878 22.676C80.0625 22.2467 80.9118 22.032 81.8358 22.032C82.7598 22.032 83.6045 22.2467 84.3698 22.676C85.1445 23.1053 85.7512 23.7027 86.1898 24.468C86.6378 25.2333 86.8618 26.0967 86.8618 27.058C86.8618 28.0193 86.6378 28.8873 86.1898 29.662C85.7418 30.4273 85.1352 31.0247 84.3698 31.454C83.6045 31.8833 82.7598 32.098 81.8358 32.098ZM81.8358 29.914C82.6198 29.914 83.2452 29.6527 83.7118 29.13C84.1878 28.6073 84.4258 27.9167 84.4258 27.058C84.4258 26.19 84.1878 25.4993 83.7118 24.986C83.2452 24.4633 82.6198 24.202 81.8358 24.202C81.0425 24.202 80.4078 24.4587 79.9318 24.972C79.4652 25.4853 79.2318 26.1807 79.2318 27.058C79.2318 27.926 79.4652 28.6213 79.9318 29.144C80.4078 29.6573 81.0425 29.914 81.8358 29.914ZM97.4197 22.172L93.9337 32H90.9377L87.4517 22.172H89.9997L92.4357 29.592L94.8857 22.172H97.4197ZM100.814 24.09V26.078H104.02V27.926H100.814V30.082H104.44V32H98.4202V22.172H104.44V24.09H100.814ZM111.006 32L108.962 28.29H108.388V32H105.994V22.172H110.012C110.787 22.172 111.445 22.3073 111.986 22.578C112.537 22.8487 112.948 23.222 113.218 23.698C113.489 24.1647 113.624 24.6873 113.624 25.266C113.624 25.9193 113.438 26.5027 113.064 27.016C112.7 27.5293 112.159 27.8933 111.44 28.108L113.708 32H111.006ZM108.388 26.596H109.872C110.311 26.596 110.638 26.4887 110.852 26.274C111.076 26.0593 111.188 25.756 111.188 25.364C111.188 24.9907 111.076 24.6967 110.852 24.482C110.638 24.2673 110.311 24.16 109.872 24.16H108.388V26.596Z" fill="white"/>
<defs>
<linearGradient id="paint0_linear_32_2907" x1="86.3505" y1="-8.5" x2="87.3993" y2="87.2454" gradientUnits="userSpaceOnUse">
<stop stop-color="#FD749B"/>
<stop offset="1" stop-color="#281AC8"/>
</linearGradient>
</defs>
</svg>
