<svg width="157" height="54" viewBox="0 0 157 54" fill="none" xmlns="http://www.w3.org/2000/svg">
<rect x="0.000488281" width="157" height="54" rx="27" fill="white"/>
<path d="M39.9755 25.28C39.7982 24.9533 39.5415 24.706 39.2055 24.538C38.8788 24.3607 38.4915 24.272 38.0435 24.272C37.2688 24.272 36.6482 24.5287 36.1815 25.042C35.7148 25.546 35.4815 26.2227 35.4815 27.072C35.4815 27.9773 35.7242 28.6867 36.2095 29.2C36.7042 29.704 37.3808 29.956 38.2395 29.956C38.8275 29.956 39.3222 29.8067 39.7235 29.508C40.1342 29.2093 40.4328 28.78 40.6195 28.22H37.5815V26.456H42.7895V28.682C42.6122 29.2793 42.3088 29.8347 41.8795 30.348C41.4595 30.8613 40.9228 31.2767 40.2695 31.594C39.6162 31.9113 38.8788 32.07 38.0575 32.07C37.0868 32.07 36.2188 31.86 35.4535 31.44C34.6975 31.0107 34.1048 30.418 33.6755 29.662C33.2555 28.906 33.0455 28.0427 33.0455 27.072C33.0455 26.1013 33.2555 25.238 33.6755 24.482C34.1048 23.7167 34.6975 23.124 35.4535 22.704C36.2095 22.2747 37.0728 22.06 38.0435 22.06C39.2195 22.06 40.2088 22.3447 41.0115 22.914C41.8235 23.4833 42.3602 24.272 42.6215 25.28H39.9755ZM46.5096 24.09V26.078H49.7156V27.926H46.5096V30.082H50.1356V32H44.1156V22.172H50.1356V24.09H46.5096ZM58.7598 22.172V24.09H56.1558V32H53.7618V24.09H51.1578V22.172H58.7598ZM66.4841 32.098C65.7654 32.098 65.1214 31.9813 64.5521 31.748C63.9827 31.5147 63.5254 31.1693 63.1801 30.712C62.8441 30.2547 62.6667 29.704 62.6481 29.06H65.1961C65.2334 29.424 65.3594 29.704 65.5741 29.9C65.7887 30.0867 66.0687 30.18 66.4141 30.18C66.7687 30.18 67.0487 30.1007 67.2541 29.942C67.4594 29.774 67.5621 29.5453 67.5621 29.256C67.5621 29.0133 67.4781 28.8127 67.3101 28.654C67.1514 28.4953 66.9507 28.3647 66.7081 28.262C66.4747 28.1593 66.1387 28.0427 65.7001 27.912C65.0654 27.716 64.5474 27.52 64.1461 27.324C63.7447 27.128 63.3994 26.8387 63.1101 26.456C62.8207 26.0733 62.6761 25.574 62.6761 24.958C62.6761 24.0433 63.0074 23.3293 63.6701 22.816C64.3327 22.2933 65.1961 22.032 66.2601 22.032C67.3427 22.032 68.2154 22.2933 68.8781 22.816C69.5407 23.3293 69.8954 24.048 69.9421 24.972H67.3521C67.3334 24.6547 67.2167 24.4073 67.0021 24.23C66.7874 24.0433 66.5121 23.95 66.1761 23.95C65.8867 23.95 65.6534 24.0293 65.4761 24.188C65.2987 24.3373 65.2101 24.5567 65.2101 24.846C65.2101 25.1633 65.3594 25.4107 65.6581 25.588C65.9567 25.7653 66.4234 25.9567 67.0581 26.162C67.6927 26.3767 68.2061 26.582 68.5981 26.778C68.9994 26.974 69.3447 27.2587 69.6341 27.632C69.9234 28.0053 70.0681 28.486 70.0681 29.074C70.0681 29.634 69.9234 30.1427 69.6341 30.6C69.3541 31.0573 68.9434 31.4213 68.4021 31.692C67.8607 31.9627 67.2214 32.098 66.4841 32.098ZM78.6113 22.172V24.09H76.0073V32H73.6133V24.09H71.0093V22.172H78.6113ZM85.9308 30.264H82.2628L81.6748 32H79.1688L82.7248 22.172H85.4968L89.0528 32H86.5188L85.9308 30.264ZM85.3148 28.416L84.0968 24.818L82.8928 28.416H85.3148ZM95.1471 32L93.1031 28.29H92.5291V32H90.1351V22.172H94.1531C94.9278 22.172 95.5858 22.3073 96.1271 22.578C96.6778 22.8487 97.0884 23.222 97.3591 23.698C97.6298 24.1647 97.7651 24.6873 97.7651 25.266C97.7651 25.9193 97.5784 26.5027 97.2051 27.016C96.8411 27.5293 96.2998 27.8933 95.5811 28.108L97.8491 32H95.1471ZM92.5291 26.596H94.0131C94.4518 26.596 94.7784 26.4887 94.9931 26.274C95.2171 26.0593 95.3291 25.756 95.3291 25.364C95.3291 24.9907 95.2171 24.6967 94.9931 24.482C94.7784 24.2673 94.4518 24.16 94.0131 24.16H92.5291V26.596ZM106.338 22.172V24.09H103.734V32H101.34V24.09H98.7359V22.172H106.338ZM109.933 24.09V26.078H113.139V27.926H109.933V30.082H113.559V32H107.539V22.172H113.559V24.09H109.933ZM118.796 22.172C119.832 22.172 120.737 22.3773 121.512 22.788C122.286 23.1987 122.884 23.7773 123.304 24.524C123.733 25.2613 123.948 26.1153 123.948 27.086C123.948 28.0473 123.733 28.9013 123.304 29.648C122.884 30.3947 122.282 30.9733 121.498 31.384C120.723 31.7947 119.822 32 118.796 32H115.114V22.172H118.796ZM118.642 29.928C119.547 29.928 120.252 29.6807 120.756 29.186C121.26 28.6913 121.512 27.9913 121.512 27.086C121.512 26.1807 121.26 25.476 120.756 24.972C120.252 24.468 119.547 24.216 118.642 24.216H117.508V29.928H118.642Z" fill="url(#paint0_linear_32_2893)"/>
<defs>
<linearGradient id="paint0_linear_32_2893" x1="83.1505" y1="13.8519" x2="83.3934" y2="49.3157" gradientUnits="userSpaceOnUse">
<stop stop-color="#FD749B"/>
<stop offset="1" stop-color="#281AC8"/>
</linearGradient>
</defs>
</svg>
