<svg width="262" height="29" viewBox="0 0 262 29" fill="none" xmlns="http://www.w3.org/2000/svg">
<path d="M8.16299 1.344C10.235 1.344 12.0457 1.75467 13.595 2.576C15.1443 3.39733 16.339 4.55467 17.179 6.048C18.0377 7.52267 18.467 9.23067 18.467 11.172C18.467 13.0947 18.0377 14.8027 17.179 16.296C16.339 17.7893 15.135 18.9467 13.567 19.768C12.0177 20.5893 10.2163 21 8.16299 21H0.798988V1.344H8.16299ZM7.85499 16.856C9.66566 16.856 11.075 16.3613 12.083 15.372C13.091 14.3827 13.595 12.9827 13.595 11.172C13.595 9.36133 13.091 7.952 12.083 6.944C11.075 5.936 9.66566 5.432 7.85499 5.432H5.58699V16.856H7.85499ZM28.2547 21.224C26.7241 21.224 25.3427 20.8973 24.1107 20.244C22.8974 19.5907 21.9361 18.6573 21.2267 17.444C20.5361 16.2307 20.1907 14.812 20.1907 13.188C20.1907 11.5827 20.5454 10.1733 21.2547 8.96C21.9641 7.728 22.9347 6.78533 24.1667 6.132C25.3987 5.47867 26.7801 5.152 28.3107 5.152C29.8414 5.152 31.2227 5.47867 32.4547 6.132C33.6867 6.78533 34.6574 7.728 35.3667 8.96C36.0761 10.1733 36.4307 11.5827 36.4307 13.188C36.4307 14.7933 36.0667 16.212 35.3387 17.444C34.6294 18.6573 33.6494 19.5907 32.3987 20.244C31.1667 20.8973 29.7854 21.224 28.2547 21.224ZM28.2547 17.08C29.1694 17.08 29.9441 16.744 30.5787 16.072C31.2321 15.4 31.5587 14.4387 31.5587 13.188C31.5587 11.9373 31.2414 10.976 30.6067 10.304C29.9907 9.632 29.2254 9.296 28.3107 9.296C27.3774 9.296 26.6027 9.632 25.9867 10.304C25.3707 10.9573 25.0627 11.9187 25.0627 13.188C25.0627 14.4387 25.3614 15.4 25.9587 16.072C26.5747 16.744 27.3401 17.08 28.2547 17.08ZM61.3989 5.376L57.1709 21H51.8789L49.4149 10.864L46.8669 21H41.6029L37.3469 5.376H42.1349L44.3469 16.548L46.9789 5.376H52.0469L54.7069 16.492L56.8909 5.376H61.3989ZM72.7448 5.208C74.5741 5.208 76.0301 5.80533 77.1128 7C78.2141 8.176 78.7648 9.8 78.7648 11.872V21H74.0048V12.516C74.0048 11.4707 73.7341 10.6587 73.1928 10.08C72.6514 9.50133 71.9234 9.212 71.0088 9.212C70.0941 9.212 69.3661 9.50133 68.8248 10.08C68.2834 10.6587 68.0128 11.4707 68.0128 12.516V21H63.2248V5.376H68.0128V7.448C68.4981 6.75733 69.1514 6.216 69.9728 5.824C70.7941 5.41333 71.7181 5.208 72.7448 5.208ZM86.88 0.28V21H82.092V0.28H86.88ZM97.4618 21.224C95.9311 21.224 94.5498 20.8973 93.3178 20.244C92.1044 19.5907 91.1431 18.6573 90.4338 17.444C89.7431 16.2307 89.3978 14.812 89.3978 13.188C89.3978 11.5827 89.7524 10.1733 90.4618 8.96C91.1711 7.728 92.1418 6.78533 93.3738 6.132C94.6058 5.47867 95.9871 5.152 97.5178 5.152C99.0484 5.152 100.43 5.47867 101.662 6.132C102.894 6.78533 103.864 7.728 104.574 8.96C105.283 10.1733 105.638 11.5827 105.638 13.188C105.638 14.7933 105.274 16.212 104.546 17.444C103.836 18.6573 102.856 19.5907 101.606 20.244C100.374 20.8973 98.9924 21.224 97.4618 21.224ZM97.4618 17.08C98.3764 17.08 99.1511 16.744 99.7858 16.072C100.439 15.4 100.766 14.4387 100.766 13.188C100.766 11.9373 100.448 10.976 99.8138 10.304C99.1978 9.632 98.4324 9.296 97.5178 9.296C96.5844 9.296 95.8098 9.632 95.1938 10.304C94.5778 10.9573 94.2698 11.9187 94.2698 13.188C94.2698 14.4387 94.5684 15.4 95.1658 16.072C95.7818 16.744 96.5471 17.08 97.4618 17.08ZM107.226 13.16C107.226 11.5547 107.525 10.1453 108.122 8.932C108.738 7.71867 109.569 6.78533 110.614 6.132C111.659 5.47867 112.826 5.152 114.114 5.152C115.215 5.152 116.177 5.376 116.998 5.824C117.838 6.272 118.482 6.86 118.93 7.588V5.376H123.718V21H118.93V18.788C118.463 19.516 117.81 20.104 116.97 20.552C116.149 21 115.187 21.224 114.086 21.224C112.817 21.224 111.659 20.8973 110.614 20.244C109.569 19.572 108.738 18.6293 108.122 17.416C107.525 16.184 107.226 14.7653 107.226 13.16ZM118.93 13.188C118.93 11.9933 118.594 11.0507 117.922 10.36C117.269 9.66933 116.466 9.324 115.514 9.324C114.562 9.324 113.75 9.66933 113.078 10.36C112.425 11.032 112.098 11.9653 112.098 13.16C112.098 14.3547 112.425 15.3067 113.078 16.016C113.75 16.7067 114.562 17.052 115.514 17.052C116.466 17.052 117.269 16.7067 117.922 16.016C118.594 15.3253 118.93 14.3827 118.93 13.188ZM126.23 13.16C126.23 11.5547 126.528 10.1453 127.126 8.932C127.742 7.71867 128.572 6.78533 129.618 6.132C130.663 5.47867 131.83 5.152 133.118 5.152C134.144 5.152 135.078 5.36667 135.918 5.796C136.776 6.22533 137.448 6.804 137.934 7.532V0.28H142.722V21H137.934V18.76C137.486 19.5067 136.842 20.104 136.002 20.552C135.18 21 134.219 21.224 133.118 21.224C131.83 21.224 130.663 20.8973 129.618 20.244C128.572 19.572 127.742 18.6293 127.126 17.416C126.528 16.184 126.23 14.7653 126.23 13.16ZM137.934 13.188C137.934 11.9933 137.598 11.0507 136.926 10.36C136.272 9.66933 135.47 9.324 134.518 9.324C133.566 9.324 132.754 9.66933 132.082 10.36C131.428 11.032 131.102 11.9653 131.102 13.16C131.102 14.3547 131.428 15.3067 132.082 16.016C132.754 16.7067 133.566 17.052 134.518 17.052C135.47 17.052 136.272 16.7067 136.926 16.016C137.598 15.3253 137.934 14.3827 137.934 13.188ZM159.231 21.224C157.701 21.224 156.319 20.8973 155.087 20.244C153.874 19.5907 152.913 18.6573 152.203 17.444C151.513 16.2307 151.167 14.812 151.167 13.188C151.167 11.5827 151.522 10.1733 152.231 8.96C152.941 7.728 153.911 6.78533 155.143 6.132C156.375 5.47867 157.757 5.152 159.287 5.152C160.818 5.152 162.199 5.47867 163.431 6.132C164.663 6.78533 165.634 7.728 166.343 8.96C167.053 10.1733 167.407 11.5827 167.407 13.188C167.407 14.7933 167.043 16.212 166.315 17.444C165.606 18.6573 164.626 19.5907 163.375 20.244C162.143 20.8973 160.762 21.224 159.231 21.224ZM159.231 17.08C160.146 17.08 160.921 16.744 161.555 16.072C162.209 15.4 162.535 14.4387 162.535 13.188C162.535 11.9373 162.218 10.976 161.583 10.304C160.967 9.632 160.202 9.296 159.287 9.296C158.354 9.296 157.579 9.632 156.963 10.304C156.347 10.9573 156.039 11.9187 156.039 13.188C156.039 14.4387 156.338 15.4 156.935 16.072C157.551 16.744 158.317 17.08 159.231 17.08ZM185.375 5.376V21H180.587V18.872C180.102 19.5627 179.439 20.1227 178.599 20.552C177.778 20.9627 176.863 21.168 175.855 21.168C174.661 21.168 173.606 20.9067 172.691 20.384C171.777 19.8427 171.067 19.068 170.563 18.06C170.059 17.052 169.807 15.8667 169.807 14.504V5.376H174.567V13.86C174.567 14.9053 174.838 15.7173 175.379 16.296C175.921 16.8747 176.649 17.164 177.563 17.164C178.497 17.164 179.234 16.8747 179.775 16.296C180.317 15.7173 180.587 14.9053 180.587 13.86V5.376H185.375ZM193.603 7.98C194.163 7.12133 194.863 6.44933 195.703 5.964C196.543 5.46 197.476 5.208 198.503 5.208V10.276H197.187C195.992 10.276 195.096 10.5373 194.499 11.06C193.901 11.564 193.603 12.46 193.603 13.748V21H188.815V5.376H193.603V7.98ZM205.773 13.16C205.773 11.5547 206.071 10.1453 206.669 8.932C207.285 7.71867 208.115 6.78533 209.161 6.132C210.206 5.47867 211.373 5.152 212.661 5.152C213.762 5.152 214.723 5.376 215.545 5.824C216.385 6.272 217.029 6.86 217.477 7.588V5.376H222.265V21H217.477V18.788C217.01 19.516 216.357 20.104 215.517 20.552C214.695 21 213.734 21.224 212.633 21.224C211.363 21.224 210.206 20.8973 209.161 20.244C208.115 19.572 207.285 18.6293 206.669 17.416C206.071 16.184 205.773 14.7653 205.773 13.16ZM217.477 13.188C217.477 11.9933 217.141 11.0507 216.469 10.36C215.815 9.66933 215.013 9.324 214.061 9.324C213.109 9.324 212.297 9.66933 211.625 10.36C210.971 11.032 210.645 11.9653 210.645 13.16C210.645 14.3547 210.971 15.3067 211.625 16.016C212.297 16.7067 213.109 17.052 214.061 17.052C215.013 17.052 215.815 16.7067 216.469 16.016C217.141 15.3253 217.477 14.3827 217.477 13.188ZM230.517 7.588C230.983 6.86 231.627 6.272 232.449 5.824C233.27 5.376 234.231 5.152 235.333 5.152C236.621 5.152 237.787 5.47867 238.833 6.132C239.878 6.78533 240.699 7.71867 241.297 8.932C241.913 10.1453 242.221 11.5547 242.221 13.16C242.221 14.7653 241.913 16.184 241.297 17.416C240.699 18.6293 239.878 19.572 238.833 20.244C237.787 20.8973 236.621 21.224 235.333 21.224C234.25 21.224 233.289 21 232.449 20.552C231.627 20.104 230.983 19.5253 230.517 18.816V28.448H225.729V5.376H230.517V7.588ZM237.349 13.16C237.349 11.9653 237.013 11.032 236.341 10.36C235.687 9.66933 234.875 9.324 233.905 9.324C232.953 9.324 232.141 9.66933 231.469 10.36C230.815 11.0507 230.489 11.9933 230.489 13.188C230.489 14.3827 230.815 15.3253 231.469 16.016C232.141 16.7067 232.953 17.052 233.905 17.052C234.857 17.052 235.669 16.7067 236.341 16.016C237.013 15.3067 237.349 14.3547 237.349 13.16ZM249.521 7.588C249.987 6.86 250.631 6.272 251.453 5.824C252.274 5.376 253.235 5.152 254.337 5.152C255.625 5.152 256.791 5.47867 257.837 6.132C258.882 6.78533 259.703 7.71867 260.301 8.932C260.917 10.1453 261.225 11.5547 261.225 13.16C261.225 14.7653 260.917 16.184 260.301 17.416C259.703 18.6293 258.882 19.572 257.837 20.244C256.791 20.8973 255.625 21.224 254.337 21.224C253.254 21.224 252.293 21 251.453 20.552C250.631 20.104 249.987 19.5253 249.521 18.816V28.448H244.733V5.376H249.521V7.588ZM256.353 13.16C256.353 11.9653 256.017 11.032 255.345 10.36C254.691 9.66933 253.879 9.324 252.909 9.324C251.957 9.324 251.145 9.66933 250.473 10.36C249.819 11.0507 249.493 11.9933 249.493 13.188C249.493 14.3827 249.819 15.3253 250.473 16.016C251.145 16.7067 251.957 17.052 252.909 17.052C253.861 17.052 254.673 16.7067 255.345 16.016C256.017 15.3067 256.353 14.3547 256.353 13.16Z" fill="url(#paint0_linear_32_3250)"/>
<defs>
<linearGradient id="paint0_linear_32_3250" x1="143.65" y1="-18.2315" x2="144.558" y2="97.0243" gradientUnits="userSpaceOnUse">
<stop stop-color="#FD749B"/>
<stop offset="1" stop-color="#281AC8"/>
</linearGradient>
</defs>
</svg>
