<svg width="182" height="113" viewBox="0 0 182 113" fill="none" xmlns="http://www.w3.org/2000/svg">
<g filter="url(#filter0_d_32_3264)">
<mask id="path-1-inside-1_32_3264" fill="white">
<path fill-rule="evenodd" clip-rule="evenodd" d="M46.4797 20.6689L39.2401 10L32.0005 20.6689H46.4797ZM25.0005 21C22.2391 21 20.0005 23.2385 20.0005 26V78C20.0005 80.7614 22.2391 83 25.0005 83H157C159.762 83 162 80.7614 162 78V26C162 23.2385 159.762 21 157 21H25.0005Z"/>
</mask>
<path fill-rule="evenodd" clip-rule="evenodd" d="M46.4797 20.6689L39.2401 10L32.0005 20.6689H46.4797ZM25.0005 21C22.2391 21 20.0005 23.2385 20.0005 26V78C20.0005 80.7614 22.2391 83 25.0005 83H157C159.762 83 162 80.7614 162 78V26C162 23.2385 159.762 21 157 21H25.0005Z" fill="white"/>
<path d="M39.2401 10L40.0676 9.4385L39.2401 8.21906L38.4126 9.4385L39.2401 10ZM46.4797 20.6689V21.6689H48.3668L47.3072 20.1074L46.4797 20.6689ZM32.0005 20.6689L31.173 20.1074L30.1134 21.6689H32.0005V20.6689ZM38.4126 10.5615L45.6523 21.2304L47.3072 20.1074L40.0676 9.4385L38.4126 10.5615ZM32.828 21.2304L40.0676 10.5615L38.4126 9.4385L31.173 20.1074L32.828 21.2304ZM46.4797 19.6689H32.0005V21.6689H46.4797V19.6689ZM21.0005 26C21.0005 23.7908 22.7913 22 25.0005 22V20C21.6868 20 19.0005 22.6863 19.0005 26H21.0005ZM21.0005 78V26H19.0005V78H21.0005ZM25.0005 82C22.7913 82 21.0005 80.2091 21.0005 78H19.0005C19.0005 81.3137 21.6868 84 25.0005 84V82ZM157 82H25.0005V84H157V82ZM161 78C161 80.2091 159.21 82 157 82V84C160.314 84 163 81.3137 163 78H161ZM161 26V78H163V26H161ZM157 22C159.21 22 161 23.7908 161 26H163C163 22.6863 160.314 20 157 20V22ZM25.0005 22H157V20H25.0005V22Z" fill="#E0E0E0" mask="url(#path-1-inside-1_32_3264)"/>
<path d="M21.0005 53H161V77C161 79.7614 158.762 82 156 82H26.0005C23.2391 82 21.0005 79.7614 21.0005 77V53Z" fill="url(#paint0_linear_32_3264)"/>
<path d="M35.8909 42.6528C35.3389 42.6528 34.8429 42.5568 34.4029 42.3648C33.9709 42.1648 33.6309 41.8928 33.3829 41.5488C33.1349 41.1968 33.0069 40.7928 32.9989 40.3368H34.1629C34.2029 40.7288 34.3629 41.0608 34.6429 41.3328C34.9309 41.5968 35.3469 41.7288 35.8909 41.7288C36.4109 41.7288 36.8189 41.6008 37.1149 41.3448C37.4189 41.0808 37.5709 40.7448 37.5709 40.3368C37.5709 40.0168 37.4829 39.7568 37.3069 39.5568C37.1309 39.3568 36.9109 39.2048 36.6469 39.1008C36.3829 38.9968 36.0269 38.8848 35.5789 38.7648C35.0269 38.6208 34.5829 38.4768 34.2469 38.3328C33.9189 38.1888 33.6349 37.9648 33.3949 37.6608C33.1629 37.3488 33.0469 36.9328 33.0469 36.4128C33.0469 35.9568 33.1629 35.5528 33.3949 35.2008C33.6269 34.8488 33.9509 34.5768 34.3669 34.3848C34.7909 34.1928 35.2749 34.0968 35.8189 34.0968C36.6029 34.0968 37.2429 34.2928 37.7389 34.6848C38.2429 35.0768 38.5269 35.5968 38.5909 36.2448H37.3909C37.3509 35.9248 37.1829 35.6448 36.8869 35.4048C36.5909 35.1568 36.1989 35.0328 35.7109 35.0328C35.2549 35.0328 34.8829 35.1528 34.5949 35.3928C34.3069 35.6248 34.1629 35.9528 34.1629 36.3768C34.1629 36.6808 34.2469 36.9288 34.4149 37.1208C34.5909 37.3128 34.8029 37.4608 35.0509 37.5648C35.3069 37.6608 35.6629 37.7728 36.1189 37.9008C36.6709 38.0528 37.1149 38.2048 37.4509 38.3568C37.7869 38.5008 38.0749 38.7288 38.3149 39.0408C38.5549 39.3448 38.6749 39.7608 38.6749 40.2888C38.6749 40.6968 38.5669 41.0808 38.3509 41.4408C38.1349 41.8008 37.8149 42.0928 37.3909 42.3168C36.9669 42.5408 36.4669 42.6528 35.8909 42.6528ZM46.2819 39.0288C46.2819 39.2368 46.2699 39.4568 46.2459 39.6888H40.9899C41.0299 40.3368 41.2499 40.8448 41.6499 41.2128C42.0579 41.5728 42.5499 41.7528 43.1259 41.7528C43.5979 41.7528 43.9899 41.6448 44.3019 41.4288C44.6219 41.2048 44.8459 40.9088 44.9739 40.5408H46.1499C45.9739 41.1728 45.6219 41.6888 45.0939 42.0888C44.5659 42.4808 43.9099 42.6768 43.1259 42.6768C42.5019 42.6768 41.9419 42.5368 41.4459 42.2568C40.9579 41.9768 40.5739 41.5808 40.2939 41.0688C40.0139 40.5488 39.8739 39.9488 39.8739 39.2688C39.8739 38.5888 40.0099 37.9928 40.2819 37.4808C40.5539 36.9688 40.9339 36.5768 41.4219 36.3048C41.9179 36.0248 42.4859 35.8848 43.1259 35.8848C43.7499 35.8848 44.3019 36.0208 44.7819 36.2928C45.2619 36.5648 45.6299 36.9408 45.8859 37.4208C46.1499 37.8928 46.2819 38.4288 46.2819 39.0288ZM45.1539 38.8008C45.1539 38.3848 45.0619 38.0288 44.8779 37.7328C44.6939 37.4288 44.4419 37.2008 44.1219 37.0488C43.8099 36.8888 43.4619 36.8088 43.0779 36.8088C42.5259 36.8088 42.0539 36.9848 41.6619 37.3368C41.2779 37.6888 41.0579 38.1768 41.0019 38.8008H45.1539ZM48.8153 33.6888V42.5688H47.7233V33.6888H48.8153ZM51.7684 33.6888V42.5688H50.6764V33.6888H51.7684ZM61.0168 38.2608C61.3208 38.3088 61.5968 38.4328 61.8448 38.6328C62.1008 38.8328 62.3008 39.0808 62.4448 39.3768C62.5968 39.6728 62.6728 39.9888 62.6728 40.3248C62.6728 40.7488 62.5648 41.1328 62.3488 41.4768C62.1328 41.8128 61.8168 42.0808 61.4008 42.2808C60.9928 42.4728 60.5088 42.5688 59.9488 42.5688H56.8288V34.2048H59.8288C60.3968 34.2048 60.8808 34.3008 61.2808 34.4928C61.6808 34.6768 61.9808 34.9288 62.1808 35.2488C62.3808 35.5688 62.4808 35.9288 62.4808 36.3288C62.4808 36.8248 62.3448 37.2368 62.0728 37.5648C61.8088 37.8848 61.4568 38.1168 61.0168 38.2608ZM57.9208 37.8168H59.7568C60.2688 37.8168 60.6648 37.6968 60.9448 37.4568C61.2248 37.2168 61.3648 36.8848 61.3648 36.4608C61.3648 36.0368 61.2248 35.7048 60.9448 35.4648C60.6648 35.2248 60.2608 35.1048 59.7328 35.1048H57.9208V37.8168ZM59.8528 41.6688C60.3968 41.6688 60.8208 41.5408 61.1248 41.2848C61.4288 41.0288 61.5808 40.6728 61.5808 40.2168C61.5808 39.7528 61.4208 39.3888 61.1008 39.1248C60.7808 38.8528 60.3528 38.7168 59.8168 38.7168H57.9208V41.6688H59.8528ZM64.7522 34.9248C64.5442 34.9248 64.3682 34.8528 64.2242 34.7088C64.0802 34.5648 64.0082 34.3888 64.0082 34.1808C64.0082 33.9728 64.0802 33.7968 64.2242 33.6528C64.3682 33.5088 64.5442 33.4368 64.7522 33.4368C64.9522 33.4368 65.1202 33.5088 65.2562 33.6528C65.4002 33.7968 65.4722 33.9728 65.4722 34.1808C65.4722 34.3888 65.4002 34.5648 65.2562 34.7088C65.1202 34.8528 64.9522 34.9248 64.7522 34.9248ZM65.2802 35.9928V42.5688H64.1882V35.9928H65.2802ZM68.4733 36.8928V40.7688C68.4733 41.0888 68.5413 41.3168 68.6773 41.4528C68.8133 41.5808 69.0493 41.6448 69.3853 41.6448H70.1893V42.5688H69.2053C68.5973 42.5688 68.1413 42.4288 67.8373 42.1488C67.5333 41.8688 67.3813 41.4088 67.3813 40.7688V36.8928H66.5293V35.9928H67.3813V34.3368H68.4733V35.9928H70.1893V36.8928H68.4733ZM71.1044 39.2688C71.1044 38.5888 71.2404 37.9968 71.5124 37.4928C71.7844 36.9808 72.1604 36.5848 72.6404 36.3048C73.1284 36.0248 73.6844 35.8848 74.3084 35.8848C75.1164 35.8848 75.7804 36.0808 76.3004 36.4728C76.8284 36.8648 77.1764 37.4088 77.3444 38.1048H76.1684C76.0564 37.7048 75.8364 37.3888 75.5084 37.1568C75.1884 36.9248 74.7884 36.8088 74.3084 36.8088C73.6844 36.8088 73.1804 37.0248 72.7964 37.4568C72.4124 37.8808 72.2204 38.4848 72.2204 39.2688C72.2204 40.0608 72.4124 40.6728 72.7964 41.1048C73.1804 41.5368 73.6844 41.7528 74.3084 41.7528C74.7884 41.7528 75.1884 41.6408 75.5084 41.4168C75.8284 41.1928 76.0484 40.8728 76.1684 40.4568H77.3444C77.1684 41.1288 76.8164 41.6688 76.2884 42.0768C75.7604 42.4768 75.1004 42.6768 74.3084 42.6768C73.6844 42.6768 73.1284 42.5368 72.6404 42.2568C72.1604 41.9768 71.7844 41.5808 71.5124 41.0688C71.2404 40.5568 71.1044 39.9568 71.1044 39.2688ZM81.6694 42.6768C81.0534 42.6768 80.4934 42.5368 79.9894 42.2568C79.4934 41.9768 79.1014 41.5808 78.8134 41.0688C78.5334 40.5488 78.3934 39.9488 78.3934 39.2688C78.3934 38.5968 78.5374 38.0048 78.8254 37.4928C79.1214 36.9728 79.5214 36.5768 80.0254 36.3048C80.5294 36.0248 81.0934 35.8848 81.7174 35.8848C82.3414 35.8848 82.9054 36.0248 83.4094 36.3048C83.9134 36.5768 84.3094 36.9688 84.5974 37.4808C84.8934 37.9928 85.0414 38.5888 85.0414 39.2688C85.0414 39.9488 84.8894 40.5488 84.5854 41.0688C84.2894 41.5808 83.8854 41.9768 83.3734 42.2568C82.8614 42.5368 82.2934 42.6768 81.6694 42.6768ZM81.6694 41.7168C82.0614 41.7168 82.4294 41.6248 82.7734 41.4408C83.1174 41.2568 83.3934 40.9808 83.6014 40.6128C83.8174 40.2448 83.9254 39.7968 83.9254 39.2688C83.9254 38.7408 83.8214 38.2928 83.6134 37.9248C83.4054 37.5568 83.1334 37.2848 82.7974 37.1088C82.4614 36.9248 82.0974 36.8328 81.7054 36.8328C81.3054 36.8328 80.9374 36.9248 80.6014 37.1088C80.2734 37.2848 80.0094 37.5568 79.8094 37.9248C79.6094 38.2928 79.5094 38.7408 79.5094 39.2688C79.5094 39.8048 79.6054 40.2568 79.7974 40.6248C79.9974 40.9928 80.2614 41.2688 80.5894 41.4528C80.9174 41.6288 81.2774 41.7168 81.6694 41.7168ZM87.0412 34.9248C86.8332 34.9248 86.6572 34.8528 86.5132 34.7088C86.3692 34.5648 86.2972 34.3888 86.2972 34.1808C86.2972 33.9728 86.3692 33.7968 86.5132 33.6528C86.6572 33.5088 86.8332 33.4368 87.0412 33.4368C87.2412 33.4368 87.4092 33.5088 87.5452 33.6528C87.6892 33.7968 87.7612 33.9728 87.7612 34.1808C87.7612 34.3888 87.6892 34.5648 87.5452 34.7088C87.4092 34.8528 87.2412 34.9248 87.0412 34.9248ZM87.5692 35.9928V42.5688H86.4772V35.9928H87.5692ZM92.6343 35.8728C93.4343 35.8728 94.0823 36.1168 94.5783 36.6048C95.0743 37.0848 95.3223 37.7808 95.3223 38.6928V42.5688H94.2423V38.8488C94.2423 38.1928 94.0783 37.6928 93.7503 37.3488C93.4223 36.9968 92.9743 36.8208 92.4063 36.8208C91.8303 36.8208 91.3703 37.0008 91.0263 37.3608C90.6903 37.7208 90.5223 38.2448 90.5223 38.9328V42.5688H89.4303V35.9928H90.5223V36.9288C90.7383 36.5928 91.0303 36.3328 91.3983 36.1488C91.7743 35.9648 92.1863 35.8728 92.6343 35.8728Z" fill="#333333"/>
<path d="M35.8909 71.6113C35.3389 71.6113 34.8429 71.5153 34.4029 71.3233C33.9709 71.1233 33.6309 70.8513 33.3829 70.5073C33.1349 70.1553 33.0069 69.7513 32.9989 69.2953H34.1629C34.2029 69.6873 34.3629 70.0193 34.6429 70.2913C34.9309 70.5553 35.3469 70.6873 35.8909 70.6873C36.4109 70.6873 36.8189 70.5593 37.1149 70.3033C37.4189 70.0393 37.5709 69.7033 37.5709 69.2953C37.5709 68.9753 37.4829 68.7153 37.3069 68.5153C37.1309 68.3153 36.9109 68.1633 36.6469 68.0593C36.3829 67.9553 36.0269 67.8433 35.5789 67.7233C35.0269 67.5793 34.5829 67.4353 34.2469 67.2913C33.9189 67.1473 33.6349 66.9233 33.3949 66.6193C33.1629 66.3073 33.0469 65.8913 33.0469 65.3713C33.0469 64.9153 33.1629 64.5113 33.3949 64.1593C33.6269 63.8073 33.9509 63.5353 34.3669 63.3433C34.7909 63.1513 35.2749 63.0553 35.8189 63.0553C36.6029 63.0553 37.2429 63.2513 37.7389 63.6433C38.2429 64.0353 38.5269 64.5553 38.5909 65.2033H37.3909C37.3509 64.8833 37.1829 64.6033 36.8869 64.3633C36.5909 64.1153 36.1989 63.9913 35.7109 63.9913C35.2549 63.9913 34.8829 64.1113 34.5949 64.3513C34.3069 64.5833 34.1629 64.9113 34.1629 65.3353C34.1629 65.6393 34.2469 65.8873 34.4149 66.0793C34.5909 66.2713 34.8029 66.4193 35.0509 66.5233C35.3069 66.6193 35.6629 66.7313 36.1189 66.8593C36.6709 67.0113 37.1149 67.1633 37.4509 67.3153C37.7869 67.4593 38.0749 67.6873 38.3149 67.9993C38.5549 68.3033 38.6749 68.7193 38.6749 69.2473C38.6749 69.6553 38.5669 70.0393 38.3509 70.3993C38.1349 70.7593 37.8149 71.0513 37.3909 71.2753C36.9669 71.4993 36.4669 71.6113 35.8909 71.6113ZM46.2819 67.9873C46.2819 68.1953 46.2699 68.4153 46.2459 68.6473H40.9899C41.0299 69.2953 41.2499 69.8033 41.6499 70.1713C42.0579 70.5313 42.5499 70.7113 43.1259 70.7113C43.5979 70.7113 43.9899 70.6033 44.3019 70.3873C44.6219 70.1633 44.8459 69.8673 44.9739 69.4993H46.1499C45.9739 70.1313 45.6219 70.6473 45.0939 71.0473C44.5659 71.4393 43.9099 71.6353 43.1259 71.6353C42.5019 71.6353 41.9419 71.4953 41.4459 71.2153C40.9579 70.9353 40.5739 70.5393 40.2939 70.0273C40.0139 69.5073 39.8739 68.9073 39.8739 68.2273C39.8739 67.5473 40.0099 66.9513 40.2819 66.4393C40.5539 65.9273 40.9339 65.5353 41.4219 65.2633C41.9179 64.9833 42.4859 64.8433 43.1259 64.8433C43.7499 64.8433 44.3019 64.9793 44.7819 65.2513C45.2619 65.5233 45.6299 65.8993 45.8859 66.3793C46.1499 66.8513 46.2819 67.3873 46.2819 67.9873ZM45.1539 67.7593C45.1539 67.3433 45.0619 66.9873 44.8779 66.6913C44.6939 66.3873 44.4419 66.1593 44.1219 66.0073C43.8099 65.8473 43.4619 65.7673 43.0779 65.7673C42.5259 65.7673 42.0539 65.9433 41.6619 66.2953C41.2779 66.6473 41.0579 67.1353 41.0019 67.7593H45.1539ZM48.8153 62.6473V71.5273H47.7233V62.6473H48.8153ZM51.7684 62.6473V71.5273H50.6764V62.6473H51.7684ZM63.1648 65.5873C62.9328 65.0993 62.5968 64.7233 62.1568 64.4593C61.7168 64.1873 61.2048 64.0513 60.6208 64.0513C60.0368 64.0513 59.5088 64.1873 59.0368 64.4593C58.5728 64.7233 58.2048 65.1073 57.9328 65.6113C57.6688 66.1073 57.5368 66.6833 57.5368 67.3393C57.5368 67.9953 57.6688 68.5713 57.9328 69.0673C58.2048 69.5633 58.5728 69.9473 59.0368 70.2193C59.5088 70.4833 60.0368 70.6153 60.6208 70.6153C61.4368 70.6153 62.1088 70.3713 62.6368 69.8833C63.1648 69.3953 63.4728 68.7353 63.5608 67.9033H60.2248V67.0153H64.7248V67.8553C64.6608 68.5433 64.4448 69.1753 64.0768 69.7513C63.7088 70.3193 63.2248 70.7713 62.6248 71.1073C62.0248 71.4353 61.3568 71.5993 60.6208 71.5993C59.8448 71.5993 59.1368 71.4193 58.4968 71.0593C57.8568 70.6913 57.3488 70.1833 56.9728 69.5353C56.6048 68.8873 56.4208 68.1553 56.4208 67.3393C56.4208 66.5233 56.6048 65.7913 56.9728 65.1433C57.3488 64.4873 57.8568 63.9793 58.4968 63.6193C59.1368 63.2513 59.8448 63.0673 60.6208 63.0673C61.5088 63.0673 62.2928 63.2873 62.9728 63.7273C63.6608 64.1673 64.1608 64.7873 64.4728 65.5873H63.1648ZM66.7326 63.8833C66.5246 63.8833 66.3486 63.8113 66.2046 63.6673C66.0606 63.5233 65.9886 63.3473 65.9886 63.1393C65.9886 62.9313 66.0606 62.7553 66.2046 62.6113C66.3486 62.4673 66.5246 62.3953 66.7326 62.3953C66.9326 62.3953 67.1006 62.4673 67.2366 62.6113C67.3806 62.7553 67.4526 62.9313 67.4526 63.1393C67.4526 63.3473 67.3806 63.5233 67.2366 63.6673C67.1006 63.8113 66.9326 63.8833 66.7326 63.8833ZM67.2606 64.9513V71.5273H66.1686V64.9513H67.2606ZM71.7978 65.8513H70.4178V71.5273H69.3258V65.8513H68.4738V64.9513H69.3258V64.4833C69.3258 63.7473 69.5138 63.2113 69.8898 62.8753C70.2738 62.5313 70.8858 62.3593 71.7258 62.3593V63.2713C71.2458 63.2713 70.9058 63.3673 70.7058 63.5593C70.5138 63.7433 70.4178 64.0513 70.4178 64.4833V64.9513H71.7978V65.8513ZM74.403 65.8513V69.7273C74.403 70.0473 74.471 70.2753 74.607 70.4113C74.743 70.5393 74.979 70.6033 75.315 70.6033H76.119V71.5273H75.135C74.527 71.5273 74.071 71.3873 73.767 71.1073C73.463 70.8273 73.311 70.3673 73.311 69.7273V65.8513H72.459V64.9513H73.311V63.2953H74.403V64.9513H76.119V65.8513H74.403ZM77.0341 68.2273C77.0341 67.5473 77.1701 66.9553 77.4421 66.4513C77.7141 65.9393 78.0901 65.5433 78.5701 65.2633C79.0581 64.9833 79.6141 64.8433 80.2381 64.8433C81.0461 64.8433 81.7101 65.0393 82.2301 65.4313C82.7581 65.8233 83.1061 66.3673 83.2741 67.0633H82.0981C81.9861 66.6633 81.7661 66.3473 81.4381 66.1153C81.1181 65.8833 80.7181 65.7673 80.2381 65.7673C79.6141 65.7673 79.1101 65.9833 78.7261 66.4153C78.3421 66.8393 78.1501 67.4433 78.1501 68.2273C78.1501 69.0193 78.3421 69.6313 78.7261 70.0633C79.1101 70.4953 79.6141 70.7113 80.2381 70.7113C80.7181 70.7113 81.1181 70.5993 81.4381 70.3753C81.7581 70.1513 81.9781 69.8313 82.0981 69.4153H83.2741C83.0981 70.0873 82.7461 70.6273 82.2181 71.0353C81.6901 71.4353 81.0301 71.6353 80.2381 71.6353C79.6141 71.6353 79.0581 71.4953 78.5701 71.2153C78.0901 70.9353 77.7141 70.5393 77.4421 70.0273C77.1701 69.5153 77.0341 68.9153 77.0341 68.2273ZM84.3231 68.2153C84.3231 67.5433 84.4591 66.9553 84.7311 66.4513C85.0031 65.9393 85.3751 65.5433 85.8471 65.2633C86.3271 64.9833 86.8591 64.8433 87.4431 64.8433C88.0191 64.8433 88.5191 64.9673 88.9431 65.2153C89.3671 65.4633 89.6831 65.7753 89.8911 66.1513V64.9513H90.9951V71.5273H89.8911V70.3033C89.6751 70.6873 89.3511 71.0073 88.9191 71.2633C88.4951 71.5113 87.9991 71.6353 87.4311 71.6353C86.8471 71.6353 86.3191 71.4913 85.8471 71.2033C85.3751 70.9153 85.0031 70.5113 84.7311 69.9913C84.4591 69.4713 84.3231 68.8793 84.3231 68.2153ZM89.8911 68.2273C89.8911 67.7313 89.7911 67.2993 89.5911 66.9313C89.3911 66.5633 89.1191 66.2833 88.7751 66.0913C88.4391 65.8913 88.0671 65.7913 87.6591 65.7913C87.2511 65.7913 86.8791 65.8873 86.5431 66.0793C86.2071 66.2713 85.9391 66.5513 85.7391 66.9193C85.5391 67.2873 85.4391 67.7193 85.4391 68.2153C85.4391 68.7193 85.5391 69.1593 85.7391 69.5353C85.9391 69.9033 86.2071 70.1873 86.5431 70.3873C86.8791 70.5793 87.2511 70.6753 87.6591 70.6753C88.0671 70.6753 88.4391 70.5793 88.7751 70.3873C89.1191 70.1873 89.3911 69.9033 89.5911 69.5353C89.7911 69.1593 89.8911 68.7233 89.8911 68.2273ZM93.9325 66.0193C94.1245 65.6433 94.3965 65.3513 94.7485 65.1433C95.1085 64.9353 95.5445 64.8313 96.0565 64.8313V65.9593H95.7685C94.5445 65.9593 93.9325 66.6233 93.9325 67.9513V71.5273H92.8405V64.9513H93.9325V66.0193ZM96.9091 68.2153C96.9091 67.5433 97.0451 66.9553 97.3171 66.4513C97.5891 65.9393 97.9611 65.5433 98.4331 65.2633C98.9131 64.9833 99.4491 64.8433 100.041 64.8433C100.553 64.8433 101.029 64.9633 101.469 65.2033C101.909 65.4353 102.245 65.7433 102.477 66.1273V62.6473H103.581V71.5273H102.477V70.2913C102.261 70.6833 101.941 71.0073 101.517 71.2633C101.093 71.5113 100.597 71.6353 100.029 71.6353C99.4451 71.6353 98.9131 71.4913 98.4331 71.2033C97.9611 70.9153 97.5891 70.5113 97.3171 69.9913C97.0451 69.4713 96.9091 68.8793 96.9091 68.2153ZM102.477 68.2273C102.477 67.7313 102.377 67.2993 102.177 66.9313C101.977 66.5633 101.705 66.2833 101.361 66.0913C101.025 65.8913 100.653 65.7913 100.245 65.7913C99.8371 65.7913 99.4651 65.8873 99.1291 66.0793C98.7931 66.2713 98.5251 66.5513 98.3251 66.9193C98.1251 67.2873 98.0251 67.7193 98.0251 68.2153C98.0251 68.7193 98.1251 69.1593 98.3251 69.5353C98.5251 69.9033 98.7931 70.1873 99.1291 70.3873C99.4651 70.5793 99.8371 70.6753 100.245 70.6753C100.653 70.6753 101.025 70.5793 101.361 70.3873C101.705 70.1873 101.977 69.9033 102.177 69.5353C102.377 69.1593 102.477 68.7233 102.477 68.2273Z" fill="white"/>
</g>
<defs>
<filter id="filter0_d_32_3264" x="0.000488281" y="0" width="182" height="113" filterUnits="userSpaceOnUse" color-interpolation-filters="sRGB">
<feFlood flood-opacity="0" result="BackgroundImageFix"/>
<feColorMatrix in="SourceAlpha" type="matrix" values="0 0 0 0 0 0 0 0 0 0 0 0 0 0 0 0 0 0 127 0" result="hardAlpha"/>
<feOffset dy="10"/>
<feGaussianBlur stdDeviation="10"/>
<feColorMatrix type="matrix" values="0 0 0 0 0.266667 0 0 0 0 0.333333 0 0 0 0 0.443137 0 0 0 0.0418648 0"/>
<feBlend mode="normal" in2="BackgroundImageFix" result="effect1_dropShadow_32_3264"/>
<feBlend mode="normal" in="SourceGraphic" in2="effect1_dropShadow_32_3264" result="shape"/>
</filter>
<linearGradient id="paint0_linear_32_3264" x1="98.0005" y1="48.4352" x2="98.3397" y2="99.8579" gradientUnits="userSpaceOnUse">
<stop stop-color="#FD749B"/>
<stop offset="1" stop-color="#281AC8"/>
</linearGradient>
</defs>
</svg>
