<svg width="199" height="44" viewBox="0 0 199 44" fill="none" xmlns="http://www.w3.org/2000/svg">
<path d="M23.3066 14H15.9062V1.15039H23.3066V3.38281H18.6309V6.2041H22.9814V8.43652H18.6309V11.75H23.3066V14ZM27.7979 8.98145L24.6338 4.17383H27.6748L29.582 7.30273L31.5068 4.17383H34.5479L31.3486 8.98145L34.6973 14H31.6475L29.582 10.6338L27.5078 14H24.4668L27.7979 8.98145ZM40.1816 14.1758C37.123 14.1758 35.5938 12.4971 35.5938 9.13965C35.5938 7.46973 36.0098 6.19531 36.8418 5.31641C37.6738 4.43164 38.8662 3.98926 40.4189 3.98926C41.5557 3.98926 42.5752 4.21191 43.4775 4.65723L42.6865 6.73145C42.2646 6.56152 41.8721 6.42383 41.5088 6.31836C41.1455 6.20703 40.7822 6.15137 40.4189 6.15137C39.0244 6.15137 38.3271 7.1416 38.3271 9.12207C38.3271 11.0439 39.0244 12.0049 40.4189 12.0049C40.9346 12.0049 41.4121 11.9375 41.8516 11.8027C42.291 11.6621 42.7305 11.4453 43.1699 11.1523V13.4463C42.7363 13.7217 42.2969 13.9121 41.8516 14.0176C41.4121 14.123 40.8555 14.1758 40.1816 14.1758ZM54.5254 14H51.8447V8.26074C51.8447 6.84277 51.3174 6.13379 50.2627 6.13379C49.5127 6.13379 48.9707 6.38867 48.6367 6.89844C48.3027 7.4082 48.1357 8.23438 48.1357 9.37695V14H45.4551V0.324219H48.1357V3.11035C48.1357 3.32715 48.1152 3.83691 48.0742 4.63965L48.0127 5.43066H48.1533C48.751 4.46973 49.7002 3.98926 51.001 3.98926C52.1553 3.98926 53.0312 4.2998 53.6289 4.9209C54.2266 5.54199 54.5254 6.43262 54.5254 7.59277V14ZM63.5254 14L63.0068 12.6641H62.9365C62.4854 13.2324 62.0195 13.6279 61.5391 13.8506C61.0645 14.0674 60.4434 14.1758 59.6758 14.1758C58.7324 14.1758 57.9883 13.9062 57.4434 13.3672C56.9043 12.8281 56.6348 12.0605 56.6348 11.0645C56.6348 10.0215 56.998 9.25391 57.7246 8.76172C58.457 8.26367 59.5586 7.98828 61.0293 7.93555L62.7344 7.88281V7.45215C62.7344 6.45605 62.2246 5.95801 61.2051 5.95801C60.4199 5.95801 59.4971 6.19531 58.4365 6.66992L57.5488 4.85938C58.6797 4.26758 59.9336 3.97168 61.3105 3.97168C62.6289 3.97168 63.6396 4.25879 64.3428 4.83301C65.0459 5.40723 65.3975 6.28027 65.3975 7.45215V14H63.5254ZM62.7344 9.44727L61.6973 9.48242C60.918 9.50586 60.3379 9.64648 59.957 9.9043C59.5762 10.1621 59.3857 10.5547 59.3857 11.082C59.3857 11.8379 59.8193 12.2158 60.6865 12.2158C61.3076 12.2158 61.8027 12.0371 62.1719 11.6797C62.5469 11.3223 62.7344 10.8477 62.7344 10.2559V9.44727ZM77.2363 14H74.5557V8.26074C74.5557 7.55176 74.4297 7.02148 74.1777 6.66992C73.9258 6.3125 73.5244 6.13379 72.9736 6.13379C72.2236 6.13379 71.6816 6.38574 71.3477 6.88965C71.0137 7.3877 70.8467 8.2168 70.8467 9.37695V14H68.166V4.17383H70.2139L70.5742 5.43066H70.7236C71.0225 4.95605 71.4326 4.59863 71.9541 4.3584C72.4814 4.1123 73.0791 3.98926 73.7471 3.98926C74.8896 3.98926 75.7568 4.2998 76.3486 4.9209C76.9404 5.53613 77.2363 6.42676 77.2363 7.59277V14ZM88.5479 4.17383V5.53613L87.0098 5.93164C87.291 6.37109 87.4316 6.86328 87.4316 7.4082C87.4316 8.46289 87.0625 9.28613 86.3242 9.87793C85.5918 10.4639 84.5723 10.7568 83.2656 10.7568L82.7822 10.7305L82.3867 10.6865C82.1113 10.8975 81.9736 11.1318 81.9736 11.3896C81.9736 11.7764 82.4658 11.9697 83.4502 11.9697H85.1201C86.1982 11.9697 87.0186 12.2012 87.5811 12.6641C88.1494 13.127 88.4336 13.8066 88.4336 14.7031C88.4336 15.8516 87.9531 16.7422 86.9922 17.375C86.0371 18.0078 84.6631 18.3242 82.8701 18.3242C81.499 18.3242 80.4502 18.084 79.7236 17.6035C79.0029 17.1289 78.6426 16.4609 78.6426 15.5996C78.6426 15.0078 78.8271 14.5127 79.1963 14.1143C79.5654 13.7158 80.1074 13.4316 80.8223 13.2617C80.5469 13.1445 80.3066 12.9541 80.1016 12.6904C79.8965 12.4209 79.7939 12.1367 79.7939 11.8379C79.7939 11.4629 79.9023 11.1523 80.1191 10.9062C80.3359 10.6543 80.6494 10.4082 81.0596 10.168C80.5439 9.94531 80.1338 9.58789 79.8291 9.0957C79.5303 8.60352 79.3809 8.02344 79.3809 7.35547C79.3809 6.2832 79.7295 5.4541 80.4268 4.86816C81.124 4.28223 82.1201 3.98926 83.415 3.98926C83.6904 3.98926 84.0156 4.01562 84.3906 4.06836C84.7715 4.11523 85.0146 4.15039 85.1201 4.17383H88.5479ZM80.9629 15.3887C80.9629 15.7578 81.1387 16.0479 81.4902 16.2588C81.8477 16.4697 82.3457 16.5752 82.9844 16.5752C83.9453 16.5752 84.6982 16.4434 85.2432 16.1797C85.7881 15.916 86.0605 15.5557 86.0605 15.0986C86.0605 14.7295 85.8994 14.4746 85.5771 14.334C85.2549 14.1934 84.7568 14.123 84.083 14.123H82.6943C82.2021 14.123 81.7891 14.2373 81.4551 14.4658C81.127 14.7002 80.9629 15.0078 80.9629 15.3887ZM81.9385 7.39062C81.9385 7.92383 82.0586 8.3457 82.2988 8.65625C82.5449 8.9668 82.917 9.12207 83.415 9.12207C83.9189 9.12207 84.2881 8.9668 84.5225 8.65625C84.7568 8.3457 84.874 7.92383 84.874 7.39062C84.874 6.20703 84.3877 5.61523 83.415 5.61523C82.4307 5.61523 81.9385 6.20703 81.9385 7.39062ZM94.2432 5.89648C93.6748 5.89648 93.2295 6.07812 92.9072 6.44141C92.585 6.79883 92.4004 7.30859 92.3535 7.9707H96.1152C96.1035 7.30859 95.9307 6.79883 95.5967 6.44141C95.2627 6.07812 94.8115 5.89648 94.2432 5.89648ZM94.6211 14.1758C93.0391 14.1758 91.8027 13.7393 90.9121 12.8662C90.0215 11.9932 89.5762 10.7568 89.5762 9.15723C89.5762 7.51074 89.9863 6.23926 90.8066 5.34277C91.6328 4.44043 92.7725 3.98926 94.2256 3.98926C95.6143 3.98926 96.6953 4.38477 97.4688 5.17578C98.2422 5.9668 98.6289 7.05957 98.6289 8.4541V9.75488H92.292C92.3213 10.5166 92.5469 11.1113 92.9688 11.5391C93.3906 11.9668 93.9824 12.1807 94.7441 12.1807C95.3359 12.1807 95.8955 12.1191 96.4229 11.9961C96.9502 11.873 97.501 11.6768 98.0752 11.4072V13.4814C97.6064 13.7158 97.1055 13.8887 96.5723 14C96.0391 14.1172 95.3887 14.1758 94.6211 14.1758ZM109.475 5.79102C110.717 5.79102 111.704 6.13965 112.437 6.83691C113.175 7.53418 113.544 8.48926 113.544 9.70215C113.544 11.1377 113.102 12.2422 112.217 13.0156C111.332 13.7891 110.066 14.1758 108.42 14.1758C106.99 14.1758 105.836 13.9443 104.957 13.4814V11.1348C105.42 11.3809 105.959 11.583 106.574 11.7412C107.189 11.8936 107.772 11.9697 108.323 11.9697C109.981 11.9697 110.811 11.29 110.811 9.93066C110.811 8.63574 109.952 7.98828 108.235 7.98828C107.925 7.98828 107.582 8.02051 107.207 8.08496C106.832 8.14355 106.527 8.20801 106.293 8.27832L105.212 7.69824L105.695 1.15039H112.665V3.45312H108.077L107.84 5.97559L108.147 5.91406C108.505 5.83203 108.947 5.79102 109.475 5.79102ZM125.84 14.1758C124.686 14.1758 123.78 13.7568 123.124 12.9189H122.983C123.077 13.7393 123.124 14.2139 123.124 14.3428V18.3242H120.443V4.17383H122.623L123.001 5.44824H123.124C123.751 4.47559 124.68 3.98926 125.91 3.98926C127.07 3.98926 127.979 4.4375 128.635 5.33398C129.291 6.23047 129.619 7.47559 129.619 9.06934C129.619 10.1182 129.464 11.0293 129.153 11.8027C128.849 12.5762 128.412 13.165 127.844 13.5693C127.275 13.9736 126.607 14.1758 125.84 14.1758ZM125.049 6.13379C124.387 6.13379 123.903 6.33887 123.599 6.74902C123.294 7.15332 123.136 7.82422 123.124 8.76172V9.05176C123.124 10.1064 123.279 10.8623 123.59 11.3193C123.906 11.7764 124.404 12.0049 125.084 12.0049C126.285 12.0049 126.886 11.0146 126.886 9.03418C126.886 8.06738 126.736 7.34375 126.438 6.86328C126.145 6.37695 125.682 6.13379 125.049 6.13379ZM137.318 3.98926C137.682 3.98926 137.983 4.01562 138.224 4.06836L138.021 6.58203C137.805 6.52344 137.541 6.49414 137.23 6.49414C136.375 6.49414 135.707 6.71387 135.227 7.15332C134.752 7.59277 134.515 8.20801 134.515 8.99902V14H131.834V4.17383H133.864L134.26 5.82617H134.392C134.696 5.27539 135.106 4.83301 135.622 4.49902C136.144 4.15918 136.709 3.98926 137.318 3.98926ZM142.144 9.06934C142.144 10.042 142.302 10.7773 142.618 11.2754C142.94 11.7734 143.462 12.0225 144.183 12.0225C144.897 12.0225 145.41 11.7764 145.721 11.2842C146.037 10.7861 146.195 10.0479 146.195 9.06934C146.195 8.09668 146.037 7.36719 145.721 6.88086C145.404 6.39453 144.886 6.15137 144.165 6.15137C143.45 6.15137 142.935 6.39453 142.618 6.88086C142.302 7.36133 142.144 8.09082 142.144 9.06934ZM148.938 9.06934C148.938 10.6689 148.516 11.9199 147.672 12.8223C146.828 13.7246 145.653 14.1758 144.147 14.1758C143.204 14.1758 142.372 13.9707 141.651 13.5605C140.931 13.1445 140.377 12.5498 139.99 11.7764C139.604 11.0029 139.41 10.1006 139.41 9.06934C139.41 7.46387 139.829 6.21582 140.667 5.3252C141.505 4.43457 142.683 3.98926 144.2 3.98926C145.144 3.98926 145.976 4.19434 146.696 4.60449C147.417 5.01465 147.971 5.60352 148.357 6.37109C148.744 7.13867 148.938 8.03809 148.938 9.06934ZM154.264 14.1758C153.109 14.1758 152.201 13.7275 151.539 12.8311C150.883 11.9346 150.555 10.6924 150.555 9.10449C150.555 7.49316 150.889 6.23926 151.557 5.34277C152.23 4.44043 153.156 3.98926 154.334 3.98926C155.57 3.98926 156.514 4.46973 157.164 5.43066H157.252C157.117 4.69824 157.05 4.04492 157.05 3.4707V0.324219H159.739V14H157.683L157.164 12.7256H157.05C156.44 13.6924 155.512 14.1758 154.264 14.1758ZM155.204 12.04C155.89 12.04 156.391 11.8408 156.707 11.4424C157.029 11.0439 157.205 10.3672 157.234 9.41211V9.12207C157.234 8.06738 157.07 7.31152 156.742 6.85449C156.42 6.39746 155.893 6.16895 155.16 6.16895C154.562 6.16895 154.097 6.42383 153.763 6.93359C153.435 7.4375 153.271 8.17285 153.271 9.13965C153.271 10.1064 153.438 10.833 153.771 11.3193C154.105 11.7998 154.583 12.04 155.204 12.04ZM169.504 14L169.144 12.7432H169.003C168.716 13.2002 168.309 13.5547 167.781 13.8066C167.254 14.0527 166.653 14.1758 165.979 14.1758C164.825 14.1758 163.955 13.8682 163.369 13.2529C162.783 12.6318 162.49 11.7412 162.49 10.5811V4.17383H165.171V9.91309C165.171 10.6221 165.297 11.1553 165.549 11.5127C165.801 11.8643 166.202 12.04 166.753 12.04C167.503 12.04 168.045 11.791 168.379 11.293C168.713 10.7891 168.88 9.95703 168.88 8.79688V4.17383H171.561V14H169.504ZM178.363 14.1758C175.305 14.1758 173.775 12.4971 173.775 9.13965C173.775 7.46973 174.191 6.19531 175.023 5.31641C175.855 4.43164 177.048 3.98926 178.601 3.98926C179.737 3.98926 180.757 4.21191 181.659 4.65723L180.868 6.73145C180.446 6.56152 180.054 6.42383 179.69 6.31836C179.327 6.20703 178.964 6.15137 178.601 6.15137C177.206 6.15137 176.509 7.1416 176.509 9.12207C176.509 11.0439 177.206 12.0049 178.601 12.0049C179.116 12.0049 179.594 11.9375 180.033 11.8027C180.473 11.6621 180.912 11.4453 181.352 11.1523V13.4463C180.918 13.7217 180.479 13.9121 180.033 14.0176C179.594 14.123 179.037 14.1758 178.363 14.1758ZM187.776 12.04C188.245 12.04 188.808 11.9375 189.464 11.7324V13.7275C188.796 14.0264 187.976 14.1758 187.003 14.1758C185.931 14.1758 185.148 13.9062 184.656 13.3672C184.17 12.8223 183.927 12.0078 183.927 10.9238V6.18652H182.644V5.05273L184.12 4.15625L184.894 2.08203H186.607V4.17383H189.358V6.18652H186.607V10.9238C186.607 11.3047 186.713 11.5859 186.924 11.7676C187.141 11.9492 187.425 12.04 187.776 12.04ZM198.314 11.082C198.314 12.0898 197.963 12.8574 197.26 13.3848C196.562 13.9121 195.517 14.1758 194.122 14.1758C193.407 14.1758 192.798 14.126 192.294 14.0264C191.79 13.9326 191.318 13.792 190.879 13.6045V11.3896C191.377 11.624 191.937 11.8203 192.558 11.9785C193.185 12.1367 193.735 12.2158 194.21 12.2158C195.183 12.2158 195.669 11.9346 195.669 11.3721C195.669 11.1611 195.604 10.9912 195.476 10.8623C195.347 10.7275 195.124 10.5781 194.808 10.4141C194.491 10.2441 194.069 10.0479 193.542 9.8252C192.786 9.50879 192.229 9.21582 191.872 8.94629C191.521 8.67676 191.263 8.36914 191.099 8.02344C190.94 7.67188 190.861 7.24121 190.861 6.73145C190.861 5.8584 191.198 5.18457 191.872 4.70996C192.552 4.22949 193.513 3.98926 194.755 3.98926C195.938 3.98926 197.09 4.24707 198.209 4.7627L197.4 6.69629C196.908 6.48535 196.448 6.3125 196.021 6.17773C195.593 6.04297 195.156 5.97559 194.711 5.97559C193.92 5.97559 193.524 6.18945 193.524 6.61719C193.524 6.85742 193.65 7.06543 193.902 7.24121C194.16 7.41699 194.72 7.67773 195.581 8.02344C196.349 8.33398 196.911 8.62402 197.269 8.89355C197.626 9.16309 197.89 9.47363 198.06 9.8252C198.229 10.1768 198.314 10.5957 198.314 11.082ZM7.48633 39L6.96777 37.6641H6.89746C6.44629 38.2324 5.98047 38.6279 5.5 38.8506C5.02539 39.0674 4.4043 39.1758 3.63672 39.1758C2.69336 39.1758 1.94922 38.9062 1.4043 38.3672C0.865234 37.8281 0.595703 37.0605 0.595703 36.0645C0.595703 35.0215 0.958984 34.2539 1.68555 33.7617C2.41797 33.2637 3.51953 32.9883 4.99023 32.9355L6.69531 32.8828V32.4521C6.69531 31.4561 6.18555 30.958 5.16602 30.958C4.38086 30.958 3.45801 31.1953 2.39746 31.6699L1.50977 29.8594C2.64062 29.2676 3.89453 28.9717 5.27148 28.9717C6.58984 28.9717 7.60059 29.2588 8.30371 29.833C9.00684 30.4072 9.3584 31.2803 9.3584 32.4521V39H7.48633ZM6.69531 34.4473L5.6582 34.4824C4.87891 34.5059 4.29883 34.6465 3.91797 34.9043C3.53711 35.1621 3.34668 35.5547 3.34668 36.082C3.34668 36.8379 3.78027 37.2158 4.64746 37.2158C5.26855 37.2158 5.76367 37.0371 6.13281 36.6797C6.50781 36.3223 6.69531 35.8477 6.69531 35.2559V34.4473ZM21.1973 39H18.5166V33.2607C18.5166 32.5518 18.3906 32.0215 18.1387 31.6699C17.8867 31.3125 17.4854 31.1338 16.9346 31.1338C16.1846 31.1338 15.6426 31.3857 15.3086 31.8896C14.9746 32.3877 14.8076 33.2168 14.8076 34.377V39H12.127V29.1738H14.1748L14.5352 30.4307H14.6846C14.9834 29.9561 15.3936 29.5986 15.915 29.3584C16.4424 29.1123 17.04 28.9893 17.708 28.9893C18.8506 28.9893 19.7178 29.2998 20.3096 29.9209C20.9014 30.5361 21.1973 31.4268 21.1973 32.5928V39ZM27.0684 39.1758C25.9141 39.1758 25.0059 38.7275 24.3438 37.8311C23.6875 36.9346 23.3594 35.6924 23.3594 34.1045C23.3594 32.4932 23.6934 31.2393 24.3613 30.3428C25.0352 29.4404 25.9609 28.9893 27.1387 28.9893C28.375 28.9893 29.3184 29.4697 29.9688 30.4307H30.0566C29.9219 29.6982 29.8545 29.0449 29.8545 28.4707V25.3242H32.5439V39H30.4873L29.9688 37.7256H29.8545C29.2451 38.6924 28.3164 39.1758 27.0684 39.1758ZM28.0088 37.04C28.6943 37.04 29.1953 36.8408 29.5117 36.4424C29.834 36.0439 30.0098 35.3672 30.0391 34.4121V34.1221C30.0391 33.0674 29.875 32.3115 29.5469 31.8545C29.2246 31.3975 28.6973 31.1689 27.9648 31.1689C27.3672 31.1689 26.9014 31.4238 26.5674 31.9336C26.2393 32.4375 26.0752 33.1729 26.0752 34.1396C26.0752 35.1064 26.2422 35.833 26.5762 36.3193C26.9102 36.7998 27.3877 37.04 28.0088 37.04ZM48.5752 29.1738V30.5361L47.0371 30.9316C47.3184 31.3711 47.459 31.8633 47.459 32.4082C47.459 33.4629 47.0898 34.2861 46.3516 34.8779C45.6191 35.4639 44.5996 35.7568 43.293 35.7568L42.8096 35.7305L42.4141 35.6865C42.1387 35.8975 42.001 36.1318 42.001 36.3896C42.001 36.7764 42.4932 36.9697 43.4775 36.9697H45.1475C46.2256 36.9697 47.0459 37.2012 47.6084 37.6641C48.1768 38.127 48.4609 38.8066 48.4609 39.7031C48.4609 40.8516 47.9805 41.7422 47.0195 42.375C46.0645 43.0078 44.6904 43.3242 42.8975 43.3242C41.5264 43.3242 40.4775 43.084 39.751 42.6035C39.0303 42.1289 38.6699 41.4609 38.6699 40.5996C38.6699 40.0078 38.8545 39.5127 39.2236 39.1143C39.5928 38.7158 40.1348 38.4316 40.8496 38.2617C40.5742 38.1445 40.334 37.9541 40.1289 37.6904C39.9238 37.4209 39.8213 37.1367 39.8213 36.8379C39.8213 36.4629 39.9297 36.1523 40.1465 35.9062C40.3633 35.6543 40.6768 35.4082 41.0869 35.168C40.5713 34.9453 40.1611 34.5879 39.8564 34.0957C39.5576 33.6035 39.4082 33.0234 39.4082 32.3555C39.4082 31.2832 39.7568 30.4541 40.4541 29.8682C41.1514 29.2822 42.1475 28.9893 43.4424 28.9893C43.7178 28.9893 44.043 29.0156 44.418 29.0684C44.7988 29.1152 45.042 29.1504 45.1475 29.1738H48.5752ZM40.9902 40.3887C40.9902 40.7578 41.166 41.0479 41.5176 41.2588C41.875 41.4697 42.373 41.5752 43.0117 41.5752C43.9727 41.5752 44.7256 41.4434 45.2705 41.1797C45.8154 40.916 46.0879 40.5557 46.0879 40.0986C46.0879 39.7295 45.9268 39.4746 45.6045 39.334C45.2822 39.1934 44.7842 39.123 44.1104 39.123H42.7217C42.2295 39.123 41.8164 39.2373 41.4824 39.4658C41.1543 39.7002 40.9902 40.0078 40.9902 40.3887ZM41.9658 32.3906C41.9658 32.9238 42.0859 33.3457 42.3262 33.6562C42.5723 33.9668 42.9443 34.1221 43.4424 34.1221C43.9463 34.1221 44.3154 33.9668 44.5498 33.6562C44.7842 33.3457 44.9014 32.9238 44.9014 32.3906C44.9014 31.207 44.415 30.6152 43.4424 30.6152C42.458 30.6152 41.9658 31.207 41.9658 32.3906ZM54.2705 30.8965C53.7021 30.8965 53.2568 31.0781 52.9346 31.4414C52.6123 31.7988 52.4277 32.3086 52.3809 32.9707H56.1426C56.1309 32.3086 55.958 31.7988 55.624 31.4414C55.29 31.0781 54.8389 30.8965 54.2705 30.8965ZM54.6484 39.1758C53.0664 39.1758 51.8301 38.7393 50.9395 37.8662C50.0488 36.9932 49.6035 35.7568 49.6035 34.1572C49.6035 32.5107 50.0137 31.2393 50.834 30.3428C51.6602 29.4404 52.7998 28.9893 54.2529 28.9893C55.6416 28.9893 56.7227 29.3848 57.4961 30.1758C58.2695 30.9668 58.6562 32.0596 58.6562 33.4541V34.7549H52.3193C52.3486 35.5166 52.5742 36.1113 52.9961 36.5391C53.418 36.9668 54.0098 37.1807 54.7715 37.1807C55.3633 37.1807 55.9229 37.1191 56.4502 36.9961C56.9775 36.873 57.5283 36.6768 58.1025 36.4072V38.4814C57.6338 38.7158 57.1328 38.8887 56.5996 39C56.0664 39.1172 55.416 39.1758 54.6484 39.1758ZM64.9756 37.04C65.4443 37.04 66.0068 36.9375 66.6631 36.7324V38.7275C65.9951 39.0264 65.1748 39.1758 64.2021 39.1758C63.1299 39.1758 62.3477 38.9062 61.8555 38.3672C61.3691 37.8223 61.126 37.0078 61.126 35.9238V31.1865H59.8428V30.0527L61.3193 29.1562L62.0928 27.082H63.8066V29.1738H66.5576V31.1865H63.8066V35.9238C63.8066 36.3047 63.9121 36.5859 64.123 36.7676C64.3398 36.9492 64.624 37.04 64.9756 37.04ZM79.3633 39H76.6475V31.5645L76.6738 30.3428L76.7178 29.0068C76.2666 29.458 75.9531 29.7539 75.7773 29.8945L74.3008 31.0811L72.9912 29.4463L77.1309 26.1504H79.3633V39ZM93.7246 31.1865H91.4043V39H88.7236V31.1865H87.2471V29.8945L88.7236 29.1738V28.4531C88.7236 27.334 88.999 26.5166 89.5498 26.001C90.1006 25.4854 90.9824 25.2275 92.1953 25.2275C93.1211 25.2275 93.9443 25.3652 94.665 25.6406L93.9795 27.6094C93.4404 27.4395 92.9424 27.3545 92.4854 27.3545C92.1045 27.3545 91.8291 27.4688 91.6592 27.6973C91.4893 27.9199 91.4043 28.207 91.4043 28.5586V29.1738H93.7246V31.1865ZM100.756 28.9893C101.119 28.9893 101.421 29.0156 101.661 29.0684L101.459 31.582C101.242 31.5234 100.979 31.4941 100.668 31.4941C99.8125 31.4941 99.1445 31.7139 98.6641 32.1533C98.1895 32.5928 97.9521 33.208 97.9521 33.999V39H95.2715V29.1738H97.3018L97.6973 30.8262H97.8291C98.1338 30.2754 98.5439 29.833 99.0596 29.499C99.5811 29.1592 100.146 28.9893 100.756 28.9893ZM107.515 30.8965C106.946 30.8965 106.501 31.0781 106.179 31.4414C105.856 31.7988 105.672 32.3086 105.625 32.9707H109.387C109.375 32.3086 109.202 31.7988 108.868 31.4414C108.534 31.0781 108.083 30.8965 107.515 30.8965ZM107.893 39.1758C106.311 39.1758 105.074 38.7393 104.184 37.8662C103.293 36.9932 102.848 35.7568 102.848 34.1572C102.848 32.5107 103.258 31.2393 104.078 30.3428C104.904 29.4404 106.044 28.9893 107.497 28.9893C108.886 28.9893 109.967 29.3848 110.74 30.1758C111.514 30.9668 111.9 32.0596 111.9 33.4541V34.7549H105.563C105.593 35.5166 105.818 36.1113 106.24 36.5391C106.662 36.9668 107.254 37.1807 108.016 37.1807C108.607 37.1807 109.167 37.1191 109.694 36.9961C110.222 36.873 110.772 36.6768 111.347 36.4072V38.4814C110.878 38.7158 110.377 38.8887 109.844 39C109.311 39.1172 108.66 39.1758 107.893 39.1758ZM118.149 30.8965C117.581 30.8965 117.136 31.0781 116.813 31.4414C116.491 31.7988 116.307 32.3086 116.26 32.9707H120.021C120.01 32.3086 119.837 31.7988 119.503 31.4414C119.169 31.0781 118.718 30.8965 118.149 30.8965ZM118.527 39.1758C116.945 39.1758 115.709 38.7393 114.818 37.8662C113.928 36.9932 113.482 35.7568 113.482 34.1572C113.482 32.5107 113.893 31.2393 114.713 30.3428C115.539 29.4404 116.679 28.9893 118.132 28.9893C119.521 28.9893 120.602 29.3848 121.375 30.1758C122.148 30.9668 122.535 32.0596 122.535 33.4541V34.7549H116.198C116.228 35.5166 116.453 36.1113 116.875 36.5391C117.297 36.9668 117.889 37.1807 118.65 37.1807C119.242 37.1807 119.802 37.1191 120.329 36.9961C120.856 36.873 121.407 36.6768 121.981 36.4072V38.4814C121.513 38.7158 121.012 38.8887 120.479 39C119.945 39.1172 119.295 39.1758 118.527 39.1758ZM134.787 39.1758C133.633 39.1758 132.728 38.7568 132.071 37.9189H131.931C132.024 38.7393 132.071 39.2139 132.071 39.3428V43.3242H129.391V29.1738H131.57L131.948 30.4482H132.071C132.698 29.4756 133.627 28.9893 134.857 28.9893C136.018 28.9893 136.926 29.4375 137.582 30.334C138.238 31.2305 138.566 32.4756 138.566 34.0693C138.566 35.1182 138.411 36.0293 138.101 36.8027C137.796 37.5762 137.359 38.165 136.791 38.5693C136.223 38.9736 135.555 39.1758 134.787 39.1758ZM133.996 31.1338C133.334 31.1338 132.851 31.3389 132.546 31.749C132.241 32.1533 132.083 32.8242 132.071 33.7617V34.0518C132.071 35.1064 132.227 35.8623 132.537 36.3193C132.854 36.7764 133.352 37.0049 134.031 37.0049C135.232 37.0049 135.833 36.0146 135.833 34.0342C135.833 33.0674 135.684 32.3438 135.385 31.8633C135.092 31.377 134.629 31.1338 133.996 31.1338ZM146.266 28.9893C146.629 28.9893 146.931 29.0156 147.171 29.0684L146.969 31.582C146.752 31.5234 146.488 31.4941 146.178 31.4941C145.322 31.4941 144.654 31.7139 144.174 32.1533C143.699 32.5928 143.462 33.208 143.462 33.999V39H140.781V29.1738H142.812L143.207 30.8262H143.339C143.644 30.2754 144.054 29.833 144.569 29.499C145.091 29.1592 145.656 28.9893 146.266 28.9893ZM151.091 34.0693C151.091 35.042 151.249 35.7773 151.565 36.2754C151.888 36.7734 152.409 37.0225 153.13 37.0225C153.845 37.0225 154.357 36.7764 154.668 36.2842C154.984 35.7861 155.143 35.0479 155.143 34.0693C155.143 33.0967 154.984 32.3672 154.668 31.8809C154.352 31.3945 153.833 31.1514 153.112 31.1514C152.397 31.1514 151.882 31.3945 151.565 31.8809C151.249 32.3613 151.091 33.0908 151.091 34.0693ZM157.885 34.0693C157.885 35.6689 157.463 36.9199 156.619 37.8223C155.775 38.7246 154.601 39.1758 153.095 39.1758C152.151 39.1758 151.319 38.9707 150.599 38.5605C149.878 38.1445 149.324 37.5498 148.938 36.7764C148.551 36.0029 148.357 35.1006 148.357 34.0693C148.357 32.4639 148.776 31.2158 149.614 30.3252C150.452 29.4346 151.63 28.9893 153.147 28.9893C154.091 28.9893 154.923 29.1943 155.644 29.6045C156.364 30.0146 156.918 30.6035 157.305 31.3711C157.691 32.1387 157.885 33.0381 157.885 34.0693ZM163.211 39.1758C162.057 39.1758 161.148 38.7275 160.486 37.8311C159.83 36.9346 159.502 35.6924 159.502 34.1045C159.502 32.4932 159.836 31.2393 160.504 30.3428C161.178 29.4404 162.104 28.9893 163.281 28.9893C164.518 28.9893 165.461 29.4697 166.111 30.4307H166.199C166.064 29.6982 165.997 29.0449 165.997 28.4707V25.3242H168.687V39H166.63L166.111 37.7256H165.997C165.388 38.6924 164.459 39.1758 163.211 39.1758ZM164.151 37.04C164.837 37.04 165.338 36.8408 165.654 36.4424C165.977 36.0439 166.152 35.3672 166.182 34.4121V34.1221C166.182 33.0674 166.018 32.3115 165.689 31.8545C165.367 31.3975 164.84 31.1689 164.107 31.1689C163.51 31.1689 163.044 31.4238 162.71 31.9336C162.382 32.4375 162.218 33.1729 162.218 34.1396C162.218 35.1064 162.385 35.833 162.719 36.3193C163.053 36.7998 163.53 37.04 164.151 37.04ZM178.451 39L178.091 37.7432H177.95C177.663 38.2002 177.256 38.5547 176.729 38.8066C176.201 39.0527 175.601 39.1758 174.927 39.1758C173.772 39.1758 172.902 38.8682 172.316 38.2529C171.73 37.6318 171.438 36.7412 171.438 35.5811V29.1738H174.118V34.9131C174.118 35.6221 174.244 36.1553 174.496 36.5127C174.748 36.8643 175.149 37.04 175.7 37.04C176.45 37.04 176.992 36.791 177.326 36.293C177.66 35.7891 177.827 34.957 177.827 33.7969V29.1738H180.508V39H178.451ZM187.311 39.1758C184.252 39.1758 182.723 37.4971 182.723 34.1396C182.723 32.4697 183.139 31.1953 183.971 30.3164C184.803 29.4316 185.995 28.9893 187.548 28.9893C188.685 28.9893 189.704 29.2119 190.606 29.6572L189.815 31.7314C189.394 31.5615 189.001 31.4238 188.638 31.3184C188.274 31.207 187.911 31.1514 187.548 31.1514C186.153 31.1514 185.456 32.1416 185.456 34.1221C185.456 36.0439 186.153 37.0049 187.548 37.0049C188.063 37.0049 188.541 36.9375 188.98 36.8027C189.42 36.6621 189.859 36.4453 190.299 36.1523V38.4463C189.865 38.7217 189.426 38.9121 188.98 39.0176C188.541 39.123 187.984 39.1758 187.311 39.1758ZM196.724 37.04C197.192 37.04 197.755 36.9375 198.411 36.7324V38.7275C197.743 39.0264 196.923 39.1758 195.95 39.1758C194.878 39.1758 194.096 38.9062 193.604 38.3672C193.117 37.8223 192.874 37.0078 192.874 35.9238V31.1865H191.591V30.0527L193.067 29.1562L193.841 27.082H195.555V29.1738H198.306V31.1865H195.555V35.9238C195.555 36.3047 195.66 36.5859 195.871 36.7676C196.088 36.9492 196.372 37.04 196.724 37.04Z" fill="url(#paint0_linear_32_3666)"/>
<defs>
<linearGradient id="paint0_linear_32_3666" x1="104.95" y1="-12.8704" x2="105.626" y2="75.7882" gradientUnits="userSpaceOnUse">
<stop stop-color="#FD749B"/>
<stop offset="1" stop-color="#281AC8"/>
</linearGradient>
</defs>
</svg>
