<svg width="114" height="25" viewBox="0 0 114 25" fill="none" xmlns="http://www.w3.org/2000/svg">
<g id="Logo">
<g id="CoinBase">
<mask id="path-1-outside-1_32_2752" maskUnits="userSpaceOnUse" x="36.0117" y="8.37451" width="78" height="14" fill="black">
<rect fill="white" x="36.0117" y="8.37451" width="78" height="14"/>
<path d="M37.0117 16.0961C37.0117 14.9867 37.2634 13.9915 37.7667 13.1105C38.27 12.2187 38.9539 11.5226 39.8183 11.0223C40.6937 10.522 41.662 10.2718 42.7234 10.2718C43.9707 10.2718 45.0595 10.5709 45.9895 11.1691C46.9196 11.7673 47.598 12.6157 48.0247 13.7142H46.2357C45.9184 13.029 45.4588 12.5015 44.857 12.1317C44.2662 11.7619 43.555 11.577 42.7234 11.577C41.9246 11.577 41.2079 11.7619 40.5733 12.1317C39.9387 12.5015 39.4408 13.029 39.0797 13.7142C38.7186 14.3885 38.5381 15.1825 38.5381 16.0961C38.5381 16.9989 38.7186 17.7928 39.0797 18.478C39.4408 19.1524 39.9387 19.6744 40.5733 20.0442C41.2079 20.414 41.9246 20.5989 42.7234 20.5989C43.555 20.5989 44.2662 20.4195 44.857 20.0606C45.4588 19.6908 45.9184 19.1633 46.2357 18.478H48.0247C47.598 19.5657 46.9196 20.4086 45.9895 21.0068C45.0595 21.5941 43.9707 21.8878 42.7234 21.8878C41.662 21.8878 40.6937 21.6431 39.8183 21.1536C38.9539 20.6533 38.27 19.9627 37.7667 19.0817C37.2634 18.2007 37.0117 17.2055 37.0117 16.0961Z"/>
<path d="M54.1707 21.9367C53.3281 21.9367 52.5622 21.7464 51.8729 21.3657C51.1945 20.985 50.6583 20.4467 50.2644 19.7506C49.8814 19.0436 49.69 18.2279 49.69 17.3034C49.69 16.3898 49.8869 15.5849 50.2808 14.8888C50.6857 14.1819 51.2328 13.6435 51.9221 13.2737C52.6114 12.893 53.3828 12.7027 54.2363 12.7027C55.0898 12.7027 55.8612 12.893 56.5505 13.2737C57.2398 13.6435 57.7815 14.1764 58.1754 14.8725C58.5802 15.5686 58.7826 16.3789 58.7826 17.3034C58.7826 18.2279 58.5748 19.0436 58.159 19.7506C57.7541 20.4467 57.2016 20.985 56.5013 21.3657C55.801 21.7464 55.0241 21.9367 54.1707 21.9367ZM54.1707 20.6316C54.7068 20.6316 55.2101 20.5065 55.6806 20.2563C56.1511 20.0062 56.5286 19.6309 56.8131 19.1306C57.1085 18.6303 57.2563 18.0212 57.2563 17.3034C57.2563 16.5855 57.114 15.9765 56.8295 15.4762C56.545 14.9758 56.173 14.606 55.7135 14.3668C55.2539 14.1166 54.756 13.9915 54.2199 13.9915C53.6728 13.9915 53.1695 14.1166 52.7099 14.3668C52.2613 14.606 51.9002 14.9758 51.6267 15.4762C51.3531 15.9765 51.2164 16.5855 51.2164 17.3034C51.2164 18.0321 51.3477 18.6466 51.6103 19.1469C51.8838 19.6472 52.2449 20.0225 52.6935 20.2726C53.1421 20.5119 53.6345 20.6316 54.1707 20.6316Z"/>
<path d="M61.5178 11.3975C61.2333 11.3975 60.9926 11.2996 60.7957 11.1039C60.5987 10.9081 60.5002 10.6688 60.5002 10.386C60.5002 10.1032 60.5987 9.86395 60.7957 9.66817C60.9926 9.4724 61.2333 9.37451 61.5178 9.37451C61.7914 9.37451 62.0211 9.4724 62.2072 9.66817C62.4041 9.86395 62.5026 10.1032 62.5026 10.386C62.5026 10.6688 62.4041 10.9081 62.2072 11.1039C62.0211 11.2996 61.7914 11.3975 61.5178 11.3975ZM62.24 12.8495V21.7899H60.7464V12.8495H62.24Z"/>
<path d="M69.1677 12.6864C70.2619 12.6864 71.1482 13.0181 71.8266 13.6816C72.505 14.3341 72.8442 15.2804 72.8442 16.5203V21.7899H71.367V16.7324C71.367 15.8405 71.1427 15.1607 70.6941 14.6931C70.2455 14.2145 69.6327 13.9752 68.8559 13.9752C68.0681 13.9752 67.4389 14.2199 66.9684 14.7094C66.5088 15.1988 66.2791 15.9112 66.2791 16.8466V21.7899H64.7855V12.8495H66.2791V14.122C66.5745 13.6652 66.9739 13.3118 67.4772 13.0616C67.9915 12.8114 68.555 12.6864 69.1677 12.6864Z"/>
<path d="M81.012 15.933C81.4278 15.9982 81.8053 16.1668 82.1445 16.4387C82.4946 16.7106 82.7682 17.0478 82.9651 17.4502C83.173 17.8526 83.277 18.2823 83.277 18.7391C83.277 19.3155 83.1292 19.8376 82.8338 20.3053C82.5384 20.7621 82.1062 21.1264 81.5372 21.3983C80.9792 21.6594 80.3172 21.7899 79.5513 21.7899H75.2839V10.4186H79.3871C80.164 10.4186 80.826 10.5492 81.3731 10.8102C81.9202 11.0603 82.3305 11.403 82.604 11.838C82.8776 12.2731 83.0144 12.7625 83.0144 13.3063C83.0144 13.9807 82.8283 14.5408 82.4563 14.9867C82.0952 15.4218 81.6138 15.7372 81.012 15.933ZM76.7775 15.3293H79.2886C79.9889 15.3293 80.5305 15.1662 80.9135 14.8399C81.2965 14.5136 81.488 14.0622 81.488 13.4858C81.488 12.9093 81.2965 12.458 80.9135 12.1317C80.5305 11.8054 79.978 11.6422 79.2558 11.6422H76.7775V15.3293ZM79.4199 20.5663C80.164 20.5663 80.7439 20.3923 81.1597 20.0442C81.5755 19.6962 81.7834 19.2122 81.7834 18.5922C81.7834 17.9614 81.5646 17.4665 81.1269 17.1076C80.6892 16.7378 80.1038 16.5529 79.3707 16.5529H76.7775V20.5663H79.4199Z"/>
<path d="M84.7915 17.2871C84.7915 16.3735 84.9776 15.574 85.3496 14.8888C85.7216 14.1927 86.2304 13.6544 86.876 13.2737C87.5325 12.893 88.2601 12.7027 89.0589 12.7027C89.8467 12.7027 90.5306 12.8713 91.1105 13.2084C91.6904 13.5456 92.1226 13.9698 92.4071 14.481V12.8495H93.9171V21.7899H92.4071V20.1258C92.1117 20.6479 91.6685 21.0829 91.0776 21.431C90.4977 21.7681 89.8193 21.9367 89.0425 21.9367C88.2437 21.9367 87.5215 21.741 86.876 21.3494C86.2304 20.9579 85.7216 20.4086 85.3496 19.7016C84.9776 18.9947 84.7915 18.1898 84.7915 17.2871ZM92.4071 17.3034C92.4071 16.6291 92.2703 16.0417 91.9968 15.5414C91.7232 15.0411 91.3512 14.6604 90.8807 14.3994C90.4211 14.1275 89.9123 13.9915 89.3543 13.9915C88.7963 13.9915 88.2875 14.1221 87.8279 14.3831C87.3684 14.6441 87.0018 15.0248 86.7283 15.5251C86.4547 16.0254 86.3179 16.6127 86.3179 17.2871C86.3179 17.9723 86.4547 18.5705 86.7283 19.0817C87.0018 19.582 87.3684 19.9681 87.8279 20.24C88.2875 20.501 88.7963 20.6316 89.3543 20.6316C89.9123 20.6316 90.4211 20.501 90.8807 20.24C91.3512 19.9681 91.7232 19.582 91.9968 19.0817C92.2703 18.5705 92.4071 17.9777 92.4071 17.3034Z"/>
<path d="M99.6251 21.9367C98.9358 21.9367 98.3176 21.8225 97.7705 21.5941C97.2234 21.3548 96.7912 21.0285 96.4739 20.6152C96.1566 20.1911 95.9815 19.7071 95.9487 19.1633H97.4915C97.5352 19.6092 97.7431 19.9735 98.1151 20.2563C98.4981 20.5391 98.996 20.6805 99.6087 20.6805C100.178 20.6805 100.626 20.5554 100.955 20.3053C101.283 20.0551 101.447 19.7397 101.447 19.359C101.447 18.9675 101.272 18.6793 100.922 18.4944C100.572 18.2986 100.03 18.1082 99.2969 17.9233C98.6294 17.7493 98.0823 17.5753 97.6556 17.4013C97.2398 17.2164 96.8787 16.9499 96.5723 16.6019C96.2769 16.2429 96.1292 15.7753 96.1292 15.1988C96.1292 14.742 96.266 14.3233 96.5395 13.9426C96.8131 13.5619 97.2015 13.2628 97.7048 13.0453C98.2081 12.8169 98.7826 12.7027 99.4282 12.7027C100.424 12.7027 101.228 12.9528 101.841 13.4532C102.454 13.9535 102.782 14.6387 102.826 15.5088H101.332C101.299 15.0411 101.108 14.6659 100.758 14.3831C100.418 14.1003 99.9589 13.9589 99.3789 13.9589C98.8428 13.9589 98.416 14.0731 98.0987 14.3015C97.7814 14.5299 97.6228 14.829 97.6228 15.1988C97.6228 15.4925 97.7158 15.7372 97.9018 15.933C98.0987 16.1179 98.3395 16.2701 98.6239 16.3898C98.9194 16.4985 99.3242 16.6236 99.8385 16.765C100.484 16.939 101.009 17.1131 101.414 17.2871C101.819 17.4502 102.164 17.7004 102.448 18.0375C102.744 18.3747 102.897 18.8152 102.908 19.359C102.908 19.8485 102.771 20.289 102.497 20.6805C102.224 21.0721 101.835 21.382 101.332 21.6104C100.84 21.828 100.271 21.9367 99.6251 21.9367Z"/>
<path d="M113.222 16.9771C113.222 17.2599 113.206 17.559 113.173 17.8744H105.984C106.039 18.7554 106.34 19.446 106.887 19.9463C107.445 20.4358 108.118 20.6805 108.906 20.6805C109.551 20.6805 110.088 20.5337 110.514 20.24C110.952 19.9355 111.258 19.533 111.433 19.0327H113.042C112.801 19.892 112.32 20.5935 111.598 21.1373C110.875 21.6703 109.978 21.9367 108.906 21.9367C108.052 21.9367 107.287 21.7464 106.608 21.3657C105.941 20.985 105.415 20.4467 105.033 19.7506C104.65 19.0436 104.458 18.2279 104.458 17.3034C104.458 16.3789 104.644 15.5686 105.016 14.8725C105.388 14.1764 105.908 13.6435 106.575 13.2737C107.254 12.893 108.031 12.7027 108.906 12.7027C109.759 12.7027 110.514 12.8876 111.171 13.2574C111.827 13.6272 112.331 14.1384 112.681 14.7909C113.042 15.4327 113.222 16.1614 113.222 16.9771ZM111.68 16.6671C111.68 16.1016 111.554 15.6176 111.302 15.2151C111.051 14.8018 110.706 14.4918 110.268 14.2852C109.841 14.0677 109.365 13.9589 108.84 13.9589C108.085 13.9589 107.44 14.1982 106.904 14.6767C106.378 15.1553 106.077 15.8188 106.001 16.6671H111.68Z"/>
</mask>
<path d="M37.0117 16.0961C37.0117 14.9867 37.2634 13.9915 37.7667 13.1105C38.27 12.2187 38.9539 11.5226 39.8183 11.0223C40.6937 10.522 41.662 10.2718 42.7234 10.2718C43.9707 10.2718 45.0595 10.5709 45.9895 11.1691C46.9196 11.7673 47.598 12.6157 48.0247 13.7142H46.2357C45.9184 13.029 45.4588 12.5015 44.857 12.1317C44.2662 11.7619 43.555 11.577 42.7234 11.577C41.9246 11.577 41.2079 11.7619 40.5733 12.1317C39.9387 12.5015 39.4408 13.029 39.0797 13.7142C38.7186 14.3885 38.5381 15.1825 38.5381 16.0961C38.5381 16.9989 38.7186 17.7928 39.0797 18.478C39.4408 19.1524 39.9387 19.6744 40.5733 20.0442C41.2079 20.414 41.9246 20.5989 42.7234 20.5989C43.555 20.5989 44.2662 20.4195 44.857 20.0606C45.4588 19.6908 45.9184 19.1633 46.2357 18.478H48.0247C47.598 19.5657 46.9196 20.4086 45.9895 21.0068C45.0595 21.5941 43.9707 21.8878 42.7234 21.8878C41.662 21.8878 40.6937 21.6431 39.8183 21.1536C38.9539 20.6533 38.27 19.9627 37.7667 19.0817C37.2634 18.2007 37.0117 17.2055 37.0117 16.0961Z" fill="white"/>
<path d="M54.1707 21.9367C53.3281 21.9367 52.5622 21.7464 51.8729 21.3657C51.1945 20.985 50.6583 20.4467 50.2644 19.7506C49.8814 19.0436 49.69 18.2279 49.69 17.3034C49.69 16.3898 49.8869 15.5849 50.2808 14.8888C50.6857 14.1819 51.2328 13.6435 51.9221 13.2737C52.6114 12.893 53.3828 12.7027 54.2363 12.7027C55.0898 12.7027 55.8612 12.893 56.5505 13.2737C57.2398 13.6435 57.7815 14.1764 58.1754 14.8725C58.5802 15.5686 58.7826 16.3789 58.7826 17.3034C58.7826 18.2279 58.5748 19.0436 58.159 19.7506C57.7541 20.4467 57.2016 20.985 56.5013 21.3657C55.801 21.7464 55.0241 21.9367 54.1707 21.9367ZM54.1707 20.6316C54.7068 20.6316 55.2101 20.5065 55.6806 20.2563C56.1511 20.0062 56.5286 19.6309 56.8131 19.1306C57.1085 18.6303 57.2563 18.0212 57.2563 17.3034C57.2563 16.5855 57.114 15.9765 56.8295 15.4762C56.545 14.9758 56.173 14.606 55.7135 14.3668C55.2539 14.1166 54.756 13.9915 54.2199 13.9915C53.6728 13.9915 53.1695 14.1166 52.7099 14.3668C52.2613 14.606 51.9002 14.9758 51.6267 15.4762C51.3531 15.9765 51.2164 16.5855 51.2164 17.3034C51.2164 18.0321 51.3477 18.6466 51.6103 19.1469C51.8838 19.6472 52.2449 20.0225 52.6935 20.2726C53.1421 20.5119 53.6345 20.6316 54.1707 20.6316Z" fill="white"/>
<path d="M61.5178 11.3975C61.2333 11.3975 60.9926 11.2996 60.7957 11.1039C60.5987 10.9081 60.5002 10.6688 60.5002 10.386C60.5002 10.1032 60.5987 9.86395 60.7957 9.66817C60.9926 9.4724 61.2333 9.37451 61.5178 9.37451C61.7914 9.37451 62.0211 9.4724 62.2072 9.66817C62.4041 9.86395 62.5026 10.1032 62.5026 10.386C62.5026 10.6688 62.4041 10.9081 62.2072 11.1039C62.0211 11.2996 61.7914 11.3975 61.5178 11.3975ZM62.24 12.8495V21.7899H60.7464V12.8495H62.24Z" fill="white"/>
<path d="M69.1677 12.6864C70.2619 12.6864 71.1482 13.0181 71.8266 13.6816C72.505 14.3341 72.8442 15.2804 72.8442 16.5203V21.7899H71.367V16.7324C71.367 15.8405 71.1427 15.1607 70.6941 14.6931C70.2455 14.2145 69.6327 13.9752 68.8559 13.9752C68.0681 13.9752 67.4389 14.2199 66.9684 14.7094C66.5088 15.1988 66.2791 15.9112 66.2791 16.8466V21.7899H64.7855V12.8495H66.2791V14.122C66.5745 13.6652 66.9739 13.3118 67.4772 13.0616C67.9915 12.8114 68.555 12.6864 69.1677 12.6864Z" fill="white"/>
<path d="M81.012 15.933C81.4278 15.9982 81.8053 16.1668 82.1445 16.4387C82.4946 16.7106 82.7682 17.0478 82.9651 17.4502C83.173 17.8526 83.277 18.2823 83.277 18.7391C83.277 19.3155 83.1292 19.8376 82.8338 20.3053C82.5384 20.7621 82.1062 21.1264 81.5372 21.3983C80.9792 21.6594 80.3172 21.7899 79.5513 21.7899H75.2839V10.4186H79.3871C80.164 10.4186 80.826 10.5492 81.3731 10.8102C81.9202 11.0603 82.3305 11.403 82.604 11.838C82.8776 12.2731 83.0144 12.7625 83.0144 13.3063C83.0144 13.9807 82.8283 14.5408 82.4563 14.9867C82.0952 15.4218 81.6138 15.7372 81.012 15.933ZM76.7775 15.3293H79.2886C79.9889 15.3293 80.5305 15.1662 80.9135 14.8399C81.2965 14.5136 81.488 14.0622 81.488 13.4858C81.488 12.9093 81.2965 12.458 80.9135 12.1317C80.5305 11.8054 79.978 11.6422 79.2558 11.6422H76.7775V15.3293ZM79.4199 20.5663C80.164 20.5663 80.7439 20.3923 81.1597 20.0442C81.5755 19.6962 81.7834 19.2122 81.7834 18.5922C81.7834 17.9614 81.5646 17.4665 81.1269 17.1076C80.6892 16.7378 80.1038 16.5529 79.3707 16.5529H76.7775V20.5663H79.4199Z" fill="white"/>
<path d="M84.7915 17.2871C84.7915 16.3735 84.9776 15.574 85.3496 14.8888C85.7216 14.1927 86.2304 13.6544 86.876 13.2737C87.5325 12.893 88.2601 12.7027 89.0589 12.7027C89.8467 12.7027 90.5306 12.8713 91.1105 13.2084C91.6904 13.5456 92.1226 13.9698 92.4071 14.481V12.8495H93.9171V21.7899H92.4071V20.1258C92.1117 20.6479 91.6685 21.0829 91.0776 21.431C90.4977 21.7681 89.8193 21.9367 89.0425 21.9367C88.2437 21.9367 87.5215 21.741 86.876 21.3494C86.2304 20.9579 85.7216 20.4086 85.3496 19.7016C84.9776 18.9947 84.7915 18.1898 84.7915 17.2871ZM92.4071 17.3034C92.4071 16.6291 92.2703 16.0417 91.9968 15.5414C91.7232 15.0411 91.3512 14.6604 90.8807 14.3994C90.4211 14.1275 89.9123 13.9915 89.3543 13.9915C88.7963 13.9915 88.2875 14.1221 87.8279 14.3831C87.3684 14.6441 87.0018 15.0248 86.7283 15.5251C86.4547 16.0254 86.3179 16.6127 86.3179 17.2871C86.3179 17.9723 86.4547 18.5705 86.7283 19.0817C87.0018 19.582 87.3684 19.9681 87.8279 20.24C88.2875 20.501 88.7963 20.6316 89.3543 20.6316C89.9123 20.6316 90.4211 20.501 90.8807 20.24C91.3512 19.9681 91.7232 19.582 91.9968 19.0817C92.2703 18.5705 92.4071 17.9777 92.4071 17.3034Z" fill="white"/>
<path d="M99.6251 21.9367C98.9358 21.9367 98.3176 21.8225 97.7705 21.5941C97.2234 21.3548 96.7912 21.0285 96.4739 20.6152C96.1566 20.1911 95.9815 19.7071 95.9487 19.1633H97.4915C97.5352 19.6092 97.7431 19.9735 98.1151 20.2563C98.4981 20.5391 98.996 20.6805 99.6087 20.6805C100.178 20.6805 100.626 20.5554 100.955 20.3053C101.283 20.0551 101.447 19.7397 101.447 19.359C101.447 18.9675 101.272 18.6793 100.922 18.4944C100.572 18.2986 100.03 18.1082 99.2969 17.9233C98.6294 17.7493 98.0823 17.5753 97.6556 17.4013C97.2398 17.2164 96.8787 16.9499 96.5723 16.6019C96.2769 16.2429 96.1292 15.7753 96.1292 15.1988C96.1292 14.742 96.266 14.3233 96.5395 13.9426C96.8131 13.5619 97.2015 13.2628 97.7048 13.0453C98.2081 12.8169 98.7826 12.7027 99.4282 12.7027C100.424 12.7027 101.228 12.9528 101.841 13.4532C102.454 13.9535 102.782 14.6387 102.826 15.5088H101.332C101.299 15.0411 101.108 14.6659 100.758 14.3831C100.418 14.1003 99.9589 13.9589 99.3789 13.9589C98.8428 13.9589 98.416 14.0731 98.0987 14.3015C97.7814 14.5299 97.6228 14.829 97.6228 15.1988C97.6228 15.4925 97.7158 15.7372 97.9018 15.933C98.0987 16.1179 98.3395 16.2701 98.6239 16.3898C98.9194 16.4985 99.3242 16.6236 99.8385 16.765C100.484 16.939 101.009 17.1131 101.414 17.2871C101.819 17.4502 102.164 17.7004 102.448 18.0375C102.744 18.3747 102.897 18.8152 102.908 19.359C102.908 19.8485 102.771 20.289 102.497 20.6805C102.224 21.0721 101.835 21.382 101.332 21.6104C100.84 21.828 100.271 21.9367 99.6251 21.9367Z" fill="white"/>
<path d="M113.222 16.9771C113.222 17.2599 113.206 17.559 113.173 17.8744H105.984C106.039 18.7554 106.34 19.446 106.887 19.9463C107.445 20.4358 108.118 20.6805 108.906 20.6805C109.551 20.6805 110.088 20.5337 110.514 20.24C110.952 19.9355 111.258 19.533 111.433 19.0327H113.042C112.801 19.892 112.32 20.5935 111.598 21.1373C110.875 21.6703 109.978 21.9367 108.906 21.9367C108.052 21.9367 107.287 21.7464 106.608 21.3657C105.941 20.985 105.415 20.4467 105.033 19.7506C104.65 19.0436 104.458 18.2279 104.458 17.3034C104.458 16.3789 104.644 15.5686 105.016 14.8725C105.388 14.1764 105.908 13.6435 106.575 13.2737C107.254 12.893 108.031 12.7027 108.906 12.7027C109.759 12.7027 110.514 12.8876 111.171 13.2574C111.827 13.6272 112.331 14.1384 112.681 14.7909C113.042 15.4327 113.222 16.1614 113.222 16.9771ZM111.68 16.6671C111.68 16.1016 111.554 15.6176 111.302 15.2151C111.051 14.8018 110.706 14.4918 110.268 14.2852C109.841 14.0677 109.365 13.9589 108.84 13.9589C108.085 13.9589 107.44 14.1982 106.904 14.6767C106.378 15.1553 106.077 15.8188 106.001 16.6671H111.68Z" fill="white"/>
<path d="M37.0117 16.0961C37.0117 14.9867 37.2634 13.9915 37.7667 13.1105C38.27 12.2187 38.9539 11.5226 39.8183 11.0223C40.6937 10.522 41.662 10.2718 42.7234 10.2718C43.9707 10.2718 45.0595 10.5709 45.9895 11.1691C46.9196 11.7673 47.598 12.6157 48.0247 13.7142H46.2357C45.9184 13.029 45.4588 12.5015 44.857 12.1317C44.2662 11.7619 43.555 11.577 42.7234 11.577C41.9246 11.577 41.2079 11.7619 40.5733 12.1317C39.9387 12.5015 39.4408 13.029 39.0797 13.7142C38.7186 14.3885 38.5381 15.1825 38.5381 16.0961C38.5381 16.9989 38.7186 17.7928 39.0797 18.478C39.4408 19.1524 39.9387 19.6744 40.5733 20.0442C41.2079 20.414 41.9246 20.5989 42.7234 20.5989C43.555 20.5989 44.2662 20.4195 44.857 20.0606C45.4588 19.6908 45.9184 19.1633 46.2357 18.478H48.0247C47.598 19.5657 46.9196 20.4086 45.9895 21.0068C45.0595 21.5941 43.9707 21.8878 42.7234 21.8878C41.662 21.8878 40.6937 21.6431 39.8183 21.1536C38.9539 20.6533 38.27 19.9627 37.7667 19.0817C37.2634 18.2007 37.0117 17.2055 37.0117 16.0961Z" stroke="white" stroke-width="0.4" mask="url(#path-1-outside-1_32_2752)"/>
<path d="M54.1707 21.9367C53.3281 21.9367 52.5622 21.7464 51.8729 21.3657C51.1945 20.985 50.6583 20.4467 50.2644 19.7506C49.8814 19.0436 49.69 18.2279 49.69 17.3034C49.69 16.3898 49.8869 15.5849 50.2808 14.8888C50.6857 14.1819 51.2328 13.6435 51.9221 13.2737C52.6114 12.893 53.3828 12.7027 54.2363 12.7027C55.0898 12.7027 55.8612 12.893 56.5505 13.2737C57.2398 13.6435 57.7815 14.1764 58.1754 14.8725C58.5802 15.5686 58.7826 16.3789 58.7826 17.3034C58.7826 18.2279 58.5748 19.0436 58.159 19.7506C57.7541 20.4467 57.2016 20.985 56.5013 21.3657C55.801 21.7464 55.0241 21.9367 54.1707 21.9367ZM54.1707 20.6316C54.7068 20.6316 55.2101 20.5065 55.6806 20.2563C56.1511 20.0062 56.5286 19.6309 56.8131 19.1306C57.1085 18.6303 57.2563 18.0212 57.2563 17.3034C57.2563 16.5855 57.114 15.9765 56.8295 15.4762C56.545 14.9758 56.173 14.606 55.7135 14.3668C55.2539 14.1166 54.756 13.9915 54.2199 13.9915C53.6728 13.9915 53.1695 14.1166 52.7099 14.3668C52.2613 14.606 51.9002 14.9758 51.6267 15.4762C51.3531 15.9765 51.2164 16.5855 51.2164 17.3034C51.2164 18.0321 51.3477 18.6466 51.6103 19.1469C51.8838 19.6472 52.2449 20.0225 52.6935 20.2726C53.1421 20.5119 53.6345 20.6316 54.1707 20.6316Z" stroke="white" stroke-width="0.4" mask="url(#path-1-outside-1_32_2752)"/>
<path d="M61.5178 11.3975C61.2333 11.3975 60.9926 11.2996 60.7957 11.1039C60.5987 10.9081 60.5002 10.6688 60.5002 10.386C60.5002 10.1032 60.5987 9.86395 60.7957 9.66817C60.9926 9.4724 61.2333 9.37451 61.5178 9.37451C61.7914 9.37451 62.0211 9.4724 62.2072 9.66817C62.4041 9.86395 62.5026 10.1032 62.5026 10.386C62.5026 10.6688 62.4041 10.9081 62.2072 11.1039C62.0211 11.2996 61.7914 11.3975 61.5178 11.3975ZM62.24 12.8495V21.7899H60.7464V12.8495H62.24Z" stroke="white" stroke-width="0.4" mask="url(#path-1-outside-1_32_2752)"/>
<path d="M69.1677 12.6864C70.2619 12.6864 71.1482 13.0181 71.8266 13.6816C72.505 14.3341 72.8442 15.2804 72.8442 16.5203V21.7899H71.367V16.7324C71.367 15.8405 71.1427 15.1607 70.6941 14.6931C70.2455 14.2145 69.6327 13.9752 68.8559 13.9752C68.0681 13.9752 67.4389 14.2199 66.9684 14.7094C66.5088 15.1988 66.2791 15.9112 66.2791 16.8466V21.7899H64.7855V12.8495H66.2791V14.122C66.5745 13.6652 66.9739 13.3118 67.4772 13.0616C67.9915 12.8114 68.555 12.6864 69.1677 12.6864Z" stroke="white" stroke-width="0.4" mask="url(#path-1-outside-1_32_2752)"/>
<path d="M81.012 15.933C81.4278 15.9982 81.8053 16.1668 82.1445 16.4387C82.4946 16.7106 82.7682 17.0478 82.9651 17.4502C83.173 17.8526 83.277 18.2823 83.277 18.7391C83.277 19.3155 83.1292 19.8376 82.8338 20.3053C82.5384 20.7621 82.1062 21.1264 81.5372 21.3983C80.9792 21.6594 80.3172 21.7899 79.5513 21.7899H75.2839V10.4186H79.3871C80.164 10.4186 80.826 10.5492 81.3731 10.8102C81.9202 11.0603 82.3305 11.403 82.604 11.838C82.8776 12.2731 83.0144 12.7625 83.0144 13.3063C83.0144 13.9807 82.8283 14.5408 82.4563 14.9867C82.0952 15.4218 81.6138 15.7372 81.012 15.933ZM76.7775 15.3293H79.2886C79.9889 15.3293 80.5305 15.1662 80.9135 14.8399C81.2965 14.5136 81.488 14.0622 81.488 13.4858C81.488 12.9093 81.2965 12.458 80.9135 12.1317C80.5305 11.8054 79.978 11.6422 79.2558 11.6422H76.7775V15.3293ZM79.4199 20.5663C80.164 20.5663 80.7439 20.3923 81.1597 20.0442C81.5755 19.6962 81.7834 19.2122 81.7834 18.5922C81.7834 17.9614 81.5646 17.4665 81.1269 17.1076C80.6892 16.7378 80.1038 16.5529 79.3707 16.5529H76.7775V20.5663H79.4199Z" stroke="white" stroke-width="0.4" mask="url(#path-1-outside-1_32_2752)"/>
<path d="M84.7915 17.2871C84.7915 16.3735 84.9776 15.574 85.3496 14.8888C85.7216 14.1927 86.2304 13.6544 86.876 13.2737C87.5325 12.893 88.2601 12.7027 89.0589 12.7027C89.8467 12.7027 90.5306 12.8713 91.1105 13.2084C91.6904 13.5456 92.1226 13.9698 92.4071 14.481V12.8495H93.9171V21.7899H92.4071V20.1258C92.1117 20.6479 91.6685 21.0829 91.0776 21.431C90.4977 21.7681 89.8193 21.9367 89.0425 21.9367C88.2437 21.9367 87.5215 21.741 86.876 21.3494C86.2304 20.9579 85.7216 20.4086 85.3496 19.7016C84.9776 18.9947 84.7915 18.1898 84.7915 17.2871ZM92.4071 17.3034C92.4071 16.6291 92.2703 16.0417 91.9968 15.5414C91.7232 15.0411 91.3512 14.6604 90.8807 14.3994C90.4211 14.1275 89.9123 13.9915 89.3543 13.9915C88.7963 13.9915 88.2875 14.1221 87.8279 14.3831C87.3684 14.6441 87.0018 15.0248 86.7283 15.5251C86.4547 16.0254 86.3179 16.6127 86.3179 17.2871C86.3179 17.9723 86.4547 18.5705 86.7283 19.0817C87.0018 19.582 87.3684 19.9681 87.8279 20.24C88.2875 20.501 88.7963 20.6316 89.3543 20.6316C89.9123 20.6316 90.4211 20.501 90.8807 20.24C91.3512 19.9681 91.7232 19.582 91.9968 19.0817C92.2703 18.5705 92.4071 17.9777 92.4071 17.3034Z" stroke="white" stroke-width="0.4" mask="url(#path-1-outside-1_32_2752)"/>
<path d="M99.6251 21.9367C98.9358 21.9367 98.3176 21.8225 97.7705 21.5941C97.2234 21.3548 96.7912 21.0285 96.4739 20.6152C96.1566 20.1911 95.9815 19.7071 95.9487 19.1633H97.4915C97.5352 19.6092 97.7431 19.9735 98.1151 20.2563C98.4981 20.5391 98.996 20.6805 99.6087 20.6805C100.178 20.6805 100.626 20.5554 100.955 20.3053C101.283 20.0551 101.447 19.7397 101.447 19.359C101.447 18.9675 101.272 18.6793 100.922 18.4944C100.572 18.2986 100.03 18.1082 99.2969 17.9233C98.6294 17.7493 98.0823 17.5753 97.6556 17.4013C97.2398 17.2164 96.8787 16.9499 96.5723 16.6019C96.2769 16.2429 96.1292 15.7753 96.1292 15.1988C96.1292 14.742 96.266 14.3233 96.5395 13.9426C96.8131 13.5619 97.2015 13.2628 97.7048 13.0453C98.2081 12.8169 98.7826 12.7027 99.4282 12.7027C100.424 12.7027 101.228 12.9528 101.841 13.4532C102.454 13.9535 102.782 14.6387 102.826 15.5088H101.332C101.299 15.0411 101.108 14.6659 100.758 14.3831C100.418 14.1003 99.9589 13.9589 99.3789 13.9589C98.8428 13.9589 98.416 14.0731 98.0987 14.3015C97.7814 14.5299 97.6228 14.829 97.6228 15.1988C97.6228 15.4925 97.7158 15.7372 97.9018 15.933C98.0987 16.1179 98.3395 16.2701 98.6239 16.3898C98.9194 16.4985 99.3242 16.6236 99.8385 16.765C100.484 16.939 101.009 17.1131 101.414 17.2871C101.819 17.4502 102.164 17.7004 102.448 18.0375C102.744 18.3747 102.897 18.8152 102.908 19.359C102.908 19.8485 102.771 20.289 102.497 20.6805C102.224 21.0721 101.835 21.382 101.332 21.6104C100.84 21.828 100.271 21.9367 99.6251 21.9367Z" stroke="white" stroke-width="0.4" mask="url(#path-1-outside-1_32_2752)"/>
<path d="M113.222 16.9771C113.222 17.2599 113.206 17.559 113.173 17.8744H105.984C106.039 18.7554 106.34 19.446 106.887 19.9463C107.445 20.4358 108.118 20.6805 108.906 20.6805C109.551 20.6805 110.088 20.5337 110.514 20.24C110.952 19.9355 111.258 19.533 111.433 19.0327H113.042C112.801 19.892 112.32 20.5935 111.598 21.1373C110.875 21.6703 109.978 21.9367 108.906 21.9367C108.052 21.9367 107.287 21.7464 106.608 21.3657C105.941 20.985 105.415 20.4467 105.033 19.7506C104.65 19.0436 104.458 18.2279 104.458 17.3034C104.458 16.3789 104.644 15.5686 105.016 14.8725C105.388 14.1764 105.908 13.6435 106.575 13.2737C107.254 12.893 108.031 12.7027 108.906 12.7027C109.759 12.7027 110.514 12.8876 111.171 13.2574C111.827 13.6272 112.331 14.1384 112.681 14.7909C113.042 15.4327 113.222 16.1614 113.222 16.9771ZM111.68 16.6671C111.68 16.1016 111.554 15.6176 111.302 15.2151C111.051 14.8018 110.706 14.4918 110.268 14.2852C109.841 14.0677 109.365 13.9589 108.84 13.9589C108.085 13.9589 107.44 14.1982 106.904 14.6767C106.378 15.1553 106.077 15.8188 106.001 16.6671H111.68Z" stroke="white" stroke-width="0.4" mask="url(#path-1-outside-1_32_2752)"/>
</g>
<path id="Path-18_5_" d="M20.1659 23.612H27.4939C29.0722 23.612 30.3123 22.1839 30.3123 20.5177C30.3123 18.8516 29.0722 17.4234 27.4939 17.4234C26.9302 17.4234 26.3665 17.4234 25.8028 17.4234C28.0576 12.306 26.9302 1 16.7838 1C10.0195 1 6.63738 5.16537 6.63738 13.6151H5.51C3.02977 13.6151 1.00049 15.8763 1.00049 18.6135C1.00049 21.3508 3.02977 23.612 5.51 23.612H11.1469H20.1659Z" stroke="white" stroke-width="2" stroke-linecap="round" stroke-linejoin="round"/>
<path id="bitcoin 1" d="M16.7335 12.1568L14.8331 12.7917L13.885 9.95378L15.7561 9.32871C16.1448 9.19884 16.5582 9.22562 16.9215 9.4029L16.9216 9.40295C17.285 9.58002 17.553 9.8854 17.6794 10.2637C17.8058 10.6419 17.775 11.0468 17.591 11.4067L17.5909 11.4069C17.4118 11.7582 17.109 12.0233 16.7335 12.1568ZM12.5938 10.3845L12.9891 10.2524L15.3207 17.2317L14.9254 17.3637C14.6821 17.445 14.5425 17.7084 14.6258 17.9577C14.7091 18.207 14.9789 18.3335 15.2223 18.2523L16.8778 17.6992L17.006 18.0829C17.0892 18.3322 17.3591 18.4588 17.6024 18.3775C17.8457 18.2962 17.9853 18.0328 17.902 17.7835L17.7738 17.3998L18.1516 17.2736L18.2797 17.6573C18.363 17.9066 18.6328 18.0332 18.8762 17.9519C19.12 17.8705 19.2586 17.6069 19.1755 17.3581L19.0472 16.9742C20.4354 16.4926 21.1945 14.9988 20.7325 13.616C20.3878 12.5842 19.4624 11.912 18.4342 11.8237C18.7179 11.2656 18.7881 10.6019 18.5752 9.9644C18.2243 8.91405 17.2174 8.26942 16.1536 8.31248L15.9937 7.83409L15.9937 7.83405C15.9106 7.5853 15.6412 7.45836 15.3977 7.53972C15.1546 7.62094 15.0147 7.88412 15.098 8.13335L15.2264 8.51796L14.8487 8.64416L14.7202 8.25959C14.7202 8.25958 14.7202 8.25956 14.7202 8.25955C14.637 8.01029 14.367 7.88406 14.1239 7.96527C13.8808 8.04648 13.7409 8.30967 13.8242 8.5589L13.9527 8.9435L13.4536 9.11024L13.4534 9.10964L13.2162 9.18885L12.2969 9.49597C12.0536 9.57727 11.9141 9.84064 11.9974 10.0899C12.0806 10.3392 12.3505 10.4658 12.5938 10.3845ZM19.7356 15.2258L19.7356 15.2259C19.5251 15.6385 19.1652 15.9473 18.7199 16.0961L16.2165 16.9324L15.1301 13.6805L17.0011 13.0554C17.0137 13.0512 17.0258 13.0468 17.0347 13.0436L17.6333 12.8436C18.0785 12.6948 18.5519 12.7257 18.9683 12.9289L18.9684 12.9289C19.3847 13.1318 19.692 13.4818 19.8368 13.9152C19.9816 14.3489 19.9463 14.813 19.7356 15.2258Z" fill="white" stroke="white" stroke-width="0.5"/>
</g>
</svg>
