<svg width="805" height="25" viewBox="0 0 805 25" fill="none" xmlns="http://www.w3.org/2000/svg">
<path d="M5.90913 5.92V10.464H13.2371V14.688H5.90913V19.616H14.1971V24H0.437125V1.536H14.1971V5.92H5.90913ZM33.9096 1.536V5.92H27.9576V24H22.4856V5.92H16.5336V1.536H33.9096ZM56.1119 1.536V24H50.6399V14.752H42.1279V24H36.6559V1.536H42.1279V10.336H50.6399V1.536H56.1119ZM83.0034 1.536V5.92H77.0514V24H71.5794V5.92H65.6274V1.536H83.0034ZM96.3736 24.224C94.2616 24.224 92.3203 23.7333 90.5496 22.752C88.8003 21.7707 87.403 20.4053 86.3576 18.656C85.3336 16.8853 84.8216 14.9013 84.8216 12.704C84.8216 10.5067 85.3336 8.53333 86.3576 6.784C87.403 5.03467 88.8003 3.66933 90.5496 2.688C92.3203 1.70667 94.2616 1.216 96.3736 1.216C98.4856 1.216 100.416 1.70667 102.166 2.688C103.936 3.66933 105.323 5.03467 106.326 6.784C107.35 8.53333 107.862 10.5067 107.862 12.704C107.862 14.9013 107.35 16.8853 106.326 18.656C105.302 20.4053 103.915 21.7707 102.166 22.752C100.416 23.7333 98.4856 24.224 96.3736 24.224ZM96.3736 19.232C98.1656 19.232 99.595 18.6347 100.662 17.44C101.75 16.2453 102.294 14.6667 102.294 12.704C102.294 10.72 101.75 9.14133 100.662 7.968C99.595 6.77333 98.1656 6.176 96.3736 6.176C94.5603 6.176 93.1096 6.76267 92.0216 7.936C90.955 9.10933 90.4216 10.6987 90.4216 12.704C90.4216 14.688 90.955 16.2773 92.0216 17.472C93.1096 18.6453 94.5603 19.232 96.3736 19.232ZM137.783 24H132.311L123.159 10.144V24H117.687V1.536H123.159L132.311 15.456V1.536H137.783V24ZM155.734 20.032H147.35L146.006 24H140.278L148.406 1.536H154.742L162.87 24H157.078L155.734 20.032ZM154.326 15.808L151.542 7.584L148.79 15.808H154.326ZM170.815 1.536V24H165.343V1.536H170.815ZM186.237 24L181.565 15.52H180.253V24H174.781V1.536H183.965C185.736 1.536 187.24 1.84533 188.477 2.464C189.736 3.08267 190.674 3.936 191.293 5.024C191.912 6.09067 192.221 7.28533 192.221 8.608C192.221 10.1013 191.794 11.4347 190.941 12.608C190.109 13.7813 188.872 14.6133 187.229 15.104L192.413 24H186.237ZM180.253 11.648H183.645C184.648 11.648 185.394 11.4027 185.885 10.912C186.397 10.4213 186.653 9.728 186.653 8.832C186.653 7.97867 186.397 7.30667 185.885 6.816C185.394 6.32533 184.648 6.08 183.645 6.08H180.253V11.648ZM209.64 20.032H201.256L199.912 24H194.184L202.312 1.536H208.648L216.776 24H210.984L209.64 20.032ZM208.232 15.808L205.448 7.584L202.696 15.808H208.232ZM231.503 5.92V10.464H238.831V14.688H231.503V19.616H239.791V24H226.031V1.536H239.791V5.92H231.503ZM257.103 24L252.527 17.12L248.495 24H242.287L249.487 12.576L242.127 1.536H248.495L253.007 8.32L256.975 1.536H263.183L256.047 12.864L263.471 24H257.103ZM265.29 12.736C265.29 10.5173 265.77 8.544 266.73 6.816C267.69 5.06667 269.024 3.712 270.73 2.752C272.458 1.77067 274.41 1.28 276.586 1.28C279.253 1.28 281.536 1.984 283.434 3.392C285.333 4.8 286.602 6.72 287.242 9.152H281.226C280.778 8.21333 280.138 7.49867 279.306 7.008C278.496 6.51733 277.568 6.272 276.522 6.272C274.837 6.272 273.472 6.85867 272.426 8.032C271.381 9.20533 270.858 10.7733 270.858 12.736C270.858 14.6987 271.381 16.2667 272.426 17.44C273.472 18.6133 274.837 19.2 276.522 19.2C277.568 19.2 278.496 18.9547 279.306 18.464C280.138 17.9733 280.778 17.2587 281.226 16.32H287.242C286.602 18.752 285.333 20.672 283.434 22.08C281.536 23.4667 279.253 24.16 276.586 24.16C274.41 24.16 272.458 23.68 270.73 22.72C269.024 21.7387 267.69 20.384 266.73 18.656C265.77 16.928 265.29 14.9547 265.29 12.736ZM310.049 1.536V24H304.577V14.752H296.065V24H290.593V1.536H296.065V10.336H304.577V1.536H310.049ZM327.984 20.032H319.6L318.256 24H312.528L320.656 1.536H326.992L335.12 24H329.328L327.984 20.032ZM326.576 15.808L323.792 7.584L321.04 15.808H326.576ZM357.689 24H352.217L343.065 10.144V24H337.593V1.536H343.065L352.217 15.456V1.536H357.689V24ZM376.568 8.64C376.163 7.89333 375.576 7.328 374.808 6.944C374.061 6.53867 373.176 6.336 372.152 6.336C370.381 6.336 368.963 6.92267 367.896 8.096C366.829 9.248 366.296 10.7947 366.296 12.736C366.296 14.8053 366.851 16.4267 367.96 17.6C369.091 18.752 370.637 19.328 372.6 19.328C373.944 19.328 375.075 18.9867 375.992 18.304C376.931 17.6213 377.613 16.64 378.04 15.36H371.096V11.328H383V16.416C382.595 17.7813 381.901 19.0507 380.92 20.224C379.96 21.3973 378.733 22.3467 377.24 23.072C375.747 23.7973 374.061 24.16 372.184 24.16C369.965 24.16 367.981 23.68 366.232 22.72C364.504 21.7387 363.149 20.384 362.168 18.656C361.208 16.928 360.728 14.9547 360.728 12.736C360.728 10.5173 361.208 8.544 362.168 6.816C363.149 5.06667 364.504 3.712 366.232 2.752C367.96 1.77067 369.933 1.28 372.152 1.28C374.84 1.28 377.101 1.93067 378.936 3.232C380.792 4.53333 382.019 6.336 382.616 8.64H376.568ZM391.503 5.92V10.464H398.831V14.688H391.503V19.616H399.791V24H386.031V1.536H399.791V5.92H391.503ZM421.581 24L416.909 15.52H415.597V24H410.125V1.536H419.309C421.079 1.536 422.583 1.84533 423.821 2.464C425.079 3.08267 426.018 3.936 426.637 5.024C427.255 6.09067 427.565 7.28533 427.565 8.608C427.565 10.1013 427.138 11.4347 426.285 12.608C425.453 13.7813 424.215 14.6133 422.573 15.104L427.757 24H421.581ZM415.597 11.648H418.989C419.991 11.648 420.738 11.4027 421.229 10.912C421.741 10.4213 421.997 9.728 421.997 8.832C421.997 7.97867 421.741 7.30667 421.229 6.816C420.738 6.32533 419.991 6.08 418.989 6.08H415.597V11.648ZM444.984 20.032H436.6L435.256 24H429.528L437.656 1.536H443.992L452.12 24H446.328L444.984 20.032ZM443.576 15.808L440.792 7.584L438.04 15.808H443.576ZM470.753 1.536V5.92H464.801V24H459.329V5.92H453.377V1.536H470.753ZM478.972 5.92V10.464H486.3V14.688H478.972V19.616H487.26V24H473.5V1.536H487.26V5.92H478.972ZM503.065 1.536V24H497.593V1.536H503.065ZM515.159 24.224C513.516 24.224 512.044 23.9573 510.743 23.424C509.442 22.8907 508.396 22.1013 507.607 21.056C506.839 20.0107 506.434 18.752 506.391 17.28H512.215C512.3 18.112 512.588 18.752 513.079 19.2C513.57 19.6267 514.21 19.84 514.999 19.84C515.81 19.84 516.45 19.6587 516.919 19.296C517.388 18.912 517.623 18.3893 517.623 17.728C517.623 17.1733 517.431 16.7147 517.047 16.352C516.684 15.9893 516.226 15.6907 515.671 15.456C515.138 15.2213 514.37 14.9547 513.367 14.656C511.916 14.208 510.732 13.76 509.815 13.312C508.898 12.864 508.108 12.2027 507.447 11.328C506.786 10.4533 506.455 9.312 506.455 7.904C506.455 5.81333 507.212 4.18133 508.727 3.008C510.242 1.81333 512.215 1.216 514.647 1.216C517.122 1.216 519.116 1.81333 520.631 3.008C522.146 4.18133 522.956 5.824 523.063 7.936H517.143C517.1 7.21067 516.834 6.64533 516.343 6.24C515.852 5.81333 515.223 5.6 514.455 5.6C513.794 5.6 513.26 5.78133 512.855 6.144C512.45 6.48533 512.247 6.98667 512.247 7.648C512.247 8.37333 512.588 8.93867 513.271 9.344C513.954 9.74933 515.02 10.1867 516.471 10.656C517.922 11.1467 519.095 11.616 519.991 12.064C520.908 12.512 521.698 13.1627 522.359 14.016C523.02 14.8693 523.351 15.968 523.351 17.312C523.351 18.592 523.02 19.7547 522.359 20.8C521.719 21.8453 520.78 22.6773 519.543 23.296C518.306 23.9147 516.844 24.224 515.159 24.224ZM553.596 24H548.124L538.972 10.144V24H533.5V1.536H538.972L548.124 15.456V1.536H553.596V24ZM568.186 24.224C566.074 24.224 564.133 23.7333 562.362 22.752C560.613 21.7707 559.215 20.4053 558.17 18.656C557.146 16.8853 556.634 14.9013 556.634 12.704C556.634 10.5067 557.146 8.53333 558.17 6.784C559.215 5.03467 560.613 3.66933 562.362 2.688C564.133 1.70667 566.074 1.216 568.186 1.216C570.298 1.216 572.229 1.70667 573.978 2.688C575.749 3.66933 577.135 5.03467 578.138 6.784C579.162 8.53333 579.674 10.5067 579.674 12.704C579.674 14.9013 579.162 16.8853 578.138 18.656C577.114 20.4053 575.727 21.7707 573.978 22.752C572.229 23.7333 570.298 24.224 568.186 24.224ZM568.186 19.232C569.978 19.232 571.407 18.6347 572.474 17.44C573.562 16.2453 574.106 14.6667 574.106 12.704C574.106 10.72 573.562 9.14133 572.474 7.968C571.407 6.77333 569.978 6.176 568.186 6.176C566.373 6.176 564.922 6.76267 563.834 7.936C562.767 9.10933 562.234 10.6987 562.234 12.704C562.234 14.688 562.767 16.2773 563.834 17.472C564.922 18.6453 566.373 19.232 568.186 19.232ZM613.63 1.536L607.774 24H601.15L597.566 9.216L593.854 24H587.23L581.534 1.536H587.39L590.622 17.888L594.622 1.536H600.638L604.478 17.888L607.742 1.536H613.63ZM644.052 9.984L643.156 14.176H646.996V19.104H642.1L641.044 24H635.924L636.98 19.104H631.668L630.612 24H625.492L626.548 19.104H621.812V14.176H627.604L628.5 9.984H623.86V5.056H629.524L630.548 0.32H635.668L634.644 5.056H639.956L640.98 0.32H646.1L645.076 5.056H649.044V9.984H644.052ZM638.932 9.984H633.62L632.724 14.176H638.036L638.932 9.984ZM651.677 19.84V15.424L661.789 0.959999H667.901V15.104H670.525V19.84H667.901V24H662.429V19.84H651.677ZM662.813 6.976L657.437 15.104H662.813V6.976ZM673.206 12C673.206 8.33067 673.91 5.44 675.318 3.328C676.747 1.216 679.04 0.159998 682.198 0.159998C685.355 0.159998 687.638 1.216 689.046 3.328C690.475 5.44 691.19 8.33067 691.19 12C691.19 15.712 690.475 18.624 689.046 20.736C687.638 22.848 685.355 23.904 682.198 23.904C679.04 23.904 676.747 22.848 675.318 20.736C673.91 18.624 673.206 15.712 673.206 12ZM685.814 12C685.814 9.84533 685.579 8.192 685.11 7.04C684.64 5.86667 683.67 5.28 682.198 5.28C680.726 5.28 679.755 5.86667 679.286 7.04C678.816 8.192 678.582 9.84533 678.582 12C678.582 13.4507 678.667 14.656 678.838 15.616C679.008 16.5547 679.35 17.3227 679.862 17.92C680.395 18.496 681.174 18.784 682.198 18.784C683.222 18.784 683.99 18.496 684.502 17.92C685.035 17.3227 685.387 16.5547 685.558 15.616C685.728 14.656 685.814 13.4507 685.814 12ZM694.081 12C694.081 8.33067 694.785 5.44 696.193 3.328C697.622 1.216 699.915 0.159998 703.073 0.159998C706.23 0.159998 708.513 1.216 709.921 3.328C711.35 5.44 712.065 8.33067 712.065 12C712.065 15.712 711.35 18.624 709.921 20.736C708.513 22.848 706.23 23.904 703.073 23.904C699.915 23.904 697.622 22.848 696.193 20.736C694.785 18.624 694.081 15.712 694.081 12ZM706.689 12C706.689 9.84533 706.454 8.192 705.985 7.04C705.515 5.86667 704.545 5.28 703.073 5.28C701.601 5.28 700.63 5.86667 700.161 7.04C699.691 8.192 699.457 9.84533 699.457 12C699.457 13.4507 699.542 14.656 699.713 15.616C699.883 16.5547 700.225 17.3227 700.737 17.92C701.27 18.496 702.049 18.784 703.073 18.784C704.097 18.784 704.865 18.496 705.377 17.92C705.91 17.3227 706.262 16.5547 706.433 15.616C706.603 14.656 706.689 13.4507 706.689 12ZM739.401 8.768C739.401 10.0693 739.102 11.264 738.505 12.352C737.908 13.4187 736.99 14.2827 735.753 14.944C734.516 15.6053 732.98 15.936 731.145 15.936H727.753V24H722.281V1.536H731.145C732.937 1.536 734.452 1.84533 735.689 2.464C736.926 3.08267 737.854 3.936 738.473 5.024C739.092 6.112 739.401 7.36 739.401 8.768ZM730.729 11.584C731.774 11.584 732.553 11.3387 733.065 10.848C733.577 10.3573 733.833 9.664 733.833 8.768C733.833 7.872 733.577 7.17867 733.065 6.688C732.553 6.19733 731.774 5.952 730.729 5.952H727.753V11.584H730.729ZM747.722 5.92V10.464H755.05V14.688H747.722V19.616H756.01V24H742.25V1.536H756.01V5.92H747.722ZM771.018 24L766.346 15.52H765.034V24H759.562V1.536H768.746C770.517 1.536 772.021 1.84533 773.258 2.464C774.517 3.08267 775.455 3.936 776.074 5.024C776.693 6.09067 777.002 7.28533 777.002 8.608C777.002 10.1013 776.575 11.4347 775.722 12.608C774.89 13.7813 773.653 14.6133 772.01 15.104L777.194 24H771.018ZM765.034 11.648H768.426C769.429 11.648 770.175 11.4027 770.666 10.912C771.178 10.4213 771.434 9.728 771.434 8.832C771.434 7.97867 771.178 7.30667 770.666 6.816C770.175 6.32533 769.429 6.08 768.426 6.08H765.034V11.648ZM782.997 24.256C782.037 24.256 781.248 23.9787 780.629 23.424C780.032 22.848 779.733 22.144 779.733 21.312C779.733 20.4587 780.032 19.744 780.629 19.168C781.248 18.592 782.037 18.304 782.997 18.304C783.936 18.304 784.704 18.592 785.301 19.168C785.92 19.744 786.229 20.4587 786.229 21.312C786.229 22.144 785.92 22.848 785.301 23.424C784.704 23.9787 783.936 24.256 782.997 24.256ZM792.028 24.256C791.068 24.256 790.279 23.9787 789.66 23.424C789.063 22.848 788.764 22.144 788.764 21.312C788.764 20.4587 789.063 19.744 789.66 19.168C790.279 18.592 791.068 18.304 792.028 18.304C792.967 18.304 793.735 18.592 794.332 19.168C794.951 19.744 795.26 20.4587 795.26 21.312C795.26 22.144 794.951 22.848 794.332 23.424C793.735 23.9787 792.967 24.256 792.028 24.256ZM801.06 24.256C800.1 24.256 799.31 23.9787 798.692 23.424C798.094 22.848 797.796 22.144 797.796 21.312C797.796 20.4587 798.094 19.744 798.692 19.168C799.31 18.592 800.1 18.304 801.06 18.304C801.998 18.304 802.766 18.592 803.364 19.168C803.982 19.744 804.292 20.4587 804.292 21.312C804.292 22.144 803.982 22.848 803.364 23.424C802.766 23.9787 801.998 24.256 801.06 24.256Z" fill="url(#paint0_linear_32_3530)"/>
<defs>
<linearGradient id="paint0_linear_32_3530" x1="448.5" y1="-17.0833" x2="448.623" y2="62.7139" gradientUnits="userSpaceOnUse">
<stop stop-color="#FD749B"/>
<stop offset="1" stop-color="#281AC8"/>
</linearGradient>
</defs>
</svg>
