<svg width="747" height="24" viewBox="0 0 747 24" fill="none" xmlns="http://www.w3.org/2000/svg">
<path d="M19.9088 0.535999V23H14.4368V13.752H5.92475V23H0.45275V0.535999H5.92475V9.336H14.4368V0.535999H19.9088ZM34.483 23.224C32.371 23.224 30.4297 22.7333 28.659 21.752C26.9097 20.7707 25.5123 19.4053 24.467 17.656C23.443 15.8853 22.931 13.9013 22.931 11.704C22.931 9.50667 23.443 7.53333 24.467 5.784C25.5123 4.03467 26.9097 2.66933 28.659 1.688C30.4297 0.706666 32.371 0.216 34.483 0.216C36.595 0.216 38.5257 0.706666 40.275 1.688C42.0457 2.66933 43.4323 4.03467 44.435 5.784C45.459 7.53333 45.971 9.50667 45.971 11.704C45.971 13.9013 45.459 15.8853 44.435 17.656C43.411 19.4053 42.0243 20.7707 40.275 21.752C38.5257 22.7333 36.595 23.224 34.483 23.224ZM34.483 18.232C36.275 18.232 37.7043 17.6347 38.771 16.44C39.859 15.2453 40.403 13.6667 40.403 11.704C40.403 9.72 39.859 8.14133 38.771 6.968C37.7043 5.77333 36.275 5.176 34.483 5.176C32.6697 5.176 31.219 5.76267 30.131 6.936C29.0643 8.10933 28.531 9.69867 28.531 11.704C28.531 13.688 29.0643 15.2773 30.131 16.472C31.219 17.6453 32.6697 18.232 34.483 18.232ZM79.9272 0.535999L74.0713 23H67.4473L63.8633 8.216L60.1513 23H53.5273L47.8313 0.535999H53.6873L56.9193 16.888L60.9193 0.535999H66.9353L70.7753 16.888L74.0393 0.535999H79.9272ZM105.613 0.535999V4.92H99.6608V23H94.1888V4.92H88.2368V0.535999H105.613ZM118.983 23.224C116.871 23.224 114.93 22.7333 113.159 21.752C111.41 20.7707 110.012 19.4053 108.967 17.656C107.943 15.8853 107.431 13.9013 107.431 11.704C107.431 9.50667 107.943 7.53333 108.967 5.784C110.012 4.03467 111.41 2.66933 113.159 1.688C114.93 0.706666 116.871 0.216 118.983 0.216C121.095 0.216 123.026 0.706666 124.775 1.688C126.546 2.66933 127.932 4.03467 128.935 5.784C129.959 7.53333 130.471 9.50667 130.471 11.704C130.471 13.9013 129.959 15.8853 128.935 17.656C127.911 19.4053 126.524 20.7707 124.775 21.752C123.026 22.7333 121.095 23.224 118.983 23.224ZM118.983 18.232C120.775 18.232 122.204 17.6347 123.271 16.44C124.359 15.2453 124.903 13.6667 124.903 11.704C124.903 9.72 124.359 8.14133 123.271 6.968C122.204 5.77333 120.775 5.176 118.983 5.176C117.17 5.176 115.719 5.76267 114.631 6.936C113.564 8.10933 113.031 9.69867 113.031 11.704C113.031 13.688 113.564 15.2773 114.631 16.472C115.719 17.6453 117.17 18.232 118.983 18.232ZM148.425 23.224C146.782 23.224 145.31 22.9573 144.009 22.424C142.707 21.8907 141.662 21.1013 140.873 20.056C140.105 19.0107 139.699 17.752 139.657 16.28H145.481C145.566 17.112 145.854 17.752 146.345 18.2C146.835 18.6267 147.475 18.84 148.265 18.84C149.075 18.84 149.715 18.6587 150.185 18.296C150.654 17.912 150.889 17.3893 150.889 16.728C150.889 16.1733 150.697 15.7147 150.313 15.352C149.95 14.9893 149.491 14.6907 148.937 14.456C148.403 14.2213 147.635 13.9547 146.633 13.656C145.182 13.208 143.998 12.76 143.081 12.312C142.163 11.864 141.374 11.2027 140.713 10.328C140.051 9.45333 139.721 8.312 139.721 6.904C139.721 4.81333 140.478 3.18133 141.993 2.008C143.507 0.813333 145.481 0.216 147.913 0.216C150.387 0.216 152.382 0.813333 153.897 2.008C155.411 3.18133 156.222 4.824 156.329 6.936H150.409C150.366 6.21067 150.099 5.64533 149.609 5.24C149.118 4.81333 148.489 4.6 147.72 4.6C147.059 4.6 146.526 4.78133 146.121 5.144C145.715 5.48533 145.513 5.98667 145.513 6.648C145.513 7.37333 145.854 7.93867 146.536 8.344C147.219 8.74933 148.286 9.18667 149.737 9.656C151.187 10.1467 152.361 10.616 153.257 11.064C154.174 11.512 154.963 12.1627 155.625 13.016C156.286 13.8693 156.617 14.968 156.617 16.312C156.617 17.592 156.286 18.7547 155.625 19.8C154.985 20.8453 154.046 21.6773 152.809 22.296C151.571 22.9147 150.11 23.224 148.425 23.224ZM165.456 4.92V9.464H172.784V13.688H165.456V18.616H173.744V23H159.984V0.535999H173.744V4.92H165.456ZM182.769 18.776H189.937V23H177.297V0.535999H182.769V18.776ZM198.019 18.776H205.187V23H192.547V0.535999H198.019V18.776ZM233.842 0.535999L226.066 15.576V23H220.594V15.576L212.818 0.535999H219.026L223.378 9.944L227.698 0.535999H233.842ZM246.671 23.224C244.559 23.224 242.617 22.7333 240.847 21.752C239.097 20.7707 237.7 19.4053 236.655 17.656C235.63 15.8853 235.118 13.9013 235.118 11.704C235.118 9.50667 235.63 7.53333 236.655 5.784C237.7 4.03467 239.097 2.66933 240.847 1.688C242.617 0.706666 244.559 0.216 246.671 0.216C248.783 0.216 250.713 0.706666 252.463 1.688C254.233 2.66933 255.62 4.03467 256.623 5.784C257.647 7.53333 258.159 9.50667 258.159 11.704C258.159 13.9013 257.647 15.8853 256.623 17.656C255.599 19.4053 254.212 20.7707 252.463 21.752C250.713 22.7333 248.783 23.224 246.671 23.224ZM246.671 18.232C248.463 18.232 249.892 17.6347 250.958 16.44C252.047 15.2453 252.591 13.6667 252.591 11.704C252.591 9.72 252.047 8.14133 250.958 6.968C249.892 5.77333 248.463 5.176 246.671 5.176C244.857 5.176 243.407 5.76267 242.319 6.936C241.252 8.10933 240.719 9.69867 240.719 11.704C240.719 13.688 241.252 15.2773 242.319 16.472C243.407 17.6453 244.857 18.232 246.671 18.232ZM266.579 0.535999V13.976C266.579 15.32 266.909 16.3547 267.571 17.08C268.232 17.8053 269.203 18.168 270.483 18.168C271.763 18.168 272.744 17.8053 273.427 17.08C274.109 16.3547 274.451 15.32 274.451 13.976V0.535999H279.923V13.944C279.923 15.9493 279.496 17.6453 278.643 19.032C277.789 20.4187 276.637 21.464 275.187 22.168C273.757 22.872 272.157 23.224 270.387 23.224C268.616 23.224 267.027 22.8827 265.619 22.2C264.232 21.496 263.133 20.4507 262.323 19.064C261.512 17.656 261.107 15.9493 261.107 13.944V0.535999H266.579ZM295.221 23L290.549 14.52H289.237V23H283.765V0.535999H292.949C294.72 0.535999 296.224 0.845332 297.461 1.464C298.72 2.08267 299.659 2.936 300.277 4.024C300.896 5.09067 301.205 6.28533 301.205 7.608C301.205 9.10133 300.779 10.4347 299.925 11.608C299.093 12.7813 297.856 13.6133 296.213 14.104L301.397 23H295.221ZM289.237 10.648H292.629C293.632 10.648 294.379 10.4027 294.869 9.912C295.381 9.42133 295.637 8.728 295.637 7.832C295.637 6.97867 295.381 6.30667 294.869 5.816C294.379 5.32533 293.632 5.08 292.629 5.08H289.237V10.648ZM316.894 0.535999V23H311.422V0.535999H316.894ZM337.019 0.535999V4.92H331.067V23H325.595V4.92H319.643V0.535999H337.019ZM345.141 0.535999V13.976C345.141 15.32 345.472 16.3547 346.133 17.08C346.795 17.8053 347.765 18.168 349.045 18.168C350.325 18.168 351.307 17.8053 351.989 17.08C352.672 16.3547 353.013 15.32 353.013 13.976V0.535999H358.485V13.944C358.485 15.9493 358.059 17.6453 357.205 19.032C356.352 20.4187 355.2 21.464 353.749 22.168C352.32 22.872 350.72 23.224 348.949 23.224C347.179 23.224 345.589 22.8827 344.181 22.2C342.795 21.496 341.696 20.4507 340.885 19.064C340.075 17.656 339.669 15.9493 339.669 13.944V0.535999H345.141ZM382.424 23H376.952L367.8 9.144V23H362.328V0.535999H367.8L376.952 14.456V0.535999H382.424V23ZM391.862 4.92V9.464H399.19V13.688H391.862V18.616H400.15V23H386.39V0.535999H400.15V4.92H391.862ZM411.831 23.224C410.188 23.224 408.716 22.9573 407.415 22.424C406.113 21.8907 405.068 21.1013 404.279 20.056C403.511 19.0107 403.105 17.752 403.063 16.28H408.887C408.972 17.112 409.26 17.752 409.751 18.2C410.241 18.6267 410.881 18.84 411.671 18.84C412.481 18.84 413.121 18.6587 413.591 18.296C414.06 17.912 414.295 17.3893 414.295 16.728C414.295 16.1733 414.103 15.7147 413.719 15.352C413.356 14.9893 412.897 14.6907 412.343 14.456C411.809 14.2213 411.041 13.9547 410.039 13.656C408.588 13.208 407.404 12.76 406.487 12.312C405.569 11.864 404.78 11.2027 404.119 10.328C403.457 9.45333 403.127 8.312 403.127 6.904C403.127 4.81333 403.884 3.18133 405.399 2.008C406.913 0.813333 408.887 0.216 411.319 0.216C413.793 0.216 415.788 0.813333 417.303 2.008C418.817 3.18133 419.628 4.824 419.735 6.936H413.815C413.772 6.21067 413.505 5.64533 413.015 5.24C412.524 4.81333 411.895 4.6 411.127 4.6C410.465 4.6 409.932 4.78133 409.527 5.144C409.121 5.48533 408.919 5.98667 408.919 6.648C408.919 7.37333 409.26 7.93867 409.943 8.344C410.625 8.74933 411.692 9.18667 413.143 9.656C414.593 10.1467 415.767 10.616 416.663 11.064C417.58 11.512 418.369 12.1627 419.031 13.016C419.692 13.8693 420.023 14.968 420.023 16.312C420.023 17.592 419.692 18.7547 419.031 19.8C418.391 20.8453 417.452 21.6773 416.215 22.296C414.977 22.9147 413.516 23.224 411.831 23.224ZM445.083 7.64C444.678 6.89333 444.092 6.328 443.324 5.944C442.577 5.53867 441.692 5.336 440.668 5.336C438.897 5.336 437.478 5.92267 436.411 7.096C435.345 8.248 434.812 9.79467 434.812 11.736C434.812 13.8053 435.366 15.4267 436.476 16.6C437.606 17.752 439.153 18.328 441.116 18.328C442.46 18.328 443.59 17.9867 444.508 17.304C445.446 16.6213 446.129 15.64 446.556 14.36H439.612V10.328H451.516V15.416C451.11 16.7813 450.417 18.0507 449.436 19.224C448.476 20.3973 447.249 21.3467 445.756 22.072C444.262 22.7973 442.577 23.16 440.7 23.16C438.481 23.16 436.497 22.68 434.748 21.72C433.02 20.7387 431.665 19.384 430.684 17.656C429.724 15.928 429.243 13.9547 429.243 11.736C429.243 9.51733 429.724 7.544 430.684 5.816C431.665 4.06667 433.02 2.712 434.748 1.752C436.476 0.770665 438.449 0.279999 440.668 0.279999C443.356 0.279999 445.617 0.930665 447.452 2.232C449.308 3.53333 450.534 5.336 451.132 7.64H445.083ZM460.019 0.535999V23H454.547V0.535999H460.019ZM478.608 0.535999V4.92H469.456V9.656H476.304V13.912H469.456V23H463.984V0.535999H478.608ZM497.644 0.535999V4.92H491.692V23H486.22V4.92H480.268V0.535999H497.644ZM499.462 11.736C499.462 9.51733 499.942 7.544 500.902 5.816C501.862 4.06667 503.196 2.712 504.902 1.752C506.63 0.770665 508.582 0.279999 510.758 0.279999C513.425 0.279999 515.708 0.983999 517.606 2.392C519.505 3.8 520.774 5.72 521.414 8.152H515.398C514.95 7.21333 514.31 6.49867 513.478 6.008C512.668 5.51733 511.74 5.272 510.694 5.272C509.009 5.272 507.644 5.85867 506.598 7.032C505.553 8.20533 505.03 9.77333 505.03 11.736C505.03 13.6987 505.553 15.2667 506.598 16.44C507.644 17.6133 509.009 18.2 510.694 18.2C511.74 18.2 512.668 17.9547 513.478 17.464C514.31 16.9733 514.95 16.2587 515.398 15.32H521.414C520.774 17.752 519.505 19.672 517.606 21.08C515.708 22.4667 513.425 23.16 510.758 23.16C508.582 23.16 506.63 22.68 504.902 21.72C503.196 20.7387 501.862 19.384 500.902 17.656C499.942 15.928 499.462 13.9547 499.462 11.736ZM538.749 19.032H530.365L529.021 23H523.293L531.421 0.535999H537.757L545.885 23H540.093L538.749 19.032ZM537.341 14.808L534.557 6.584L531.805 14.808H537.341ZM559.815 23L555.143 14.52H553.831V23H548.359V0.535999H557.543C559.314 0.535999 560.818 0.845332 562.055 1.464C563.314 2.08267 564.252 2.936 564.871 4.024C565.49 5.09067 565.799 6.28533 565.799 7.608C565.799 9.10133 565.372 10.4347 564.519 11.608C563.687 12.7813 562.45 13.6133 560.807 14.104L565.991 23H559.815ZM553.831 10.648H557.223C558.226 10.648 558.972 10.4027 559.463 9.912C559.975 9.42133 560.231 8.728 560.231 7.832C560.231 6.97867 559.975 6.30667 559.463 5.816C558.972 5.32533 558.226 5.08 557.223 5.08H553.831V10.648ZM577.65 0.535999C580.018 0.535999 582.087 1.00533 583.858 1.944C585.629 2.88267 586.994 4.20533 587.954 5.912C588.935 7.59733 589.426 9.54933 589.426 11.768C589.426 13.9653 588.935 15.9173 587.954 17.624C586.994 19.3307 585.618 20.6533 583.826 21.592C582.055 22.5307 579.997 23 577.65 23H569.234V0.535999H577.65ZM577.298 18.264C579.367 18.264 580.978 17.6987 582.13 16.568C583.282 15.4373 583.858 13.8373 583.858 11.768C583.858 9.69867 583.282 8.088 582.13 6.936C580.978 5.784 579.367 5.208 577.298 5.208H574.706V18.264H577.298ZM630.177 0.535999L624.321 23H617.697L614.113 8.216L610.401 23H603.777L598.081 0.535999H603.937L607.169 16.888L611.169 0.535999H617.185L621.025 16.888L624.289 0.535999H630.177ZM638.394 0.535999V23H632.922V0.535999H638.394ZM658.519 0.535999V4.92H652.567V23H647.095V4.92H641.143V0.535999H658.519ZM680.721 0.535999V23H675.249V13.752H666.737V23H661.265V0.535999H666.737V9.336H675.249V0.535999H680.721ZM696.829 0.535999V13.976C696.829 15.32 697.159 16.3547 697.821 17.08C698.482 17.8053 699.453 18.168 700.733 18.168C702.013 18.168 702.994 17.8053 703.677 17.08C704.359 16.3547 704.701 15.32 704.701 13.976V0.535999H710.173V13.944C710.173 15.9493 709.746 17.6453 708.893 19.032C708.039 20.4187 706.887 21.464 705.437 22.168C704.007 22.872 702.407 23.224 700.637 23.224C698.866 23.224 697.277 22.8827 695.869 22.2C694.482 21.496 693.383 20.4507 692.573 19.064C691.762 17.656 691.357 15.9493 691.357 13.944V0.535999H696.829ZM722.143 23.224C720.501 23.224 719.029 22.9573 717.727 22.424C716.426 21.8907 715.381 21.1013 714.591 20.056C713.823 19.0107 713.418 17.752 713.375 16.28H719.199C719.285 17.112 719.573 17.752 720.063 18.2C720.554 18.6267 721.194 18.84 721.983 18.84C722.794 18.84 723.434 18.6587 723.903 18.296C724.373 17.912 724.607 17.3893 724.607 16.728C724.607 16.1733 724.415 15.7147 724.031 15.352C723.669 14.9893 723.21 14.6907 722.655 14.456C722.122 14.2213 721.354 13.9547 720.351 13.656C718.901 13.208 717.717 12.76 716.799 12.312C715.882 11.864 715.093 11.2027 714.431 10.328C713.77 9.45333 713.439 8.312 713.439 6.904C713.439 4.81333 714.197 3.18133 715.711 2.008C717.226 0.813333 719.199 0.216 721.631 0.216C724.106 0.216 726.101 0.813333 727.615 2.008C729.13 3.18133 729.941 4.824 730.047 6.936H724.127C724.085 6.21067 723.818 5.64533 723.327 5.24C722.837 4.81333 722.207 4.6 721.439 4.6C720.778 4.6 720.245 4.78133 719.839 5.144C719.434 5.48533 719.231 5.98667 719.231 6.648C719.231 7.37333 719.573 7.93867 720.255 8.344C720.938 8.74933 722.005 9.18667 723.455 9.656C724.906 10.1467 726.079 10.616 726.975 11.064C727.893 11.512 728.682 12.1627 729.343 13.016C730.005 13.8693 730.335 14.968 730.335 16.312C730.335 17.592 730.005 18.7547 729.343 19.8C728.703 20.8453 727.765 21.6773 726.527 22.296C725.29 22.9147 723.829 23.224 722.143 23.224ZM743.044 23.256C742.084 23.256 741.295 22.9787 740.676 22.424C740.079 21.848 739.78 21.144 739.78 20.312C739.78 19.4587 740.079 18.744 740.676 18.168C741.295 17.592 742.084 17.304 743.044 17.304C743.983 17.304 744.751 17.592 745.348 18.168C745.967 18.744 746.276 19.4587 746.276 20.312C746.276 21.144 745.967 21.848 745.348 22.424C744.751 22.9787 743.983 23.256 743.044 23.256Z" fill="url(#paint0_linear_32_3500)"/>
<defs>
<linearGradient id="paint0_linear_32_3500" x1="410.5" y1="-18.0833" x2="410.653" y2="61.7138" gradientUnits="userSpaceOnUse">
<stop stop-color="#FD749B"/>
<stop offset="1" stop-color="#281AC8"/>
</linearGradient>
</defs>
</svg>
