<svg width="753" height="25" viewBox="0 0 753 25" fill="none" xmlns="http://www.w3.org/2000/svg">
<path d="M5.62788 5.92V10.464H12.9559V14.688H5.62788V19.616H13.9159V24H0.155875V1.536H13.9159V5.92H5.62788ZM31.2284 24L26.6524 17.12L22.6204 24H16.4124L23.6124 12.576L16.2524 1.536H22.6204L27.1324 8.32L31.1004 1.536H37.3084L30.1724 12.864L37.5964 24H31.2284ZM39.4154 12.736C39.4154 10.5173 39.8954 8.544 40.8554 6.816C41.8154 5.06667 43.1487 3.712 44.8554 2.752C46.5834 1.77067 48.5354 1.28 50.7114 1.28C53.378 1.28 55.6607 1.984 57.5594 3.392C59.458 4.8 60.7274 6.72 61.3674 9.152H55.3514C54.9034 8.21333 54.2634 7.49867 53.4314 7.008C52.6207 6.51733 51.6927 6.272 50.6474 6.272C48.962 6.272 47.5967 6.85867 46.5514 8.032C45.506 9.20533 44.9834 10.7733 44.9834 12.736C44.9834 14.6987 45.506 16.2667 46.5514 17.44C47.5967 18.6133 48.962 19.2 50.6474 19.2C51.6927 19.2 52.6207 18.9547 53.4314 18.464C54.2634 17.9733 54.9034 17.2587 55.3514 16.32H61.3674C60.7274 18.752 59.458 20.672 57.5594 22.08C55.6607 23.4667 53.378 24.16 50.7114 24.16C48.5354 24.16 46.5834 23.68 44.8554 22.72C43.1487 21.7387 41.8154 20.384 40.8554 18.656C39.8954 16.928 39.4154 14.9547 39.4154 12.736ZM84.1744 1.536V24H78.7024V14.752H70.1904V24H64.7184V1.536H70.1904V10.336H78.7024V1.536H84.1744ZM102.109 20.032H93.7246L92.3806 24H86.6526L94.7806 1.536H101.117L109.245 24H103.453L102.109 20.032ZM100.701 15.808L97.9166 7.584L95.1646 15.808H100.701ZM131.814 24H126.342L117.19 10.144V24H111.718V1.536H117.19L126.342 15.456V1.536H131.814V24ZM150.693 8.64C150.288 7.89333 149.701 7.328 148.933 6.944C148.186 6.53867 147.301 6.336 146.277 6.336C144.506 6.336 143.088 6.92267 142.021 8.096C140.954 9.248 140.421 10.7947 140.421 12.736C140.421 14.8053 140.976 16.4267 142.085 17.6C143.216 18.752 144.762 19.328 146.725 19.328C148.069 19.328 149.2 18.9867 150.117 18.304C151.056 17.6213 151.738 16.64 152.165 15.36H145.221V11.328H157.125V16.416C156.72 17.7813 156.026 19.0507 155.045 20.224C154.085 21.3973 152.858 22.3467 151.365 23.072C149.872 23.7973 148.186 24.16 146.309 24.16C144.09 24.16 142.106 23.68 140.357 22.72C138.629 21.7387 137.274 20.384 136.293 18.656C135.333 16.928 134.853 14.9547 134.853 12.736C134.853 10.5173 135.333 8.544 136.293 6.816C137.274 5.06667 138.629 3.712 140.357 2.752C142.085 1.77067 144.058 1.28 146.277 1.28C148.965 1.28 151.226 1.93067 153.061 3.232C154.917 4.53333 156.144 6.336 156.741 8.64H150.693ZM165.628 5.92V10.464H172.956V14.688H165.628V19.616H173.916V24H160.156V1.536H173.916V5.92H165.628ZM200.154 5.408H190.17V9.824C190.596 9.35467 191.194 8.97067 191.962 8.672C192.73 8.37333 193.562 8.224 194.458 8.224C196.058 8.224 197.38 8.58667 198.426 9.312C199.492 10.0373 200.271 10.976 200.762 12.128C201.252 13.28 201.498 14.528 201.498 15.872C201.498 18.368 200.794 20.352 199.386 21.824C197.978 23.2747 195.994 24 193.434 24C191.727 24 190.244 23.712 188.986 23.136C187.727 22.5387 186.756 21.7173 186.074 20.672C185.391 19.6267 185.018 18.4213 184.954 17.056H190.298C190.426 17.7173 190.735 18.272 191.226 18.72C191.716 19.1467 192.388 19.36 193.242 19.36C194.244 19.36 194.991 19.04 195.482 18.4C195.972 17.76 196.218 16.9067 196.218 15.84C196.218 14.7947 195.962 13.9947 195.45 13.44C194.938 12.8853 194.191 12.608 193.21 12.608C192.484 12.608 191.887 12.7893 191.418 13.152C190.948 13.4933 190.639 13.952 190.49 14.528H185.21V0.608H200.154V5.408ZM228.963 8.768C228.963 10.0693 228.665 11.264 228.067 12.352C227.47 13.4187 226.553 14.2827 225.315 14.944C224.078 15.6053 222.542 15.936 220.707 15.936H217.315V24H211.843V1.536H220.707C222.499 1.536 224.014 1.84533 225.251 2.464C226.489 3.08267 227.417 3.936 228.035 5.024C228.654 6.112 228.963 7.36 228.963 8.768ZM220.291 11.584C221.337 11.584 222.115 11.3387 222.627 10.848C223.139 10.3573 223.395 9.664 223.395 8.768C223.395 7.872 223.139 7.17867 222.627 6.688C222.115 6.19733 221.337 5.952 220.291 5.952H217.315V11.584H220.291ZM243.268 24L238.596 15.52H237.284V24H231.812V1.536H240.996C242.767 1.536 244.271 1.84533 245.508 2.464C246.767 3.08267 247.705 3.936 248.324 5.024C248.943 6.09067 249.252 7.28533 249.252 8.608C249.252 10.1013 248.825 11.4347 247.972 12.608C247.14 13.7813 245.903 14.6133 244.26 15.104L249.444 24H243.268ZM237.284 11.648H240.676C241.679 11.648 242.425 11.4027 242.916 10.912C243.428 10.4213 243.684 9.728 243.684 8.832C243.684 7.97867 243.428 7.30667 242.916 6.816C242.425 6.32533 241.679 6.08 240.676 6.08H237.284V11.648ZM263.311 24.224C261.199 24.224 259.258 23.7333 257.487 22.752C255.738 21.7707 254.34 20.4053 253.295 18.656C252.271 16.8853 251.759 14.9013 251.759 12.704C251.759 10.5067 252.271 8.53333 253.295 6.784C254.34 5.03467 255.738 3.66933 257.487 2.688C259.258 1.70667 261.199 1.216 263.311 1.216C265.423 1.216 267.354 1.70667 269.103 2.688C270.874 3.66933 272.26 5.03467 273.263 6.784C274.287 8.53333 274.799 10.5067 274.799 12.704C274.799 14.9013 274.287 16.8853 273.263 18.656C272.239 20.4053 270.852 21.7707 269.103 22.752C267.354 23.7333 265.423 24.224 263.311 24.224ZM263.311 19.232C265.103 19.232 266.532 18.6347 267.599 17.44C268.687 16.2453 269.231 14.6667 269.231 12.704C269.231 10.72 268.687 9.14133 267.599 7.968C266.532 6.77333 265.103 6.176 263.311 6.176C261.498 6.176 260.047 6.76267 258.959 7.936C257.892 9.10933 257.359 10.6987 257.359 12.704C257.359 14.688 257.892 16.2773 258.959 17.472C260.047 18.6453 261.498 19.232 263.311 19.232ZM286.259 1.536C288.627 1.536 290.697 2.00533 292.467 2.944C294.238 3.88267 295.603 5.20533 296.563 6.912C297.545 8.59733 298.035 10.5493 298.035 12.768C298.035 14.9653 297.545 16.9173 296.563 18.624C295.603 20.3307 294.227 21.6533 292.435 22.592C290.665 23.5307 288.606 24 286.259 24H277.843V1.536H286.259ZM285.907 19.264C287.977 19.264 289.587 18.6987 290.739 17.568C291.891 16.4373 292.467 14.8373 292.467 12.768C292.467 10.6987 291.891 9.088 290.739 7.936C289.587 6.784 287.977 6.208 285.907 6.208H283.315V19.264H285.907ZM306.469 1.536V14.976C306.469 16.32 306.8 17.3547 307.461 18.08C308.123 18.8053 309.093 19.168 310.373 19.168C311.653 19.168 312.635 18.8053 313.317 18.08C314 17.3547 314.341 16.32 314.341 14.976V1.536H319.813V14.944C319.813 16.9493 319.387 18.6453 318.533 20.032C317.68 21.4187 316.528 22.464 315.077 23.168C313.648 23.872 312.048 24.224 310.277 24.224C308.507 24.224 306.917 23.8827 305.509 23.2C304.123 22.496 303.024 21.4507 302.213 20.064C301.403 18.656 300.997 16.9493 300.997 14.944V1.536H306.469ZM322.728 12.736C322.728 10.5173 323.208 8.544 324.168 6.816C325.128 5.06667 326.461 3.712 328.168 2.752C329.896 1.77067 331.848 1.28 334.024 1.28C336.691 1.28 338.973 1.984 340.872 3.392C342.771 4.8 344.04 6.72 344.68 9.152H338.664C338.216 8.21333 337.576 7.49867 336.744 7.008C335.933 6.51733 335.005 6.272 333.96 6.272C332.275 6.272 330.909 6.85867 329.864 8.032C328.819 9.20533 328.296 10.7733 328.296 12.736C328.296 14.6987 328.819 16.2667 329.864 17.44C330.909 18.6133 332.275 19.2 333.96 19.2C335.005 19.2 335.933 18.9547 336.744 18.464C337.576 17.9733 338.216 17.2587 338.664 16.32H344.68C344.04 18.752 342.771 20.672 340.872 22.08C338.973 23.4667 336.691 24.16 334.024 24.16C331.848 24.16 329.896 23.68 328.168 22.72C326.461 21.7387 325.128 20.384 324.168 18.656C323.208 16.928 322.728 14.9547 322.728 12.736ZM364.191 1.536V5.92H358.239V24H352.767V5.92H346.815V1.536H364.191ZM375.065 24.224C373.422 24.224 371.95 23.9573 370.649 23.424C369.348 22.8907 368.302 22.1013 367.513 21.056C366.745 20.0107 366.34 18.752 366.297 17.28H372.121C372.206 18.112 372.494 18.752 372.985 19.2C373.476 19.6267 374.116 19.84 374.905 19.84C375.716 19.84 376.356 19.6587 376.825 19.296C377.294 18.912 377.529 18.3893 377.529 17.728C377.529 17.1733 377.337 16.7147 376.953 16.352C376.59 15.9893 376.132 15.6907 375.577 15.456C375.044 15.2213 374.276 14.9547 373.273 14.656C371.822 14.208 370.638 13.76 369.721 13.312C368.804 12.864 368.014 12.2027 367.353 11.328C366.692 10.4533 366.361 9.312 366.361 7.904C366.361 5.81333 367.118 4.18133 368.633 3.008C370.148 1.81333 372.121 1.216 374.553 1.216C377.028 1.216 379.022 1.81333 380.537 3.008C382.052 4.18133 382.862 5.824 382.969 7.936H377.049C377.006 7.21067 376.74 6.64533 376.249 6.24C375.758 5.81333 375.129 5.6 374.361 5.6C373.7 5.6 373.166 5.78133 372.761 6.144C372.356 6.48533 372.153 6.98667 372.153 7.648C372.153 8.37333 372.494 8.93867 373.177 9.344C373.86 9.74933 374.926 10.1867 376.377 10.656C377.828 11.1467 379.001 11.616 379.897 12.064C380.814 12.512 381.604 13.1627 382.265 14.016C382.926 14.8693 383.257 15.968 383.257 17.312C383.257 18.592 382.926 19.7547 382.265 20.8C381.625 21.8453 380.686 22.6773 379.449 23.296C378.212 23.9147 376.75 24.224 375.065 24.224ZM410.59 24L408.51 21.984C406.441 23.5627 403.966 24.352 401.086 24.352C399.358 24.352 397.854 24.0747 396.574 23.52C395.294 22.944 394.302 22.144 393.598 21.12C392.915 20.0747 392.574 18.8587 392.574 17.472C392.574 16.064 392.947 14.7947 393.694 13.664C394.462 12.512 395.603 11.5733 397.118 10.848C396.563 10.1653 396.169 9.51467 395.934 8.896C395.699 8.256 395.582 7.56267 395.582 6.816C395.582 5.74933 395.859 4.77867 396.414 3.904C396.969 3.02933 397.769 2.34667 398.814 1.856C399.881 1.344 401.139 1.088 402.59 1.088C404.062 1.088 405.31 1.35467 406.334 1.888C407.358 2.42133 408.126 3.136 408.638 4.032C409.15 4.928 409.385 5.90933 409.342 6.976H404.19C404.211 6.4 404.062 5.96267 403.742 5.664C403.443 5.344 403.038 5.184 402.526 5.184C402.014 5.184 401.587 5.33333 401.246 5.632C400.905 5.93067 400.734 6.31467 400.734 6.784C400.734 7.232 400.873 7.70133 401.15 8.192C401.449 8.68267 401.907 9.248 402.526 9.888L407.998 15.232C408.041 15.1253 408.094 14.9973 408.158 14.848C408.243 14.6987 408.329 14.528 408.414 14.336L409.598 12.32H415.07L413.534 15.104C412.958 16.3627 412.297 17.5573 411.55 18.688L416.958 24H410.59ZM401.342 19.936C402.771 19.936 404.041 19.5307 405.15 18.72L400.158 13.888C398.622 14.6773 397.854 15.744 397.854 17.088C397.854 17.8987 398.163 18.5813 398.782 19.136C399.422 19.6693 400.275 19.936 401.342 19.936ZM440.63 8.64C440.225 7.89333 439.638 7.328 438.87 6.944C438.124 6.53867 437.238 6.336 436.214 6.336C434.444 6.336 433.025 6.92267 431.958 8.096C430.892 9.248 430.358 10.7947 430.358 12.736C430.358 14.8053 430.913 16.4267 432.022 17.6C433.153 18.752 434.7 19.328 436.662 19.328C438.006 19.328 439.137 18.9867 440.054 18.304C440.993 17.6213 441.676 16.64 442.102 15.36H435.158V11.328H447.062V16.416C446.657 17.7813 445.964 19.0507 444.982 20.224C444.022 21.3973 442.796 22.3467 441.302 23.072C439.809 23.7973 438.124 24.16 436.246 24.16C434.028 24.16 432.044 23.68 430.294 22.72C428.566 21.7387 427.212 20.384 426.23 18.656C425.27 16.928 424.79 14.9547 424.79 12.736C424.79 10.5173 425.27 8.544 426.23 6.816C427.212 5.06667 428.566 3.712 430.294 2.752C432.022 1.77067 433.996 1.28 436.214 1.28C438.902 1.28 441.164 1.93067 442.998 3.232C444.854 4.53333 446.081 6.336 446.678 8.64H440.63ZM455.565 5.92V10.464H462.893V14.688H455.565V19.616H463.853V24H450.093V1.536H463.853V5.92H455.565ZM483.566 1.536V5.92H477.614V24H472.142V5.92H466.19V1.536H483.566ZM491.973 5.728V0.639999H500.837V24H495.141V5.728H491.973ZM526.53 1.536V5.92H517.378V10.656H524.226V14.912H517.378V24H511.906V1.536H526.53ZM540.862 24L536.19 15.52H534.878V24H529.406V1.536H538.59C540.361 1.536 541.865 1.84533 543.102 2.464C544.361 3.08267 545.299 3.936 545.918 5.024C546.537 6.09067 546.846 7.28533 546.846 8.608C546.846 10.1013 546.419 11.4347 545.566 12.608C544.734 13.7813 543.497 14.6133 541.854 15.104L547.038 24H540.862ZM534.878 11.648H538.27C539.273 11.648 540.019 11.4027 540.51 10.912C541.022 10.4213 541.278 9.728 541.278 8.832C541.278 7.97867 541.022 7.30667 540.51 6.816C540.019 6.32533 539.273 6.08 538.27 6.08H534.878V11.648ZM555.753 5.92V10.464H563.081V14.688H555.753V19.616H564.041V24H550.281V1.536H564.041V5.92H555.753ZM573.065 5.92V10.464H580.393V14.688H573.065V19.616H581.353V24H567.593V1.536H581.353V5.92H573.065ZM608.807 8.768C608.807 10.0693 608.508 11.264 607.911 12.352C607.314 13.4187 606.396 14.2827 605.159 14.944C603.922 15.6053 602.386 15.936 600.551 15.936H597.159V24H591.687V1.536H600.551C602.343 1.536 603.858 1.84533 605.095 2.464C606.332 3.08267 607.26 3.936 607.879 5.024C608.498 6.112 608.807 7.36 608.807 8.768ZM600.135 11.584C601.18 11.584 601.959 11.3387 602.471 10.848C602.983 10.3573 603.239 9.664 603.239 8.768C603.239 7.872 602.983 7.17867 602.471 6.688C601.959 6.19733 601.18 5.952 600.135 5.952H597.159V11.584H600.135ZM623.112 24L618.44 15.52H617.128V24H611.656V1.536H620.84C622.611 1.536 624.115 1.84533 625.352 2.464C626.611 3.08267 627.549 3.936 628.168 5.024C628.787 6.09067 629.096 7.28533 629.096 8.608C629.096 10.1013 628.669 11.4347 627.816 12.608C626.984 13.7813 625.747 14.6133 624.104 15.104L629.288 24H623.112ZM617.128 11.648H620.52C621.523 11.648 622.269 11.4027 622.76 10.912C623.272 10.4213 623.528 9.728 623.528 8.832C623.528 7.97867 623.272 7.30667 622.76 6.816C622.269 6.32533 621.523 6.08 620.52 6.08H617.128V11.648ZM643.155 24.224C641.043 24.224 639.102 23.7333 637.331 22.752C635.582 21.7707 634.184 20.4053 633.139 18.656C632.115 16.8853 631.603 14.9013 631.603 12.704C631.603 10.5067 632.115 8.53333 633.139 6.784C634.184 5.03467 635.582 3.66933 637.331 2.688C639.102 1.70667 641.043 1.216 643.155 1.216C645.267 1.216 647.198 1.70667 648.947 2.688C650.718 3.66933 652.104 5.03467 653.107 6.784C654.131 8.53333 654.643 10.5067 654.643 12.704C654.643 14.9013 654.131 16.8853 653.107 18.656C652.083 20.4053 650.696 21.7707 648.947 22.752C647.198 23.7333 645.267 24.224 643.155 24.224ZM643.155 19.232C644.947 19.232 646.376 18.6347 647.443 17.44C648.531 16.2453 649.075 14.6667 649.075 12.704C649.075 10.72 648.531 9.14133 647.443 7.968C646.376 6.77333 644.947 6.176 643.155 6.176C641.342 6.176 639.891 6.76267 638.803 7.936C637.736 9.10933 637.203 10.6987 637.203 12.704C637.203 14.688 637.736 16.2773 638.803 17.472C639.891 18.6453 641.342 19.232 643.155 19.232ZM666.103 1.536C668.471 1.536 670.54 2.00533 672.311 2.944C674.082 3.88267 675.447 5.20533 676.407 6.912C677.388 8.59733 677.879 10.5493 677.879 12.768C677.879 14.9653 677.388 16.9173 676.407 18.624C675.447 20.3307 674.071 21.6533 672.279 22.592C670.508 23.5307 668.45 24 666.103 24H657.687V1.536H666.103ZM665.751 19.264C667.82 19.264 669.431 18.6987 670.583 17.568C671.735 16.4373 672.311 14.8373 672.311 12.768C672.311 10.6987 671.735 9.088 670.583 7.936C669.431 6.784 667.82 6.208 665.751 6.208H663.159V19.264H665.751ZM686.313 1.536V14.976C686.313 16.32 686.644 17.3547 687.305 18.08C687.966 18.8053 688.937 19.168 690.217 19.168C691.497 19.168 692.478 18.8053 693.161 18.08C693.844 17.3547 694.185 16.32 694.185 14.976V1.536H699.657V14.944C699.657 16.9493 699.23 18.6453 698.377 20.032C697.524 21.4187 696.372 22.464 694.921 23.168C693.492 23.872 691.892 24.224 690.121 24.224C688.35 24.224 686.761 23.8827 685.353 23.2C683.966 22.496 682.868 21.4507 682.057 20.064C681.246 18.656 680.841 16.9493 680.841 14.944V1.536H686.313ZM702.572 12.736C702.572 10.5173 703.052 8.544 704.012 6.816C704.972 5.06667 706.305 3.712 708.012 2.752C709.74 1.77067 711.692 1.28 713.868 1.28C716.534 1.28 718.817 1.984 720.716 3.392C722.614 4.8 723.884 6.72 724.524 9.152H718.508C718.06 8.21333 717.42 7.49867 716.588 7.008C715.777 6.51733 714.849 6.272 713.804 6.272C712.118 6.272 710.753 6.85867 709.708 8.032C708.662 9.20533 708.14 10.7733 708.14 12.736C708.14 14.6987 708.662 16.2667 709.708 17.44C710.753 18.6133 712.118 19.2 713.804 19.2C714.849 19.2 715.777 18.9547 716.588 18.464C717.42 17.9733 718.06 17.2587 718.508 16.32H724.524C723.884 18.752 722.614 20.672 720.716 22.08C718.817 23.4667 716.534 24.16 713.868 24.16C711.692 24.16 709.74 23.68 708.012 22.72C706.305 21.7387 704.972 20.384 704.012 18.656C703.052 16.928 702.572 14.9547 702.572 12.736ZM744.035 1.536V5.92H738.083V24H732.611V5.92H726.659V1.536H744.035ZM749.341 24.256C748.381 24.256 747.592 23.9787 746.973 23.424C746.376 22.848 746.077 22.144 746.077 21.312C746.077 20.4587 746.376 19.744 746.973 19.168C747.592 18.592 748.381 18.304 749.341 18.304C750.28 18.304 751.048 18.592 751.645 19.168C752.264 19.744 752.573 20.4587 752.573 21.312C752.573 22.144 752.264 22.848 751.645 23.424C751.048 23.9787 750.28 24.256 749.341 24.256Z" fill="url(#paint0_linear_32_3515)"/>
<defs>
<linearGradient id="paint0_linear_32_3515" x1="422.5" y1="-17.0833" x2="422.623" y2="62.7139" gradientUnits="userSpaceOnUse">
<stop stop-color="#FD749B"/>
<stop offset="1" stop-color="#281AC8"/>
</linearGradient>
</defs>
</svg>
