<svg width="247" height="66" viewBox="0 0 247 66" fill="none" xmlns="http://www.w3.org/2000/svg">
<path d="M14.7845 9.56C14.4298 8.90667 13.9165 8.412 13.2445 8.076C12.5912 7.72133 11.8165 7.544 10.9205 7.544C9.37116 7.544 8.12982 8.05733 7.19649 9.084C6.26316 10.092 5.79649 11.4453 5.79649 13.144C5.79649 14.9547 6.28182 16.3733 7.25249 17.4C8.24182 18.408 9.59516 18.912 11.3125 18.912C12.4885 18.912 13.4778 18.6133 14.2805 18.016C15.1018 17.4187 15.6992 16.56 16.0725 15.44H9.99649V11.912H20.4125V16.364C20.0578 17.5587 19.4512 18.6693 18.5925 19.696C17.7525 20.7227 16.6792 21.5533 15.3725 22.188C14.0658 22.8227 12.5912 23.14 10.9485 23.14C9.00716 23.14 7.27116 22.72 5.74049 21.88C4.22849 21.0213 3.04316 19.836 2.18449 18.324C1.34449 16.812 0.924488 15.0853 0.924488 13.144C0.924488 11.2027 1.34449 9.476 2.18449 7.964C3.04316 6.43333 4.22849 5.248 5.74049 4.408C7.25249 3.54933 8.97916 3.12 10.9205 3.12C13.2725 3.12 15.2512 3.68933 16.8565 4.828C18.4805 5.96667 19.5538 7.544 20.0765 9.56H14.7845ZM27.8526 9.98C28.4126 9.12133 29.1126 8.44933 29.9526 7.964C30.7926 7.46 31.7259 7.208 32.7526 7.208V12.276H31.4366C30.2419 12.276 29.3459 12.5373 28.7486 13.06C28.1513 13.564 27.8526 14.46 27.8526 15.748V23H23.0646V7.376H27.8526V9.98ZM49.7692 14.936C49.7692 15.384 49.7412 15.8507 49.6852 16.336H38.8492C38.9238 17.3067 39.2318 18.0533 39.7732 18.576C40.3332 19.08 41.0145 19.332 41.8172 19.332C43.0118 19.332 43.8425 18.828 44.3092 17.82H49.4052C49.1438 18.8467 48.6678 19.7707 47.9772 20.592C47.3052 21.4133 46.4558 22.0573 45.4292 22.524C44.4025 22.9907 43.2545 23.224 41.9852 23.224C40.4545 23.224 39.0918 22.8973 37.8972 22.244C36.7025 21.5907 35.7692 20.6573 35.0972 19.444C34.4252 18.2307 34.0892 16.812 34.0892 15.188C34.0892 13.564 34.4158 12.1453 35.0692 10.932C35.7412 9.71867 36.6745 8.78533 37.8692 8.132C39.0638 7.47867 40.4358 7.152 41.9852 7.152C43.4972 7.152 44.8412 7.46933 46.0172 8.104C47.1932 8.73867 48.1078 9.644 48.7612 10.82C49.4332 11.996 49.7692 13.368 49.7692 14.936ZM44.8692 13.676C44.8692 12.8547 44.5892 12.2013 44.0292 11.716C43.4692 11.2307 42.7692 10.988 41.9292 10.988C41.1265 10.988 40.4452 11.2213 39.8852 11.688C39.3438 12.1547 39.0078 12.8173 38.8772 13.676H44.8692ZM51.3431 15.16C51.3431 13.5547 51.6417 12.1453 52.2391 10.932C52.8551 9.71867 53.6857 8.78533 54.7311 8.132C55.7764 7.47867 56.9431 7.152 58.2311 7.152C59.3324 7.152 60.2937 7.376 61.1151 7.824C61.9551 8.272 62.5991 8.86 63.0471 9.588V7.376H67.8351V23H63.0471V20.788C62.5804 21.516 61.9271 22.104 61.0871 22.552C60.2657 23 59.3044 23.224 58.2031 23.224C56.9337 23.224 55.7764 22.8973 54.7311 22.244C53.6857 21.572 52.8551 20.6293 52.2391 19.416C51.6417 18.184 51.3431 16.7653 51.3431 15.16ZM63.0471 15.188C63.0471 13.9933 62.7111 13.0507 62.0391 12.36C61.3857 11.6693 60.5831 11.324 59.6311 11.324C58.6791 11.324 57.8671 11.6693 57.1951 12.36C56.5417 13.032 56.2151 13.9653 56.2151 15.16C56.2151 16.3547 56.5417 17.3067 57.1951 18.016C57.8671 18.7067 58.6791 19.052 59.6311 19.052C60.5831 19.052 61.3857 18.7067 62.0391 18.016C62.7111 17.3253 63.0471 16.3827 63.0471 15.188ZM80.007 18.94V23H77.571C75.835 23 74.4817 22.58 73.511 21.74C72.5403 20.8813 72.055 19.4907 72.055 17.568V11.352H70.151V7.376H72.055V3.568H76.843V7.376H79.979V11.352H76.843V17.624C76.843 18.0907 76.955 18.4267 77.179 18.632C77.403 18.8373 77.7763 18.94 78.299 18.94H80.007ZM103.336 14.936C103.336 15.384 103.308 15.8507 103.252 16.336H92.4156C92.4902 17.3067 92.7982 18.0533 93.3396 18.576C93.8996 19.08 94.5809 19.332 95.3836 19.332C96.5782 19.332 97.4089 18.828 97.8756 17.82H102.972C102.71 18.8467 102.234 19.7707 101.544 20.592C100.872 21.4133 100.022 22.0573 98.9956 22.524C97.9689 22.9907 96.8209 23.224 95.5516 23.224C94.0209 23.224 92.6582 22.8973 91.4636 22.244C90.2689 21.5907 89.3356 20.6573 88.6636 19.444C87.9916 18.2307 87.6556 16.812 87.6556 15.188C87.6556 13.564 87.9822 12.1453 88.6356 10.932C89.3076 9.71867 90.2409 8.78533 91.4356 8.132C92.6302 7.47867 94.0022 7.152 95.5516 7.152C97.0636 7.152 98.4076 7.46933 99.5836 8.104C100.76 8.73867 101.674 9.644 102.328 10.82C103 11.996 103.336 13.368 103.336 14.936ZM98.4356 13.676C98.4356 12.8547 98.1556 12.2013 97.5956 11.716C97.0356 11.2307 96.3356 10.988 95.4956 10.988C94.6929 10.988 94.0116 11.2213 93.4516 11.688C92.9102 12.1547 92.5742 12.8173 92.4436 13.676H98.4356ZM115.101 23L112.105 18.66L109.585 23H104.405L109.557 15.02L104.265 7.376H109.641L112.637 11.688L115.157 7.376H120.337L115.101 15.244L120.477 23H115.101ZM127.11 9.588C127.577 8.86 128.221 8.272 129.042 7.824C129.864 7.376 130.825 7.152 131.926 7.152C133.214 7.152 134.381 7.47867 135.426 8.132C136.472 8.78533 137.293 9.71867 137.89 10.932C138.506 12.1453 138.814 13.5547 138.814 15.16C138.814 16.7653 138.506 18.184 137.89 19.416C137.293 20.6293 136.472 21.572 135.426 22.244C134.381 22.8973 133.214 23.224 131.926 23.224C130.844 23.224 129.882 23 129.042 22.552C128.221 22.104 127.577 21.5253 127.11 20.816V30.448H122.322V7.376H127.11V9.588ZM133.942 15.16C133.942 13.9653 133.606 13.032 132.934 12.36C132.281 11.6693 131.469 11.324 130.498 11.324C129.546 11.324 128.734 11.6693 128.062 12.36C127.409 13.0507 127.082 13.9933 127.082 15.188C127.082 16.3827 127.409 17.3253 128.062 18.016C128.734 18.7067 129.546 19.052 130.498 19.052C131.45 19.052 132.262 18.7067 132.934 18.016C133.606 17.3067 133.942 16.3547 133.942 15.16ZM156.054 14.936C156.054 15.384 156.026 15.8507 155.97 16.336H145.134C145.209 17.3067 145.517 18.0533 146.058 18.576C146.618 19.08 147.3 19.332 148.102 19.332C149.297 19.332 150.128 18.828 150.594 17.82H155.69C155.429 18.8467 154.953 19.7707 154.262 20.592C153.59 21.4133 152.741 22.0573 151.714 22.524C150.688 22.9907 149.54 23.224 148.27 23.224C146.74 23.224 145.377 22.8973 144.182 22.244C142.988 21.5907 142.054 20.6573 141.382 19.444C140.71 18.2307 140.374 16.812 140.374 15.188C140.374 13.564 140.701 12.1453 141.354 10.932C142.026 9.71867 142.96 8.78533 144.154 8.132C145.349 7.47867 146.721 7.152 148.27 7.152C149.782 7.152 151.126 7.46933 152.302 8.104C153.478 8.73867 154.393 9.644 155.046 10.82C155.718 11.996 156.054 13.368 156.054 14.936ZM151.154 13.676C151.154 12.8547 150.874 12.2013 150.314 11.716C149.754 11.2307 149.054 10.988 148.214 10.988C147.412 10.988 146.73 11.2213 146.17 11.688C145.629 12.1547 145.293 12.8173 145.162 13.676H151.154ZM163.368 9.98C163.928 9.12133 164.628 8.44933 165.468 7.964C166.308 7.46 167.242 7.208 168.268 7.208V12.276H166.952C165.758 12.276 164.862 12.5373 164.264 13.06C163.667 13.564 163.368 14.46 163.368 15.748V23H158.58V7.376H163.368V9.98ZM172.965 5.752C172.125 5.752 171.434 5.50933 170.893 5.024C170.37 4.52 170.109 3.904 170.109 3.176C170.109 2.42933 170.37 1.81333 170.893 1.328C171.434 0.823998 172.125 0.571998 172.965 0.571998C173.786 0.571998 174.458 0.823998 174.981 1.328C175.522 1.81333 175.793 2.42933 175.793 3.176C175.793 3.904 175.522 4.52 174.981 5.024C174.458 5.50933 173.786 5.752 172.965 5.752ZM175.345 7.376V23H170.557V7.376H175.345ZM193.543 14.936C193.543 15.384 193.515 15.8507 193.459 16.336H182.623C182.697 17.3067 183.005 18.0533 183.547 18.576C184.107 19.08 184.788 19.332 185.591 19.332C186.785 19.332 187.616 18.828 188.083 17.82H193.179C192.917 18.8467 192.441 19.7707 191.751 20.592C191.079 21.4133 190.229 22.0573 189.203 22.524C188.176 22.9907 187.028 23.224 185.759 23.224C184.228 23.224 182.865 22.8973 181.671 22.244C180.476 21.5907 179.543 20.6573 178.871 19.444C178.199 18.2307 177.863 16.812 177.863 15.188C177.863 13.564 178.189 12.1453 178.843 10.932C179.515 9.71867 180.448 8.78533 181.643 8.132C182.837 7.47867 184.209 7.152 185.759 7.152C187.271 7.152 188.615 7.46933 189.791 8.104C190.967 8.73867 191.881 9.644 192.535 10.82C193.207 11.996 193.543 13.368 193.543 14.936ZM188.643 13.676C188.643 12.8547 188.363 12.2013 187.803 11.716C187.243 11.2307 186.543 10.988 185.703 10.988C184.9 10.988 184.219 11.2213 183.659 11.688C183.117 12.1547 182.781 12.8173 182.651 13.676H188.643ZM205.589 7.208C207.418 7.208 208.874 7.80533 209.957 9C211.058 10.176 211.609 11.8 211.609 13.872V23H206.849V14.516C206.849 13.4707 206.578 12.6587 206.037 12.08C205.495 11.5013 204.767 11.212 203.853 11.212C202.938 11.212 202.21 11.5013 201.669 12.08C201.127 12.6587 200.857 13.4707 200.857 14.516V23H196.069V7.376H200.857V9.448C201.342 8.75733 201.995 8.216 202.817 7.824C203.638 7.41333 204.562 7.208 205.589 7.208ZM213.984 15.188C213.984 13.564 214.31 12.1453 214.964 10.932C215.636 9.71867 216.56 8.78533 217.736 8.132C218.93 7.47867 220.293 7.152 221.824 7.152C223.784 7.152 225.417 7.66533 226.724 8.692C228.049 9.71867 228.917 11.1653 229.328 13.032H224.232C223.802 11.8373 222.972 11.24 221.74 11.24C220.862 11.24 220.162 11.5853 219.64 12.276C219.117 12.948 218.856 13.9187 218.856 15.188C218.856 16.4573 219.117 17.4373 219.64 18.128C220.162 18.8 220.862 19.136 221.74 19.136C222.972 19.136 223.802 18.5387 224.232 17.344H229.328C228.917 19.1733 228.049 20.6107 226.724 21.656C225.398 22.7013 223.765 23.224 221.824 23.224C220.293 23.224 218.93 22.8973 217.736 22.244C216.56 21.5907 215.636 20.6573 214.964 19.444C214.31 18.2307 213.984 16.812 213.984 15.188ZM246.617 14.936C246.617 15.384 246.589 15.8507 246.533 16.336H235.697C235.771 17.3067 236.079 18.0533 236.621 18.576C237.181 19.08 237.862 19.332 238.665 19.332C239.859 19.332 240.69 18.828 241.157 17.82H246.253C245.992 18.8467 245.516 19.7707 244.825 20.592C244.153 21.4133 243.303 22.0573 242.277 22.524C241.25 22.9907 240.102 23.224 238.833 23.224C237.302 23.224 235.939 22.8973 234.745 22.244C233.55 21.5907 232.617 20.6573 231.945 19.444C231.273 18.2307 230.937 16.812 230.937 15.188C230.937 13.564 231.263 12.1453 231.917 10.932C232.589 9.71867 233.522 8.78533 234.717 8.132C235.911 7.47867 237.283 7.152 238.833 7.152C240.345 7.152 241.689 7.46933 242.865 8.104C244.041 8.73867 244.955 9.644 245.609 10.82C246.281 11.996 246.617 13.368 246.617 14.936ZM241.717 13.676C241.717 12.8547 241.437 12.2013 240.877 11.716C240.317 11.2307 239.617 10.988 238.777 10.988C237.974 10.988 237.293 11.2213 236.733 11.688C236.191 12.1547 235.855 12.8173 235.725 13.676H241.717ZM24.1645 49.376L19.9365 65H14.6445L12.1805 54.864L9.63249 65H4.36849L0.112488 49.376H4.90049L7.11249 60.548L9.74449 49.376H14.8125L17.4725 60.492L19.6565 49.376H24.1645ZM28.3984 47.752C27.5584 47.752 26.8677 47.5093 26.3264 47.024C25.8037 46.52 25.5424 45.904 25.5424 45.176C25.5424 44.4293 25.8037 43.8133 26.3264 43.328C26.8677 42.824 27.5584 42.572 28.3984 42.572C29.2197 42.572 29.8917 42.824 30.4144 43.328C30.9557 43.8133 31.2264 44.4293 31.2264 45.176C31.2264 45.904 30.9557 46.52 30.4144 47.024C29.8917 47.5093 29.2197 47.752 28.3984 47.752ZM30.7784 49.376V65H25.9904V49.376H30.7784ZM42.9562 60.94V65H40.5202C38.7842 65 37.4309 64.58 36.4602 63.74C35.4895 62.8813 35.0042 61.4907 35.0042 59.568V53.352H33.1002V49.376H35.0042V45.568H39.7922V49.376H42.9282V53.352H39.7922V59.624C39.7922 60.0907 39.9042 60.4267 40.1282 60.632C40.3522 60.8373 40.7255 60.94 41.2482 60.94H42.9562ZM55.2272 49.208C57.0192 49.208 58.4565 49.8053 59.5392 51C60.6219 52.176 61.1632 53.8 61.1632 55.872V65H56.4032V56.516C56.4032 55.4707 56.1325 54.6587 55.5912 54.08C55.0499 53.5013 54.3219 53.212 53.4072 53.212C52.4925 53.212 51.7645 53.5013 51.2232 54.08C50.6819 54.6587 50.4112 55.4707 50.4112 56.516V65H45.6232V44.28H50.4112V51.476C50.8965 50.7853 51.5592 50.2347 52.3992 49.824C53.2392 49.4133 54.1819 49.208 55.2272 49.208ZM69.612 55.144C69.612 53.2027 70.032 51.476 70.872 49.964C71.712 48.4333 72.8787 47.248 74.372 46.408C75.884 45.5493 77.592 45.12 79.496 45.12C81.8293 45.12 83.8267 45.736 85.488 46.968C87.1493 48.2 88.26 49.88 88.82 52.008H83.556C83.164 51.1867 82.604 50.5613 81.876 50.132C81.1667 49.7027 80.3547 49.488 79.44 49.488C77.9653 49.488 76.7707 50.0013 75.856 51.028C74.9413 52.0547 74.484 53.4267 74.484 55.144C74.484 56.8613 74.9413 58.2333 75.856 59.26C76.7707 60.2867 77.9653 60.8 79.44 60.8C80.3547 60.8 81.1667 60.5853 81.876 60.156C82.604 59.7267 83.164 59.1013 83.556 58.28H88.82C88.26 60.408 87.1493 62.088 85.488 63.32C83.8267 64.5333 81.8293 65.14 79.496 65.14C77.592 65.14 75.884 64.72 74.372 63.88C72.8787 63.0213 71.712 61.836 70.872 60.324C70.032 58.812 69.612 57.0853 69.612 55.144ZM98.8641 65.224C97.3334 65.224 95.9521 64.8973 94.7201 64.244C93.5068 63.5907 92.5454 62.6573 91.8361 61.444C91.1454 60.2307 90.8001 58.812 90.8001 57.188C90.8001 55.5827 91.1548 54.1733 91.8641 52.96C92.5734 51.728 93.5441 50.7853 94.7761 50.132C96.0081 49.4787 97.3894 49.152 98.9201 49.152C100.451 49.152 101.832 49.4787 103.064 50.132C104.296 50.7853 105.267 51.728 105.976 52.96C106.685 54.1733 107.04 55.5827 107.04 57.188C107.04 58.7933 106.676 60.212 105.948 61.444C105.239 62.6573 104.259 63.5907 103.008 64.244C101.776 64.8973 100.395 65.224 98.8641 65.224ZM98.8641 61.08C99.7788 61.08 100.553 60.744 101.188 60.072C101.841 59.4 102.168 58.4387 102.168 57.188C102.168 55.9373 101.851 54.976 101.216 54.304C100.6 53.632 99.8348 53.296 98.9201 53.296C97.9868 53.296 97.2121 53.632 96.5961 54.304C95.9801 54.9573 95.6721 55.9187 95.6721 57.188C95.6721 58.4387 95.9708 59.4 96.5681 60.072C97.1841 60.744 97.9494 61.08 98.8641 61.08ZM111.988 47.752C111.148 47.752 110.458 47.5093 109.916 47.024C109.394 46.52 109.132 45.904 109.132 45.176C109.132 44.4293 109.394 43.8133 109.916 43.328C110.458 42.824 111.148 42.572 111.988 42.572C112.81 42.572 113.482 42.824 114.004 43.328C114.546 43.8133 114.816 44.4293 114.816 45.176C114.816 45.904 114.546 46.52 114.004 47.024C113.482 47.5093 112.81 47.752 111.988 47.752ZM114.368 49.376V65H109.58V49.376H114.368ZM127.358 49.208C129.187 49.208 130.643 49.8053 131.726 51C132.827 52.176 133.378 53.8 133.378 55.872V65H128.618V56.516C128.618 55.4707 128.347 54.6587 127.806 54.08C127.265 53.5013 126.537 53.212 125.622 53.212C124.707 53.212 123.979 53.5013 123.438 54.08C122.897 54.6587 122.626 55.4707 122.626 56.516V65H117.838V49.376H122.626V51.448C123.111 50.7573 123.765 50.216 124.586 49.824C125.407 49.4133 126.331 49.208 127.358 49.208ZM148.605 54.92C149.744 55.1627 150.659 55.732 151.349 56.628C152.04 57.5053 152.385 58.5133 152.385 59.652C152.385 61.2947 151.807 62.6013 150.649 63.572C149.511 64.524 147.915 65 145.861 65H136.705V45.344H145.553C147.551 45.344 149.109 45.8013 150.229 46.716C151.368 47.6307 151.937 48.872 151.937 50.44C151.937 51.5973 151.629 52.5587 151.013 53.324C150.416 54.0893 149.613 54.6213 148.605 54.92ZM141.493 53.296H144.629C145.413 53.296 146.011 53.128 146.421 52.792C146.851 52.4373 147.065 51.924 147.065 51.252C147.065 50.58 146.851 50.0667 146.421 49.712C146.011 49.3573 145.413 49.18 144.629 49.18H141.493V53.296ZM145.021 61.136C145.824 61.136 146.44 60.9587 146.869 60.604C147.317 60.2307 147.541 59.6987 147.541 59.008C147.541 58.3173 147.308 57.776 146.841 57.384C146.393 56.992 145.768 56.796 144.965 56.796H141.493V61.136H145.021ZM154.21 57.16C154.21 55.5547 154.509 54.1453 155.106 52.932C155.722 51.7187 156.553 50.7853 157.598 50.132C158.644 49.4787 159.81 49.152 161.098 49.152C162.2 49.152 163.161 49.376 163.982 49.824C164.822 50.272 165.466 50.86 165.914 51.588V49.376H170.702V65H165.914V62.788C165.448 63.516 164.794 64.104 163.954 64.552C163.133 65 162.172 65.224 161.07 65.224C159.801 65.224 158.644 64.8973 157.598 64.244C156.553 63.572 155.722 62.6293 155.106 61.416C154.509 60.184 154.21 58.7653 154.21 57.16ZM165.914 57.188C165.914 55.9933 165.578 55.0507 164.906 54.36C164.253 53.6693 163.45 53.324 162.498 53.324C161.546 53.324 160.734 53.6693 160.062 54.36C159.409 55.032 159.082 55.9653 159.082 57.16C159.082 58.3547 159.409 59.3067 160.062 60.016C160.734 60.7067 161.546 61.052 162.498 61.052C163.45 61.052 164.253 60.7067 164.906 60.016C165.578 59.3253 165.914 58.3827 165.914 57.188ZM180.522 65.224C179.16 65.224 177.946 64.9907 176.882 64.524C175.818 64.0573 174.978 63.4227 174.362 62.62C173.746 61.7987 173.401 60.884 173.326 59.876H178.058C178.114 60.4173 178.366 60.856 178.814 61.192C179.262 61.528 179.813 61.696 180.466 61.696C181.064 61.696 181.521 61.584 181.838 61.36C182.174 61.1173 182.342 60.8093 182.342 60.436C182.342 59.988 182.109 59.6613 181.642 59.456C181.176 59.232 180.42 58.9893 179.374 58.728C178.254 58.4667 177.321 58.196 176.574 57.916C175.828 57.6173 175.184 57.16 174.642 56.544C174.101 55.9093 173.83 55.06 173.83 53.996C173.83 53.1 174.073 52.288 174.558 51.56C175.062 50.8133 175.79 50.2253 176.742 49.796C177.713 49.3667 178.861 49.152 180.186 49.152C182.146 49.152 183.686 49.6373 184.806 50.608C185.945 51.5787 186.598 52.8667 186.766 54.472H182.342C182.268 53.9307 182.025 53.5013 181.614 53.184C181.222 52.8667 180.7 52.708 180.046 52.708C179.486 52.708 179.057 52.82 178.758 53.044C178.46 53.2493 178.31 53.5387 178.31 53.912C178.31 54.36 178.544 54.696 179.01 54.92C179.496 55.144 180.242 55.368 181.25 55.592C182.408 55.8907 183.35 56.1893 184.078 56.488C184.806 56.768 185.441 57.2347 185.982 57.888C186.542 58.5227 186.832 59.3813 186.85 60.464C186.85 61.3787 186.589 62.2 186.066 62.928C185.562 63.6373 184.825 64.1973 183.854 64.608C182.902 65.0187 181.792 65.224 180.522 65.224ZM204.507 56.936C204.507 57.384 204.479 57.8507 204.423 58.336H193.587C193.662 59.3067 193.97 60.0533 194.511 60.576C195.071 61.08 195.753 61.332 196.555 61.332C197.75 61.332 198.581 60.828 199.047 59.82H204.143C203.882 60.8467 203.406 61.7707 202.715 62.592C202.043 63.4133 201.194 64.0573 200.167 64.524C199.141 64.9907 197.993 65.224 196.723 65.224C195.193 65.224 193.83 64.8973 192.635 64.244C191.441 63.5907 190.507 62.6573 189.835 61.444C189.163 60.2307 188.827 58.812 188.827 57.188C188.827 55.564 189.154 54.1453 189.807 52.932C190.479 51.7187 191.413 50.7853 192.607 50.132C193.802 49.4787 195.174 49.152 196.723 49.152C198.235 49.152 199.579 49.4693 200.755 50.104C201.931 50.7387 202.846 51.644 203.499 52.82C204.171 53.996 204.507 55.368 204.507 56.936ZM199.607 55.676C199.607 54.8547 199.327 54.2013 198.767 53.716C198.207 53.2307 197.507 52.988 196.667 52.988C195.865 52.988 195.183 53.2213 194.623 53.688C194.082 54.1547 193.746 54.8173 193.615 55.676H199.607Z" fill="url(#paint0_linear_32_2940)"/>
<defs>
<linearGradient id="paint0_linear_32_2940" x1="139.7" y1="-19.2222" x2="141.269" y2="129.716" gradientUnits="userSpaceOnUse">
<stop stop-color="#FD749B"/>
<stop offset="1" stop-color="#281AC8"/>
</linearGradient>
</defs>
</svg>
