<svg width="145" height="33" viewBox="0 0 145 33" fill="none" xmlns="http://www.w3.org/2000/svg">
<mask id="path-1-outside-1_32_3260" maskUnits="userSpaceOnUse" x="46.5669" y="11.5891" width="98" height="18" fill="black">
<rect fill="white" x="46.5669" y="11.5891" width="98" height="18"/>
<path d="M47.5669 21.0943C47.5669 19.6905 47.8853 18.4312 48.5222 17.3165C49.1591 16.188 50.0244 15.3072 51.1182 14.6741C52.2258 14.041 53.4511 13.7245 54.7941 13.7245C56.3725 13.7245 57.7501 14.103 58.9269 14.8599C60.1038 15.6168 60.9622 16.6903 61.5021 18.0803H59.2384C58.8369 17.2133 58.2554 16.5458 57.4939 16.0779C56.7463 15.61 55.8464 15.376 54.7941 15.376C53.7834 15.376 52.8765 15.61 52.0735 16.0779C51.2705 16.5458 50.6405 17.2133 50.1836 18.0803C49.7268 18.9336 49.4983 19.9382 49.4983 21.0943C49.4983 22.2365 49.7268 23.2412 50.1836 24.1082C50.6405 24.9615 51.2705 25.6221 52.0735 26.09C52.8765 26.5579 53.7834 26.7919 54.7941 26.7919C55.8464 26.7919 56.7463 26.5648 57.4939 26.1107C58.2554 25.6427 58.8369 24.9753 59.2384 24.1082H61.5021C60.9622 25.4845 60.1038 26.551 58.9269 27.308C57.7501 28.0511 56.3725 28.4227 54.7941 28.4227C53.4511 28.4227 52.2258 28.1131 51.1182 27.4938C50.0244 26.8607 49.1591 25.9868 48.5222 24.872C47.8853 23.7573 47.5669 22.498 47.5669 21.0943Z"/>
<path d="M69.2789 28.4847C68.2128 28.4847 67.2436 28.2438 66.3714 27.7621C65.513 27.2805 64.8346 26.5992 64.3361 25.7184C63.8516 24.8239 63.6093 23.7917 63.6093 22.6219C63.6093 21.4658 63.8585 20.4474 64.3569 19.5666C64.8692 18.6721 65.5614 17.9908 66.4337 17.5229C67.3059 17.0412 68.282 16.8004 69.362 16.8004C70.4419 16.8004 71.418 17.0412 72.2902 17.5229C73.1625 17.9908 73.8478 18.6652 74.3462 19.546C74.8585 20.4268 75.1147 21.4521 75.1147 22.6219C75.1147 23.7917 74.8516 24.8239 74.3255 25.7184C73.8132 26.5992 73.114 27.2805 72.2279 27.7621C71.3418 28.2438 70.3588 28.4847 69.2789 28.4847ZM69.2789 26.8332C69.9573 26.8332 70.5942 26.6749 71.1895 26.3584C71.7849 26.0418 72.2625 25.567 72.6225 24.934C72.9963 24.3009 73.1832 23.5302 73.1832 22.6219C73.1832 21.7136 73.0033 20.9429 72.6433 20.3098C72.2833 19.6767 71.8126 19.2088 71.2311 18.906C70.6496 18.5895 70.0196 18.4312 69.3412 18.4312C68.6489 18.4312 68.012 18.5895 67.4305 18.906C66.8629 19.2088 66.406 19.6767 66.0599 20.3098C65.7137 20.9429 65.5407 21.7136 65.5407 22.6219C65.5407 23.544 65.7068 24.3215 66.0391 24.9546C66.3852 25.5877 66.8421 26.0625 67.4098 26.379C67.9774 26.6818 68.6005 26.8332 69.2789 26.8332Z"/>
<path d="M78.5756 15.1489C78.2156 15.1489 77.911 15.0251 77.6618 14.7773C77.4126 14.5296 77.288 14.2268 77.288 13.869C77.288 13.5112 77.4126 13.2084 77.6618 12.9607C77.911 12.713 78.2156 12.5891 78.5756 12.5891C78.9217 12.5891 79.2125 12.713 79.4478 12.9607C79.6971 13.2084 79.8217 13.5112 79.8217 13.869C79.8217 14.2268 79.6971 14.5296 79.4478 14.7773C79.2125 15.0251 78.9217 15.1489 78.5756 15.1489ZM79.4894 16.9862V28.2989H77.5995V16.9862H79.4894Z"/>
<path d="M88.2554 16.7798C89.6399 16.7798 90.7614 17.1995 91.6198 18.039C92.4782 18.8648 92.9074 20.0621 92.9074 21.631V28.2989H91.0383V21.8994C91.0383 20.7708 90.7544 19.9107 90.1868 19.3189C89.6191 18.7134 88.8438 18.4106 87.8608 18.4106C86.8639 18.4106 86.0678 18.7203 85.4725 19.3396C84.891 19.9589 84.6002 20.8603 84.6002 22.0439V28.2989H82.7103V16.9862H84.6002V18.5964C84.974 18.0184 85.4794 17.5711 86.1163 17.2546C86.767 16.938 87.48 16.7798 88.2554 16.7798Z"/>
<path d="M103.242 20.8878C103.769 20.9704 104.246 21.1837 104.675 21.5278C105.118 21.8718 105.465 22.2985 105.714 22.8077C105.977 23.3169 106.108 23.8605 106.108 24.4385C106.108 25.1679 105.922 25.8285 105.548 26.4203C105.174 26.9983 104.627 27.4594 103.907 27.8034C103.201 28.1337 102.363 28.2989 101.394 28.2989H95.9945V13.9103H101.186C102.169 13.9103 103.007 14.0754 103.699 14.4057C104.392 14.7223 104.911 15.1558 105.257 15.7063C105.603 16.2568 105.776 16.8761 105.776 17.5642C105.776 18.4175 105.541 19.1262 105.07 19.6905C104.613 20.241 104.004 20.6401 103.242 20.8878ZM97.8843 20.124H101.062C101.948 20.124 102.633 19.9176 103.118 19.5047C103.602 19.0918 103.845 18.5207 103.845 17.7913C103.845 17.0619 103.602 16.4907 103.118 16.0779C102.633 15.665 101.934 15.4586 101.02 15.4586H97.8843V20.124ZM101.228 26.7506C102.169 26.7506 102.903 26.5304 103.429 26.09C103.955 25.6496 104.219 25.0372 104.219 24.2527C104.219 23.4545 103.942 22.8283 103.388 22.3742C102.834 21.9062 102.093 21.6723 101.166 21.6723H97.8843V26.7506H101.228Z"/>
<path d="M108.025 22.6012C108.025 21.4452 108.26 20.4337 108.731 19.5666C109.202 18.6858 109.846 18.0046 110.662 17.5229C111.493 17.0412 112.414 16.8004 113.425 16.8004C114.421 16.8004 115.287 17.0137 116.021 17.4404C116.754 17.867 117.301 18.4037 117.661 19.0505V16.9862H119.572V28.2989H117.661V26.1932C117.287 26.8538 116.727 27.4043 115.979 27.8447C115.245 28.2713 114.387 28.4847 113.404 28.4847C112.393 28.4847 111.479 28.2369 110.662 27.7415C109.846 27.246 109.202 26.551 108.731 25.6565C108.26 24.7619 108.025 23.7435 108.025 22.6012ZM117.661 22.6219C117.661 21.7686 117.488 21.0254 117.142 20.3924C116.796 19.7593 116.325 19.2776 115.73 18.9473C115.148 18.6033 114.504 18.4312 113.798 18.4312C113.092 18.4312 112.448 18.5964 111.867 18.9267C111.285 19.257 110.822 19.7387 110.476 20.3717C110.129 21.0048 109.956 21.748 109.956 22.6012C109.956 23.4683 110.129 24.2252 110.476 24.872C110.822 25.5051 111.285 25.9937 111.867 26.3377C112.448 26.668 113.092 26.8332 113.798 26.8332C114.504 26.8332 115.148 26.668 115.73 26.3377C116.325 25.9937 116.796 25.5051 117.142 24.872C117.488 24.2252 117.661 23.4752 117.661 22.6219Z"/>
<path d="M126.795 28.4847C125.922 28.4847 125.14 28.3402 124.448 28.0511C123.755 27.7484 123.209 27.3355 122.807 26.8125C122.406 26.2758 122.184 25.6634 122.143 24.9753H124.095C124.15 25.5395 124.413 26.0006 124.884 26.3584C125.368 26.7162 125.998 26.8951 126.774 26.8951C127.494 26.8951 128.061 26.7368 128.477 26.4203C128.892 26.1038 129.1 25.7047 129.1 25.223C129.1 24.7275 128.878 24.3628 128.435 24.1289C127.992 23.8811 127.307 23.6403 126.379 23.4063C125.535 23.1861 124.842 22.9659 124.302 22.7457C123.776 22.5118 123.319 22.1746 122.932 21.7342C122.558 21.2801 122.371 20.6883 122.371 19.9589C122.371 19.3808 122.544 18.851 122.89 18.3693C123.236 17.8876 123.728 17.5092 124.365 17.2339C125.002 16.9449 125.728 16.8004 126.545 16.8004C127.805 16.8004 128.823 17.1169 129.598 17.75C130.374 18.3831 130.789 19.2501 130.844 20.3511H128.954C128.913 19.7593 128.671 19.2845 128.228 18.9267C127.798 18.5689 127.217 18.39 126.483 18.39C125.805 18.39 125.265 18.5345 124.863 18.8235C124.462 19.1125 124.261 19.4909 124.261 19.9589C124.261 20.3305 124.379 20.6401 124.614 20.8878C124.863 21.1218 125.168 21.3145 125.528 21.4658C125.902 21.6035 126.414 21.7617 127.064 21.9406C127.881 22.1608 128.546 22.381 129.058 22.6012C129.57 22.8077 130.007 23.1242 130.367 23.5508C130.74 23.9775 130.934 24.5349 130.948 25.223C130.948 25.8423 130.775 26.3997 130.429 26.8951C130.083 27.3905 129.591 27.7828 128.954 28.0718C128.331 28.347 127.611 28.4847 126.795 28.4847Z"/>
<path d="M144 22.209C144 22.5668 143.979 22.9453 143.938 23.3444H134.841C134.91 24.4592 135.291 25.3331 135.983 25.9661C136.69 26.5855 137.541 26.8951 138.538 26.8951C139.355 26.8951 140.033 26.7093 140.573 26.3377C141.127 25.9524 141.515 25.4432 141.736 24.8101H143.771C143.467 25.8973 142.858 26.785 141.944 27.4731C141.03 28.1475 139.895 28.4847 138.538 28.4847C137.458 28.4847 136.489 28.2438 135.63 27.7621C134.786 27.2805 134.121 26.5992 133.637 25.7184C133.152 24.8239 132.91 23.7917 132.91 22.6219C132.91 21.4521 133.145 20.4268 133.616 19.546C134.087 18.6652 134.744 17.9908 135.589 17.5229C136.447 17.0412 137.43 16.8004 138.538 16.8004C139.618 16.8004 140.573 17.0344 141.404 17.5023C142.235 17.9702 142.871 18.617 143.315 19.4428C143.771 20.2548 144 21.1768 144 22.209ZM142.048 21.8168C142.048 21.1011 141.888 20.4887 141.57 19.9795C141.252 19.4565 140.815 19.0643 140.262 18.8028C139.722 18.5276 139.119 18.39 138.455 18.39C137.5 18.39 136.683 18.6927 136.004 19.2983C135.34 19.9038 134.959 20.7433 134.862 21.8168H142.048Z"/>
</mask>
<path d="M47.5669 21.0943C47.5669 19.6905 47.8853 18.4312 48.5222 17.3165C49.1591 16.188 50.0244 15.3072 51.1182 14.6741C52.2258 14.041 53.4511 13.7245 54.7941 13.7245C56.3725 13.7245 57.7501 14.103 58.9269 14.8599C60.1038 15.6168 60.9622 16.6903 61.5021 18.0803H59.2384C58.8369 17.2133 58.2554 16.5458 57.4939 16.0779C56.7463 15.61 55.8464 15.376 54.7941 15.376C53.7834 15.376 52.8765 15.61 52.0735 16.0779C51.2705 16.5458 50.6405 17.2133 50.1836 18.0803C49.7268 18.9336 49.4983 19.9382 49.4983 21.0943C49.4983 22.2365 49.7268 23.2412 50.1836 24.1082C50.6405 24.9615 51.2705 25.6221 52.0735 26.09C52.8765 26.5579 53.7834 26.7919 54.7941 26.7919C55.8464 26.7919 56.7463 26.5648 57.4939 26.1107C58.2554 25.6427 58.8369 24.9753 59.2384 24.1082H61.5021C60.9622 25.4845 60.1038 26.551 58.9269 27.308C57.7501 28.0511 56.3725 28.4227 54.7941 28.4227C53.4511 28.4227 52.2258 28.1131 51.1182 27.4938C50.0244 26.8607 49.1591 25.9868 48.5222 24.872C47.8853 23.7573 47.5669 22.498 47.5669 21.0943Z" fill="#5C5C5C"/>
<path d="M69.2789 28.4847C68.2128 28.4847 67.2436 28.2438 66.3714 27.7621C65.513 27.2805 64.8346 26.5992 64.3361 25.7184C63.8516 24.8239 63.6093 23.7917 63.6093 22.6219C63.6093 21.4658 63.8585 20.4474 64.3569 19.5666C64.8692 18.6721 65.5614 17.9908 66.4337 17.5229C67.3059 17.0412 68.282 16.8004 69.362 16.8004C70.4419 16.8004 71.418 17.0412 72.2902 17.5229C73.1625 17.9908 73.8478 18.6652 74.3462 19.546C74.8585 20.4268 75.1147 21.4521 75.1147 22.6219C75.1147 23.7917 74.8516 24.8239 74.3255 25.7184C73.8132 26.5992 73.114 27.2805 72.2279 27.7621C71.3418 28.2438 70.3588 28.4847 69.2789 28.4847ZM69.2789 26.8332C69.9573 26.8332 70.5942 26.6749 71.1895 26.3584C71.7849 26.0418 72.2625 25.567 72.6225 24.934C72.9963 24.3009 73.1832 23.5302 73.1832 22.6219C73.1832 21.7136 73.0033 20.9429 72.6433 20.3098C72.2833 19.6767 71.8126 19.2088 71.2311 18.906C70.6496 18.5895 70.0196 18.4312 69.3412 18.4312C68.6489 18.4312 68.012 18.5895 67.4305 18.906C66.8629 19.2088 66.406 19.6767 66.0599 20.3098C65.7137 20.9429 65.5407 21.7136 65.5407 22.6219C65.5407 23.544 65.7068 24.3215 66.0391 24.9546C66.3852 25.5877 66.8421 26.0625 67.4098 26.379C67.9774 26.6818 68.6005 26.8332 69.2789 26.8332Z" fill="#5C5C5C"/>
<path d="M78.5756 15.1489C78.2156 15.1489 77.911 15.0251 77.6618 14.7773C77.4126 14.5296 77.288 14.2268 77.288 13.869C77.288 13.5112 77.4126 13.2084 77.6618 12.9607C77.911 12.713 78.2156 12.5891 78.5756 12.5891C78.9217 12.5891 79.2125 12.713 79.4478 12.9607C79.6971 13.2084 79.8217 13.5112 79.8217 13.869C79.8217 14.2268 79.6971 14.5296 79.4478 14.7773C79.2125 15.0251 78.9217 15.1489 78.5756 15.1489ZM79.4894 16.9862V28.2989H77.5995V16.9862H79.4894Z" fill="#5C5C5C"/>
<path d="M88.2554 16.7798C89.6399 16.7798 90.7614 17.1995 91.6198 18.039C92.4782 18.8648 92.9074 20.0621 92.9074 21.631V28.2989H91.0383V21.8994C91.0383 20.7708 90.7544 19.9107 90.1868 19.3189C89.6191 18.7134 88.8438 18.4106 87.8608 18.4106C86.8639 18.4106 86.0678 18.7203 85.4725 19.3396C84.891 19.9589 84.6002 20.8603 84.6002 22.0439V28.2989H82.7103V16.9862H84.6002V18.5964C84.974 18.0184 85.4794 17.5711 86.1163 17.2546C86.767 16.938 87.48 16.7798 88.2554 16.7798Z" fill="#5C5C5C"/>
<path d="M103.242 20.8878C103.769 20.9704 104.246 21.1837 104.675 21.5278C105.118 21.8718 105.465 22.2985 105.714 22.8077C105.977 23.3169 106.108 23.8605 106.108 24.4385C106.108 25.1679 105.922 25.8285 105.548 26.4203C105.174 26.9983 104.627 27.4594 103.907 27.8034C103.201 28.1337 102.363 28.2989 101.394 28.2989H95.9945V13.9103H101.186C102.169 13.9103 103.007 14.0754 103.699 14.4057C104.392 14.7223 104.911 15.1558 105.257 15.7063C105.603 16.2568 105.776 16.8761 105.776 17.5642C105.776 18.4175 105.541 19.1262 105.07 19.6905C104.613 20.241 104.004 20.6401 103.242 20.8878ZM97.8843 20.124H101.062C101.948 20.124 102.633 19.9176 103.118 19.5047C103.602 19.0918 103.845 18.5207 103.845 17.7913C103.845 17.0619 103.602 16.4907 103.118 16.0779C102.633 15.665 101.934 15.4586 101.02 15.4586H97.8843V20.124ZM101.228 26.7506C102.169 26.7506 102.903 26.5304 103.429 26.09C103.955 25.6496 104.219 25.0372 104.219 24.2527C104.219 23.4545 103.942 22.8283 103.388 22.3742C102.834 21.9062 102.093 21.6723 101.166 21.6723H97.8843V26.7506H101.228Z" fill="#5C5C5C"/>
<path d="M108.025 22.6012C108.025 21.4452 108.26 20.4337 108.731 19.5666C109.202 18.6858 109.846 18.0046 110.662 17.5229C111.493 17.0412 112.414 16.8004 113.425 16.8004C114.421 16.8004 115.287 17.0137 116.021 17.4404C116.754 17.867 117.301 18.4037 117.661 19.0505V16.9862H119.572V28.2989H117.661V26.1932C117.287 26.8538 116.727 27.4043 115.979 27.8447C115.245 28.2713 114.387 28.4847 113.404 28.4847C112.393 28.4847 111.479 28.2369 110.662 27.7415C109.846 27.246 109.202 26.551 108.731 25.6565C108.26 24.7619 108.025 23.7435 108.025 22.6012ZM117.661 22.6219C117.661 21.7686 117.488 21.0254 117.142 20.3924C116.796 19.7593 116.325 19.2776 115.73 18.9473C115.148 18.6033 114.504 18.4312 113.798 18.4312C113.092 18.4312 112.448 18.5964 111.867 18.9267C111.285 19.257 110.822 19.7387 110.476 20.3717C110.129 21.0048 109.956 21.748 109.956 22.6012C109.956 23.4683 110.129 24.2252 110.476 24.872C110.822 25.5051 111.285 25.9937 111.867 26.3377C112.448 26.668 113.092 26.8332 113.798 26.8332C114.504 26.8332 115.148 26.668 115.73 26.3377C116.325 25.9937 116.796 25.5051 117.142 24.872C117.488 24.2252 117.661 23.4752 117.661 22.6219Z" fill="#5C5C5C"/>
<path d="M126.795 28.4847C125.922 28.4847 125.14 28.3402 124.448 28.0511C123.755 27.7484 123.209 27.3355 122.807 26.8125C122.406 26.2758 122.184 25.6634 122.143 24.9753H124.095C124.15 25.5395 124.413 26.0006 124.884 26.3584C125.368 26.7162 125.998 26.8951 126.774 26.8951C127.494 26.8951 128.061 26.7368 128.477 26.4203C128.892 26.1038 129.1 25.7047 129.1 25.223C129.1 24.7275 128.878 24.3628 128.435 24.1289C127.992 23.8811 127.307 23.6403 126.379 23.4063C125.535 23.1861 124.842 22.9659 124.302 22.7457C123.776 22.5118 123.319 22.1746 122.932 21.7342C122.558 21.2801 122.371 20.6883 122.371 19.9589C122.371 19.3808 122.544 18.851 122.89 18.3693C123.236 17.8876 123.728 17.5092 124.365 17.2339C125.002 16.9449 125.728 16.8004 126.545 16.8004C127.805 16.8004 128.823 17.1169 129.598 17.75C130.374 18.3831 130.789 19.2501 130.844 20.3511H128.954C128.913 19.7593 128.671 19.2845 128.228 18.9267C127.798 18.5689 127.217 18.39 126.483 18.39C125.805 18.39 125.265 18.5345 124.863 18.8235C124.462 19.1125 124.261 19.4909 124.261 19.9589C124.261 20.3305 124.379 20.6401 124.614 20.8878C124.863 21.1218 125.168 21.3145 125.528 21.4658C125.902 21.6035 126.414 21.7617 127.064 21.9406C127.881 22.1608 128.546 22.381 129.058 22.6012C129.57 22.8077 130.007 23.1242 130.367 23.5508C130.74 23.9775 130.934 24.5349 130.948 25.223C130.948 25.8423 130.775 26.3997 130.429 26.8951C130.083 27.3905 129.591 27.7828 128.954 28.0718C128.331 28.347 127.611 28.4847 126.795 28.4847Z" fill="#5C5C5C"/>
<path d="M144 22.209C144 22.5668 143.979 22.9453 143.938 23.3444H134.841C134.91 24.4592 135.291 25.3331 135.983 25.9661C136.69 26.5855 137.541 26.8951 138.538 26.8951C139.355 26.8951 140.033 26.7093 140.573 26.3377C141.127 25.9524 141.515 25.4432 141.736 24.8101H143.771C143.467 25.8973 142.858 26.785 141.944 27.4731C141.03 28.1475 139.895 28.4847 138.538 28.4847C137.458 28.4847 136.489 28.2438 135.63 27.7621C134.786 27.2805 134.121 26.5992 133.637 25.7184C133.152 24.8239 132.91 23.7917 132.91 22.6219C132.91 21.4521 133.145 20.4268 133.616 19.546C134.087 18.6652 134.744 17.9908 135.589 17.5229C136.447 17.0412 137.43 16.8004 138.538 16.8004C139.618 16.8004 140.573 17.0344 141.404 17.5023C142.235 17.9702 142.871 18.617 143.315 19.4428C143.771 20.2548 144 21.1768 144 22.209ZM142.048 21.8168C142.048 21.1011 141.888 20.4887 141.57 19.9795C141.252 19.4565 140.815 19.0643 140.262 18.8028C139.722 18.5276 139.119 18.39 138.455 18.39C137.5 18.39 136.683 18.6927 136.004 19.2983C135.34 19.9038 134.959 20.7433 134.862 21.8168H142.048Z" fill="#5C5C5C"/>
<path d="M47.5669 21.0943C47.5669 19.6905 47.8853 18.4312 48.5222 17.3165C49.1591 16.188 50.0244 15.3072 51.1182 14.6741C52.2258 14.041 53.4511 13.7245 54.7941 13.7245C56.3725 13.7245 57.7501 14.103 58.9269 14.8599C60.1038 15.6168 60.9622 16.6903 61.5021 18.0803H59.2384C58.8369 17.2133 58.2554 16.5458 57.4939 16.0779C56.7463 15.61 55.8464 15.376 54.7941 15.376C53.7834 15.376 52.8765 15.61 52.0735 16.0779C51.2705 16.5458 50.6405 17.2133 50.1836 18.0803C49.7268 18.9336 49.4983 19.9382 49.4983 21.0943C49.4983 22.2365 49.7268 23.2412 50.1836 24.1082C50.6405 24.9615 51.2705 25.6221 52.0735 26.09C52.8765 26.5579 53.7834 26.7919 54.7941 26.7919C55.8464 26.7919 56.7463 26.5648 57.4939 26.1107C58.2554 25.6427 58.8369 24.9753 59.2384 24.1082H61.5021C60.9622 25.4845 60.1038 26.551 58.9269 27.308C57.7501 28.0511 56.3725 28.4227 54.7941 28.4227C53.4511 28.4227 52.2258 28.1131 51.1182 27.4938C50.0244 26.8607 49.1591 25.9868 48.5222 24.872C47.8853 23.7573 47.5669 22.498 47.5669 21.0943Z" stroke="#5C5C5C" mask="url(#path-1-outside-1_32_3260)"/>
<path d="M69.2789 28.4847C68.2128 28.4847 67.2436 28.2438 66.3714 27.7621C65.513 27.2805 64.8346 26.5992 64.3361 25.7184C63.8516 24.8239 63.6093 23.7917 63.6093 22.6219C63.6093 21.4658 63.8585 20.4474 64.3569 19.5666C64.8692 18.6721 65.5614 17.9908 66.4337 17.5229C67.3059 17.0412 68.282 16.8004 69.362 16.8004C70.4419 16.8004 71.418 17.0412 72.2902 17.5229C73.1625 17.9908 73.8478 18.6652 74.3462 19.546C74.8585 20.4268 75.1147 21.4521 75.1147 22.6219C75.1147 23.7917 74.8516 24.8239 74.3255 25.7184C73.8132 26.5992 73.114 27.2805 72.2279 27.7621C71.3418 28.2438 70.3588 28.4847 69.2789 28.4847ZM69.2789 26.8332C69.9573 26.8332 70.5942 26.6749 71.1895 26.3584C71.7849 26.0418 72.2625 25.567 72.6225 24.934C72.9963 24.3009 73.1832 23.5302 73.1832 22.6219C73.1832 21.7136 73.0033 20.9429 72.6433 20.3098C72.2833 19.6767 71.8126 19.2088 71.2311 18.906C70.6496 18.5895 70.0196 18.4312 69.3412 18.4312C68.6489 18.4312 68.012 18.5895 67.4305 18.906C66.8629 19.2088 66.406 19.6767 66.0599 20.3098C65.7137 20.9429 65.5407 21.7136 65.5407 22.6219C65.5407 23.544 65.7068 24.3215 66.0391 24.9546C66.3852 25.5877 66.8421 26.0625 67.4098 26.379C67.9774 26.6818 68.6005 26.8332 69.2789 26.8332Z" stroke="#5C5C5C" mask="url(#path-1-outside-1_32_3260)"/>
<path d="M78.5756 15.1489C78.2156 15.1489 77.911 15.0251 77.6618 14.7773C77.4126 14.5296 77.288 14.2268 77.288 13.869C77.288 13.5112 77.4126 13.2084 77.6618 12.9607C77.911 12.713 78.2156 12.5891 78.5756 12.5891C78.9217 12.5891 79.2125 12.713 79.4478 12.9607C79.6971 13.2084 79.8217 13.5112 79.8217 13.869C79.8217 14.2268 79.6971 14.5296 79.4478 14.7773C79.2125 15.0251 78.9217 15.1489 78.5756 15.1489ZM79.4894 16.9862V28.2989H77.5995V16.9862H79.4894Z" stroke="#5C5C5C" mask="url(#path-1-outside-1_32_3260)"/>
<path d="M88.2554 16.7798C89.6399 16.7798 90.7614 17.1995 91.6198 18.039C92.4782 18.8648 92.9074 20.0621 92.9074 21.631V28.2989H91.0383V21.8994C91.0383 20.7708 90.7544 19.9107 90.1868 19.3189C89.6191 18.7134 88.8438 18.4106 87.8608 18.4106C86.8639 18.4106 86.0678 18.7203 85.4725 19.3396C84.891 19.9589 84.6002 20.8603 84.6002 22.0439V28.2989H82.7103V16.9862H84.6002V18.5964C84.974 18.0184 85.4794 17.5711 86.1163 17.2546C86.767 16.938 87.48 16.7798 88.2554 16.7798Z" stroke="#5C5C5C" mask="url(#path-1-outside-1_32_3260)"/>
<path d="M103.242 20.8878C103.769 20.9704 104.246 21.1837 104.675 21.5278C105.118 21.8718 105.465 22.2985 105.714 22.8077C105.977 23.3169 106.108 23.8605 106.108 24.4385C106.108 25.1679 105.922 25.8285 105.548 26.4203C105.174 26.9983 104.627 27.4594 103.907 27.8034C103.201 28.1337 102.363 28.2989 101.394 28.2989H95.9945V13.9103H101.186C102.169 13.9103 103.007 14.0754 103.699 14.4057C104.392 14.7223 104.911 15.1558 105.257 15.7063C105.603 16.2568 105.776 16.8761 105.776 17.5642C105.776 18.4175 105.541 19.1262 105.07 19.6905C104.613 20.241 104.004 20.6401 103.242 20.8878ZM97.8843 20.124H101.062C101.948 20.124 102.633 19.9176 103.118 19.5047C103.602 19.0918 103.845 18.5207 103.845 17.7913C103.845 17.0619 103.602 16.4907 103.118 16.0779C102.633 15.665 101.934 15.4586 101.02 15.4586H97.8843V20.124ZM101.228 26.7506C102.169 26.7506 102.903 26.5304 103.429 26.09C103.955 25.6496 104.219 25.0372 104.219 24.2527C104.219 23.4545 103.942 22.8283 103.388 22.3742C102.834 21.9062 102.093 21.6723 101.166 21.6723H97.8843V26.7506H101.228Z" stroke="#5C5C5C" mask="url(#path-1-outside-1_32_3260)"/>
<path d="M108.025 22.6012C108.025 21.4452 108.26 20.4337 108.731 19.5666C109.202 18.6858 109.846 18.0046 110.662 17.5229C111.493 17.0412 112.414 16.8004 113.425 16.8004C114.421 16.8004 115.287 17.0137 116.021 17.4404C116.754 17.867 117.301 18.4037 117.661 19.0505V16.9862H119.572V28.2989H117.661V26.1932C117.287 26.8538 116.727 27.4043 115.979 27.8447C115.245 28.2713 114.387 28.4847 113.404 28.4847C112.393 28.4847 111.479 28.2369 110.662 27.7415C109.846 27.246 109.202 26.551 108.731 25.6565C108.26 24.7619 108.025 23.7435 108.025 22.6012ZM117.661 22.6219C117.661 21.7686 117.488 21.0254 117.142 20.3924C116.796 19.7593 116.325 19.2776 115.73 18.9473C115.148 18.6033 114.504 18.4312 113.798 18.4312C113.092 18.4312 112.448 18.5964 111.867 18.9267C111.285 19.257 110.822 19.7387 110.476 20.3717C110.129 21.0048 109.956 21.748 109.956 22.6012C109.956 23.4683 110.129 24.2252 110.476 24.872C110.822 25.5051 111.285 25.9937 111.867 26.3377C112.448 26.668 113.092 26.8332 113.798 26.8332C114.504 26.8332 115.148 26.668 115.73 26.3377C116.325 25.9937 116.796 25.5051 117.142 24.872C117.488 24.2252 117.661 23.4752 117.661 22.6219Z" stroke="#5C5C5C" mask="url(#path-1-outside-1_32_3260)"/>
<path d="M126.795 28.4847C125.922 28.4847 125.14 28.3402 124.448 28.0511C123.755 27.7484 123.209 27.3355 122.807 26.8125C122.406 26.2758 122.184 25.6634 122.143 24.9753H124.095C124.15 25.5395 124.413 26.0006 124.884 26.3584C125.368 26.7162 125.998 26.8951 126.774 26.8951C127.494 26.8951 128.061 26.7368 128.477 26.4203C128.892 26.1038 129.1 25.7047 129.1 25.223C129.1 24.7275 128.878 24.3628 128.435 24.1289C127.992 23.8811 127.307 23.6403 126.379 23.4063C125.535 23.1861 124.842 22.9659 124.302 22.7457C123.776 22.5118 123.319 22.1746 122.932 21.7342C122.558 21.2801 122.371 20.6883 122.371 19.9589C122.371 19.3808 122.544 18.851 122.89 18.3693C123.236 17.8876 123.728 17.5092 124.365 17.2339C125.002 16.9449 125.728 16.8004 126.545 16.8004C127.805 16.8004 128.823 17.1169 129.598 17.75C130.374 18.3831 130.789 19.2501 130.844 20.3511H128.954C128.913 19.7593 128.671 19.2845 128.228 18.9267C127.798 18.5689 127.217 18.39 126.483 18.39C125.805 18.39 125.265 18.5345 124.863 18.8235C124.462 19.1125 124.261 19.4909 124.261 19.9589C124.261 20.3305 124.379 20.6401 124.614 20.8878C124.863 21.1218 125.168 21.3145 125.528 21.4658C125.902 21.6035 126.414 21.7617 127.064 21.9406C127.881 22.1608 128.546 22.381 129.058 22.6012C129.57 22.8077 130.007 23.1242 130.367 23.5508C130.74 23.9775 130.934 24.5349 130.948 25.223C130.948 25.8423 130.775 26.3997 130.429 26.8951C130.083 27.3905 129.591 27.7828 128.954 28.0718C128.331 28.347 127.611 28.4847 126.795 28.4847Z" stroke="#5C5C5C" mask="url(#path-1-outside-1_32_3260)"/>
<path d="M144 22.209C144 22.5668 143.979 22.9453 143.938 23.3444H134.841C134.91 24.4592 135.291 25.3331 135.983 25.9661C136.69 26.5855 137.541 26.8951 138.538 26.8951C139.355 26.8951 140.033 26.7093 140.573 26.3377C141.127 25.9524 141.515 25.4432 141.736 24.8101H143.771C143.467 25.8973 142.858 26.785 141.944 27.4731C141.03 28.1475 139.895 28.4847 138.538 28.4847C137.458 28.4847 136.489 28.2438 135.63 27.7621C134.786 27.2805 134.121 26.5992 133.637 25.7184C133.152 24.8239 132.91 23.7917 132.91 22.6219C132.91 21.4521 133.145 20.4268 133.616 19.546C134.087 18.6652 134.744 17.9908 135.589 17.5229C136.447 17.0412 137.43 16.8004 138.538 16.8004C139.618 16.8004 140.573 17.0344 141.404 17.5023C142.235 17.9702 142.871 18.617 143.315 19.4428C143.771 20.2548 144 21.1768 144 22.209ZM142.048 21.8168C142.048 21.1011 141.888 20.4887 141.57 19.9795C141.252 19.4565 140.815 19.0643 140.262 18.8028C139.722 18.5276 139.119 18.39 138.455 18.39C137.5 18.39 136.683 18.6927 136.004 19.2983C135.34 19.9038 134.959 20.7433 134.862 21.8168H142.048Z" stroke="#5C5C5C" mask="url(#path-1-outside-1_32_3260)"/>
<path d="M26.2514 30.6042H35.5238C37.5209 30.6042 39.0901 28.7971 39.0901 26.6888C39.0901 24.5806 37.5209 22.7735 35.5238 22.7735C34.8105 22.7735 34.0973 22.7735 33.384 22.7735C36.2371 16.2982 34.8105 1.99219 21.9718 1.99219C13.4127 1.99219 9.13311 7.26282 9.13311 17.9547H7.70658C4.56823 17.9547 2.00049 20.8159 2.00049 24.2794C2.00049 27.743 4.56823 30.6042 7.70658 30.6042H14.8392H26.2514Z" stroke="url(#paint0_linear_32_3260)" stroke-width="3" stroke-linecap="round" stroke-linejoin="round"/>
<path d="M21.8478 15.9355L19.6191 16.68L18.5358 13.4375L20.7292 12.7048C21.1759 12.5555 21.6491 12.5865 22.0651 12.7895L22.0653 12.7896C22.4811 12.9922 22.7863 13.3404 22.9304 13.7718C23.0745 14.2031 23.0398 14.6644 22.8293 15.0764L22.829 15.0768C22.6242 15.4786 22.2784 15.7819 21.8478 15.9355ZM16.7278 14.0407L17.0538 13.9318L19.8877 22.4145L19.5617 22.5234C19.1606 22.6575 18.9281 23.0928 19.0666 23.5074C19.2051 23.922 19.6525 24.1301 20.0537 23.9961L21.9743 23.3545L22.0783 23.6658C22.2168 24.0804 22.6642 24.2886 23.0654 24.1546C23.4665 24.0206 23.699 23.5852 23.5605 23.1706L23.4565 22.8593L23.5861 22.816L23.6901 23.1273C23.8286 23.542 24.276 23.7501 24.6772 23.6161C25.0792 23.4818 25.3101 23.046 25.1719 22.6323L25.0657 22.3145C26.8058 21.6131 27.7403 19.6879 27.142 17.8972C26.7103 16.6049 25.5977 15.7367 24.3315 15.5359C24.619 14.8403 24.6688 14.0447 24.4123 13.2767C23.9564 11.9122 22.6774 11.0604 21.3053 11.0585L21.1459 10.5812L21.1458 10.5811C21.0075 10.1674 20.5608 9.95852 20.1592 10.0927C19.7586 10.2265 19.5255 10.6615 19.664 11.0762L19.7684 11.3887L19.6388 11.432L19.5344 11.1196C19.5344 11.1196 19.5344 11.1195 19.5344 11.1195C19.3959 10.7048 18.9481 10.4973 18.5475 10.6311C18.1468 10.765 17.9137 11.2 18.0522 11.6147L18.1566 11.9271L17.8735 12.0217L17.8732 12.021L17.399 12.1794L16.2358 12.568C15.8346 12.702 15.6022 13.1374 15.7407 13.5519C15.8792 13.9665 16.3266 14.1747 16.7278 14.0407ZM25.5429 19.9089L25.5428 19.9091C25.2986 20.3878 24.8814 20.7462 24.363 20.9194L21.3695 21.9195L20.1112 18.1531L22.3045 17.4204C22.3218 17.4146 22.3383 17.4086 22.3496 17.4045L23.1045 17.1523C23.6225 16.9792 24.1718 17.0153 24.6549 17.2511L24.6551 17.2512C25.138 17.4865 25.4928 17.891 25.6602 18.3923C25.8278 18.8938 25.7873 19.43 25.5429 19.9089Z" fill="url(#paint1_linear_32_3260)" stroke="url(#paint2_linear_32_3260)"/>
<defs>
<linearGradient id="paint0_linear_32_3260" x1="22.3998" y1="-2.51155" x2="23.6456" y2="48.1948" gradientUnits="userSpaceOnUse">
<stop stop-color="#FD749B"/>
<stop offset="1" stop-color="#281AC8"/>
</linearGradient>
<linearGradient id="paint1_linear_32_3260" x1="19.5173" y1="8.63399" x2="28.0615" y2="30.5052" gradientUnits="userSpaceOnUse">
<stop stop-color="#FD749B"/>
<stop offset="1" stop-color="#281AC8"/>
</linearGradient>
<linearGradient id="paint2_linear_32_3260" x1="19.5173" y1="8.63399" x2="28.0615" y2="30.5052" gradientUnits="userSpaceOnUse">
<stop stop-color="#FD749B"/>
<stop offset="1" stop-color="#281AC8"/>
</linearGradient>
</defs>
</svg>
