<svg width="121" height="29" viewBox="0 0 121 29" fill="none" xmlns="http://www.w3.org/2000/svg">
<path d="M10.5911 21.196C8.74308 21.196 7.04442 20.7667 5.49508 19.908C3.96442 19.0493 2.74175 17.8547 1.82708 16.324C0.931082 14.7747 0.483082 13.0387 0.483082 11.116C0.483082 9.19333 0.931082 7.46667 1.82708 5.936C2.74175 4.40533 3.96442 3.21067 5.49508 2.352C7.04442 1.49333 8.74308 1.064 10.5911 1.064C12.4391 1.064 14.1284 1.49333 15.6591 2.352C17.2084 3.21067 18.4218 4.40533 19.2991 5.936C20.1951 7.46667 20.6431 9.19333 20.6431 11.116C20.6431 13.0387 20.1951 14.7747 19.2991 16.324C18.4031 17.8547 17.1897 19.0493 15.6591 19.908C14.1284 20.7667 12.4391 21.196 10.5911 21.196ZM10.5911 16.828C12.1591 16.828 13.4097 16.3053 14.3431 15.26C15.2951 14.2147 15.7711 12.8333 15.7711 11.116C15.7711 9.38 15.2951 7.99867 14.3431 6.972C13.4097 5.92667 12.1591 5.404 10.5911 5.404C9.00442 5.404 7.73508 5.91733 6.78308 6.944C5.84975 7.97067 5.38308 9.36133 5.38308 11.116C5.38308 12.852 5.84975 14.2427 6.78308 15.288C7.73508 16.3147 9.00442 16.828 10.5911 16.828ZM38.7348 5.376V21H33.9468V18.872C33.4615 19.5627 32.7988 20.1227 31.9588 20.552C31.1375 20.9627 30.2228 21.168 29.2148 21.168C28.0201 21.168 26.9655 20.9067 26.0508 20.384C25.1361 19.8427 24.4268 19.068 23.9228 18.06C23.4188 17.052 23.1668 15.8667 23.1668 14.504V5.376H27.9268V13.86C27.9268 14.9053 28.1975 15.7173 28.7388 16.296C29.2801 16.8747 30.0081 17.164 30.9228 17.164C31.8561 17.164 32.5935 16.8747 33.1348 16.296C33.6761 15.7173 33.9468 14.9053 33.9468 13.86V5.376H38.7348ZM46.962 7.98C47.522 7.12133 48.222 6.44933 49.062 5.964C49.902 5.46 50.8353 5.208 51.862 5.208V10.276H50.546C49.3513 10.276 48.4553 10.5373 47.858 11.06C47.2607 11.564 46.962 12.46 46.962 13.748V21H42.174V5.376H46.962V7.98ZM64.8721 7.588C65.3201 6.86 65.9641 6.272 66.8041 5.824C67.6441 5.376 68.6055 5.152 69.6881 5.152C70.9761 5.152 72.1428 5.47867 73.1881 6.132C74.2335 6.78533 75.0548 7.71867 75.6521 8.932C76.2681 10.1453 76.5761 11.5547 76.5761 13.16C76.5761 14.7653 76.2681 16.184 75.6521 17.416C75.0548 18.6293 74.2335 19.572 73.1881 20.244C72.1428 20.8973 70.9761 21.224 69.6881 21.224C68.5868 21.224 67.6255 21.0093 66.8041 20.58C65.9828 20.132 65.3388 19.544 64.8721 18.816V21H60.0841V0.28H64.8721V7.588ZM71.7041 13.16C71.7041 11.9653 71.3681 11.032 70.6961 10.36C70.0428 9.66933 69.2308 9.324 68.2601 9.324C67.3081 9.324 66.4961 9.66933 65.8241 10.36C65.1708 11.0507 64.8441 11.9933 64.8441 13.188C64.8441 14.3827 65.1708 15.3253 65.8241 16.016C66.4961 16.7067 67.3081 17.052 68.2601 17.052C69.2121 17.052 70.0241 16.7067 70.6961 16.016C71.3681 15.3067 71.7041 14.3547 71.7041 13.16ZM83.8761 0.28V21H79.0881V0.28H83.8761ZM94.4579 21.224C92.9272 21.224 91.5459 20.8973 90.3139 20.244C89.1005 19.5907 88.1392 18.6573 87.4299 17.444C86.7392 16.2307 86.3939 14.812 86.3939 13.188C86.3939 11.5827 86.7485 10.1733 87.4579 8.96C88.1672 7.728 89.1379 6.78533 90.3699 6.132C91.6019 5.47867 92.9832 5.152 94.5139 5.152C96.0445 5.152 97.4259 5.47867 98.6579 6.132C99.8899 6.78533 100.861 7.728 101.57 8.96C102.279 10.1733 102.634 11.5827 102.634 13.188C102.634 14.7933 102.27 16.212 101.542 17.444C100.833 18.6573 99.8525 19.5907 98.6019 20.244C97.3699 20.8973 95.9885 21.224 94.4579 21.224ZM94.4579 17.08C95.3725 17.08 96.1472 16.744 96.7819 16.072C97.4352 15.4 97.7619 14.4387 97.7619 13.188C97.7619 11.9373 97.4445 10.976 96.8099 10.304C96.1939 9.632 95.4285 9.296 94.5139 9.296C93.5805 9.296 92.8059 9.632 92.1899 10.304C91.5739 10.9573 91.2659 11.9187 91.2659 13.188C91.2659 14.4387 91.5645 15.4 92.1619 16.072C92.7779 16.744 93.5432 17.08 94.4579 17.08ZM111.11 5.152C112.211 5.152 113.173 5.376 113.994 5.824C114.834 6.272 115.478 6.86 115.926 7.588V5.376H120.714V20.972C120.714 22.4093 120.425 23.7067 119.846 24.864C119.286 26.04 118.418 26.9733 117.242 27.664C116.085 28.3547 114.638 28.7 112.902 28.7C110.587 28.7 108.711 28.1493 107.274 27.048C105.837 25.9653 105.015 24.4907 104.81 22.624H109.542C109.691 23.2213 110.046 23.688 110.606 24.024C111.166 24.3787 111.857 24.556 112.678 24.556C113.667 24.556 114.451 24.2667 115.03 23.688C115.627 23.128 115.926 22.2227 115.926 20.972V18.76C115.459 19.488 114.815 20.0853 113.994 20.552C113.173 21 112.211 21.224 111.11 21.224C109.822 21.224 108.655 20.8973 107.61 20.244C106.565 19.572 105.734 18.6293 105.118 17.416C104.521 16.184 104.222 14.7653 104.222 13.16C104.222 11.5547 104.521 10.1453 105.118 8.932C105.734 7.71867 106.565 6.78533 107.61 6.132C108.655 5.47867 109.822 5.152 111.11 5.152ZM115.926 13.188C115.926 11.9933 115.59 11.0507 114.918 10.36C114.265 9.66933 113.462 9.324 112.51 9.324C111.558 9.324 110.746 9.66933 110.074 10.36C109.421 11.032 109.094 11.9653 109.094 13.16C109.094 14.3547 109.421 15.3067 110.074 16.016C110.746 16.7067 111.558 17.052 112.51 17.052C113.462 17.052 114.265 16.7067 114.918 16.016C115.59 15.3253 115.926 14.3827 115.926 13.188Z" fill="url(#paint0_linear_32_2946)"/>
<defs>
<linearGradient id="paint0_linear_32_2946" x1="76.9005" y1="-14.6111" x2="77.2138" y2="59.8651" gradientUnits="userSpaceOnUse">
<stop stop-color="#FD749B"/>
<stop offset="1" stop-color="#281AC8"/>
</linearGradient>
</defs>
</svg>
