<svg width="99" height="14" viewBox="0 0 99 14" fill="none" xmlns="http://www.w3.org/2000/svg">
<path d="M7.09249 13.126C5.90449 13.126 4.81249 12.85 3.81649 12.298C2.83249 11.746 2.04649 10.978 1.45849 9.994C0.882488 8.998 0.594488 7.882 0.594488 6.646C0.594488 5.41 0.882488 4.3 1.45849 3.316C2.04649 2.332 2.83249 1.564 3.81649 1.012C4.81249 0.46 5.90449 0.184 7.09249 0.184C8.28049 0.184 9.36649 0.46 10.3505 1.012C11.3465 1.564 12.1265 2.332 12.6905 3.316C13.2665 4.3 13.5545 5.41 13.5545 6.646C13.5545 7.882 13.2665 8.998 12.6905 9.994C12.1145 10.978 11.3345 11.746 10.3505 12.298C9.36649 12.85 8.28049 13.126 7.09249 13.126ZM7.09249 10.318C8.10049 10.318 8.90449 9.982 9.50449 9.31C10.1165 8.638 10.4225 7.75 10.4225 6.646C10.4225 5.53 10.1165 4.642 9.50449 3.982C8.90449 3.31 8.10049 2.974 7.09249 2.974C6.07249 2.974 5.25649 3.304 4.64449 3.964C4.04449 4.624 3.74449 5.518 3.74449 6.646C3.74449 7.762 4.04449 8.656 4.64449 9.328C5.25649 9.988 6.07249 10.318 7.09249 10.318ZM18.2909 0.364V7.924C18.2909 8.68 18.4769 9.262 18.8489 9.67C19.2209 10.078 19.7669 10.282 20.4869 10.282C21.2069 10.282 21.7589 10.078 22.1429 9.67C22.5269 9.262 22.7189 8.68 22.7189 7.924V0.364H25.7969V7.906C25.7969 9.034 25.5569 9.988 25.0769 10.768C24.5969 11.548 23.9489 12.136 23.1329 12.532C22.3289 12.928 21.4289 13.126 20.4329 13.126C19.4369 13.126 18.5429 12.934 17.7509 12.55C16.9709 12.154 16.3529 11.566 15.8969 10.786C15.4409 9.994 15.2129 9.034 15.2129 7.906V0.364H18.2909ZM34.4023 13L31.7743 8.23H31.0363V13H27.9583V0.364H33.1243C34.1203 0.364 34.9663 0.538 35.6623 0.885999C36.3703 1.234 36.8983 1.714 37.2463 2.326C37.5943 2.926 37.7683 3.598 37.7683 4.342C37.7683 5.182 37.5283 5.932 37.0483 6.592C36.5803 7.252 35.8843 7.72 34.9603 7.996L37.8763 13H34.4023ZM31.0363 6.052H32.9443C33.5083 6.052 33.9283 5.914 34.2043 5.638C34.4923 5.362 34.6363 4.972 34.6363 4.468C34.6363 3.988 34.4923 3.61 34.2043 3.334C33.9283 3.058 33.5083 2.92 32.9443 2.92H31.0363V6.052ZM49.9589 13L47.3309 8.23H46.5929V13H43.5149V0.364H48.6809C49.6769 0.364 50.5229 0.538 51.2189 0.885999C51.9269 1.234 52.4549 1.714 52.8029 2.326C53.1509 2.926 53.3249 3.598 53.3249 4.342C53.3249 5.182 53.0849 5.932 52.6049 6.592C52.1369 7.252 51.4409 7.72 50.5169 7.996L53.4329 13H49.9589ZM46.5929 6.052H48.5009C49.0649 6.052 49.4849 5.914 49.7609 5.638C50.0489 5.362 50.1929 4.972 50.1929 4.468C50.1929 3.988 50.0489 3.61 49.7609 3.334C49.4849 3.058 49.0649 2.92 48.5009 2.92H46.5929V6.052ZM63.1231 10.768H58.4071L57.6511 13H54.4291L59.0011 0.364H62.5651L67.1371 13H63.8791L63.1231 10.768ZM62.3311 8.392L60.7651 3.766L59.2171 8.392H62.3311ZM77.6186 0.364V2.83H74.2706V13H71.1926V2.83H67.8446V0.364H77.6186ZM82.2414 2.83V5.386H86.3634V7.762H82.2414V10.534H86.9034V13H79.1634V0.364H86.9034V2.83H82.2414ZM93.4736 13.126C92.5496 13.126 91.7216 12.976 90.9896 12.676C90.2576 12.376 89.6696 11.932 89.2256 11.344C88.7936 10.756 88.5656 10.048 88.5416 9.22H91.8176C91.8656 9.688 92.0276 10.048 92.3036 10.3C92.5796 10.54 92.9396 10.66 93.3836 10.66C93.8396 10.66 94.1996 10.558 94.4636 10.354C94.7276 10.138 94.8596 9.844 94.8596 9.472C94.8596 9.16 94.7516 8.902 94.5356 8.698C94.3316 8.494 94.0736 8.326 93.7616 8.194C93.4616 8.062 93.0296 7.912 92.4656 7.744C91.6496 7.492 90.9836 7.24 90.4676 6.988C89.9516 6.736 89.5076 6.364 89.1356 5.872C88.7636 5.38 88.5776 4.738 88.5776 3.946C88.5776 2.77 89.0036 1.852 89.8556 1.192C90.7076 0.52 91.8176 0.184 93.1856 0.184C94.5776 0.184 95.6996 0.52 96.5516 1.192C97.4036 1.852 97.8596 2.776 97.9196 3.964H94.5896C94.5656 3.556 94.4156 3.238 94.1396 3.01C93.8636 2.77 93.5096 2.65 93.0776 2.65C92.7056 2.65 92.4056 2.752 92.1776 2.956C91.9496 3.148 91.8356 3.43 91.8356 3.802C91.8356 4.21 92.0276 4.528 92.4116 4.756C92.7956 4.984 93.3956 5.23 94.2116 5.494C95.0276 5.77 95.6876 6.034 96.1916 6.286C96.7076 6.538 97.1516 6.904 97.5236 7.384C97.8956 7.864 98.0816 8.482 98.0816 9.238C98.0816 9.958 97.8956 10.612 97.5236 11.2C97.1636 11.788 96.6356 12.256 95.9396 12.604C95.2436 12.952 94.4216 13.126 93.4736 13.126Z" fill="url(#paint0_linear_32_2886)"/>
<defs>
<linearGradient id="paint0_linear_32_2886" x1="60.5005" y1="-12.2963" x2="61.3218" y2="58.6252" gradientUnits="userSpaceOnUse">
<stop stop-color="#FD749B"/>
<stop offset="1" stop-color="#281AC8"/>
</linearGradient>
</defs>
</svg>
