<svg width="177" height="14" viewBox="0 0 177 14" fill="none" xmlns="http://www.w3.org/2000/svg">
<path d="M3.19449 10.624H7.22649V13H0.116488V0.364H3.19449V10.624ZM16.5606 10.768H11.8446L11.0886 13H7.86661L12.4386 0.364H16.0026L20.5746 13H17.3166L16.5606 10.768ZM15.7686 8.392L14.2026 3.766L12.6546 8.392H15.7686ZM31.0561 0.364V2.83H27.7081V13H24.6301V2.83H21.2821V0.364H31.0561ZM35.6789 2.83V5.386H39.8009V7.762H35.6789V10.534H40.3409V13H32.6009V0.364H40.3409V2.83H35.6789ZM46.9111 13.126C45.9871 13.126 45.1591 12.976 44.4271 12.676C43.6951 12.376 43.1071 11.932 42.6631 11.344C42.2311 10.756 42.0031 10.048 41.9791 9.22H45.2551C45.3031 9.688 45.4651 10.048 45.7411 10.3C46.0171 10.54 46.3771 10.66 46.8211 10.66C47.2771 10.66 47.6371 10.558 47.9011 10.354C48.1651 10.138 48.2971 9.844 48.2971 9.472C48.2971 9.16 48.1891 8.902 47.9731 8.698C47.7691 8.494 47.5111 8.326 47.1991 8.194C46.8991 8.062 46.4671 7.912 45.9031 7.744C45.0871 7.492 44.4211 7.24 43.9051 6.988C43.3891 6.736 42.9451 6.364 42.5731 5.872C42.2011 5.38 42.0151 4.738 42.0151 3.946C42.0151 2.77 42.4411 1.852 43.2931 1.192C44.1451 0.52 45.2551 0.184 46.6231 0.184C48.0151 0.184 49.1371 0.52 49.9891 1.192C50.8411 1.852 51.2971 2.776 51.3571 3.964H48.0271C48.0031 3.556 47.8531 3.238 47.5771 3.01C47.3011 2.77 46.9471 2.65 46.5151 2.65C46.1431 2.65 45.8431 2.752 45.6151 2.956C45.3871 3.148 45.2731 3.43 45.2731 3.802C45.2731 4.21 45.4651 4.528 45.8491 4.756C46.2331 4.984 46.8331 5.23 47.6491 5.494C48.4651 5.77 49.1251 6.034 49.6291 6.286C50.1451 6.538 50.5891 6.904 50.9611 7.384C51.3331 7.864 51.5191 8.482 51.5191 9.238C51.5191 9.958 51.3331 10.612 50.9611 11.2C50.6011 11.788 50.0731 12.256 49.3771 12.604C48.6811 12.952 47.8591 13.126 46.9111 13.126ZM62.5034 0.364V2.83H59.1554V13H56.0774V2.83H52.7294V0.364H62.5034ZM70.9406 2.83V5.386H75.0626V7.762H70.9406V10.534H75.6026V13H67.8626V0.364H75.6026V2.83H70.9406ZM85.3409 13L82.7669 9.13L80.4989 13H77.0069L81.0569 6.574L76.9169 0.364H80.4989L83.0369 4.18L85.2689 0.364H88.7609L84.7469 6.736L88.9229 13H85.3409ZM89.9461 6.664C89.9461 5.416 90.2161 4.306 90.7561 3.334C91.2961 2.35 92.0461 1.588 93.0061 1.048C93.9781 0.495999 95.0761 0.219999 96.3001 0.219999C97.8001 0.219999 99.0841 0.615999 100.152 1.408C101.22 2.2 101.934 3.28 102.294 4.648H98.9101C98.6581 4.12 98.2981 3.718 97.8301 3.442C97.3741 3.166 96.8521 3.028 96.2641 3.028C95.3161 3.028 94.5481 3.358 93.9601 4.018C93.3721 4.678 93.0781 5.56 93.0781 6.664C93.0781 7.768 93.3721 8.65 93.9601 9.31C94.5481 9.97 95.3161 10.3 96.2641 10.3C96.8521 10.3 97.3741 10.162 97.8301 9.886C98.2981 9.61 98.6581 9.208 98.9101 8.68H102.294C101.934 10.048 101.22 11.128 100.152 11.92C99.0841 12.7 97.8001 13.09 96.3001 13.09C95.0761 13.09 93.9781 12.82 93.0061 12.28C92.0461 11.728 91.2961 10.966 90.7561 9.994C90.2161 9.022 89.9461 7.912 89.9461 6.664ZM115.123 0.364V13H112.045V7.798H107.257V13H104.179V0.364H107.257V5.314H112.045V0.364H115.123ZM125.211 10.768H120.495L119.739 13H116.517L121.089 0.364H124.653L129.225 13H125.967L125.211 10.768ZM124.419 8.392L122.853 3.766L121.305 8.392H124.419ZM141.92 13H138.842L133.694 5.206V13H130.616V0.364H133.694L138.842 8.194V0.364H141.92V13ZM152.54 4.36C152.312 3.94 151.982 3.622 151.55 3.406C151.13 3.178 150.632 3.064 150.056 3.064C149.06 3.064 148.262 3.394 147.662 4.054C147.062 4.702 146.762 5.572 146.762 6.664C146.762 7.828 147.074 8.74 147.698 9.4C148.334 10.048 149.204 10.372 150.308 10.372C151.064 10.372 151.7 10.18 152.216 9.796C152.744 9.412 153.128 8.86 153.368 8.14H149.462V5.872H156.158V8.734C155.93 9.502 155.54 10.216 154.988 10.876C154.448 11.536 153.758 12.07 152.918 12.478C152.078 12.886 151.13 13.09 150.074 13.09C148.826 13.09 147.71 12.82 146.726 12.28C145.754 11.728 144.992 10.966 144.44 9.994C143.9 9.022 143.63 7.912 143.63 6.664C143.63 5.416 143.9 4.306 144.44 3.334C144.992 2.35 145.754 1.588 146.726 1.048C147.698 0.495999 148.808 0.219999 150.056 0.219999C151.568 0.219999 152.84 0.585999 153.872 1.318C154.916 2.05 155.606 3.064 155.942 4.36H152.54ZM160.941 2.83V5.386H165.063V7.762H160.941V10.534H165.603V13H157.863V0.364H165.603V2.83H160.941ZM172.173 13.126C171.249 13.126 170.421 12.976 169.689 12.676C168.957 12.376 168.369 11.932 167.925 11.344C167.493 10.756 167.265 10.048 167.241 9.22H170.517C170.565 9.688 170.727 10.048 171.003 10.3C171.279 10.54 171.639 10.66 172.083 10.66C172.539 10.66 172.899 10.558 173.163 10.354C173.427 10.138 173.559 9.844 173.559 9.472C173.559 9.16 173.451 8.902 173.235 8.698C173.031 8.494 172.773 8.326 172.461 8.194C172.161 8.062 171.729 7.912 171.165 7.744C170.349 7.492 169.683 7.24 169.167 6.988C168.651 6.736 168.207 6.364 167.835 5.872C167.463 5.38 167.277 4.738 167.277 3.946C167.277 2.77 167.703 1.852 168.555 1.192C169.407 0.52 170.517 0.184 171.885 0.184C173.277 0.184 174.399 0.52 175.251 1.192C176.103 1.852 176.559 2.776 176.619 3.964H173.289C173.265 3.556 173.115 3.238 172.839 3.01C172.563 2.77 172.209 2.65 171.777 2.65C171.405 2.65 171.105 2.752 170.877 2.956C170.649 3.148 170.535 3.43 170.535 3.802C170.535 4.21 170.727 4.528 171.111 4.756C171.495 4.984 172.095 5.23 172.911 5.494C173.727 5.77 174.387 6.034 174.891 6.286C175.407 6.538 175.851 6.904 176.223 7.384C176.595 7.864 176.781 8.482 176.781 9.238C176.781 9.958 176.595 10.612 176.223 11.2C175.863 11.788 175.335 12.256 174.639 12.604C173.943 12.952 173.121 13.126 172.173 13.126Z" fill="url(#paint0_linear_32_2888)"/>
<defs>
<linearGradient id="paint0_linear_32_2888" x1="108.45" y1="-12.2963" x2="108.905" y2="58.6318" gradientUnits="userSpaceOnUse">
<stop stop-color="#FD749B"/>
<stop offset="1" stop-color="#281AC8"/>
</linearGradient>
</defs>
</svg>
