<svg width="130" height="14" viewBox="0 0 130 14" fill="none" xmlns="http://www.w3.org/2000/svg">
<path d="M7.09249 13.126C5.90449 13.126 4.81249 12.85 3.81649 12.298C2.83249 11.746 2.04649 10.978 1.45849 9.994C0.882488 8.998 0.594488 7.882 0.594488 6.646C0.594488 5.41 0.882488 4.3 1.45849 3.316C2.04649 2.332 2.83249 1.564 3.81649 1.012C4.81249 0.46 5.90449 0.184 7.09249 0.184C8.28049 0.184 9.36649 0.46 10.3505 1.012C11.3465 1.564 12.1265 2.332 12.6905 3.316C13.2665 4.3 13.5545 5.41 13.5545 6.646C13.5545 7.882 13.2665 8.998 12.6905 9.994C12.1145 10.978 11.3345 11.746 10.3505 12.298C9.36649 12.85 8.28049 13.126 7.09249 13.126ZM7.09249 10.318C8.10049 10.318 8.90449 9.982 9.50449 9.31C10.1165 8.638 10.4225 7.75 10.4225 6.646C10.4225 5.53 10.1165 4.642 9.50449 3.982C8.90449 3.31 8.10049 2.974 7.09249 2.974C6.07249 2.974 5.25649 3.304 4.64449 3.964C4.04449 4.624 3.74449 5.518 3.74449 6.646C3.74449 7.762 4.04449 8.656 4.64449 9.328C5.25649 9.988 6.07249 10.318 7.09249 10.318ZM18.2909 0.364V7.924C18.2909 8.68 18.4769 9.262 18.8489 9.67C19.2209 10.078 19.7669 10.282 20.4869 10.282C21.2069 10.282 21.7589 10.078 22.1429 9.67C22.5269 9.262 22.7189 8.68 22.7189 7.924V0.364H25.7969V7.906C25.7969 9.034 25.5569 9.988 25.0769 10.768C24.5969 11.548 23.9489 12.136 23.1329 12.532C22.3289 12.928 21.4289 13.126 20.4329 13.126C19.4369 13.126 18.5429 12.934 17.7509 12.55C16.9709 12.154 16.3529 11.566 15.8969 10.786C15.4409 9.994 15.2129 9.034 15.2129 7.906V0.364H18.2909ZM34.4023 13L31.7743 8.23H31.0363V13H27.9583V0.364H33.1243C34.1203 0.364 34.9663 0.538 35.6623 0.885999C36.3703 1.234 36.8983 1.714 37.2463 2.326C37.5943 2.926 37.7683 3.598 37.7683 4.342C37.7683 5.182 37.5283 5.932 37.0483 6.592C36.5803 7.252 35.8843 7.72 34.9603 7.996L37.8763 13H34.4023ZM31.0363 6.052H32.9443C33.5083 6.052 33.9283 5.914 34.2043 5.638C34.4923 5.362 34.6363 4.972 34.6363 4.468C34.6363 3.988 34.4923 3.61 34.2043 3.334C33.9283 3.058 33.5083 2.92 32.9443 2.92H31.0363V6.052ZM49.9589 13L47.3309 8.23H46.5929V13H43.5149V0.364H48.6809C49.6769 0.364 50.5229 0.538 51.2189 0.885999C51.9269 1.234 52.4549 1.714 52.8029 2.326C53.1509 2.926 53.3249 3.598 53.3249 4.342C53.3249 5.182 53.0849 5.932 52.6049 6.592C52.1369 7.252 51.4409 7.72 50.5169 7.996L53.4329 13H49.9589ZM46.5929 6.052H48.5009C49.0649 6.052 49.4849 5.914 49.7609 5.638C50.0489 5.362 50.1929 4.972 50.1929 4.468C50.1929 3.988 50.0489 3.61 49.7609 3.334C49.4849 3.058 49.0649 2.92 48.5009 2.92H46.5929V6.052ZM58.3351 2.83V5.386H62.4571V7.762H58.3351V10.534H62.9971V13H55.2571V0.364H62.9971V2.83H58.3351ZM69.5674 13.126C68.6434 13.126 67.8154 12.976 67.0834 12.676C66.3514 12.376 65.7634 11.932 65.3194 11.344C64.8874 10.756 64.6594 10.048 64.6354 9.22H67.9114C67.9594 9.688 68.1214 10.048 68.3974 10.3C68.6734 10.54 69.0334 10.66 69.4774 10.66C69.9334 10.66 70.2934 10.558 70.5574 10.354C70.8214 10.138 70.9534 9.844 70.9534 9.472C70.9534 9.16 70.8454 8.902 70.6294 8.698C70.4254 8.494 70.1674 8.326 69.8554 8.194C69.5554 8.062 69.1234 7.912 68.5594 7.744C67.7434 7.492 67.0774 7.24 66.5614 6.988C66.0454 6.736 65.6014 6.364 65.2294 5.872C64.8574 5.38 64.6714 4.738 64.6714 3.946C64.6714 2.77 65.0974 1.852 65.9494 1.192C66.8014 0.52 67.9114 0.184 69.2794 0.184C70.6714 0.184 71.7934 0.52 72.6454 1.192C73.4974 1.852 73.9534 2.776 74.0134 3.964H70.6834C70.6594 3.556 70.5094 3.238 70.2334 3.01C69.9574 2.77 69.6034 2.65 69.1714 2.65C68.7994 2.65 68.4994 2.752 68.2714 2.956C68.0434 3.148 67.9294 3.43 67.9294 3.802C67.9294 4.21 68.1214 4.528 68.5054 4.756C68.8894 4.984 69.4894 5.23 70.3054 5.494C71.1214 5.77 71.7814 6.034 72.2854 6.286C72.8014 6.538 73.2454 6.904 73.6174 7.384C73.9894 7.864 74.1754 8.482 74.1754 9.238C74.1754 9.958 73.9894 10.612 73.6174 11.2C73.2574 11.788 72.7294 12.256 72.0334 12.604C71.3374 12.952 70.5154 13.126 69.5674 13.126ZM79.1476 2.83V5.386H83.2696V7.762H79.1476V10.534H83.8096V13H76.0696V0.364H83.8096V2.83H79.1476ZM92.2519 13L89.6239 8.23H88.8859V13H85.8079V0.364H90.9739C91.9699 0.364 92.8159 0.538 93.5119 0.885999C94.2199 1.234 94.7479 1.714 95.0959 2.326C95.4439 2.926 95.6179 3.598 95.6179 4.342C95.6179 5.182 95.3779 5.932 94.8979 6.592C94.4299 7.252 93.7339 7.72 92.8099 7.996L95.7259 13H92.2519ZM88.8859 6.052H90.7939C91.3579 6.052 91.7779 5.914 92.0539 5.638C92.3419 5.362 92.4859 4.972 92.4859 4.468C92.4859 3.988 92.3419 3.61 92.0539 3.334C91.7779 3.058 91.3579 2.92 90.7939 2.92H88.8859V6.052ZM109.412 0.364L104.93 13H101.078L96.5961 0.364H99.8721L103.004 9.904L106.154 0.364H109.412ZM113.777 2.83V5.386H117.899V7.762H113.777V10.534H118.439V13H110.699V0.364H118.439V2.83H113.777ZM125.009 13.126C124.085 13.126 123.257 12.976 122.525 12.676C121.793 12.376 121.205 11.932 120.761 11.344C120.329 10.756 120.101 10.048 120.077 9.22H123.353C123.401 9.688 123.563 10.048 123.839 10.3C124.115 10.54 124.475 10.66 124.919 10.66C125.375 10.66 125.735 10.558 125.999 10.354C126.263 10.138 126.395 9.844 126.395 9.472C126.395 9.16 126.287 8.902 126.071 8.698C125.867 8.494 125.609 8.326 125.297 8.194C124.997 8.062 124.565 7.912 124.001 7.744C123.185 7.492 122.519 7.24 122.003 6.988C121.487 6.736 121.043 6.364 120.671 5.872C120.299 5.38 120.113 4.738 120.113 3.946C120.113 2.77 120.539 1.852 121.391 1.192C122.243 0.52 123.353 0.184 124.721 0.184C126.113 0.184 127.235 0.52 128.087 1.192C128.939 1.852 129.395 2.776 129.455 3.964H126.125C126.101 3.556 125.951 3.238 125.675 3.01C125.399 2.77 125.045 2.65 124.613 2.65C124.241 2.65 123.941 2.752 123.713 2.956C123.485 3.148 123.371 3.43 123.371 3.802C123.371 4.21 123.563 4.528 123.947 4.756C124.331 4.984 124.931 5.23 125.747 5.494C126.563 5.77 127.223 6.034 127.727 6.286C128.243 6.538 128.687 6.904 129.059 7.384C129.431 7.864 129.617 8.482 129.617 9.238C129.617 9.958 129.431 10.612 129.059 11.2C128.699 11.788 128.171 12.256 127.475 12.604C126.779 12.952 125.957 13.126 125.009 13.126Z" fill="url(#paint0_linear_32_2887)"/>
<defs>
<linearGradient id="paint0_linear_32_2887" x1="80.3005" y1="-12.2963" x2="80.9194" y2="58.6293" gradientUnits="userSpaceOnUse">
<stop stop-color="#FD749B"/>
<stop offset="1" stop-color="#281AC8"/>
</linearGradient>
</defs>
</svg>
