<svg width="157" height="54" viewBox="0 0 157 54" fill="none" xmlns="http://www.w3.org/2000/svg">
<rect width="157" height="54" rx="27" fill="url(#paint0_linear_32_3705)"/>
<path d="M58.1129 25.336C58.1129 25.9053 57.9822 26.428 57.7209 26.904C57.4595 27.3707 57.0582 27.7487 56.5169 28.038C55.9755 28.3273 55.3035 28.472 54.5009 28.472H53.0169V32H50.6229V22.172H54.5009C55.2849 22.172 55.9475 22.3073 56.4889 22.578C57.0302 22.8487 57.4362 23.222 57.7069 23.698C57.9775 24.174 58.1129 24.72 58.1129 25.336ZM54.3189 26.568C54.7762 26.568 55.1169 26.4607 55.3409 26.246C55.5649 26.0313 55.6769 25.728 55.6769 25.336C55.6769 24.944 55.5649 24.6407 55.3409 24.426C55.1169 24.2113 54.7762 24.104 54.3189 24.104H53.0169V26.568H54.3189ZM61.7112 22.172V28.052C61.7112 28.64 61.8559 29.0927 62.1452 29.41C62.4345 29.7273 62.8592 29.886 63.4192 29.886C63.9792 29.886 64.4085 29.7273 64.7072 29.41C65.0059 29.0927 65.1552 28.64 65.1552 28.052V22.172H67.5492V28.038C67.5492 28.9153 67.3625 29.6573 66.9892 30.264C66.6159 30.8707 66.1119 31.328 65.4772 31.636C64.8519 31.944 64.1519 32.098 63.3772 32.098C62.6025 32.098 61.9072 31.9487 61.2912 31.65C60.6845 31.342 60.2039 30.8847 59.8492 30.278C59.4945 29.662 59.3172 28.9153 59.3172 28.038V22.172H61.7112ZM75.1803 26.96C75.7496 27.0813 76.207 27.366 76.5523 27.814C76.8976 28.2527 77.0703 28.7567 77.0703 29.326C77.0703 30.1473 76.781 30.8007 76.2023 31.286C75.633 31.762 74.835 32 73.8083 32H69.2303V22.172H73.6543C74.653 22.172 75.4323 22.4007 75.9923 22.858C76.5616 23.3153 76.8463 23.936 76.8463 24.72C76.8463 25.2987 76.6923 25.7793 76.3843 26.162C76.0856 26.5447 75.6843 26.8107 75.1803 26.96ZM71.6243 26.148H73.1923C73.5843 26.148 73.883 26.064 74.0883 25.896C74.303 25.7187 74.4103 25.462 74.4103 25.126C74.4103 24.79 74.303 24.5333 74.0883 24.356C73.883 24.1787 73.5843 24.09 73.1923 24.09H71.6243V26.148ZM73.3883 30.068C73.7896 30.068 74.0976 29.9793 74.3123 29.802C74.5363 29.6153 74.6483 29.3493 74.6483 29.004C74.6483 28.6587 74.5316 28.388 74.2983 28.192C74.0743 27.996 73.7616 27.898 73.3603 27.898H71.6243V30.068H73.3883ZM80.8528 30.152H83.9888V32H78.4588V22.172H80.8528V30.152ZM87.5247 22.172V32H85.1307V22.172H87.5247ZM92.8156 32.098C92.0969 32.098 91.4529 31.9813 90.8836 31.748C90.3143 31.5147 89.8569 31.1693 89.5116 30.712C89.1756 30.2547 88.9983 29.704 88.9796 29.06H91.5276C91.5649 29.424 91.6909 29.704 91.9056 29.9C92.1203 30.0867 92.4003 30.18 92.7456 30.18C93.1003 30.18 93.3803 30.1007 93.5856 29.942C93.7909 29.774 93.8936 29.5453 93.8936 29.256C93.8936 29.0133 93.8096 28.8127 93.6416 28.654C93.4829 28.4953 93.2823 28.3647 93.0396 28.262C92.8063 28.1593 92.4703 28.0427 92.0316 27.912C91.3969 27.716 90.8789 27.52 90.4776 27.324C90.0763 27.128 89.7309 26.8387 89.4416 26.456C89.1523 26.0733 89.0076 25.574 89.0076 24.958C89.0076 24.0433 89.3389 23.3293 90.0016 22.816C90.6643 22.2933 91.5276 22.032 92.5916 22.032C93.6743 22.032 94.5469 22.2933 95.2096 22.816C95.8723 23.3293 96.2269 24.048 96.2736 24.972H93.6836C93.6649 24.6547 93.5483 24.4073 93.3336 24.23C93.1189 24.0433 92.8436 23.95 92.5076 23.95C92.2183 23.95 91.9849 24.0293 91.8076 24.188C91.6303 24.3373 91.5416 24.5567 91.5416 24.846C91.5416 25.1633 91.6909 25.4107 91.9896 25.588C92.2883 25.7653 92.7549 25.9567 93.3896 26.162C94.0243 26.3767 94.5376 26.582 94.9296 26.778C95.3309 26.974 95.6763 27.2587 95.9656 27.632C96.2549 28.0053 96.3996 28.486 96.3996 29.074C96.3996 29.634 96.2549 30.1427 95.9656 30.6C95.6856 31.0573 95.2749 31.4213 94.7336 31.692C94.1923 31.9627 93.5529 32.098 92.8156 32.098ZM106.385 22.172V32H103.991V27.954H100.267V32H97.8729V22.172H100.267V26.022H103.991V22.172H106.385Z" fill="white"/>
<defs>
<linearGradient id="paint0_linear_32_3705" x1="86.35" y1="-8.5" x2="87.3988" y2="87.2454" gradientUnits="userSpaceOnUse">
<stop stop-color="#FD749B"/>
<stop offset="1" stop-color="#281AC8"/>
</linearGradient>
</defs>
</svg>
