<svg width="231" height="37" viewBox="0 0 231 37" fill="none" xmlns="http://www.w3.org/2000/svg">
<g clip-path="url(#clip0_32_3387)">
<path d="M0.183594 13.0822L15.5715 33.0947L8.59169 13.0822H0.183594Z" fill="url(#paint0_linear_32_3387)"/>
<path d="M9.96338 13.0822L17.3998 34.4041L24.9823 13.0822H9.96338Z" fill="url(#paint1_linear_32_3387)"/>
<path d="M19.0566 33.6115L34.8412 13.0822H26.3565L19.0566 33.6115Z" fill="url(#paint2_linear_32_3387)"/>
<path d="M28.82 2.28821H18.8657L25.691 11.0886L28.82 2.28821Z" fill="url(#paint3_linear_32_3387)"/>
<path d="M24.5309 11.733L17.5124 2.68433L10.4946 11.733H24.5309Z" fill="url(#paint4_linear_32_3387)"/>
<path d="M16.1596 2.28821H6.19824L9.28857 11.148L16.1596 2.28821Z" fill="url(#paint5_linear_32_3387)"/>
<path d="M5.12523 3.14221L0 11.7328H8.1209L5.12523 3.14221Z" fill="url(#paint6_linear_32_3387)"/>
<path d="M35.0251 11.7329L29.8947 3.13354L26.8359 11.7329H35.0251Z" fill="url(#paint7_linear_32_3387)"/>
</g>
<g clip-path="url(#clip1_32_3387)">
<path d="M89.2289 9.18445C86.1328 9.18445 83.6138 11.7032 83.6138 14.7994C83.6138 17.8957 86.1328 20.4145 89.2289 20.4145C92.3251 20.4145 94.8438 17.8957 94.8438 14.7994C94.8438 11.7032 92.3251 9.18445 89.2289 9.18445Z" fill="url(#paint8_linear_32_3387)"/>
<path d="M100.925 18.5997L99.2225 14.7995L100.925 10.9994L97.3142 8.9257L96.4581 4.8504L92.3175 5.2955L89.2296 2.50183L86.1415 5.2955L82.0011 4.85064L81.145 8.92594L77.5337 10.9994L79.2365 14.7995L77.5337 18.5997L81.145 20.6734L81.6088 22.8812L77.7539 31.0722L81.777 31.1249L84.3819 34.1913L88.1709 26.1396L89.2296 27.0972L90.2881 26.1396L94.0774 34.1913L96.682 31.1249L100.705 31.0722L96.8503 22.8812L97.3142 20.6734L100.925 18.5997ZM89.2296 22.2712C85.1096 22.2712 81.7579 18.9196 81.7579 14.7995C81.7579 10.6795 85.1096 7.32783 89.2296 7.32783C93.3494 7.32783 96.7013 10.6798 96.7013 14.7995C96.7013 18.9196 93.3494 22.2712 89.2296 22.2712Z" fill="url(#paint9_linear_32_3387)"/>
</g>
<g clip-path="url(#clip2_32_3387)">
<path d="M140.308 20.2034C140.308 21.7392 141.524 22.9886 143.02 22.9886C144.515 22.9886 145.732 21.7392 145.732 20.2034C145.732 18.6677 144.515 17.4182 143.02 17.4182C141.524 17.4182 140.308 18.6677 140.308 20.2034Z" fill="url(#paint10_linear_32_3387)"/>
<path d="M143.02 24.8455C140.029 24.8455 137.596 27.3442 137.596 30.4159V34.1914H148.444V30.4159C148.444 27.3442 146.011 24.8455 143.02 24.8455Z" fill="url(#paint11_linear_32_3387)"/>
<path d="M135.788 22.0602C135.788 20.5245 134.571 19.275 133.076 19.275C131.581 19.275 130.364 20.5245 130.364 22.0602C130.364 23.596 131.581 24.8454 133.076 24.8454C134.571 24.8454 135.788 23.596 135.788 22.0602Z" fill="url(#paint12_linear_32_3387)"/>
<path d="M155.676 22.0602C155.676 20.5245 154.459 19.275 152.964 19.275C151.468 19.275 150.252 20.5245 150.252 22.0602C150.252 23.596 151.468 24.8454 152.964 24.8454C154.459 24.8454 155.676 23.596 155.676 22.0602Z" fill="url(#paint13_linear_32_3387)"/>
<path d="M132.172 2.50183L130.797 5.83176L127.592 6.29596L129.904 8.55096L129.372 11.8478L132.172 10.3447L134.972 11.8478L134.441 8.55096L136.692 6.29596L133.581 5.83176L132.172 2.50183Z" fill="url(#paint14_linear_32_3387)"/>
<path d="M144.429 5.83176L143.02 2.50183L141.645 5.83176L138.5 6.29596L140.751 8.55096L140.22 11.8478L143.02 10.3447L145.82 11.8478L145.289 8.55096L147.54 6.29596L144.429 5.83176Z" fill="url(#paint15_linear_32_3387)"/>
<path d="M153.868 2.50183L152.492 5.83176L149.348 6.29596L151.599 8.55096L151.067 11.8478L153.868 10.3447L156.668 11.8478L156.136 8.55096L158.448 6.29596L155.276 5.83176L153.868 2.50183Z" fill="url(#paint16_linear_32_3387)"/>
<path d="M152.964 26.7023C151.762 26.7023 150.663 27.1164 149.764 27.7953C150.066 28.6132 150.252 29.4904 150.252 30.4159V34.1914H158.448V32.2727C158.448 29.1961 155.959 26.7023 152.964 26.7023Z" fill="url(#paint17_linear_32_3387)"/>
<path d="M127.592 32.2727V34.1914H135.788V30.4159C135.788 29.4904 135.974 28.6132 136.276 27.7953C135.377 27.1164 134.278 26.7023 133.076 26.7023C130.081 26.7023 127.592 29.1961 127.592 32.2727Z" fill="url(#paint18_linear_32_3387)"/>
</g>
<g clip-path="url(#clip3_32_3387)">
<path d="M218.471 24.2559H211.809C206.334 24.2559 201.874 28.7167 201.874 34.1914H228.436C228.407 28.7457 223.946 24.2559 218.471 24.2559Z" fill="url(#paint19_linear_32_3387)"/>
<path d="M216.328 19.7078C216.849 19.7078 217.342 19.8816 217.718 20.2003H220.123C221.31 18.9547 222.034 17.3036 222.034 15.4497C222.034 11.6261 218.935 8.55566 215.14 8.55566C211.346 8.55566 208.246 11.6261 208.246 15.4497C208.246 18.0278 209.666 20.2872 211.78 21.4748C212.012 20.461 212.91 19.7078 213.953 19.7078H216.328Z" fill="url(#paint20_linear_32_3387)"/>
<path d="M204.944 16.0293C205.031 16.7534 205.379 17.4197 205.871 17.9121C206.248 18.2887 206.74 18.5783 207.291 18.7521C207.262 18.6363 207.262 18.5204 207.262 18.4335V12.814C207.262 12.6981 207.262 12.5822 207.291 12.4664C206.74 12.6112 206.277 12.9009 205.871 13.3064C205.842 13.3354 205.784 13.3933 205.755 13.4223V13.1905C205.755 12.6402 205.813 12.0898 205.9 11.5684C205.987 11.018 206.132 10.4966 206.335 10.0042C206.508 9.4828 206.74 8.99036 207.03 8.5269C207.291 8.06343 207.609 7.59996 207.957 7.19443C207.986 7.16546 208.015 7.10753 208.015 7.07856C208.275 7.10753 208.536 7.02063 208.71 6.84683C210.477 5.07986 212.794 4.21086 215.083 4.21086C217.371 4.21086 219.717 5.07986 221.455 6.84683C221.658 7.0496 221.919 7.10753 222.15 7.07856C222.179 7.10753 222.179 7.16546 222.208 7.19443C222.556 7.59996 222.875 8.06343 223.135 8.5269C223.396 8.99036 223.628 9.4828 223.83 10.0042C224.004 10.5256 224.149 11.047 224.265 11.5974C224.352 12.1188 224.41 12.6691 224.41 13.2195V13.4512C224.381 13.3933 224.323 13.3643 224.294 13.3354C223.917 12.9588 223.425 12.6691 222.875 12.4953C222.904 12.6112 222.904 12.7271 222.904 12.8429V18.4335C222.904 18.5494 222.904 18.6652 222.875 18.7521C223.019 18.7232 223.164 18.6652 223.309 18.6073V20.4322C223.309 20.635 223.28 20.8377 223.251 20.9826C223.222 21.1274 223.164 21.2143 223.106 21.3012C223.048 21.3591 222.961 21.4171 222.875 21.446C222.759 21.475 222.643 21.504 222.498 21.504H222.469H217.139C216.965 21.2143 216.676 21.0115 216.299 21.0115H213.924C213.402 21.0115 212.997 21.446 212.997 21.9385C213.026 22.4599 213.431 22.8654 213.953 22.8654H216.328C216.676 22.8654 216.994 22.6626 217.168 22.373H222.556H222.759C222.961 22.373 223.135 22.315 223.309 22.2571C223.541 22.1702 223.715 22.0543 223.888 21.8805C224.033 21.7067 224.149 21.504 224.236 21.2433C224.294 21.0115 224.352 20.7219 224.352 20.4032V18.0859V17.999C224.381 17.97 224.41 17.9411 224.439 17.9121C224.931 17.4197 225.279 16.7534 225.366 16.0293C225.395 16.0003 225.424 16.0003 225.424 15.9713C225.511 15.8844 225.568 15.7396 225.568 15.6237V13.2195C225.568 12.6112 225.511 12.0029 225.424 11.4236C225.25 10.8153 225.105 10.2359 224.902 9.6566C224.699 9.07726 224.439 8.5269 224.12 8.0055C223.83 7.4841 223.483 6.99166 223.077 6.5282C223.048 6.47026 222.99 6.4413 222.933 6.41233C222.99 6.15163 222.904 5.833 222.701 5.63023C220.615 3.54463 217.892 2.50183 215.14 2.50183C212.389 2.50183 209.666 3.54463 207.551 5.63023C207.348 5.833 207.262 6.15163 207.319 6.41233C207.262 6.4413 207.233 6.47026 207.175 6.5282C206.769 6.99166 206.422 7.4841 206.132 8.0055C205.842 8.5269 205.581 9.07726 205.35 9.6566C205.147 10.2359 204.973 10.8153 204.886 11.4236C204.77 12.0029 204.741 12.6112 204.741 13.2195V15.6237C204.741 15.7686 204.799 15.8844 204.886 15.9713C204.915 16.0003 204.944 16.0003 204.944 16.0293Z" fill="url(#paint21_linear_32_3387)"/>
</g>
<defs>
<linearGradient id="paint0_linear_32_3387" x1="8.64695" y1="9.93203" x2="10.1143" y2="45.359" gradientUnits="userSpaceOnUse">
<stop stop-color="#FD749B"/>
<stop offset="1" stop-color="#281AC8"/>
</linearGradient>
<linearGradient id="paint1_linear_32_3387" x1="18.2238" y1="9.72592" x2="19.9298" y2="47.4585" gradientUnits="userSpaceOnUse">
<stop stop-color="#FD749B"/>
<stop offset="1" stop-color="#281AC8"/>
</linearGradient>
<linearGradient id="paint2_linear_32_3387" x1="27.7382" y1="9.85069" x2="29.2435" y2="46.1924" gradientUnits="userSpaceOnUse">
<stop stop-color="#FD749B"/>
<stop offset="1" stop-color="#281AC8"/>
</linearGradient>
<linearGradient id="paint3_linear_32_3387" x1="24.3405" y1="0.902961" x2="24.7796" y2="16.4961" gradientUnits="userSpaceOnUse">
<stop stop-color="#FD749B"/>
<stop offset="1" stop-color="#281AC8"/>
</linearGradient>
<linearGradient id="paint4_linear_32_3387" x1="18.2146" y1="1.26" x2="18.5439" y2="17.299" gradientUnits="userSpaceOnUse">
<stop stop-color="#FD749B"/>
<stop offset="1" stop-color="#281AC8"/>
</linearGradient>
<linearGradient id="paint5_linear_32_3387" x1="11.677" y1="0.893617" x2="12.1216" y2="16.5918" gradientUnits="userSpaceOnUse">
<stop stop-color="#FD749B"/>
<stop offset="1" stop-color="#281AC8"/>
</linearGradient>
<linearGradient id="paint6_linear_32_3387" x1="4.46649" y1="1.78999" x2="4.97913" y2="17.0062" gradientUnits="userSpaceOnUse">
<stop stop-color="#FD749B"/>
<stop offset="1" stop-color="#281AC8"/>
</linearGradient>
<linearGradient id="paint7_linear_32_3387" x1="31.34" y1="1.77994" x2="31.8494" y2="17.0119" gradientUnits="userSpaceOnUse">
<stop stop-color="#FD749B"/>
<stop offset="1" stop-color="#281AC8"/>
</linearGradient>
<linearGradient id="paint8_linear_32_3387" x1="89.7903" y1="7.41675" x2="90.4239" y2="27.3106" gradientUnits="userSpaceOnUse">
<stop stop-color="#FD749B"/>
<stop offset="1" stop-color="#281AC8"/>
</linearGradient>
<linearGradient id="paint9_linear_32_3387" x1="90.3991" y1="-2.48633" x2="92.8191" y2="53.6034" gradientUnits="userSpaceOnUse">
<stop stop-color="#FD749B"/>
<stop offset="1" stop-color="#281AC8"/>
</linearGradient>
<linearGradient id="paint10_linear_32_3387" x1="143.291" y1="16.5414" x2="143.614" y2="26.4087" gradientUnits="userSpaceOnUse">
<stop stop-color="#FD749B"/>
<stop offset="1" stop-color="#281AC8"/>
</linearGradient>
<linearGradient id="paint11_linear_32_3387" x1="143.562" y1="23.3743" x2="144.017" y2="39.9348" gradientUnits="userSpaceOnUse">
<stop stop-color="#FD749B"/>
<stop offset="1" stop-color="#281AC8"/>
</linearGradient>
<linearGradient id="paint12_linear_32_3387" x1="133.347" y1="18.3982" x2="133.67" y2="28.2655" gradientUnits="userSpaceOnUse">
<stop stop-color="#FD749B"/>
<stop offset="1" stop-color="#281AC8"/>
</linearGradient>
<linearGradient id="paint13_linear_32_3387" x1="153.235" y1="18.3982" x2="153.558" y2="28.2655" gradientUnits="userSpaceOnUse">
<stop stop-color="#FD749B"/>
<stop offset="1" stop-color="#281AC8"/>
</linearGradient>
<linearGradient id="paint14_linear_32_3387" x1="132.597" y1="1.03071" x2="133.139" y2="17.5859" gradientUnits="userSpaceOnUse">
<stop stop-color="#FD749B"/>
<stop offset="1" stop-color="#281AC8"/>
</linearGradient>
<linearGradient id="paint15_linear_32_3387" x1="143.472" y1="1.03071" x2="144.017" y2="17.5857" gradientUnits="userSpaceOnUse">
<stop stop-color="#FD749B"/>
<stop offset="1" stop-color="#281AC8"/>
</linearGradient>
<linearGradient id="paint16_linear_32_3387" x1="154.353" y1="1.03071" x2="154.894" y2="17.5859" gradientUnits="userSpaceOnUse">
<stop stop-color="#FD749B"/>
<stop offset="1" stop-color="#281AC8"/>
</linearGradient>
<linearGradient id="paint17_linear_32_3387" x1="154.54" y1="25.5234" x2="154.905" y2="38.7937" gradientUnits="userSpaceOnUse">
<stop stop-color="#FD749B"/>
<stop offset="1" stop-color="#281AC8"/>
</linearGradient>
<linearGradient id="paint18_linear_32_3387" x1="132.368" y1="25.5234" x2="132.733" y2="38.7937" gradientUnits="userSpaceOnUse">
<stop stop-color="#FD749B"/>
<stop offset="1" stop-color="#281AC8"/>
</linearGradient>
<linearGradient id="paint19_linear_32_3387" x1="216.483" y1="22.6919" x2="216.693" y2="40.3079" gradientUnits="userSpaceOnUse">
<stop stop-color="#FD749B"/>
<stop offset="1" stop-color="#281AC8"/>
</linearGradient>
<linearGradient id="paint20_linear_32_3387" x1="215.83" y1="6.5221" x2="216.513" y2="29.4109" gradientUnits="userSpaceOnUse">
<stop stop-color="#FD749B"/>
<stop offset="1" stop-color="#281AC8"/>
</linearGradient>
<linearGradient id="paint21_linear_32_3387" x1="216.196" y1="-0.703545" x2="217.32" y2="35.3717" gradientUnits="userSpaceOnUse">
<stop stop-color="#FD749B"/>
<stop offset="1" stop-color="#281AC8"/>
</linearGradient>
<clipPath id="clip0_32_3387">
<rect width="35.0253" height="36.6931" fill="white"/>
</clipPath>
<clipPath id="clip1_32_3387">
<rect width="31.6895" height="31.6895" fill="white" transform="translate(73.3862 2.50183)"/>
</clipPath>
<clipPath id="clip2_32_3387">
<rect width="30.8556" height="31.6895" fill="white" transform="translate(127.592 2.50183)"/>
</clipPath>
<clipPath id="clip3_32_3387">
<rect width="31.6895" height="31.6895" fill="white" transform="translate(199.311 2.50183)"/>
</clipPath>
</defs>
</svg>
