<svg width="127" height="44" viewBox="0 0 127 44" fill="none" xmlns="http://www.w3.org/2000/svg">
<rect x="0.000488281" width="127" height="43.6815" rx="21.8408" fill="url(#paint0_linear_32_2962)"/>
<path d="M36.4042 25.7516L34.7982 22.8366H34.3472V25.7516H32.4662V18.0296H35.6232C36.2319 18.0296 36.7489 18.1359 37.1742 18.3486C37.6069 18.5613 37.9296 18.8546 38.1422 19.2286C38.3549 19.5953 38.4612 20.0059 38.4612 20.4606C38.4612 20.9739 38.3146 21.4323 38.0212 21.8356C37.7352 22.2389 37.3099 22.5249 36.7452 22.6936L38.5272 25.7516H36.4042ZM34.3472 21.5056H35.5132C35.8579 21.5056 36.1146 21.4213 36.2832 21.2526C36.4592 21.0839 36.5472 20.8456 36.5472 20.5376C36.5472 20.2443 36.4592 20.0133 36.2832 19.8446C36.1146 19.6759 35.8579 19.5916 35.5132 19.5916H34.3472V21.5056ZM41.523 19.5366V21.0986H44.042V22.5506H41.523V24.2446H44.372V25.7516H39.642V18.0296H44.372V19.5366H41.523ZM50.4002 24.3876H47.5182L47.0562 25.7516H45.0872L47.8812 18.0296H50.0592L52.8532 25.7516H50.8622L50.4002 24.3876ZM49.9162 22.9356L48.9592 20.1086L48.0132 22.9356H49.9162ZM56.5966 18.0296C57.4106 18.0296 58.1219 18.1909 58.7306 18.5136C59.3392 18.8363 59.8086 19.2909 60.1386 19.8776C60.4759 20.4569 60.6446 21.1279 60.6446 21.8906C60.6446 22.6459 60.4759 23.3169 60.1386 23.9036C59.8086 24.4903 59.3356 24.9449 58.7196 25.2676C58.1109 25.5903 57.4032 25.7516 56.5966 25.7516H53.7036V18.0296H56.5966ZM56.4756 24.1236C57.1869 24.1236 57.7406 23.9293 58.1366 23.5406C58.5326 23.1519 58.7306 22.6019 58.7306 21.8906C58.7306 21.1793 58.5326 20.6256 58.1366 20.2296C57.7406 19.8336 57.1869 19.6356 56.4756 19.6356H55.5846V24.1236H56.4756ZM72.7718 18.0296V25.7516H70.8908V21.1206L69.1638 25.7516H67.6458L65.9078 21.1096V25.7516H64.0268V18.0296H66.2488L68.4158 23.3756L70.5608 18.0296H72.7718ZM77.7765 25.8286C77.0505 25.8286 76.3831 25.6599 75.7745 25.3226C75.1731 24.9853 74.6928 24.5159 74.3335 23.9146C73.9815 23.3059 73.8055 22.6239 73.8055 21.8686C73.8055 21.1133 73.9815 20.4349 74.3335 19.8336C74.6928 19.2323 75.1731 18.7629 75.7745 18.4256C76.3831 18.0883 77.0505 17.9196 77.7765 17.9196C78.5025 17.9196 79.1661 18.0883 79.7675 18.4256C80.3761 18.7629 80.8528 19.2323 81.1975 19.8336C81.5495 20.4349 81.7255 21.1133 81.7255 21.8686C81.7255 22.6239 81.5495 23.3059 81.1975 23.9146C80.8455 24.5159 80.3688 24.9853 79.7675 25.3226C79.1661 25.6599 78.5025 25.8286 77.7765 25.8286ZM77.7765 24.1126C78.3925 24.1126 78.8838 23.9073 79.2505 23.4966C79.6245 23.0859 79.8115 22.5433 79.8115 21.8686C79.8115 21.1866 79.6245 20.6439 79.2505 20.2406C78.8838 19.8299 78.3925 19.6246 77.7765 19.6246C77.1531 19.6246 76.6545 19.8263 76.2805 20.2296C75.9138 20.6329 75.7305 21.1793 75.7305 21.8686C75.7305 22.5506 75.9138 23.0969 76.2805 23.5076C76.6545 23.9109 77.1531 24.1126 77.7765 24.1126ZM86.7099 25.7516L85.1039 22.8366H84.6529V25.7516H82.7719V18.0296H85.9289C86.5376 18.0296 87.0546 18.1359 87.4799 18.3486C87.9126 18.5613 88.2352 18.8546 88.4479 19.2286C88.6606 19.5953 88.7669 20.0059 88.7669 20.4606C88.7669 20.9739 88.6202 21.4323 88.3269 21.8356C88.0409 22.2389 87.6156 22.5249 87.0509 22.6936L88.8329 25.7516H86.7099ZM84.6529 21.5056H85.8189C86.1636 21.5056 86.4202 21.4213 86.5889 21.2526C86.7649 21.0839 86.8529 20.8456 86.8529 20.5376C86.8529 20.2443 86.7649 20.0133 86.5889 19.8446C86.4202 19.6759 86.1636 19.5916 85.8189 19.5916H84.6529V21.5056ZM91.8287 19.5366V21.0986H94.3477V22.5506H91.8287V24.2446H94.6777V25.7516H89.9477V18.0296H94.6777V19.5366H91.8287Z" fill="white"/>
<defs>
<linearGradient id="paint0_linear_32_2962" x1="69.8505" y1="-6.8758" x2="70.6989" y2="70.5743" gradientUnits="userSpaceOnUse">
<stop stop-color="#FD749B"/>
<stop offset="1" stop-color="#281AC8"/>
</linearGradient>
</defs>
</svg>
