<svg width="27" height="28" viewBox="0 0 27 28" fill="none" xmlns="http://www.w3.org/2000/svg">
<g clip-path="url(#clip0_32_2858)">
<path d="M13.5109 -0.000117003C6.05461 -0.00662482 0.00676856 6.25657 0.000493167 13.9891C-0.00578222 21.7215 6.03373 27.9934 13.4901 27.9999C20.9454 27.9934 26.989 21.7313 27.0005 13.9999C27.0005 6.27172 20.9631 0.00639081 13.5109 -0.000117003ZM13.4901 25.6702C7.27504 25.6702 2.23659 20.4451 2.23659 13.9999C2.23659 7.55469 7.27504 2.32963 13.4901 2.32963C19.703 2.33613 24.7372 7.55688 24.7435 13.9999C24.7435 20.4451 19.7051 25.6702 13.4901 25.6702Z" fill="url(#paint0_linear_32_2858)"/>
<path d="M17.1367 13.3173C18.0395 12.7896 18.5274 11.7331 18.3592 10.6733C18.1502 9.03713 16.2695 8.41944 14.7857 8.28945V5.82971H13.3228V8.26779H12.3406V5.82971H10.8778V8.26779H7.93115V9.83902H9.02829C9.51941 9.83902 9.75972 9.99072 9.75972 10.4025V17.1532C9.75972 17.7167 9.48803 17.8901 9.19546 17.8901H8.07744V19.4938H10.9196V21.9861H12.3929V19.4938H13.375V21.9861H14.8066V19.4938H15.12C18.1293 19.4938 19.1324 17.966 19.1324 15.8855C19.1084 14.6588 18.2881 13.6034 17.1367 13.3173ZM12.3406 9.93652H13.3855C14.1169 9.93652 15.5589 10.0666 15.5589 11.3019C15.609 12.1081 15.0458 12.8146 14.2736 12.9164H12.3406V9.93652ZM13.9602 17.7383V17.7275H12.3406V14.4767H14.2214C14.6603 14.4767 16.3112 14.6284 16.3112 15.8421C16.3112 17.0557 15.5275 17.7383 13.9602 17.7383Z" fill="url(#paint1_linear_32_2858)"/>
</g>
<defs>
<linearGradient id="paint0_linear_32_2858" x1="14.8505" y1="-4.40753" x2="16.4886" y2="45.1901" gradientUnits="userSpaceOnUse">
<stop stop-color="#FD749B"/>
<stop offset="1" stop-color="#281AC8"/>
</linearGradient>
<linearGradient id="paint1_linear_32_2858" x1="14.0918" y1="3.28658" x2="15.4052" y2="31.876" gradientUnits="userSpaceOnUse">
<stop stop-color="#FD749B"/>
<stop offset="1" stop-color="#281AC8"/>
</linearGradient>
<clipPath id="clip0_32_2858">
<rect width="27" height="28" fill="white" transform="translate(0.000488281)"/>
</clipPath>
</defs>
</svg>
