<svg width="106" height="13" viewBox="0 0 106 13" fill="none" xmlns="http://www.w3.org/2000/svg">
<g id="Social Media Icons">
<path id="Instagram" opacity="0.8" fill-rule="evenodd" clip-rule="evenodd" d="M104.574 0H95.4269C94.6391 0 94.0005 0.690014 94.0005 1.54172V11.4583C94.0005 12.3096 94.6391 13 95.4269 13H104.574C105.362 13 106 12.3096 106 11.4583V1.54172C106 0.690014 105.362 0 104.574 0ZM102.626 2.03104C102.626 1.80694 102.794 1.62504 103 1.62504H104.125C104.333 1.62504 104.5 1.80694 104.5 2.03104V3.25009C104.5 3.47418 104.333 3.65608 104.125 3.65608H103C102.794 3.65608 102.626 3.47418 102.626 3.25009V2.03104ZM100.014 4.02095C101.289 4.02095 102.322 5.13788 102.322 6.51507C102.322 7.89262 101.289 9.00919 100.014 9.00919C98.7402 9.00919 97.7069 7.89262 97.7069 6.51507C97.7069 5.13788 98.7402 4.02095 100.014 4.02095ZM104.876 11.375C104.876 11.5991 104.708 11.7813 104.5 11.7813H95.5005C95.2933 11.7813 95.1254 11.5991 95.1254 11.375V5.28113H96.6255C96.4301 5.58571 96.364 6.15411 96.364 6.51507C96.364 8.69042 98.0018 10.4605 100.014 10.4605C102.027 10.4605 103.665 8.69042 103.665 6.51507C103.665 6.15411 103.618 5.59458 103.375 5.28113H104.876V11.375Z" fill="white"/>
<path id="Twitter" opacity="0.8" fill-rule="evenodd" clip-rule="evenodd" d="M74.6419 1.20336C74.1261 1.52126 73.5562 1.75246 72.947 1.87617C72.4618 1.33693 71.7683 1 71.0005 1C69.5288 1 68.3344 2.24341 68.3344 3.77687C68.3344 3.99468 68.3573 4.20579 68.4031 4.40915C66.1865 4.2932 64.2216 3.189 62.9054 1.50681C62.6756 1.91846 62.5444 2.39601 62.5444 2.90458C62.5444 3.86745 63.0151 4.71754 63.7311 5.21553C63.2945 5.20214 62.8825 5.07597 62.5222 4.86944V4.90327C62.5222 6.24924 63.4417 7.37211 64.6628 7.62622C64.4392 7.69142 64.2032 7.7242 63.9599 7.7242C63.7881 7.7242 63.6204 7.70728 63.458 7.67486C63.7974 8.77764 64.7818 9.58085 65.9491 9.60235C65.0366 10.3474 63.8859 10.7915 62.6367 10.7915C62.4215 10.7915 62.2087 10.7788 62.0005 10.7534C63.1806 11.5401 64.5833 12 66.089 12C70.9953 12 73.6773 7.76931 73.6773 4.09936C73.6773 3.97847 73.6753 3.85793 73.6707 3.73951C74.1917 3.34795 74.6444 2.85912 75.0005 2.30227C74.5229 2.52289 74.0085 2.67233 73.4691 2.73929C74.0199 2.39601 74.4427 1.85185 74.6419 1.20336Z" fill="white"/>
<path id="Facebook" opacity="0.8" fill-rule="evenodd" clip-rule="evenodd" d="M44.0005 12.2822C44.0005 12.6785 43.704 13 43.3382 13H40.2803V7.96565H41.8402L42.0739 6.0039H40.2803V4.75106C40.2803 4.18307 40.4261 3.79603 41.1779 3.79603L42.137 3.79568V2.04072C41.9709 2.017 41.4018 1.96353 40.7396 1.96353C39.3569 1.96353 38.4102 2.87783 38.4102 4.55701V6.0039H36.8464V7.96565H38.4102V13H32.6627C32.297 13 32.0005 12.6785 32.0005 12.2822V0.717776C32.0005 0.321176 32.297 0 32.6627 0H43.3382C43.704 0 44.0005 0.321176 44.0005 0.717776V12.2822Z" fill="white"/>
<path id="Google+" opacity="0.8" fill-rule="evenodd" clip-rule="evenodd" d="M4.4472 7.3911V5.6089H8.71766C9.01499 7.76541 8.1178 11 4.4472 11C1.99157 11 0.000488281 8.98508 0.000488281 6.49982C0.000488281 4.01456 1.99157 2 4.4472 2C5.59938 2 6.64921 2.44336 7.43919 3.17096C6.82726 3.75594 6.63097 3.97911 6.46428 4.16861C6.3775 4.26727 6.29875 4.3568 6.17356 4.48351C5.71664 4.10113 5.21844 3.82671 4.4472 3.82671C2.98832 3.82671 1.84967 5.0236 1.84967 6.49982C1.84967 7.9764 2.98832 9.17329 4.4472 9.17329C5.88872 9.17329 6.47436 8.54418 6.85113 7.38864C6.15552 7.38864 4.4472 7.3911 4.4472 7.3911ZM12.4597 4.13863V5.69792H14.0005V6.81175H12.4597V8.4159H11.3592V6.81175H9.77409V5.69792H11.3592V4.13863H12.4597Z" fill="white"/>
</g>
</svg>
