<svg width="208" height="37" viewBox="0 0 208 37" fill="none" xmlns="http://www.w3.org/2000/svg">
<path d="M18.5 37C28.7173 37 37 28.7173 37 18.5C37 8.28273 28.7173 0 18.5 0C8.28273 0 0 8.28273 0 18.5C0 28.7173 8.28273 37 18.5 37Z" fill="#272EAE"/>
<path d="M16.6958 29V20.0547H13.5V16.5H16.6958V13.6992C16.6958 10.6562 18.6792 9 21.575 9C22.9625 9 24.1542 9.09766 24.5 9.14062V12.3203H22.4917C20.9167 12.3203 20.6125 13.0234 20.6125 14.0508V16.5H24.1667L23.6792 20.0547H20.6125V29" fill="white"/>
<mask id="mask0_32_3672" style="mask-type:luminance" maskUnits="userSpaceOnUse" x="13" y="9" width="12" height="20">
<path d="M16.6958 29V20.0547H13.5V16.5H16.6958V13.6992C16.6958 10.6562 18.6792 9 21.575 9C22.9625 9 24.1542 9.09766 24.5 9.14062V12.3203H22.4917C20.9167 12.3203 20.6125 13.0234 20.6125 14.0508V16.5H24.1667L23.6792 20.0547H20.6125V29" fill="white"/>
</mask>
<g mask="url(#mask0_32_3672)">
</g>
<path d="M75.5 37C85.7173 37 94 28.7173 94 18.5C94 8.28273 85.7173 0 75.5 0C65.2827 0 57 8.28273 57 18.5C57 28.7173 65.2827 37 75.5 37Z" fill="#1590D8"/>
<path d="M83.9442 14.9264C83.9569 15.104 83.9569 15.2817 83.9569 15.4594C83.9569 20.8781 79.8326 27.1218 72.2945 27.1218C69.9721 27.1218 67.8148 26.4492 66.0001 25.2817C66.33 25.3198 66.6472 25.3325 66.9899 25.3325C68.9061 25.3325 70.6701 24.6853 72.0787 23.5812C70.2767 23.5431 68.7665 22.3629 68.2462 20.7386C68.5001 20.7766 68.7539 20.802 69.0204 20.802C69.3884 20.802 69.7564 20.7512 70.099 20.6624C68.2209 20.2817 66.8122 18.632 66.8122 16.6396V16.5888C67.3579 16.8934 67.9924 17.0838 68.665 17.1091C67.5609 16.3731 66.8376 15.1167 66.8376 13.6954C66.8376 12.934 67.0406 12.236 67.396 11.6269C69.4137 14.1142 72.4467 15.7385 75.8477 15.9162C75.7843 15.6117 75.7462 15.2944 75.7462 14.9772C75.7462 12.7183 77.5736 10.8782 79.8452 10.8782C81.0254 10.8782 82.0913 11.3731 82.8401 12.1726C83.7665 11.9949 84.6548 11.6523 85.4416 11.1827C85.137 12.1345 84.4898 12.934 83.6396 13.4416C84.4645 13.3528 85.264 13.1243 86 12.8071C85.4417 13.6193 84.7437 14.3426 83.9442 14.9264Z" fill="white"/>
<mask id="mask1_32_3672" style="mask-type:luminance" maskUnits="userSpaceOnUse" x="66" y="10" width="20" height="18">
<path d="M83.9442 14.9264C83.9569 15.104 83.9569 15.2817 83.9569 15.4594C83.9569 20.8781 79.8326 27.1218 72.2945 27.1218C69.9721 27.1218 67.8148 26.4492 66.0001 25.2817C66.33 25.3198 66.6472 25.3325 66.9899 25.3325C68.9061 25.3325 70.6701 24.6853 72.0787 23.5812C70.2767 23.5431 68.7665 22.3629 68.2462 20.7386C68.5001 20.7766 68.7539 20.802 69.0204 20.802C69.3884 20.802 69.7564 20.7512 70.099 20.6624C68.2209 20.2817 66.8122 18.632 66.8122 16.6396V16.5888C67.3579 16.8934 67.9924 17.0838 68.665 17.1091C67.5609 16.3731 66.8376 15.1167 66.8376 13.6954C66.8376 12.934 67.0406 12.236 67.396 11.6269C69.4137 14.1142 72.4467 15.7385 75.8477 15.9162C75.7843 15.6117 75.7462 15.2944 75.7462 14.9772C75.7462 12.7183 77.5736 10.8782 79.8452 10.8782C81.0254 10.8782 82.0913 11.3731 82.8401 12.1726C83.7665 11.9949 84.6548 11.6523 85.4416 11.1827C85.137 12.1345 84.4898 12.934 83.6396 13.4416C84.4645 13.3528 85.264 13.1243 86 12.8071C85.4417 13.6193 84.7437 14.3426 83.9442 14.9264Z" fill="white"/>
</mask>
<g mask="url(#mask1_32_3672)">
</g>
<path d="M132.5 37C142.717 37 151 28.7173 151 18.5C151 8.28273 142.717 0 132.5 0C122.283 0 114 8.28273 114 18.5C114 28.7173 122.283 37 132.5 37Z" fill="#D0021B"/>
<path fill-rule="evenodd" clip-rule="evenodd" d="M139.409 12.6538C140.225 12.876 140.867 13.5308 141.085 14.3623C141.481 15.8693 141.481 19.0136 141.481 19.0136C141.481 19.0136 141.481 22.1579 141.085 23.665C140.867 24.4964 140.225 25.124 139.409 25.3462C137.93 25.75 132 25.75 132 25.75C132 25.75 126.07 25.75 124.591 25.3462C123.775 25.124 123.133 24.4964 122.915 23.665C122.518 22.1579 122.518 19.0136 122.518 19.0136C122.518 19.0136 122.518 15.8693 122.915 14.3623C123.133 13.5308 123.775 12.8761 124.591 12.6538C126.07 12.25 132 12.25 132 12.25C132 12.25 137.93 12.25 139.409 12.6538ZM130.061 16.1588V21.8684L135.017 19.0137L130.061 16.1588Z" fill="white"/>
<mask id="mask2_32_3672" style="mask-type:luminance" maskUnits="userSpaceOnUse" x="122" y="12" width="20" height="14">
<path fill-rule="evenodd" clip-rule="evenodd" d="M139.409 12.6538C140.225 12.876 140.867 13.5308 141.085 14.3623C141.481 15.8693 141.481 19.0136 141.481 19.0136C141.481 19.0136 141.481 22.1579 141.085 23.665C140.867 24.4964 140.225 25.124 139.409 25.3462C137.93 25.75 132 25.75 132 25.75C132 25.75 126.07 25.75 124.591 25.3462C123.775 25.124 123.133 24.4964 122.915 23.665C122.518 22.1579 122.518 19.0136 122.518 19.0136C122.518 19.0136 122.518 15.8693 122.915 14.3623C123.133 13.5308 123.775 12.8761 124.591 12.6538C126.07 12.25 132 12.25 132 12.25C132 12.25 137.93 12.25 139.409 12.6538ZM130.061 16.1588V21.8684L135.017 19.0137L130.061 16.1588Z" fill="white"/>
</mask>
<g mask="url(#mask2_32_3672)">
</g>
</svg>
