<svg width="469" height="117" viewBox="0 0 469 117" fill="none" xmlns="http://www.w3.org/2000/svg">
<path opacity="0.7" fill-rule="evenodd" clip-rule="evenodd" d="M38.0003 0C29.716 0 23.0003 6.71573 23.0003 15V43.1386L1.25538 56.8939C0.0018355 57.6868 -0.0058305 59.5086 1.24112 60.2832L23.0003 73.8005V102C23.0003 110.284 29.716 117 38.0003 117H418C426.285 117 433 110.284 433 102V15C433 6.71573 426.285 0 418 0H38.0003Z" fill="white"/>
<path d="M403.009 20.6835C396.381 20.6779 391.006 26.0464 391 32.6742C390.994 39.302 396.363 44.6779 402.991 44.6835C409.618 44.6779 414.99 39.3104 415 32.6835C415 26.0593 409.633 20.6891 403.009 20.6835ZM402.991 42.6866C397.466 42.6866 392.988 38.2079 392.988 32.6835C392.988 27.159 397.466 22.6804 402.991 22.6804C408.513 22.686 412.988 27.1609 412.994 32.6835C412.994 38.2079 408.515 42.6866 402.991 42.6866Z" fill="url(#paint0_linear_32_2799)"/>
<path d="M406.232 32.0986C407.034 31.6463 407.468 30.7407 407.318 29.8323C407.132 28.4299 405.461 27.9004 404.142 27.789V25.6807H402.841V27.7704H401.968V25.6807H400.668V27.7704H398.049V29.1172H399.024C399.461 29.1172 399.674 29.2472 399.674 29.6002V35.3866C399.674 35.8695 399.433 36.0181 399.173 36.0181H398.179V37.3928H400.705V39.529H402.015V37.3928H402.888V39.529H404.16V37.3928H404.439C407.114 37.3928 408.006 36.0832 408.006 34.2999C407.984 33.2484 407.255 32.3438 406.232 32.0986ZM401.968 29.2008H402.897C403.547 29.2008 404.829 29.3123 404.829 30.3711C404.874 31.0621 404.373 31.6677 403.687 31.755H401.968V29.2008ZM403.408 35.8881V35.8788H401.968V33.0924H403.64C404.03 33.0924 405.498 33.2224 405.498 34.2627C405.498 35.3029 404.801 35.8881 403.408 35.8881Z" fill="url(#paint1_linear_32_2799)"/>
<path d="M55.9265 22.9432V23.9792H51.6845V27.2692H55.1285V28.3052H51.6845V32.7012H50.4105V22.9432H55.9265ZM64.4652 28.5712C64.4652 28.8138 64.4512 29.0705 64.4232 29.3412H58.2912C58.3379 30.0972 58.5945 30.6898 59.0612 31.1192C59.5372 31.5392 60.1112 31.7492 60.7832 31.7492C61.3339 31.7492 61.7912 31.6232 62.1552 31.3712C62.5285 31.1098 62.7899 30.7645 62.9392 30.3352H64.3112C64.1059 31.0725 63.6952 31.6745 63.0792 32.1412C62.4632 32.5985 61.6979 32.8272 60.7832 32.8272C60.0552 32.8272 59.4019 32.6638 58.8232 32.3372C58.2539 32.0105 57.8059 31.5485 57.4792 30.9512C57.1525 30.3445 56.9892 29.6445 56.9892 28.8512C56.9892 28.0578 57.1479 27.3625 57.4652 26.7652C57.7825 26.1678 58.2259 25.7105 58.7952 25.3932C59.3739 25.0665 60.0365 24.9032 60.7832 24.9032C61.5112 24.9032 62.1552 25.0618 62.7152 25.3792C63.2752 25.6965 63.7045 26.1352 64.0032 26.6952C64.3112 27.2458 64.4652 27.8712 64.4652 28.5712ZM63.1492 28.3052C63.1492 27.8198 63.0419 27.4045 62.8272 27.0592C62.6125 26.7045 62.3185 26.4385 61.9452 26.2612C61.5812 26.0745 61.1752 25.9812 60.7272 25.9812C60.0832 25.9812 59.5325 26.1865 59.0752 26.5972C58.6272 27.0078 58.3705 27.5772 58.3052 28.3052H63.1492ZM75.3728 24.8892C75.9702 24.8892 76.5022 25.0152 76.9688 25.2672C77.4355 25.5098 77.8042 25.8785 78.0748 26.3732C78.3455 26.8678 78.4808 27.4698 78.4808 28.1792V32.7012H77.2208V28.3612C77.2208 27.5958 77.0295 27.0125 76.6468 26.6112C76.2735 26.2005 75.7648 25.9952 75.1208 25.9952C74.4582 25.9952 73.9308 26.2098 73.5388 26.6392C73.1468 27.0592 72.9508 27.6705 72.9508 28.4732V32.7012H71.6908V28.3612C71.6908 27.5958 71.4995 27.0125 71.1168 26.6112C70.7435 26.2005 70.2348 25.9952 69.5908 25.9952C68.9282 25.9952 68.4008 26.2098 68.0088 26.6392C67.6168 27.0592 67.4208 27.6705 67.4208 28.4732V32.7012H66.1468V25.0292H67.4208V26.1352C67.6728 25.7338 68.0088 25.4258 68.4288 25.2112C68.8582 24.9965 69.3295 24.8892 69.8428 24.8892C70.4868 24.8892 71.0562 25.0338 71.5508 25.3232C72.0455 25.6125 72.4142 26.0372 72.6568 26.5972C72.8715 26.0558 73.2262 25.6358 73.7208 25.3372C74.2155 25.0385 74.7662 24.8892 75.3728 24.8892ZM81.2287 23.7832C80.986 23.7832 80.7807 23.6992 80.6127 23.5312C80.4447 23.3632 80.3607 23.1578 80.3607 22.9152C80.3607 22.6725 80.4447 22.4672 80.6127 22.2992C80.7807 22.1312 80.986 22.0472 81.2287 22.0472C81.462 22.0472 81.658 22.1312 81.8167 22.2992C81.9847 22.4672 82.0687 22.6725 82.0687 22.9152C82.0687 23.1578 81.9847 23.3632 81.8167 23.5312C81.658 23.6992 81.462 23.7832 81.2287 23.7832ZM81.8447 25.0292V32.7012H80.5707V25.0292H81.8447ZM90.8704 26.0792H89.2604V32.7012H87.9864V26.0792H86.9924V25.0292H87.9864V24.4832C87.9864 23.6245 88.2057 22.9992 88.6444 22.6072C89.0924 22.2058 89.8064 22.0052 90.7864 22.0052V23.0692C90.2264 23.0692 89.8297 23.1812 89.5964 23.4052C89.3724 23.6198 89.2604 23.9792 89.2604 24.4832V25.0292H90.8704V26.0792ZM93.6298 26.2752C93.8538 25.8365 94.1712 25.4958 94.5818 25.2532C95.0018 25.0105 95.5105 24.8892 96.1078 24.8892V26.2052H95.7718C94.3438 26.2052 93.6298 26.9798 93.6298 28.5292V32.7012H92.3558V25.0292H93.6298V26.2752ZM100.924 32.8272C100.206 32.8272 99.5525 32.6638 98.9645 32.3372C98.3858 32.0105 97.9285 31.5485 97.5925 30.9512C97.2658 30.3445 97.1025 29.6445 97.1025 28.8512C97.1025 28.0672 97.2705 27.3765 97.6065 26.7792C97.9518 26.1725 98.4185 25.7105 99.0065 25.3932C99.5945 25.0665 100.252 24.9032 100.98 24.9032C101.708 24.9032 102.366 25.0665 102.954 25.3932C103.542 25.7105 104.004 26.1678 104.34 26.7652C104.686 27.3625 104.858 28.0578 104.858 28.8512C104.858 29.6445 104.681 30.3445 104.326 30.9512C103.981 31.5485 103.51 32.0105 102.912 32.3372C102.315 32.6638 101.652 32.8272 100.924 32.8272ZM100.924 31.7072C101.382 31.7072 101.811 31.5998 102.212 31.3852C102.614 31.1705 102.936 30.8485 103.178 30.4192C103.43 29.9898 103.556 29.4672 103.556 28.8512C103.556 28.2352 103.435 27.7125 103.192 27.2832C102.95 26.8538 102.632 26.5365 102.24 26.3312C101.848 26.1165 101.424 26.0092 100.966 26.0092C100.5 26.0092 100.07 26.1165 99.6785 26.3312C99.2958 26.5365 98.9878 26.8538 98.7545 27.2832C98.5212 27.7125 98.4045 28.2352 98.4045 28.8512C98.4045 29.4765 98.5165 30.0038 98.7405 30.4332C98.9738 30.8625 99.2818 31.1845 99.6645 31.3992C100.047 31.6045 100.467 31.7072 100.924 31.7072ZM115.76 24.8892C116.357 24.8892 116.889 25.0152 117.356 25.2672C117.822 25.5098 118.191 25.8785 118.462 26.3732C118.732 26.8678 118.868 27.4698 118.868 28.1792V32.7012H117.608V28.3612C117.608 27.5958 117.416 27.0125 117.034 26.6112C116.66 26.2005 116.152 25.9952 115.508 25.9952C114.845 25.9952 114.318 26.2098 113.926 26.6392C113.534 27.0592 113.338 27.6705 113.338 28.4732V32.7012H112.078V28.3612C112.078 27.5958 111.886 27.0125 111.504 26.6112C111.13 26.2005 110.622 25.9952 109.978 25.9952C109.315 25.9952 108.788 26.2098 108.396 26.6392C108.004 27.0592 107.808 27.6705 107.808 28.4732V32.7012H106.534V25.0292H107.808V26.1352C108.06 25.7338 108.396 25.4258 108.816 25.2112C109.245 24.9965 109.716 24.8892 110.23 24.8892C110.874 24.8892 111.443 25.0338 111.938 25.3232C112.432 25.6125 112.801 26.0372 113.044 26.5972C113.258 26.0558 113.613 25.6358 114.108 25.3372C114.602 25.0385 115.153 24.8892 115.76 24.8892ZM132.362 32.7012H131.088L125.964 24.9312V32.7012H124.69V22.9292H125.964L131.088 30.6852V22.9292H132.362V32.7012ZM135.192 23.7832C134.949 23.7832 134.744 23.6992 134.576 23.5312C134.408 23.3632 134.324 23.1578 134.324 22.9152C134.324 22.6725 134.408 22.4672 134.576 22.2992C134.744 22.1312 134.949 22.0472 135.192 22.0472C135.425 22.0472 135.621 22.1312 135.78 22.2992C135.948 22.4672 136.032 22.6725 136.032 22.9152C136.032 23.1578 135.948 23.3632 135.78 23.5312C135.621 23.6992 135.425 23.7832 135.192 23.7832ZM135.808 25.0292V32.7012H134.534V25.0292H135.808ZM141.143 24.9032C141.806 24.9032 142.384 25.0478 142.879 25.3372C143.383 25.6265 143.756 25.9905 143.999 26.4292V25.0292H145.287V32.8692C145.287 33.5692 145.138 34.1898 144.839 34.7312C144.54 35.2818 144.111 35.7112 143.551 36.0192C143 36.3272 142.356 36.4812 141.619 36.4812C140.611 36.4812 139.771 36.2432 139.099 35.7672C138.427 35.2912 138.03 34.6425 137.909 33.8212H139.169C139.309 34.2878 139.598 34.6612 140.037 34.9412C140.476 35.2305 141.003 35.3752 141.619 35.3752C142.319 35.3752 142.888 35.1558 143.327 34.7172C143.775 34.2785 143.999 33.6625 143.999 32.8692V31.2592C143.747 31.7072 143.374 32.0805 142.879 32.3792C142.384 32.6778 141.806 32.8272 141.143 32.8272C140.462 32.8272 139.841 32.6592 139.281 32.3232C138.73 31.9872 138.296 31.5158 137.979 30.9092C137.662 30.3025 137.503 29.6118 137.503 28.8372C137.503 28.0532 137.662 27.3672 137.979 26.7792C138.296 26.1818 138.73 25.7198 139.281 25.3932C139.841 25.0665 140.462 24.9032 141.143 24.9032ZM143.999 28.8512C143.999 28.2725 143.882 27.7685 143.649 27.3392C143.416 26.9098 143.098 26.5832 142.697 26.3592C142.305 26.1258 141.871 26.0092 141.395 26.0092C140.919 26.0092 140.485 26.1212 140.093 26.3452C139.701 26.5692 139.388 26.8958 139.155 27.3252C138.922 27.7545 138.805 28.2585 138.805 28.8372C138.805 29.4252 138.922 29.9385 139.155 30.3772C139.388 30.8065 139.701 31.1378 140.093 31.3712C140.485 31.5952 140.919 31.7072 141.395 31.7072C141.871 31.7072 142.305 31.5952 142.697 31.3712C143.098 31.1378 143.416 30.8065 143.649 30.3772C143.882 29.9385 143.999 29.4298 143.999 28.8512ZM154.44 28.5712C154.44 28.8138 154.426 29.0705 154.398 29.3412H148.266C148.312 30.0972 148.569 30.6898 149.036 31.1192C149.512 31.5392 150.086 31.7492 150.758 31.7492C151.308 31.7492 151.766 31.6232 152.13 31.3712C152.503 31.1098 152.764 30.7645 152.914 30.3352H154.286C154.08 31.0725 153.67 31.6745 153.054 32.1412C152.438 32.5985 151.672 32.8272 150.758 32.8272C150.03 32.8272 149.376 32.6638 148.798 32.3372C148.228 32.0105 147.78 31.5485 147.454 30.9512C147.127 30.3445 146.964 29.6445 146.964 28.8512C146.964 28.0578 147.122 27.3625 147.44 26.7652C147.757 26.1678 148.2 25.7105 148.77 25.3932C149.348 25.0665 150.011 24.9032 150.758 24.9032C151.486 24.9032 152.13 25.0618 152.69 25.3792C153.25 25.6965 153.679 26.1352 153.978 26.6952C154.286 27.2458 154.44 27.8712 154.44 28.5712ZM153.124 28.3052C153.124 27.8198 153.016 27.4045 152.802 27.0592C152.587 26.7045 152.293 26.4385 151.92 26.2612C151.556 26.0745 151.15 25.9812 150.702 25.9812C150.058 25.9812 149.507 26.1865 149.05 26.5972C148.602 27.0078 148.345 27.5772 148.28 28.3052H153.124ZM157.395 26.2752C157.619 25.8365 157.937 25.4958 158.347 25.2532C158.767 25.0105 159.276 24.8892 159.873 24.8892V26.2052H159.537C158.109 26.2052 157.395 26.9798 157.395 28.5292V32.7012H156.121V25.0292H157.395V26.2752ZM162.002 23.7832C161.759 23.7832 161.554 23.6992 161.386 23.5312C161.218 23.3632 161.134 23.1578 161.134 22.9152C161.134 22.6725 161.218 22.4672 161.386 22.2992C161.554 22.1312 161.759 22.0472 162.002 22.0472C162.235 22.0472 162.431 22.1312 162.59 22.2992C162.758 22.4672 162.842 22.6725 162.842 22.9152C162.842 23.1578 162.758 23.3632 162.59 23.5312C162.431 23.6992 162.235 23.7832 162.002 23.7832ZM162.618 25.0292V32.7012H161.344V25.0292H162.618ZM164.313 28.8372C164.313 28.0532 164.472 27.3672 164.789 26.7792C165.107 26.1818 165.541 25.7198 166.091 25.3932C166.651 25.0665 167.272 24.9032 167.953 24.9032C168.625 24.9032 169.209 25.0478 169.703 25.3372C170.198 25.6265 170.567 25.9905 170.809 26.4292V25.0292H172.097V32.7012H170.809V31.2732C170.557 31.7212 170.179 32.0945 169.675 32.3932C169.181 32.6825 168.602 32.8272 167.939 32.8272C167.258 32.8272 166.642 32.6592 166.091 32.3232C165.541 31.9872 165.107 31.5158 164.789 30.9092C164.472 30.3025 164.313 29.6118 164.313 28.8372ZM170.809 28.8512C170.809 28.2725 170.693 27.7685 170.459 27.3392C170.226 26.9098 169.909 26.5832 169.507 26.3592C169.115 26.1258 168.681 26.0092 168.205 26.0092C167.729 26.0092 167.295 26.1212 166.903 26.3452C166.511 26.5692 166.199 26.8958 165.965 27.3252C165.732 27.7545 165.615 28.2585 165.615 28.8372C165.615 29.4252 165.732 29.9385 165.965 30.3772C166.199 30.8065 166.511 31.1378 166.903 31.3712C167.295 31.5952 167.729 31.7072 168.205 31.7072C168.681 31.7072 169.115 31.5952 169.507 31.3712C169.909 31.1378 170.226 30.8065 170.459 30.3772C170.693 29.9385 170.809 29.4298 170.809 28.8512Z" fill="#333333"/>
<path d="M61.6685 67.7449L59.4725 76.1689H56.9885L55.6445 70.6249L54.2525 76.1689H51.7685L49.6325 67.7449H51.8285L53.0405 73.8769L54.5405 67.7449H56.7965L58.2365 73.8769L59.4605 67.7449H61.6685ZM65.7456 76.2649C65.0896 76.2649 64.4976 76.1249 63.9696 75.8449C63.4496 75.5649 63.0376 75.1649 62.7336 74.6449C62.4376 74.1249 62.2896 73.5169 62.2896 72.8209C62.2896 72.1329 62.4416 71.5289 62.7456 71.0089C63.0496 70.4809 63.4656 70.0769 63.9936 69.7969C64.5216 69.5169 65.1136 69.3769 65.7696 69.3769C66.4256 69.3769 67.0176 69.5169 67.5456 69.7969C68.0736 70.0769 68.4896 70.4809 68.7936 71.0089C69.0976 71.5289 69.2496 72.1329 69.2496 72.8209C69.2496 73.5089 69.0936 74.1169 68.7816 74.6449C68.4776 75.1649 68.0576 75.5649 67.5216 75.8449C66.9936 76.1249 66.4016 76.2649 65.7456 76.2649ZM65.7456 74.4889C66.1376 74.4889 66.4696 74.3449 66.7416 74.0569C67.0216 73.7689 67.1616 73.3569 67.1616 72.8209C67.1616 72.2849 67.0256 71.8729 66.7536 71.5849C66.4896 71.2969 66.1616 71.1529 65.7696 71.1529C65.3696 71.1529 65.0376 71.2969 64.7736 71.5849C64.5096 71.8649 64.3776 72.2769 64.3776 72.8209C64.3776 73.3569 64.5056 73.7689 64.7616 74.0569C65.0256 74.3449 65.3536 74.4889 65.7456 74.4889ZM74.4182 69.4009C75.2022 69.4009 75.8262 69.6569 76.2902 70.1689C76.7622 70.6729 76.9982 71.3689 76.9982 72.2569V76.1689H74.9582V72.5329C74.9582 72.0849 74.8422 71.7369 74.6102 71.4889C74.3782 71.2409 74.0662 71.1169 73.6742 71.1169C73.2822 71.1169 72.9702 71.2409 72.7382 71.4889C72.5062 71.7369 72.3902 72.0849 72.3902 72.5329V76.1689H70.3382V69.4729H72.3902V70.3609C72.5982 70.0649 72.8782 69.8329 73.2302 69.6649C73.5822 69.4889 73.9782 69.4009 74.4182 69.4009ZM78.0162 72.8089C78.0162 72.1209 78.1442 71.5169 78.4002 70.9969C78.6642 70.4769 79.0202 70.0769 79.4682 69.7969C79.9162 69.5169 80.4162 69.3769 80.9682 69.3769C81.4082 69.3769 81.8082 69.4689 82.1682 69.6529C82.5362 69.8369 82.8242 70.0849 83.0322 70.3969V67.2889H85.0842V76.1689H83.0322V75.2089C82.8402 75.5289 82.5642 75.7849 82.2042 75.9769C81.8522 76.1689 81.4402 76.2649 80.9682 76.2649C80.4162 76.2649 79.9162 76.1249 79.4682 75.8449C79.0202 75.5569 78.6642 75.1529 78.4002 74.6329C78.1442 74.1049 78.0162 73.4969 78.0162 72.8089ZM83.0322 72.8209C83.0322 72.3089 82.8882 71.9049 82.6002 71.6089C82.3202 71.3129 81.9762 71.1649 81.5682 71.1649C81.1602 71.1649 80.8122 71.3129 80.5242 71.6089C80.2442 71.8969 80.1042 72.2969 80.1042 72.8089C80.1042 73.3209 80.2442 73.7289 80.5242 74.0329C80.8122 74.3289 81.1602 74.4769 81.5682 74.4769C81.9762 74.4769 82.3202 74.3289 82.6002 74.0329C82.8882 73.7369 83.0322 73.3329 83.0322 72.8209ZM92.8807 72.7129C92.8807 72.9049 92.8687 73.1049 92.8447 73.3129H88.2007C88.2327 73.7289 88.3647 74.0489 88.5967 74.2729C88.8367 74.4889 89.1287 74.5969 89.4727 74.5969C89.9847 74.5969 90.3407 74.3809 90.5407 73.9489H92.7247C92.6127 74.3889 92.4087 74.7849 92.1127 75.1369C91.8247 75.4889 91.4607 75.7649 91.0207 75.9649C90.5807 76.1649 90.0887 76.2649 89.5447 76.2649C88.8887 76.2649 88.3047 76.1249 87.7927 75.8449C87.2807 75.5649 86.8807 75.1649 86.5927 74.6449C86.3047 74.1249 86.1607 73.5169 86.1607 72.8209C86.1607 72.1249 86.3007 71.5169 86.5807 70.9969C86.8687 70.4769 87.2687 70.0769 87.7807 69.7969C88.2927 69.5169 88.8807 69.3769 89.5447 69.3769C90.1927 69.3769 90.7687 69.5129 91.2727 69.7849C91.7767 70.0569 92.1687 70.4449 92.4487 70.9489C92.7367 71.4529 92.8807 72.0409 92.8807 72.7129ZM90.7807 72.1729C90.7807 71.8209 90.6607 71.5409 90.4207 71.3329C90.1807 71.1249 89.8807 71.0209 89.5207 71.0209C89.1767 71.0209 88.8847 71.1209 88.6447 71.3209C88.4127 71.5209 88.2687 71.8049 88.2127 72.1729H90.7807ZM96.0152 70.5889C96.2552 70.2209 96.5552 69.9329 96.9152 69.7249C97.2752 69.5089 97.6752 69.4009 98.1152 69.4009V71.5729H97.5512C97.0392 71.5729 96.6552 71.6849 96.3992 71.9089C96.1432 72.1249 96.0152 72.5089 96.0152 73.0609V76.1689H93.9632V69.4729H96.0152V70.5889ZM102.456 71.1769H101.352V76.1689H99.3001V71.1769H98.5561V69.4729H99.3001V69.2809C99.3001 68.4569 99.5361 67.8329 100.008 67.4089C100.48 66.9769 101.172 66.7609 102.084 66.7609C102.236 66.7609 102.348 66.7649 102.42 66.7729V68.5129C102.028 68.4889 101.752 68.5449 101.592 68.6809C101.432 68.8169 101.352 69.0609 101.352 69.4129V69.4729H102.456V71.1769ZM110.032 69.4729V76.1689H107.98V75.2569C107.772 75.5529 107.488 75.7929 107.128 75.9769C106.776 76.1529 106.384 76.2409 105.952 76.2409C105.44 76.2409 104.988 76.1289 104.596 75.9049C104.204 75.6729 103.9 75.3409 103.684 74.9089C103.468 74.4769 103.36 73.9689 103.36 73.3849V69.4729H105.4V73.1089C105.4 73.5569 105.516 73.9049 105.748 74.1529C105.98 74.4009 106.292 74.5249 106.684 74.5249C107.084 74.5249 107.4 74.4009 107.632 74.1529C107.864 73.9049 107.98 73.5569 107.98 73.1089V69.4729H110.032ZM113.558 67.2889V76.1689H111.506V67.2889H113.558ZM120.312 76.2649C119.728 76.2649 119.208 76.1649 118.752 75.9649C118.296 75.7649 117.936 75.4929 117.672 75.1489C117.408 74.7969 117.26 74.4049 117.228 73.9729H119.256C119.28 74.2049 119.388 74.3929 119.58 74.5369C119.772 74.6809 120.008 74.7529 120.288 74.7529C120.544 74.7529 120.74 74.7049 120.876 74.6089C121.02 74.5049 121.092 74.3729 121.092 74.2129C121.092 74.0209 120.992 73.8809 120.792 73.7929C120.592 73.6969 120.268 73.5929 119.82 73.4809C119.34 73.3689 118.94 73.2529 118.62 73.1329C118.3 73.0049 118.024 72.8089 117.792 72.5449C117.56 72.2729 117.444 71.9089 117.444 71.4529C117.444 71.0689 117.548 70.7209 117.756 70.4089C117.972 70.0889 118.284 69.8369 118.692 69.6529C119.108 69.4689 119.6 69.3769 120.168 69.3769C121.008 69.3769 121.668 69.5849 122.148 70.0009C122.636 70.4169 122.916 70.9689 122.988 71.6569H121.092C121.06 71.4249 120.956 71.2409 120.78 71.1049C120.612 70.9689 120.388 70.9009 120.108 70.9009C119.868 70.9009 119.684 70.9489 119.556 71.0449C119.428 71.1329 119.364 71.2569 119.364 71.4169C119.364 71.6089 119.464 71.7529 119.664 71.8489C119.872 71.9449 120.192 72.0409 120.624 72.1369C121.12 72.2649 121.524 72.3929 121.836 72.5209C122.148 72.6409 122.42 72.8409 122.652 73.1209C122.892 73.3929 123.016 73.7609 123.024 74.2249C123.024 74.6169 122.912 74.9689 122.688 75.2809C122.472 75.5849 122.156 75.8249 121.74 76.0009C121.332 76.1769 120.856 76.2649 120.312 76.2649ZM130.592 72.7129C130.592 72.9049 130.58 73.1049 130.556 73.3129H125.912C125.944 73.7289 126.076 74.0489 126.308 74.2729C126.548 74.4889 126.84 74.5969 127.184 74.5969C127.696 74.5969 128.052 74.3809 128.252 73.9489H130.436C130.324 74.3889 130.12 74.7849 129.824 75.1369C129.536 75.4889 129.172 75.7649 128.732 75.9649C128.292 76.1649 127.8 76.2649 127.256 76.2649C126.6 76.2649 126.016 76.1249 125.504 75.8449C124.992 75.5649 124.592 75.1649 124.304 74.6449C124.016 74.1249 123.872 73.5169 123.872 72.8209C123.872 72.1249 124.012 71.5169 124.292 70.9969C124.58 70.4769 124.98 70.0769 125.492 69.7969C126.004 69.5169 126.592 69.3769 127.256 69.3769C127.904 69.3769 128.48 69.5129 128.984 69.7849C129.488 70.0569 129.88 70.4449 130.16 70.9489C130.448 71.4529 130.592 72.0409 130.592 72.7129ZM128.492 72.1729C128.492 71.8209 128.372 71.5409 128.132 71.3329C127.892 71.1249 127.592 71.0209 127.232 71.0209C126.888 71.0209 126.596 71.1209 126.356 71.3209C126.124 71.5209 125.98 71.8049 125.924 72.1729H128.492ZM133.726 70.5889C133.966 70.2209 134.266 69.9329 134.626 69.7249C134.986 69.5089 135.386 69.4009 135.826 69.4009V71.5729H135.262C134.75 71.5729 134.366 71.6849 134.11 71.9089C133.854 72.1249 133.726 72.5089 133.726 73.0609V76.1689H131.674V69.4729H133.726V70.5889ZM139.819 74.2489L141.271 69.4729H143.455L141.079 76.1689H138.547L136.171 69.4729H138.367L139.819 74.2489ZM145.351 68.7769C144.991 68.7769 144.695 68.6729 144.463 68.4649C144.239 68.2489 144.127 67.9849 144.127 67.6729C144.127 67.3529 144.239 67.0889 144.463 66.8809C144.695 66.6649 144.991 66.5569 145.351 66.5569C145.703 66.5569 145.991 66.6649 146.215 66.8809C146.447 67.0889 146.563 67.3529 146.563 67.6729C146.563 67.9849 146.447 68.2489 146.215 68.4649C145.991 68.6729 145.703 68.7769 145.351 68.7769ZM146.371 69.4729V76.1689H144.319V69.4729H146.371ZM147.45 72.8209C147.45 72.1249 147.59 71.5169 147.87 70.9969C148.158 70.4769 148.554 70.0769 149.058 69.7969C149.57 69.5169 150.154 69.3769 150.81 69.3769C151.65 69.3769 152.35 69.5969 152.91 70.0369C153.478 70.4769 153.85 71.0969 154.026 71.8969H151.842C151.658 71.3849 151.302 71.1289 150.774 71.1289C150.398 71.1289 150.098 71.2769 149.874 71.5729C149.65 71.8609 149.538 72.2769 149.538 72.8209C149.538 73.3649 149.65 73.7849 149.874 74.0809C150.098 74.3689 150.398 74.5129 150.774 74.5129C151.302 74.5129 151.658 74.2569 151.842 73.7449H154.026C153.85 74.5289 153.478 75.1449 152.91 75.5929C152.342 76.0409 151.642 76.2649 150.81 76.2649C150.154 76.2649 149.57 76.1249 149.058 75.8449C148.554 75.5649 148.158 75.1649 147.87 74.6449C147.59 74.1249 147.45 73.5169 147.45 72.8209ZM161.435 72.7129C161.435 72.9049 161.423 73.1049 161.399 73.3129H156.755C156.787 73.7289 156.919 74.0489 157.151 74.2729C157.391 74.4889 157.683 74.5969 158.027 74.5969C158.539 74.5969 158.895 74.3809 159.095 73.9489H161.279C161.167 74.3889 160.963 74.7849 160.667 75.1369C160.379 75.4889 160.015 75.7649 159.575 75.9649C159.135 76.1649 158.643 76.2649 158.099 76.2649C157.443 76.2649 156.859 76.1249 156.347 75.8449C155.835 75.5649 155.435 75.1649 155.147 74.6449C154.859 74.1249 154.715 73.5169 154.715 72.8209C154.715 72.1249 154.855 71.5169 155.135 70.9969C155.423 70.4769 155.823 70.0769 156.335 69.7969C156.847 69.5169 157.435 69.3769 158.099 69.3769C158.747 69.3769 159.323 69.5129 159.827 69.7849C160.331 70.0569 160.723 70.4449 161.003 70.9489C161.291 71.4529 161.435 72.0409 161.435 72.7129ZM159.335 72.1729C159.335 71.8209 159.215 71.5409 158.975 71.3329C158.735 71.1249 158.435 71.0209 158.075 71.0209C157.731 71.0209 157.439 71.1209 157.199 71.3209C156.967 71.5209 156.823 71.8049 156.767 72.1729H159.335ZM56.5925 90.2289C56.3605 89.7409 56.0245 89.3649 55.5845 89.1009C55.1445 88.8289 54.6325 88.6929 54.0485 88.6929C53.4645 88.6929 52.9365 88.8289 52.4645 89.1009C52.0005 89.3649 51.6325 89.7489 51.3605 90.2529C51.0965 90.7489 50.9645 91.3249 50.9645 91.9809C50.9645 92.6369 51.0965 93.2129 51.3605 93.7089C51.6325 94.2049 52.0005 94.5889 52.4645 94.8609C52.9365 95.1249 53.4645 95.2569 54.0485 95.2569C54.8645 95.2569 55.5365 95.0129 56.0645 94.5249C56.5925 94.0369 56.9005 93.3769 56.9885 92.5449H53.6525V91.6569H58.1525V92.4969C58.0885 93.1849 57.8725 93.8169 57.5045 94.3929C57.1365 94.9609 56.6525 95.4129 56.0525 95.7489C55.4525 96.0769 54.7845 96.2409 54.0485 96.2409C53.2725 96.2409 52.5645 96.0609 51.9245 95.7009C51.2845 95.3329 50.7765 94.8249 50.4005 94.1769C50.0325 93.5289 49.8485 92.7969 49.8485 91.9809C49.8485 91.1649 50.0325 90.4329 50.4005 89.7849C50.7765 89.1289 51.2845 88.6209 51.9245 88.2609C52.5645 87.8929 53.2725 87.7089 54.0485 87.7089C54.9365 87.7089 55.7205 87.9289 56.4005 88.3689C57.0885 88.8089 57.5885 89.4289 57.9005 90.2289H56.5925ZM62.4644 96.2769C61.8484 96.2769 61.2884 96.1369 60.7844 95.8569C60.2884 95.5769 59.8964 95.1809 59.6084 94.6689C59.3284 94.1489 59.1884 93.5489 59.1884 92.8689C59.1884 92.1969 59.3324 91.6049 59.6204 91.0929C59.9164 90.5729 60.3164 90.1769 60.8204 89.9049C61.3244 89.6249 61.8884 89.4849 62.5124 89.4849C63.1364 89.4849 63.7004 89.6249 64.2044 89.9049C64.7084 90.1769 65.1044 90.5689 65.3924 91.0809C65.6884 91.5929 65.8364 92.1889 65.8364 92.8689C65.8364 93.5489 65.6844 94.1489 65.3804 94.6689C65.0844 95.1809 64.6804 95.5769 64.1684 95.8569C63.6564 96.1369 63.0884 96.2769 62.4644 96.2769ZM62.4644 95.3169C62.8564 95.3169 63.2244 95.2249 63.5684 95.0409C63.9124 94.8569 64.1884 94.5809 64.3964 94.2129C64.6124 93.8449 64.7204 93.3969 64.7204 92.8689C64.7204 92.3409 64.6164 91.8929 64.4084 91.5249C64.2004 91.1569 63.9284 90.8849 63.5924 90.7089C63.2564 90.5249 62.8924 90.4329 62.5004 90.4329C62.1004 90.4329 61.7324 90.5249 61.3964 90.7089C61.0684 90.8849 60.8044 91.1569 60.6044 91.5249C60.4044 91.8929 60.3044 92.3409 60.3044 92.8689C60.3044 93.4049 60.4004 93.8569 60.5924 94.2249C60.7924 94.5929 61.0564 94.8689 61.3844 95.0529C61.7124 95.2289 62.0724 95.3169 62.4644 95.3169ZM70.1401 96.2769C69.5241 96.2769 68.9641 96.1369 68.4601 95.8569C67.9641 95.5769 67.5721 95.1809 67.2841 94.6689C67.0041 94.1489 66.8641 93.5489 66.8641 92.8689C66.8641 92.1969 67.0081 91.6049 67.2961 91.0929C67.5921 90.5729 67.9921 90.1769 68.4961 89.9049C69.0001 89.6249 69.5641 89.4849 70.1881 89.4849C70.8121 89.4849 71.3761 89.6249 71.8801 89.9049C72.3841 90.1769 72.7801 90.5689 73.0681 91.0809C73.3641 91.5929 73.5121 92.1889 73.5121 92.8689C73.5121 93.5489 73.3601 94.1489 73.0561 94.6689C72.7601 95.1809 72.3561 95.5769 71.8441 95.8569C71.3321 96.1369 70.7641 96.2769 70.1401 96.2769ZM70.1401 95.3169C70.5321 95.3169 70.9001 95.2249 71.2441 95.0409C71.5881 94.8569 71.8641 94.5809 72.0721 94.2129C72.2881 93.8449 72.3961 93.3969 72.3961 92.8689C72.3961 92.3409 72.2921 91.8929 72.0841 91.5249C71.8761 91.1569 71.6041 90.8849 71.2681 90.7089C70.9321 90.5249 70.5681 90.4329 70.1761 90.4329C69.7761 90.4329 69.4081 90.5249 69.0721 90.7089C68.7441 90.8849 68.4801 91.1569 68.2801 91.5249C68.0801 91.8929 67.9801 92.3409 67.9801 92.8689C67.9801 93.4049 68.0761 93.8569 68.2681 94.2249C68.4681 94.5929 68.7321 94.8689 69.0601 95.0529C69.3881 95.2289 69.7481 95.3169 70.1401 95.3169ZM74.5399 92.8569C74.5399 92.1849 74.6759 91.5969 74.9479 91.0929C75.2199 90.5809 75.5919 90.1849 76.0639 89.9049C76.5439 89.6249 77.0799 89.4849 77.6719 89.4849C78.1839 89.4849 78.6599 89.6049 79.0999 89.8449C79.5399 90.0769 79.8759 90.3849 80.1079 90.7689V87.2889H81.2119V96.1689H80.1079V94.9329C79.8919 95.3249 79.5719 95.6489 79.1479 95.9049C78.7239 96.1529 78.2279 96.2769 77.6599 96.2769C77.0759 96.2769 76.5439 96.1329 76.0639 95.8449C75.5919 95.5569 75.2199 95.1529 74.9479 94.6329C74.6759 94.1129 74.5399 93.5209 74.5399 92.8569ZM80.1079 92.8689C80.1079 92.3729 80.0079 91.9409 79.8079 91.5729C79.6079 91.2049 79.3359 90.9249 78.9919 90.7329C78.6559 90.5329 78.2839 90.4329 77.8759 90.4329C77.4679 90.4329 77.0959 90.5289 76.7599 90.7209C76.4239 90.9129 76.1559 91.1929 75.9559 91.5609C75.7559 91.9289 75.6559 92.3609 75.6559 92.8569C75.6559 93.3609 75.7559 93.8009 75.9559 94.1769C76.1559 94.5449 76.4239 94.8289 76.7599 95.0289C77.0959 95.2209 77.4679 95.3169 77.8759 95.3169C78.2839 95.3169 78.6559 95.2209 78.9919 95.0289C79.3359 94.8289 79.6079 94.5449 79.8079 94.1769C80.0079 93.8009 80.1079 93.3649 80.1079 92.8689ZM85.8485 92.8569C85.8485 92.1849 85.9845 91.5969 86.2565 91.0929C86.5285 90.5809 86.9005 90.1849 87.3725 89.9049C87.8525 89.6249 88.3885 89.4849 88.9805 89.4849C89.4925 89.4849 89.9685 89.6049 90.4085 89.8449C90.8485 90.0769 91.1845 90.3849 91.4165 90.7689V87.2889H92.5205V96.1689H91.4165V94.9329C91.2005 95.3249 90.8805 95.6489 90.4565 95.9049C90.0325 96.1529 89.5365 96.2769 88.9685 96.2769C88.3845 96.2769 87.8525 96.1329 87.3725 95.8449C86.9005 95.5569 86.5285 95.1529 86.2565 94.6329C85.9845 94.1129 85.8485 93.5209 85.8485 92.8569ZM91.4165 92.8689C91.4165 92.3729 91.3165 91.9409 91.1165 91.5729C90.9165 91.2049 90.6445 90.9249 90.3005 90.7329C89.9645 90.5329 89.5925 90.4329 89.1845 90.4329C88.7765 90.4329 88.4045 90.5289 88.0685 90.7209C87.7325 90.9129 87.4645 91.1929 87.2645 91.5609C87.0645 91.9289 86.9645 92.3609 86.9645 92.8569C86.9645 93.3609 87.0645 93.8009 87.2645 94.1769C87.4645 94.5449 87.7325 94.8289 88.0685 95.0289C88.4045 95.2209 88.7765 95.3169 89.1845 95.3169C89.5925 95.3169 89.9645 95.2209 90.3005 95.0289C90.6445 94.8289 90.9165 94.5449 91.1165 94.1769C91.3165 93.8009 91.4165 93.3649 91.4165 92.8689ZM100.366 92.6289C100.366 92.8369 100.354 93.0569 100.33 93.2889H95.0739C95.1139 93.9369 95.3339 94.4449 95.7339 94.8129C96.1419 95.1729 96.6339 95.3529 97.2099 95.3529C97.6819 95.3529 98.0739 95.2449 98.3859 95.0289C98.7059 94.8049 98.9299 94.5089 99.0579 94.1409H100.234C100.058 94.7729 99.7059 95.2889 99.1779 95.6889C98.6499 96.0809 97.9939 96.2769 97.2099 96.2769C96.5859 96.2769 96.0259 96.1369 95.5299 95.8569C95.0419 95.5769 94.6579 95.1809 94.3779 94.6689C94.0979 94.1489 93.9579 93.5489 93.9579 92.8689C93.9579 92.1889 94.0939 91.5929 94.3659 91.0809C94.6379 90.5689 95.0179 90.1769 95.5059 89.9049C96.0019 89.6249 96.5699 89.4849 97.2099 89.4849C97.8339 89.4849 98.3859 89.6209 98.8659 89.8929C99.3459 90.1649 99.7139 90.5409 99.9699 91.0209C100.234 91.4929 100.366 92.0289 100.366 92.6289ZM99.2379 92.4009C99.2379 91.9849 99.1459 91.6289 98.9619 91.3329C98.7779 91.0289 98.5259 90.8009 98.2059 90.6489C97.8939 90.4889 97.5459 90.4089 97.1619 90.4089C96.6099 90.4089 96.1379 90.5849 95.7459 90.9369C95.3619 91.2889 95.1419 91.7769 95.0859 92.4009H99.2379ZM101.399 92.8569C101.399 92.1849 101.535 91.5969 101.807 91.0929C102.079 90.5809 102.451 90.1849 102.923 89.9049C103.403 89.6249 103.935 89.4849 104.519 89.4849C105.095 89.4849 105.595 89.6089 106.019 89.8569C106.443 90.1049 106.759 90.4169 106.967 90.7929V89.5929H108.071V96.1689H106.967V94.9449C106.751 95.3289 106.427 95.6489 105.995 95.9049C105.571 96.1529 105.075 96.2769 104.507 96.2769C103.923 96.2769 103.395 96.1329 102.923 95.8449C102.451 95.5569 102.079 95.1529 101.807 94.6329C101.535 94.1129 101.399 93.5209 101.399 92.8569ZM106.967 92.8689C106.967 92.3729 106.867 91.9409 106.667 91.5729C106.467 91.2049 106.195 90.9249 105.851 90.7329C105.515 90.5329 105.143 90.4329 104.735 90.4329C104.327 90.4329 103.955 90.5289 103.619 90.7209C103.283 90.9129 103.015 91.1929 102.815 91.5609C102.615 91.9289 102.515 92.3609 102.515 92.8569C102.515 93.3609 102.615 93.8009 102.815 94.1769C103.015 94.5449 103.283 94.8289 103.619 95.0289C103.955 95.2209 104.327 95.3169 104.735 95.3169C105.143 95.3169 105.515 95.2209 105.851 95.0289C106.195 94.8289 106.467 94.5449 106.667 94.1769C106.867 93.8009 106.967 93.3649 106.967 92.8689ZM111.009 87.2889V96.1689H109.917V87.2889H111.009ZM115.661 92.8569C115.661 92.1849 115.797 91.5969 116.069 91.0929C116.341 90.5809 116.713 90.1849 117.185 89.9049C117.665 89.6249 118.197 89.4849 118.781 89.4849C119.357 89.4849 119.857 89.6089 120.281 89.8569C120.705 90.1049 121.021 90.4169 121.229 90.7929V89.5929H122.333V96.1689H121.229V94.9449C121.013 95.3289 120.689 95.6489 120.257 95.9049C119.833 96.1529 119.337 96.2769 118.769 96.2769C118.185 96.2769 117.657 96.1329 117.185 95.8449C116.713 95.5569 116.341 95.1529 116.069 94.6329C115.797 94.1129 115.661 93.5209 115.661 92.8569ZM121.229 92.8689C121.229 92.3729 121.129 91.9409 120.929 91.5729C120.729 91.2049 120.457 90.9249 120.113 90.7329C119.777 90.5329 119.405 90.4329 118.997 90.4329C118.589 90.4329 118.217 90.5289 117.881 90.7209C117.545 90.9129 117.277 91.1929 117.077 91.5609C116.877 91.9289 116.777 92.3609 116.777 92.8569C116.777 93.3609 116.877 93.8009 117.077 94.1769C117.277 94.5449 117.545 94.8289 117.881 95.0289C118.217 95.2209 118.589 95.3169 118.997 95.3169C119.405 95.3169 119.777 95.2209 120.113 95.0289C120.457 94.8289 120.729 94.5449 120.929 94.1769C121.129 93.8009 121.229 93.3649 121.229 92.8689ZM127.382 89.4729C128.182 89.4729 128.83 89.7169 129.326 90.2049C129.822 90.6849 130.07 91.3809 130.07 92.2929V96.1689H128.99V92.4489C128.99 91.7929 128.826 91.2929 128.498 90.9489C128.17 90.5969 127.722 90.4209 127.154 90.4209C126.578 90.4209 126.118 90.6009 125.774 90.9609C125.438 91.3209 125.27 91.8449 125.27 92.5329V96.1689H124.178V89.5929H125.27V90.5289C125.486 90.1929 125.778 89.9329 126.146 89.7489C126.522 89.5649 126.934 89.4729 127.382 89.4729ZM131.446 92.8569C131.446 92.1849 131.582 91.5969 131.854 91.0929C132.126 90.5809 132.498 90.1849 132.97 89.9049C133.45 89.6249 133.986 89.4849 134.578 89.4849C135.09 89.4849 135.566 89.6049 136.006 89.8449C136.446 90.0769 136.782 90.3849 137.014 90.7689V87.2889H138.118V96.1689H137.014V94.9329C136.798 95.3249 136.478 95.6489 136.054 95.9049C135.63 96.1529 135.134 96.2769 134.566 96.2769C133.982 96.2769 133.45 96.1329 132.97 95.8449C132.498 95.5569 132.126 95.1529 131.854 94.6329C131.582 94.1129 131.446 93.5209 131.446 92.8569ZM137.014 92.8689C137.014 92.3729 136.914 91.9409 136.714 91.5729C136.514 91.2049 136.242 90.9249 135.898 90.7329C135.562 90.5329 135.19 90.4329 134.782 90.4329C134.374 90.4329 134.002 90.5289 133.666 90.7209C133.33 90.9129 133.062 91.1929 132.862 91.5609C132.662 91.9289 132.562 92.3609 132.562 92.8569C132.562 93.3609 132.662 93.8009 132.862 94.1769C133.062 94.5449 133.33 94.8289 133.666 95.0289C134.002 95.2209 134.374 95.3169 134.782 95.3169C135.19 95.3169 135.562 95.2209 135.898 95.0289C136.242 94.8289 136.514 94.5449 136.714 94.1769C136.914 93.8009 137.014 93.3649 137.014 92.8689ZM145.611 95.1609L147.651 89.5929H148.815L146.235 96.1689H144.963L142.383 89.5929H143.559L145.611 95.1609ZM155.889 92.6289C155.889 92.8369 155.877 93.0569 155.853 93.2889H150.597C150.637 93.9369 150.857 94.4449 151.257 94.8129C151.665 95.1729 152.157 95.3529 152.733 95.3529C153.205 95.3529 153.597 95.2449 153.909 95.0289C154.229 94.8049 154.453 94.5089 154.581 94.1409H155.757C155.581 94.7729 155.229 95.2889 154.701 95.6889C154.173 96.0809 153.517 96.2769 152.733 96.2769C152.109 96.2769 151.549 96.1369 151.053 95.8569C150.565 95.5769 150.181 95.1809 149.901 94.6689C149.621 94.1489 149.481 93.5489 149.481 92.8689C149.481 92.1889 149.617 91.5929 149.889 91.0809C150.161 90.5689 150.541 90.1769 151.029 89.9049C151.525 89.6249 152.093 89.4849 152.733 89.4849C153.357 89.4849 153.909 89.6209 154.389 89.8929C154.869 90.1649 155.237 90.5409 155.493 91.0209C155.757 91.4929 155.889 92.0289 155.889 92.6289ZM154.761 92.4009C154.761 91.9849 154.669 91.6289 154.485 91.3329C154.301 91.0289 154.049 90.8009 153.729 90.6489C153.417 90.4889 153.069 90.4089 152.685 90.4089C152.133 90.4089 151.661 90.5849 151.269 90.9369C150.885 91.2889 150.665 91.7769 150.609 92.4009H154.761ZM158.423 90.6609C158.615 90.2849 158.887 89.9929 159.239 89.7849C159.599 89.5769 160.035 89.4729 160.547 89.4729V90.6009H160.259C159.035 90.6009 158.423 91.2649 158.423 92.5929V96.1689H157.331V89.5929H158.423V90.6609ZM167.471 89.5929L163.511 99.2649H162.383L163.679 96.0969L161.027 89.5929H162.239L164.303 94.9209L166.343 89.5929H167.471ZM180.528 89.5929L178.476 96.1689H177.348L175.764 90.9489L174.18 96.1689H173.052L170.988 89.5929H172.104L173.616 95.1129L175.248 89.5929H176.364L177.96 95.1249L179.448 89.5929H180.528ZM184.48 96.2769C183.864 96.2769 183.304 96.1369 182.8 95.8569C182.304 95.5769 181.912 95.1809 181.624 94.6689C181.344 94.1489 181.204 93.5489 181.204 92.8689C181.204 92.1969 181.348 91.6049 181.636 91.0929C181.932 90.5729 182.332 90.1769 182.836 89.9049C183.34 89.6249 183.904 89.4849 184.528 89.4849C185.152 89.4849 185.716 89.6249 186.22 89.9049C186.724 90.1769 187.12 90.5689 187.408 91.0809C187.704 91.5929 187.852 92.1889 187.852 92.8689C187.852 93.5489 187.7 94.1489 187.396 94.6689C187.1 95.1809 186.696 95.5769 186.184 95.8569C185.672 96.1369 185.104 96.2769 184.48 96.2769ZM184.48 95.3169C184.872 95.3169 185.24 95.2249 185.584 95.0409C185.928 94.8569 186.204 94.5809 186.412 94.2129C186.628 93.8449 186.736 93.3969 186.736 92.8689C186.736 92.3409 186.632 91.8929 186.424 91.5249C186.216 91.1569 185.944 90.8849 185.608 90.7089C185.272 90.5249 184.908 90.4329 184.516 90.4329C184.116 90.4329 183.748 90.5249 183.412 90.7089C183.084 90.8849 182.82 91.1569 182.62 91.5249C182.42 91.8929 182.32 92.3409 182.32 92.8689C182.32 93.4049 182.416 93.8569 182.608 94.2249C182.808 94.5929 183.072 94.8689 183.4 95.0529C183.728 95.2289 184.088 95.3169 184.48 95.3169ZM192.492 89.4729C193.292 89.4729 193.94 89.7169 194.436 90.2049C194.932 90.6849 195.18 91.3809 195.18 92.2929V96.1689H194.1V92.4489C194.1 91.7929 193.936 91.2929 193.608 90.9489C193.28 90.5969 192.832 90.4209 192.264 90.4209C191.688 90.4209 191.228 90.6009 190.884 90.9609C190.548 91.3209 190.38 91.8449 190.38 92.5329V96.1689H189.288V89.5929H190.38V90.5289C190.596 90.1929 190.888 89.9329 191.256 89.7489C191.632 89.5649 192.044 89.4729 192.492 89.4729ZM196.556 92.8569C196.556 92.1849 196.692 91.5969 196.964 91.0929C197.236 90.5809 197.608 90.1849 198.08 89.9049C198.56 89.6249 199.096 89.4849 199.688 89.4849C200.2 89.4849 200.676 89.6049 201.116 89.8449C201.556 90.0769 201.892 90.3849 202.124 90.7689V87.2889H203.228V96.1689H202.124V94.9329C201.908 95.3249 201.588 95.6489 201.164 95.9049C200.74 96.1529 200.244 96.2769 199.676 96.2769C199.092 96.2769 198.56 96.1329 198.08 95.8449C197.608 95.5569 197.236 95.1529 196.964 94.6329C196.692 94.1129 196.556 93.5209 196.556 92.8569ZM202.124 92.8689C202.124 92.3729 202.024 91.9409 201.824 91.5729C201.624 91.2049 201.352 90.9249 201.008 90.7329C200.672 90.5329 200.3 90.4329 199.892 90.4329C199.484 90.4329 199.112 90.5289 198.776 90.7209C198.44 90.9129 198.172 91.1929 197.972 91.5609C197.772 91.9289 197.672 92.3609 197.672 92.8569C197.672 93.3609 197.772 93.8009 197.972 94.1769C198.172 94.5449 198.44 94.8289 198.776 95.0289C199.112 95.2209 199.484 95.3169 199.892 95.3169C200.3 95.3169 200.672 95.2209 201.008 95.0289C201.352 94.8289 201.624 94.5449 201.824 94.1769C202.024 93.8009 202.124 93.3649 202.124 92.8689ZM211.073 92.6289C211.073 92.8369 211.061 93.0569 211.037 93.2889H205.781C205.821 93.9369 206.041 94.4449 206.441 94.8129C206.849 95.1729 207.341 95.3529 207.917 95.3529C208.389 95.3529 208.781 95.2449 209.093 95.0289C209.413 94.8049 209.637 94.5089 209.765 94.1409H210.941C210.765 94.7729 210.413 95.2889 209.885 95.6889C209.357 96.0809 208.701 96.2769 207.917 96.2769C207.293 96.2769 206.733 96.1369 206.237 95.8569C205.749 95.5769 205.365 95.1809 205.085 94.6689C204.805 94.1489 204.665 93.5489 204.665 92.8689C204.665 92.1889 204.801 91.5929 205.073 91.0809C205.345 90.5689 205.725 90.1769 206.213 89.9049C206.709 89.6249 207.277 89.4849 207.917 89.4849C208.541 89.4849 209.093 89.6209 209.573 89.8929C210.053 90.1649 210.421 90.5409 210.677 91.0209C210.941 91.4929 211.073 92.0289 211.073 92.6289ZM209.945 92.4009C209.945 91.9849 209.853 91.6289 209.669 91.3329C209.485 91.0289 209.233 90.8009 208.913 90.6489C208.601 90.4889 208.253 90.4089 207.869 90.4089C207.317 90.4089 206.845 90.5849 206.453 90.9369C206.069 91.2889 205.849 91.7769 205.793 92.4009H209.945ZM213.606 90.6609C213.798 90.2849 214.07 89.9929 214.422 89.7849C214.782 89.5769 215.218 89.4729 215.73 89.4729V90.6009H215.442C214.218 90.6009 213.606 91.2649 213.606 92.5929V96.1689H212.514V89.5929H213.606V90.6609ZM219.667 90.4929H218.287V96.1689H217.195V90.4929H216.343V89.5929H217.195V89.1249C217.195 88.3889 217.383 87.8529 217.759 87.5169C218.143 87.1729 218.755 87.0009 219.595 87.0009V87.9129C219.115 87.9129 218.775 88.0089 218.575 88.2009C218.383 88.3849 218.287 88.6929 218.287 89.1249V89.5929H219.667V90.4929ZM226.772 89.5929V96.1689H225.68V95.1969C225.472 95.5329 225.18 95.7969 224.804 95.9889C224.436 96.1729 224.028 96.2649 223.58 96.2649C223.068 96.2649 222.608 96.1609 222.2 95.9529C221.792 95.7369 221.468 95.4169 221.228 94.9929C220.996 94.5689 220.88 94.0529 220.88 93.4449V89.5929H221.96V93.3009C221.96 93.9489 222.124 94.4489 222.452 94.8009C222.78 95.1449 223.228 95.3169 223.796 95.3169C224.38 95.3169 224.84 95.1369 225.176 94.7769C225.512 94.4169 225.68 93.8929 225.68 93.2049V89.5929H226.772ZM229.708 87.2889V96.1689H228.616V87.2889H229.708ZM237.096 96.2769C236.592 96.2769 236.14 96.1929 235.74 96.0249C235.34 95.8489 235.024 95.6089 234.792 95.3049C234.56 94.9929 234.432 94.6369 234.408 94.2369H235.536C235.568 94.5649 235.72 94.8329 235.992 95.0409C236.272 95.2489 236.636 95.3529 237.084 95.3529C237.5 95.3529 237.828 95.2609 238.068 95.0769C238.308 94.8929 238.428 94.6609 238.428 94.3809C238.428 94.0929 238.3 93.8809 238.044 93.7449C237.788 93.6009 237.392 93.4609 236.856 93.3249C236.368 93.1969 235.968 93.0689 235.656 92.9409C235.352 92.8049 235.088 92.6089 234.864 92.3529C234.648 92.0889 234.54 91.7449 234.54 91.3209C234.54 90.9849 234.64 90.6769 234.84 90.3969C235.04 90.1169 235.324 89.8969 235.692 89.7369C236.06 89.5689 236.48 89.4849 236.952 89.4849C237.68 89.4849 238.268 89.6689 238.716 90.0369C239.164 90.4049 239.404 90.9089 239.436 91.5489H238.344C238.32 91.2049 238.18 90.9289 237.924 90.7209C237.676 90.5129 237.34 90.4089 236.916 90.4089C236.524 90.4089 236.212 90.4929 235.98 90.6609C235.748 90.8289 235.632 91.0489 235.632 91.3209C235.632 91.5369 235.7 91.7169 235.836 91.8609C235.98 91.9969 236.156 92.1089 236.364 92.1969C236.58 92.2769 236.876 92.3689 237.252 92.4729C237.724 92.6009 238.108 92.7289 238.404 92.8569C238.7 92.9769 238.952 93.1609 239.16 93.4089C239.376 93.6569 239.488 93.9809 239.496 94.3809C239.496 94.7409 239.396 95.0649 239.196 95.3529C238.996 95.6409 238.712 95.8689 238.344 96.0369C237.984 96.1969 237.568 96.2769 237.096 96.2769ZM247.038 92.6289C247.038 92.8369 247.026 93.0569 247.002 93.2889H241.746C241.786 93.9369 242.006 94.4449 242.406 94.8129C242.814 95.1729 243.306 95.3529 243.882 95.3529C244.354 95.3529 244.746 95.2449 245.058 95.0289C245.378 94.8049 245.602 94.5089 245.73 94.1409H246.906C246.73 94.7729 246.378 95.2889 245.85 95.6889C245.322 96.0809 244.666 96.2769 243.882 96.2769C243.258 96.2769 242.698 96.1369 242.202 95.8569C241.714 95.5769 241.33 95.1809 241.05 94.6689C240.77 94.1489 240.63 93.5489 240.63 92.8689C240.63 92.1889 240.766 91.5929 241.038 91.0809C241.31 90.5689 241.69 90.1769 242.178 89.9049C242.674 89.6249 243.242 89.4849 243.882 89.4849C244.506 89.4849 245.058 89.6209 245.538 89.8929C246.018 90.1649 246.386 90.5409 246.642 91.0209C246.906 91.4929 247.038 92.0289 247.038 92.6289ZM245.91 92.4009C245.91 91.9849 245.818 91.6289 245.634 91.3329C245.45 91.0289 245.198 90.8009 244.878 90.6489C244.566 90.4889 244.218 90.4089 243.834 90.4089C243.282 90.4089 242.81 90.5849 242.418 90.9369C242.034 91.2889 241.814 91.7769 241.758 92.4009H245.91ZM249.571 90.6609C249.763 90.2849 250.035 89.9929 250.387 89.7849C250.747 89.5769 251.183 89.4729 251.695 89.4729V90.6009H251.407C250.183 90.6009 249.571 91.2649 249.571 92.5929V96.1689H248.479V89.5929H249.571V90.6609ZM255.404 95.1609L257.444 89.5929H258.608L256.028 96.1689H254.756L252.176 89.5929H253.352L255.404 95.1609ZM260.246 88.5249C260.038 88.5249 259.862 88.4529 259.718 88.3089C259.574 88.1649 259.502 87.9889 259.502 87.7809C259.502 87.5729 259.574 87.3969 259.718 87.2529C259.862 87.1089 260.038 87.0369 260.246 87.0369C260.446 87.0369 260.614 87.1089 260.75 87.2529C260.894 87.3969 260.966 87.5729 260.966 87.7809C260.966 87.9889 260.894 88.1649 260.75 88.3089C260.614 88.4529 260.446 88.5249 260.246 88.5249ZM260.774 89.5929V96.1689H259.682V89.5929H260.774ZM262.227 92.8689C262.227 92.1889 262.363 91.5969 262.635 91.0929C262.907 90.5809 263.283 90.1849 263.763 89.9049C264.251 89.6249 264.807 89.4849 265.431 89.4849C266.239 89.4849 266.903 89.6809 267.423 90.0729C267.951 90.4649 268.299 91.0089 268.467 91.7049H267.291C267.179 91.3049 266.959 90.9889 266.631 90.7569C266.311 90.5249 265.911 90.4089 265.431 90.4089C264.807 90.4089 264.303 90.6249 263.919 91.0569C263.535 91.4809 263.343 92.0849 263.343 92.8689C263.343 93.6609 263.535 94.2729 263.919 94.7049C264.303 95.1369 264.807 95.3529 265.431 95.3529C265.911 95.3529 266.311 95.2409 266.631 95.0169C266.951 94.7929 267.171 94.4729 267.291 94.0569H268.467C268.291 94.7289 267.939 95.2689 267.411 95.6769C266.883 96.0769 266.223 96.2769 265.431 96.2769C264.807 96.2769 264.251 96.1369 263.763 95.8569C263.283 95.5769 262.907 95.1809 262.635 94.6689C262.363 94.1569 262.227 93.5569 262.227 92.8689ZM275.924 92.6289C275.924 92.8369 275.912 93.0569 275.888 93.2889H270.632C270.672 93.9369 270.892 94.4449 271.292 94.8129C271.7 95.1729 272.192 95.3529 272.768 95.3529C273.24 95.3529 273.632 95.2449 273.944 95.0289C274.264 94.8049 274.488 94.5089 274.616 94.1409H275.792C275.616 94.7729 275.264 95.2889 274.736 95.6889C274.208 96.0809 273.552 96.2769 272.768 96.2769C272.144 96.2769 271.584 96.1369 271.088 95.8569C270.6 95.5769 270.216 95.1809 269.936 94.6689C269.656 94.1489 269.516 93.5489 269.516 92.8689C269.516 92.1889 269.652 91.5929 269.924 91.0809C270.196 90.5689 270.576 90.1769 271.064 89.9049C271.56 89.6249 272.128 89.4849 272.768 89.4849C273.392 89.4849 273.944 89.6209 274.424 89.8929C274.904 90.1649 275.272 90.5409 275.528 91.0209C275.792 91.4929 275.924 92.0289 275.924 92.6289ZM274.796 92.4009C274.796 91.9849 274.704 91.6289 274.52 91.3329C274.336 91.0289 274.084 90.8009 273.764 90.6489C273.452 90.4889 273.104 90.4089 272.72 90.4089C272.168 90.4089 271.696 90.5849 271.304 90.9369C270.92 91.2889 270.7 91.7769 270.644 92.4009H274.796ZM281.897 90.4929V94.3689C281.897 94.6889 281.965 94.9169 282.101 95.0529C282.237 95.1809 282.473 95.2449 282.809 95.2449H283.613V96.1689H282.629C282.021 96.1689 281.565 96.0289 281.261 95.7489C280.957 95.4689 280.805 95.0089 280.805 94.3689V90.4929H279.953V89.5929H280.805V87.9369H281.897V89.5929H283.613V90.4929H281.897ZM288.2 89.4729C288.696 89.4729 289.144 89.5809 289.544 89.7969C289.944 90.0049 290.256 90.3209 290.48 90.7449C290.712 91.1689 290.828 91.6849 290.828 92.2929V96.1689H289.748V92.4489C289.748 91.7929 289.584 91.2929 289.256 90.9489C288.928 90.5969 288.48 90.4209 287.912 90.4209C287.336 90.4209 286.876 90.6009 286.532 90.9609C286.196 91.3209 286.028 91.8449 286.028 92.5329V96.1689H284.936V87.2889H286.028V90.5289C286.244 90.1929 286.54 89.9329 286.916 89.7489C287.3 89.5649 287.728 89.4729 288.2 89.4729ZM292.204 92.8569C292.204 92.1849 292.34 91.5969 292.612 91.0929C292.884 90.5809 293.256 90.1849 293.728 89.9049C294.208 89.6249 294.74 89.4849 295.324 89.4849C295.9 89.4849 296.4 89.6089 296.824 89.8569C297.248 90.1049 297.564 90.4169 297.772 90.7929V89.5929H298.876V96.1689H297.772V94.9449C297.556 95.3289 297.232 95.6489 296.8 95.9049C296.376 96.1529 295.88 96.2769 295.312 96.2769C294.728 96.2769 294.2 96.1329 293.728 95.8449C293.256 95.5569 292.884 95.1529 292.612 94.6329C292.34 94.1129 292.204 93.5209 292.204 92.8569ZM297.772 92.8689C297.772 92.3729 297.672 91.9409 297.472 91.5729C297.272 91.2049 297 90.9249 296.656 90.7329C296.32 90.5329 295.948 90.4329 295.54 90.4329C295.132 90.4329 294.76 90.5289 294.424 90.7209C294.088 90.9129 293.82 91.1929 293.62 91.5609C293.42 91.9289 293.32 92.3609 293.32 92.8569C293.32 93.3609 293.42 93.8009 293.62 94.1769C293.82 94.5449 294.088 94.8289 294.424 95.0289C294.76 95.2209 295.132 95.3169 295.54 95.3169C295.948 95.3169 296.32 95.2209 296.656 95.0289C297 94.8289 297.272 94.5449 297.472 94.1769C297.672 93.8009 297.772 93.3649 297.772 92.8689ZM303.925 89.4729C304.725 89.4729 305.373 89.7169 305.869 90.2049C306.365 90.6849 306.613 91.3809 306.613 92.2929V96.1689H305.533V92.4489C305.533 91.7929 305.369 91.2929 305.041 90.9489C304.713 90.5969 304.265 90.4209 303.697 90.4209C303.121 90.4209 302.661 90.6009 302.317 90.9609C301.981 91.3209 301.813 91.8449 301.813 92.5329V96.1689H300.721V89.5929H301.813V90.5289C302.029 90.1929 302.321 89.9329 302.689 89.7489C303.065 89.5649 303.477 89.4729 303.925 89.4729ZM312.069 96.1689L309.489 93.2649V96.1689H308.397V87.2889H309.489V92.5089L312.021 89.5929H313.545L310.449 92.8689L313.557 96.1689H312.069ZM323.436 89.5929L319.476 99.2649H318.348L319.644 96.0969L316.992 89.5929H318.204L320.268 94.9209L322.308 89.5929H323.436ZM327.402 96.2769C326.786 96.2769 326.226 96.1369 325.722 95.8569C325.226 95.5769 324.834 95.1809 324.546 94.6689C324.266 94.1489 324.126 93.5489 324.126 92.8689C324.126 92.1969 324.27 91.6049 324.558 91.0929C324.854 90.5729 325.254 90.1769 325.758 89.9049C326.262 89.6249 326.826 89.4849 327.45 89.4849C328.074 89.4849 328.638 89.6249 329.142 89.9049C329.646 90.1769 330.042 90.5689 330.33 91.0809C330.626 91.5929 330.774 92.1889 330.774 92.8689C330.774 93.5489 330.622 94.1489 330.318 94.6689C330.022 95.1809 329.618 95.5769 329.106 95.8569C328.594 96.1369 328.026 96.2769 327.402 96.2769ZM327.402 95.3169C327.794 95.3169 328.162 95.2249 328.506 95.0409C328.85 94.8569 329.126 94.5809 329.334 94.2129C329.55 93.8449 329.658 93.3969 329.658 92.8689C329.658 92.3409 329.554 91.8929 329.346 91.5249C329.138 91.1569 328.866 90.8849 328.53 90.7089C328.194 90.5249 327.83 90.4329 327.438 90.4329C327.038 90.4329 326.67 90.5249 326.334 90.7089C326.006 90.8849 325.742 91.1569 325.542 91.5249C325.342 91.8929 325.242 92.3409 325.242 92.8689C325.242 93.4049 325.338 93.8569 325.53 94.2249C325.73 94.5929 325.994 94.8689 326.322 95.0529C326.65 95.2289 327.01 95.3169 327.402 95.3169ZM338.042 89.5929V96.1689H336.95V95.1969C336.742 95.5329 336.45 95.7969 336.074 95.9889C335.706 96.1729 335.298 96.2649 334.85 96.2649C334.338 96.2649 333.878 96.1609 333.47 95.9529C333.062 95.7369 332.738 95.4169 332.498 94.9929C332.266 94.5689 332.15 94.0529 332.15 93.4449V89.5929H333.23V93.3009C333.23 93.9489 333.394 94.4489 333.722 94.8009C334.05 95.1449 334.498 95.3169 335.066 95.3169C335.65 95.3169 336.11 95.1369 336.446 94.7769C336.782 94.4169 336.95 93.8929 336.95 93.2049V89.5929H338.042ZM340.233 96.2409C340.025 96.2409 339.849 96.1689 339.705 96.0249C339.561 95.8809 339.489 95.7049 339.489 95.4969C339.489 95.2889 339.561 95.1129 339.705 94.9689C339.849 94.8249 340.025 94.7529 340.233 94.7529C340.433 94.7529 340.601 94.8249 340.737 94.9689C340.881 95.1129 340.953 95.2889 340.953 95.4969C340.953 95.7049 340.881 95.8809 340.737 96.0249C340.601 96.1689 340.433 96.2409 340.233 96.2409Z" fill="#333333"/>
<path d="M54.7464 54.9408L52.5464 55.8408C52.0464 56.0408 51.4464 55.8408 51.2464 55.3408C51.1464 55.1408 51.1464 55.0408 51.1464 54.8408L51.3464 52.4408C51.3464 52.1408 51.2464 51.9408 51.1464 51.7408L49.5464 49.9408C49.2464 49.5408 49.2464 48.8408 49.6464 48.5408C49.8464 48.4408 49.9464 48.3408 50.1464 48.3408L52.4464 47.8408C52.7464 47.7408 52.9464 47.6408 53.0464 47.3408L54.2464 45.3408C54.5464 44.8408 55.1464 44.7408 55.6464 45.0408C55.7464 45.1408 55.9464 45.2408 55.9464 45.3408L57.1464 47.3408C57.2464 47.5408 57.5464 47.7408 57.7464 47.8408L60.1464 48.3408C60.6464 48.4408 61.0464 49.0408 60.8464 49.5408C60.8464 49.7408 60.7464 49.8408 60.6464 49.9408L59.1464 51.7408C58.9464 51.9408 58.8464 52.2408 58.9464 52.4408L59.1464 54.8408C59.1464 55.4408 58.7464 55.8408 58.2464 55.9408C58.0464 55.9408 57.9464 55.9408 57.7464 55.8408L55.5464 54.9408C55.2464 54.8408 55.0464 54.8408 54.7464 54.9408Z" fill="url(#paint2_linear_32_2799)"/>
<path d="M71.0628 54.9408L68.8628 55.8408C68.3628 56.0408 67.7628 55.8408 67.5628 55.3408C67.4628 55.1408 67.4628 55.0408 67.4628 54.8408L67.6628 52.4408C67.6628 52.1408 67.5628 51.9408 67.4628 51.7408L65.8628 49.9408C65.5628 49.5408 65.5628 48.8408 65.9628 48.5408C66.1628 48.4408 66.2628 48.3408 66.4628 48.3408L68.7628 47.8408C69.0628 47.7408 69.2628 47.6408 69.3628 47.3408L70.5628 45.3408C70.8628 44.8408 71.4628 44.7408 71.9628 45.0408C72.0628 45.1408 72.2628 45.2408 72.2628 45.3408L73.4628 47.3408C73.5628 47.5408 73.8628 47.7408 74.0628 47.8408L76.4628 48.3408C76.9628 48.4408 77.3628 49.0408 77.1628 49.5408C77.1628 49.7408 77.0628 49.8408 76.9628 49.9408L75.4628 51.7408C75.2628 51.9408 75.1628 52.2408 75.2628 52.4408L75.4628 54.8408C75.4628 55.4408 75.0628 55.8408 74.5628 55.9408C74.3628 55.9408 74.2628 55.9408 74.0628 55.8408L71.8628 54.9408C71.5628 54.8408 71.3628 54.8408 71.0628 54.9408Z" fill="url(#paint3_linear_32_2799)"/>
<path d="M87.3792 54.9408L85.1792 55.8408C84.6792 56.0408 84.0792 55.8408 83.8792 55.3408C83.7792 55.1408 83.7792 55.0408 83.7792 54.8408L83.9792 52.4408C83.9792 52.1408 83.8792 51.9408 83.7792 51.7408L82.1792 49.9408C81.8792 49.5408 81.8792 48.8408 82.2792 48.5408C82.4792 48.4408 82.5792 48.3408 82.7792 48.3408L85.0792 47.8408C85.3792 47.7408 85.5792 47.6408 85.6792 47.3408L86.8792 45.3408C87.1792 44.8408 87.7792 44.7408 88.2792 45.0408C88.3792 45.1408 88.5792 45.2408 88.5792 45.3408L89.7792 47.3408C89.8792 47.5408 90.1792 47.7408 90.3792 47.8408L92.7792 48.3408C93.2792 48.4408 93.6792 49.0408 93.4792 49.5408C93.4792 49.7408 93.3792 49.8408 93.2792 49.9408L91.7792 51.7408C91.5792 51.9408 91.4792 52.2408 91.5792 52.4408L91.7792 54.8408C91.7792 55.4408 91.3792 55.8408 90.8792 55.9408C90.6792 55.9408 90.5792 55.9408 90.3792 55.8408L88.1792 54.9408C87.8792 54.8408 87.6792 54.8408 87.3792 54.9408Z" fill="url(#paint4_linear_32_2799)"/>
<path d="M103.696 54.9408L101.496 55.8408C100.996 56.0408 100.396 55.8408 100.196 55.3408C100.096 55.1408 100.096 55.0408 100.096 54.8408L100.296 52.4408C100.296 52.1408 100.196 51.9408 100.096 51.7408L98.4956 49.9408C98.1956 49.5408 98.1956 48.8408 98.5956 48.5408C98.7956 48.4408 98.8956 48.3408 99.0956 48.3408L101.396 47.8408C101.696 47.7408 101.896 47.6408 101.996 47.3408L103.196 45.3408C103.496 44.8408 104.096 44.7408 104.596 45.0408C104.696 45.1408 104.896 45.2408 104.896 45.3408L106.096 47.3408C106.196 47.5408 106.496 47.7408 106.696 47.8408L109.096 48.3408C109.596 48.4408 109.996 49.0408 109.796 49.5408C109.796 49.7408 109.696 49.8408 109.596 49.9408L108.096 51.7408C107.896 51.9408 107.796 52.2408 107.896 52.4408L108.096 54.8408C108.096 55.4408 107.696 55.8408 107.196 55.9408C106.996 55.9408 106.896 55.9408 106.696 55.8408L104.496 54.9408C104.196 54.8408 103.996 54.8408 103.696 54.9408Z" fill="url(#paint5_linear_32_2799)"/>
<path d="M120.012 54.9408L117.812 55.8408C117.312 56.0408 116.712 55.8408 116.512 55.3408C116.412 55.1408 116.412 55.0408 116.412 54.8408L116.612 52.4408C116.612 52.1408 116.512 51.9408 116.412 51.7408L114.812 49.9408C114.512 49.5408 114.512 48.8408 114.912 48.5408C115.112 48.4408 115.212 48.3408 115.412 48.3408L117.712 47.8408C118.012 47.7408 118.212 47.6408 118.312 47.3408L119.512 45.3408C119.812 44.8408 120.412 44.7408 120.912 45.0408C121.012 45.1408 121.212 45.2408 121.212 45.3408L122.412 47.3408C122.512 47.5408 122.812 47.7408 123.012 47.8408L125.412 48.3408C125.912 48.4408 126.312 49.0408 126.112 49.5408C126.112 49.7408 126.012 49.8408 125.912 49.9408L124.412 51.7408C124.212 51.9408 124.112 52.2408 124.212 52.4408L124.412 54.8408C124.412 55.4408 124.012 55.8408 123.512 55.9408C123.312 55.9408 123.212 55.9408 123.012 55.8408L120.812 54.9408C120.512 54.8408 120.312 54.8408 120.012 54.9408Z" fill="url(#paint6_linear_32_2799)"/>
<defs>
<linearGradient id="paint0_linear_32_2799" x1="404.2" y1="16.9057" x2="405.554" y2="59.4212" gradientUnits="userSpaceOnUse">
<stop stop-color="#FD749B"/>
<stop offset="1" stop-color="#281AC8"/>
</linearGradient>
<linearGradient id="paint1_linear_32_2799" x1="403.525" y1="23.5008" x2="404.611" y2="48.0096" gradientUnits="userSpaceOnUse">
<stop stop-color="#FD749B"/>
<stop offset="1" stop-color="#281AC8"/>
</linearGradient>
<linearGradient id="paint2_linear_32_2799" x1="55.6941" y1="43.1298" x2="56.2917" y2="62.7395" gradientUnits="userSpaceOnUse">
<stop stop-color="#FD749B"/>
<stop offset="1" stop-color="#281AC8"/>
</linearGradient>
<linearGradient id="paint3_linear_32_2799" x1="72.0105" y1="43.1298" x2="72.6081" y2="62.7395" gradientUnits="userSpaceOnUse">
<stop stop-color="#FD749B"/>
<stop offset="1" stop-color="#281AC8"/>
</linearGradient>
<linearGradient id="paint4_linear_32_2799" x1="88.3269" y1="43.1298" x2="88.9245" y2="62.7395" gradientUnits="userSpaceOnUse">
<stop stop-color="#FD749B"/>
<stop offset="1" stop-color="#281AC8"/>
</linearGradient>
<linearGradient id="paint5_linear_32_2799" x1="104.643" y1="43.1298" x2="105.241" y2="62.7395" gradientUnits="userSpaceOnUse">
<stop stop-color="#FD749B"/>
<stop offset="1" stop-color="#281AC8"/>
</linearGradient>
<linearGradient id="paint6_linear_32_2799" x1="120.96" y1="43.1298" x2="121.557" y2="62.7395" gradientUnits="userSpaceOnUse">
<stop stop-color="#FD749B"/>
<stop offset="1" stop-color="#281AC8"/>
</linearGradient>
</defs>
</svg>
