<svg width="310" height="30" viewBox="0 0 310 30" fill="none" xmlns="http://www.w3.org/2000/svg">
<path d="M15.5244 2.344V6.18H10.3164V22H5.52844V6.18H0.320438V2.344H15.5244ZM22.7154 8.98C23.2754 8.12133 23.9754 7.44933 24.8154 6.964C25.6554 6.46 26.5887 6.208 27.6154 6.208V11.276H26.2994C25.1047 11.276 24.2087 11.5373 23.6114 12.06C23.0141 12.564 22.7154 13.46 22.7154 14.748V22H17.9274V6.376H22.7154V8.98ZM28.952 14.16C28.952 12.5547 29.2506 11.1453 29.848 9.932C30.464 8.71867 31.2946 7.78533 32.34 7.132C33.3853 6.47867 34.552 6.152 35.84 6.152C36.9413 6.152 37.9026 6.376 38.724 6.824C39.564 7.272 40.208 7.86 40.656 8.588V6.376H45.444V22H40.656V19.788C40.1893 20.516 39.536 21.104 38.696 21.552C37.8746 22 36.9133 22.224 35.812 22.224C34.5426 22.224 33.3853 21.8973 32.34 21.244C31.2946 20.572 30.464 19.6293 29.848 18.416C29.2506 17.184 28.952 15.7653 28.952 14.16ZM40.656 14.188C40.656 12.9933 40.32 12.0507 39.648 11.36C38.9946 10.6693 38.192 10.324 37.24 10.324C36.288 10.324 35.476 10.6693 34.804 11.36C34.1506 12.032 33.824 12.9653 33.824 14.16C33.824 15.3547 34.1506 16.3067 34.804 17.016C35.476 17.7067 36.288 18.052 37.24 18.052C38.192 18.052 38.9946 17.7067 39.648 17.016C40.32 16.3253 40.656 15.3827 40.656 14.188ZM47.9559 14.16C47.9559 12.5547 48.2545 11.1453 48.8519 9.932C49.4679 8.71867 50.2985 7.78533 51.3439 7.132C52.3892 6.47867 53.5559 6.152 54.8439 6.152C55.8705 6.152 56.8039 6.36667 57.6439 6.796C58.5025 7.22533 59.1745 7.804 59.6599 8.532V1.28H64.4479V22H59.6599V19.76C59.2119 20.5067 58.5679 21.104 57.7279 21.552C56.9065 22 55.9452 22.224 54.8439 22.224C53.5559 22.224 52.3892 21.8973 51.3439 21.244C50.2985 20.572 49.4679 19.6293 48.8519 18.416C48.2545 17.184 47.9559 15.7653 47.9559 14.16ZM59.6599 14.188C59.6599 12.9933 59.3239 12.0507 58.6519 11.36C57.9985 10.6693 57.1959 10.324 56.2439 10.324C55.2919 10.324 54.4799 10.6693 53.8079 11.36C53.1545 12.032 52.8279 12.9653 52.8279 14.16C52.8279 15.3547 53.1545 16.3067 53.8079 17.016C54.4799 17.7067 55.2919 18.052 56.2439 18.052C57.1959 18.052 57.9985 17.7067 58.6519 17.016C59.3239 16.3253 59.6599 15.3827 59.6599 14.188ZM82.6398 13.936C82.6398 14.384 82.6118 14.8507 82.5558 15.336H71.7198C71.7944 16.3067 72.1024 17.0533 72.6438 17.576C73.2038 18.08 73.8851 18.332 74.6878 18.332C75.8824 18.332 76.7131 17.828 77.1798 16.82H82.2758C82.0144 17.8467 81.5384 18.7707 80.8478 19.592C80.1758 20.4133 79.3264 21.0573 78.2998 21.524C77.2731 21.9907 76.1251 22.224 74.8558 22.224C73.3251 22.224 71.9624 21.8973 70.7678 21.244C69.5731 20.5907 68.6398 19.6573 67.9678 18.444C67.2958 17.2307 66.9598 15.812 66.9598 14.188C66.9598 12.564 67.2864 11.1453 67.9398 9.932C68.6118 8.71867 69.5451 7.78533 70.7398 7.132C71.9344 6.47867 73.3064 6.152 74.8558 6.152C76.3678 6.152 77.7118 6.46933 78.8878 7.104C80.0638 7.73867 80.9784 8.644 81.6318 9.82C82.3038 10.996 82.6398 12.368 82.6398 13.936ZM77.7398 12.676C77.7398 11.8547 77.4598 11.2013 76.8998 10.716C76.3398 10.2307 75.6398 9.988 74.7998 9.988C73.9971 9.988 73.3158 10.2213 72.7558 10.688C72.2144 11.1547 71.8784 11.8173 71.7478 12.676H77.7398ZM98.9393 10.352H96.3633V22H91.5753V10.352H89.8393V6.376H91.5753V5.928C91.5753 4.00533 92.1259 2.54933 93.2273 1.56C94.3286 0.551999 95.9433 0.0479989 98.0713 0.0479989C98.4259 0.0479989 98.6873 0.0573321 98.8553 0.0759985V4.136C97.9406 4.08 97.2966 4.21067 96.9233 4.528C96.5499 4.84533 96.3633 5.41467 96.3633 6.236V6.376H98.9393V10.352ZM105.977 8.98C106.537 8.12133 107.237 7.44933 108.077 6.964C108.917 6.46 109.85 6.208 110.877 6.208V11.276H109.561C108.366 11.276 107.47 11.5373 106.873 12.06C106.276 12.564 105.977 13.46 105.977 14.748V22H101.189V6.376H105.977V8.98ZM120.278 22.224C118.747 22.224 117.366 21.8973 116.134 21.244C114.92 20.5907 113.959 19.6573 113.25 18.444C112.559 17.2307 112.214 15.812 112.214 14.188C112.214 12.5827 112.568 11.1733 113.278 9.96C113.987 8.728 114.958 7.78533 116.19 7.132C117.422 6.47867 118.803 6.152 120.334 6.152C121.864 6.152 123.246 6.47867 124.478 7.132C125.71 7.78533 126.68 8.728 127.39 9.96C128.099 11.1733 128.454 12.5827 128.454 14.188C128.454 15.7933 128.09 17.212 127.362 18.444C126.652 19.6573 125.672 20.5907 124.422 21.244C123.19 21.8973 121.808 22.224 120.278 22.224ZM120.278 18.08C121.192 18.08 121.967 17.744 122.602 17.072C123.255 16.4 123.582 15.4387 123.582 14.188C123.582 12.9373 123.264 11.976 122.63 11.304C122.014 10.632 121.248 10.296 120.334 10.296C119.4 10.296 118.626 10.632 118.01 11.304C117.394 11.9573 117.086 12.9187 117.086 14.188C117.086 15.4387 117.384 16.4 117.982 17.072C118.598 17.744 119.363 18.08 120.278 18.08ZM150.93 6.208C152.871 6.208 154.411 6.796 155.55 7.972C156.707 9.148 157.286 10.7813 157.286 12.872V22H152.526V13.516C152.526 12.508 152.255 11.7333 151.714 11.192C151.191 10.632 150.463 10.352 149.53 10.352C148.596 10.352 147.859 10.632 147.318 11.192C146.795 11.7333 146.534 12.508 146.534 13.516V22H141.774V13.516C141.774 12.508 141.503 11.7333 140.962 11.192C140.439 10.632 139.711 10.352 138.778 10.352C137.844 10.352 137.107 10.632 136.566 11.192C136.043 11.7333 135.782 12.508 135.782 13.516V22H130.994V6.376H135.782V8.336C136.267 7.68267 136.902 7.16933 137.686 6.796C138.47 6.404 139.356 6.208 140.346 6.208C141.522 6.208 142.567 6.46 143.482 6.964C144.415 7.468 145.143 8.18667 145.666 9.12C146.207 8.26133 146.944 7.56133 147.878 7.02C148.811 6.47867 149.828 6.208 150.93 6.208ZM165.616 14.16C165.616 12.5547 165.915 11.1453 166.512 9.932C167.128 8.71867 167.959 7.78533 169.004 7.132C170.049 6.47867 171.216 6.152 172.504 6.152C173.605 6.152 174.567 6.376 175.388 6.824C176.228 7.272 176.872 7.86 177.32 8.588V6.376H182.108V22H177.32V19.788C176.853 20.516 176.2 21.104 175.36 21.552C174.539 22 173.577 22.224 172.476 22.224C171.207 22.224 170.049 21.8973 169.004 21.244C167.959 20.572 167.128 19.6293 166.512 18.416C165.915 17.184 165.616 15.7653 165.616 14.16ZM177.32 14.188C177.32 12.9933 176.984 12.0507 176.312 11.36C175.659 10.6693 174.856 10.324 173.904 10.324C172.952 10.324 172.14 10.6693 171.468 11.36C170.815 12.032 170.488 12.9653 170.488 14.16C170.488 15.3547 170.815 16.3067 171.468 17.016C172.14 17.7067 172.952 18.052 173.904 18.052C174.856 18.052 175.659 17.7067 176.312 17.016C176.984 16.3253 177.32 15.3827 177.32 14.188ZM195.092 6.208C196.921 6.208 198.377 6.80533 199.46 8C200.561 9.176 201.112 10.8 201.112 12.872V22H196.352V13.516C196.352 12.4707 196.081 11.6587 195.54 11.08C194.999 10.5013 194.271 10.212 193.356 10.212C192.441 10.212 191.713 10.5013 191.172 11.08C190.631 11.6587 190.36 12.4707 190.36 13.516V22H185.572V6.376H190.36V8.448C190.845 7.75733 191.499 7.216 192.32 6.824C193.141 6.41333 194.065 6.208 195.092 6.208ZM220.399 6.376L210.599 29.42H205.447L209.031 21.468L202.675 6.376H208.023L211.635 16.148L215.219 6.376H220.399ZM244.559 6.376L240.331 22H235.039L232.575 11.864L230.027 22H224.763L220.507 6.376H225.295L227.507 17.548L230.139 6.376H235.207L237.867 17.492L240.051 6.376H244.559ZM255.988 6.208C257.78 6.208 259.218 6.80533 260.3 8C261.383 9.176 261.924 10.8 261.924 12.872V22H257.164V13.516C257.164 12.4707 256.894 11.6587 256.352 11.08C255.811 10.5013 255.083 10.212 254.168 10.212C253.254 10.212 252.526 10.5013 251.984 11.08C251.443 11.6587 251.172 12.4707 251.172 13.516V22H246.384V1.28H251.172V8.476C251.658 7.78533 252.32 7.23467 253.16 6.824C254 6.41333 254.943 6.208 255.988 6.208ZM279.98 13.936C279.98 14.384 279.952 14.8507 279.896 15.336H269.06C269.134 16.3067 269.442 17.0533 269.984 17.576C270.544 18.08 271.225 18.332 272.028 18.332C273.222 18.332 274.053 17.828 274.52 16.82H279.616C279.354 17.8467 278.878 18.7707 278.188 19.592C277.516 20.4133 276.666 21.0573 275.64 21.524C274.613 21.9907 273.465 22.224 272.196 22.224C270.665 22.224 269.302 21.8973 268.108 21.244C266.913 20.5907 265.98 19.6573 265.308 18.444C264.636 17.2307 264.3 15.812 264.3 14.188C264.3 12.564 264.626 11.1453 265.28 9.932C265.952 8.71867 266.885 7.78533 268.08 7.132C269.274 6.47867 270.646 6.152 272.196 6.152C273.708 6.152 275.052 6.46933 276.228 7.104C277.404 7.73867 278.318 8.644 278.972 9.82C279.644 10.996 279.98 12.368 279.98 13.936ZM275.08 12.676C275.08 11.8547 274.8 11.2013 274.24 10.716C273.68 10.2307 272.98 9.988 272.14 9.988C271.337 9.988 270.656 10.2213 270.096 10.688C269.554 11.1547 269.218 11.8173 269.088 12.676H275.08ZM287.294 8.98C287.854 8.12133 288.554 7.44933 289.394 6.964C290.234 6.46 291.167 6.208 292.194 6.208V11.276H290.878C289.683 11.276 288.787 11.5373 288.19 12.06C287.592 12.564 287.294 13.46 287.294 14.748V22H282.506V6.376H287.294V8.98ZM309.21 13.936C309.21 14.384 309.182 14.8507 309.126 15.336H298.29C298.365 16.3067 298.673 17.0533 299.214 17.576C299.774 18.08 300.455 18.332 301.258 18.332C302.453 18.332 303.283 17.828 303.75 16.82H308.846C308.585 17.8467 308.109 18.7707 307.418 19.592C306.746 20.4133 305.897 21.0573 304.87 21.524C303.843 21.9907 302.695 22.224 301.426 22.224C299.895 22.224 298.533 21.8973 297.338 21.244C296.143 20.5907 295.21 19.6573 294.538 18.444C293.866 17.2307 293.53 15.812 293.53 14.188C293.53 12.564 293.857 11.1453 294.51 9.932C295.182 8.71867 296.115 7.78533 297.31 7.132C298.505 6.47867 299.877 6.152 301.426 6.152C302.938 6.152 304.282 6.46933 305.458 7.104C306.634 7.73867 307.549 8.644 308.202 9.82C308.874 10.996 309.21 12.368 309.21 13.936ZM304.31 12.676C304.31 11.8547 304.03 11.2013 303.47 10.716C302.91 10.2307 302.21 9.988 301.37 9.988C300.567 9.988 299.886 10.2213 299.326 10.688C298.785 11.1547 298.449 11.8173 298.318 12.676H304.31Z" fill="url(#paint0_linear_32_2919)"/>
<defs>
<linearGradient id="paint0_linear_32_2919" x1="166.9" y1="-13.6111" x2="167.213" y2="60.8651" gradientUnits="userSpaceOnUse">
<stop stop-color="#FD749B"/>
<stop offset="1" stop-color="#281AC8"/>
</linearGradient>
</defs>
</svg>
