<svg width="314" height="24" viewBox="0 0 314 24" fill="none" xmlns="http://www.w3.org/2000/svg">
<path d="M28.7845 3.344L23.6605 23H17.8645L14.7285 10.064L11.4805 23H5.68449L0.700488 3.344H5.82449L8.65249 17.652L12.1525 3.344H17.4165L20.7765 17.652L23.6325 3.344H28.7845ZM45.9137 14.936C45.9137 15.384 45.8857 15.8507 45.8297 16.336H34.9937C35.0684 17.3067 35.3764 18.0533 35.9177 18.576C36.4777 19.08 37.159 19.332 37.9617 19.332C39.1564 19.332 39.987 18.828 40.4537 17.82H45.5497C45.2884 18.8467 44.8124 19.7707 44.1217 20.592C43.4497 21.4133 42.6004 22.0573 41.5737 22.524C40.547 22.9907 39.399 23.224 38.1297 23.224C36.599 23.224 35.2364 22.8973 34.0417 22.244C32.847 21.5907 31.9137 20.6573 31.2417 19.444C30.5697 18.2307 30.2337 16.812 30.2337 15.188C30.2337 13.564 30.5604 12.1453 31.2137 10.932C31.8857 9.71867 32.819 8.78533 34.0137 8.132C35.2084 7.47867 36.5804 7.152 38.1297 7.152C39.6417 7.152 40.9857 7.46933 42.1617 8.104C43.3377 8.73867 44.2524 9.644 44.9057 10.82C45.5777 11.996 45.9137 13.368 45.9137 14.936ZM41.0137 13.676C41.0137 12.8547 40.7337 12.2013 40.1737 11.716C39.6137 11.2307 38.9137 10.988 38.0737 10.988C37.271 10.988 36.5897 11.2213 36.0297 11.688C35.4884 12.1547 35.1524 12.8173 35.0217 13.676H41.0137ZM53.2276 2.28V23H48.4396V2.28H53.2276ZM55.7454 15.188C55.7454 13.564 56.0721 12.1453 56.7254 10.932C57.3974 9.71867 58.3214 8.78533 59.4974 8.132C60.6921 7.47867 62.0548 7.152 63.5854 7.152C65.5454 7.152 67.1788 7.66533 68.4854 8.692C69.8108 9.71867 70.6788 11.1653 71.0894 13.032H65.9934C65.5641 11.8373 64.7334 11.24 63.5014 11.24C62.6241 11.24 61.9241 11.5853 61.4014 12.276C60.8788 12.948 60.6174 13.9187 60.6174 15.188C60.6174 16.4573 60.8788 17.4373 61.4014 18.128C61.9241 18.8 62.6241 19.136 63.5014 19.136C64.7334 19.136 65.5641 18.5387 65.9934 17.344H71.0894C70.6788 19.1733 69.8108 20.6107 68.4854 21.656C67.1601 22.7013 65.5268 23.224 63.5854 23.224C62.0548 23.224 60.6921 22.8973 59.4974 22.244C58.3214 21.5907 57.3974 20.6573 56.7254 19.444C56.0721 18.2307 55.7454 16.812 55.7454 15.188ZM80.7626 23.224C79.2319 23.224 77.8506 22.8973 76.6186 22.244C75.4052 21.5907 74.4439 20.6573 73.7346 19.444C73.0439 18.2307 72.6986 16.812 72.6986 15.188C72.6986 13.5827 73.0532 12.1733 73.7626 10.96C74.4719 9.728 75.4426 8.78533 76.6746 8.132C77.9066 7.47867 79.2879 7.152 80.8186 7.152C82.3492 7.152 83.7306 7.47867 84.9626 8.132C86.1946 8.78533 87.1652 9.728 87.8746 10.96C88.5839 12.1733 88.9386 13.5827 88.9386 15.188C88.9386 16.7933 88.5746 18.212 87.8466 19.444C87.1372 20.6573 86.1572 21.5907 84.9066 22.244C83.6746 22.8973 82.2932 23.224 80.7626 23.224ZM80.7626 19.08C81.6772 19.08 82.4519 18.744 83.0866 18.072C83.7399 17.4 84.0666 16.4387 84.0666 15.188C84.0666 13.9373 83.7492 12.976 83.1146 12.304C82.4986 11.632 81.7332 11.296 80.8186 11.296C79.8852 11.296 79.1106 11.632 78.4946 12.304C77.8786 12.9573 77.5706 13.9187 77.5706 15.188C77.5706 16.4387 77.8692 17.4 78.4666 18.072C79.0826 18.744 79.8479 19.08 80.7626 19.08ZM111.415 7.208C113.356 7.208 114.896 7.796 116.035 8.972C117.192 10.148 117.771 11.7813 117.771 13.872V23H113.011V14.516C113.011 13.508 112.74 12.7333 112.199 12.192C111.676 11.632 110.948 11.352 110.015 11.352C109.081 11.352 108.344 11.632 107.803 12.192C107.28 12.7333 107.019 13.508 107.019 14.516V23H102.259V14.516C102.259 13.508 101.988 12.7333 101.447 12.192C100.924 11.632 100.196 11.352 99.2627 11.352C98.3293 11.352 97.592 11.632 97.0507 12.192C96.528 12.7333 96.2667 13.508 96.2667 14.516V23H91.4787V7.376H96.2667V9.336C96.752 8.68267 97.3867 8.16933 98.1707 7.796C98.9547 7.404 99.8413 7.208 100.831 7.208C102.007 7.208 103.052 7.46 103.967 7.964C104.9 8.468 105.628 9.18667 106.151 10.12C106.692 9.26133 107.429 8.56133 108.363 8.02C109.296 7.47867 110.313 7.208 111.415 7.208ZM135.847 14.936C135.847 15.384 135.819 15.8507 135.763 16.336H124.927C125.002 17.3067 125.31 18.0533 125.851 18.576C126.411 19.08 127.093 19.332 127.895 19.332C129.09 19.332 129.921 18.828 130.387 17.82H135.483C135.222 18.8467 134.746 19.7707 134.055 20.592C133.383 21.4133 132.534 22.0573 131.507 22.524C130.481 22.9907 129.333 23.224 128.063 23.224C126.533 23.224 125.17 22.8973 123.975 22.244C122.781 21.5907 121.847 20.6573 121.175 19.444C120.503 18.2307 120.167 16.812 120.167 15.188C120.167 13.564 120.494 12.1453 121.147 10.932C121.819 9.71867 122.753 8.78533 123.947 8.132C125.142 7.47867 126.514 7.152 128.063 7.152C129.575 7.152 130.919 7.46933 132.095 8.104C133.271 8.73867 134.186 9.644 134.839 10.82C135.511 11.996 135.847 13.368 135.847 14.936ZM130.947 13.676C130.947 12.8547 130.667 12.2013 130.107 11.716C129.547 11.2307 128.847 10.988 128.007 10.988C127.205 10.988 126.523 11.2213 125.963 11.688C125.422 12.1547 125.086 12.8173 124.955 13.676H130.947ZM153.015 18.94V23H150.579C148.843 23 147.489 22.58 146.519 21.74C145.548 20.8813 145.063 19.4907 145.063 17.568V11.352H143.159V7.376H145.063V3.568H149.851V7.376H152.987V11.352H149.851V17.624C149.851 18.0907 149.963 18.4267 150.187 18.632C150.411 18.8373 150.784 18.94 151.307 18.94H153.015ZM162.794 23.224C161.263 23.224 159.882 22.8973 158.65 22.244C157.436 21.5907 156.475 20.6573 155.766 19.444C155.075 18.2307 154.73 16.812 154.73 15.188C154.73 13.5827 155.084 12.1733 155.794 10.96C156.503 9.728 157.474 8.78533 158.706 8.132C159.938 7.47867 161.319 7.152 162.85 7.152C164.38 7.152 165.762 7.47867 166.994 8.132C168.226 8.78533 169.196 9.728 169.906 10.96C170.615 12.1733 170.97 13.5827 170.97 15.188C170.97 16.7933 170.606 18.212 169.878 19.444C169.168 20.6573 168.188 21.5907 166.938 22.244C165.706 22.8973 164.324 23.224 162.794 23.224ZM162.794 19.08C163.708 19.08 164.483 18.744 165.118 18.072C165.771 17.4 166.098 16.4387 166.098 15.188C166.098 13.9373 165.78 12.976 165.146 12.304C164.53 11.632 163.764 11.296 162.85 11.296C161.916 11.296 161.142 11.632 160.526 12.304C159.91 12.9573 159.602 13.9187 159.602 15.188C159.602 16.4387 159.9 17.4 160.498 18.072C161.114 18.744 161.879 19.08 162.794 19.08ZM178.632 13.144C178.632 11.2027 179.052 9.476 179.892 7.964C180.732 6.43333 181.898 5.248 183.392 4.408C184.904 3.54933 186.612 3.12 188.516 3.12C190.849 3.12 192.846 3.736 194.508 4.968C196.169 6.2 197.28 7.88 197.84 10.008H192.576C192.184 9.18667 191.624 8.56133 190.896 8.132C190.186 7.70267 189.374 7.488 188.46 7.488C186.985 7.488 185.79 8.00133 184.876 9.028C183.961 10.0547 183.504 11.4267 183.504 13.144C183.504 14.8613 183.961 16.2333 184.876 17.26C185.79 18.2867 186.985 18.8 188.46 18.8C189.374 18.8 190.186 18.5853 190.896 18.156C191.624 17.7267 192.184 17.1013 192.576 16.28H197.84C197.28 18.408 196.169 20.088 194.508 21.32C192.846 22.5333 190.849 23.14 188.516 23.14C186.612 23.14 184.904 22.72 183.392 21.88C181.898 21.0213 180.732 19.836 179.892 18.324C179.052 16.812 178.632 15.0853 178.632 13.144ZM207.884 23.224C206.353 23.224 204.972 22.8973 203.74 22.244C202.526 21.5907 201.565 20.6573 200.856 19.444C200.165 18.2307 199.82 16.812 199.82 15.188C199.82 13.5827 200.174 12.1733 200.884 10.96C201.593 9.728 202.564 8.78533 203.796 8.132C205.028 7.47867 206.409 7.152 207.94 7.152C209.47 7.152 210.852 7.47867 212.084 8.132C213.316 8.78533 214.286 9.728 214.996 10.96C215.705 12.1733 216.06 13.5827 216.06 15.188C216.06 16.7933 215.696 18.212 214.968 19.444C214.258 20.6573 213.278 21.5907 212.028 22.244C210.796 22.8973 209.414 23.224 207.884 23.224ZM207.884 19.08C208.798 19.08 209.573 18.744 210.208 18.072C210.861 17.4 211.188 16.4387 211.188 15.188C211.188 13.9373 210.87 12.976 210.236 12.304C209.62 11.632 208.854 11.296 207.94 11.296C207.006 11.296 206.232 11.632 205.616 12.304C205 12.9573 204.692 13.9187 204.692 15.188C204.692 16.4387 204.99 17.4 205.588 18.072C206.204 18.744 206.969 19.08 207.884 19.08ZM221.008 5.752C220.168 5.752 219.477 5.50933 218.936 5.024C218.413 4.52 218.152 3.904 218.152 3.176C218.152 2.42933 218.413 1.81333 218.936 1.328C219.477 0.823998 220.168 0.571998 221.008 0.571998C221.829 0.571998 222.501 0.823998 223.024 1.328C223.565 1.81333 223.836 2.42933 223.836 3.176C223.836 3.904 223.565 4.52 223.024 5.024C222.501 5.50933 221.829 5.752 221.008 5.752ZM223.388 7.376V23H218.6V7.376H223.388ZM236.378 7.208C238.207 7.208 239.663 7.80533 240.746 9C241.847 10.176 242.398 11.8 242.398 13.872V23H237.638V14.516C237.638 13.4707 237.367 12.6587 236.826 12.08C236.284 11.5013 235.556 11.212 234.642 11.212C233.727 11.212 232.999 11.5013 232.458 12.08C231.916 12.6587 231.646 13.4707 231.646 14.516V23H226.858V7.376H231.646V9.448C232.131 8.75733 232.784 8.216 233.606 7.824C234.427 7.41333 235.351 7.208 236.378 7.208ZM257.625 12.92C258.763 13.1627 259.678 13.732 260.369 14.628C261.059 15.5053 261.405 16.5133 261.405 17.652C261.405 19.2947 260.826 20.6013 259.669 21.572C258.53 22.524 256.934 23 254.881 23H245.725V3.344H254.573C256.57 3.344 258.129 3.80133 259.249 4.716C260.387 5.63067 260.957 6.872 260.957 8.44C260.957 9.59733 260.649 10.5587 260.033 11.324C259.435 12.0893 258.633 12.6213 257.625 12.92ZM250.513 11.296H253.649C254.433 11.296 255.03 11.128 255.441 10.792C255.87 10.4373 256.085 9.924 256.085 9.252C256.085 8.58 255.87 8.06667 255.441 7.712C255.03 7.35733 254.433 7.18 253.649 7.18H250.513V11.296ZM254.041 19.136C254.843 19.136 255.459 18.9587 255.889 18.604C256.337 18.2307 256.561 17.6987 256.561 17.008C256.561 16.3173 256.327 15.776 255.861 15.384C255.413 14.992 254.787 14.796 253.985 14.796H250.513V19.136H254.041ZM263.23 15.16C263.23 13.5547 263.528 12.1453 264.126 10.932C264.742 9.71867 265.572 8.78533 266.618 8.132C267.663 7.47867 268.83 7.152 270.118 7.152C271.219 7.152 272.18 7.376 273.002 7.824C273.842 8.272 274.486 8.86 274.934 9.588V7.376H279.722V23H274.934V20.788C274.467 21.516 273.814 22.104 272.974 22.552C272.152 23 271.191 23.224 270.09 23.224C268.82 23.224 267.663 22.8973 266.618 22.244C265.572 21.572 264.742 20.6293 264.126 19.416C263.528 18.184 263.23 16.7653 263.23 15.16ZM274.934 15.188C274.934 13.9933 274.598 13.0507 273.926 12.36C273.272 11.6693 272.47 11.324 271.518 11.324C270.566 11.324 269.754 11.6693 269.082 12.36C268.428 13.032 268.102 13.9653 268.102 15.16C268.102 16.3547 268.428 17.3067 269.082 18.016C269.754 18.7067 270.566 19.052 271.518 19.052C272.47 19.052 273.272 18.7067 273.926 18.016C274.598 17.3253 274.934 16.3827 274.934 15.188ZM289.542 23.224C288.179 23.224 286.966 22.9907 285.902 22.524C284.838 22.0573 283.998 21.4227 283.382 20.62C282.766 19.7987 282.42 18.884 282.346 17.876H287.078C287.134 18.4173 287.386 18.856 287.834 19.192C288.282 19.528 288.832 19.696 289.486 19.696C290.083 19.696 290.54 19.584 290.858 19.36C291.194 19.1173 291.362 18.8093 291.362 18.436C291.362 17.988 291.128 17.6613 290.662 17.456C290.195 17.232 289.439 16.9893 288.394 16.728C287.274 16.4667 286.34 16.196 285.594 15.916C284.847 15.6173 284.203 15.16 283.662 14.544C283.12 13.9093 282.85 13.06 282.85 11.996C282.85 11.1 283.092 10.288 283.578 9.56C284.082 8.81333 284.81 8.22533 285.762 7.796C286.732 7.36667 287.88 7.152 289.206 7.152C291.166 7.152 292.706 7.63733 293.826 8.608C294.964 9.57867 295.618 10.8667 295.786 12.472H291.362C291.287 11.9307 291.044 11.5013 290.634 11.184C290.242 10.8667 289.719 10.708 289.066 10.708C288.506 10.708 288.076 10.82 287.778 11.044C287.479 11.2493 287.33 11.5387 287.33 11.912C287.33 12.36 287.563 12.696 288.03 12.92C288.515 13.144 289.262 13.368 290.27 13.592C291.427 13.8907 292.37 14.1893 293.098 14.488C293.826 14.768 294.46 15.2347 295.002 15.888C295.562 16.5227 295.851 17.3813 295.87 18.464C295.87 19.3787 295.608 20.2 295.086 20.928C294.582 21.6373 293.844 22.1973 292.874 22.608C291.922 23.0187 290.811 23.224 289.542 23.224ZM313.527 14.936C313.527 15.384 313.499 15.8507 313.443 16.336H302.607C302.682 17.3067 302.99 18.0533 303.531 18.576C304.091 19.08 304.772 19.332 305.575 19.332C306.77 19.332 307.6 18.828 308.067 17.82H313.163C312.902 18.8467 312.426 19.7707 311.735 20.592C311.063 21.4133 310.214 22.0573 309.187 22.524C308.16 22.9907 307.012 23.224 305.743 23.224C304.212 23.224 302.85 22.8973 301.655 22.244C300.46 21.5907 299.527 20.6573 298.855 19.444C298.183 18.2307 297.847 16.812 297.847 15.188C297.847 13.564 298.174 12.1453 298.827 10.932C299.499 9.71867 300.432 8.78533 301.627 8.132C302.822 7.47867 304.194 7.152 305.743 7.152C307.255 7.152 308.599 7.46933 309.775 8.104C310.951 8.73867 311.866 9.644 312.519 10.82C313.191 11.996 313.527 13.368 313.527 14.936ZM308.627 13.676C308.627 12.8547 308.347 12.2013 307.787 11.716C307.227 11.2307 306.527 10.988 305.687 10.988C304.884 10.988 304.203 11.2213 303.643 11.688C303.102 12.1547 302.766 12.8173 302.635 13.676H308.627Z" fill="url(#paint0_linear_32_2910)"/>
<defs>
<linearGradient id="paint0_linear_32_2910" x1="173.251" y1="-16.2315" x2="174.008" y2="99.0264" gradientUnits="userSpaceOnUse">
<stop stop-color="#FD749B"/>
<stop offset="1" stop-color="#281AC8"/>
</linearGradient>
</defs>
</svg>
