<svg width="283" height="566" viewBox="0 0 283 566" fill="none" xmlns="http://www.w3.org/2000/svg">
<path fill-rule="evenodd" clip-rule="evenodd" d="M41.2034 0H241.58C263.139 0 280.615 17.5368 280.615 39.1695V526.83C280.615 548.463 263.139 566 241.58 566H41.2034C19.6453 566 2.16895 548.463 2.16895 526.83V39.1695C2.16895 17.5368 19.6453 0 41.2034 0Z" fill="#444444"/>
<path fill-rule="evenodd" clip-rule="evenodd" d="M41.8541 3.26416H240.93C261.051 3.26416 277.362 19.6318 277.362 39.8224V526.178C277.362 546.368 261.051 562.736 240.93 562.736H41.8541C21.7331 562.736 5.42188 546.368 5.42188 526.178V39.8224C5.42187 19.6318 21.7331 3.26416 41.8541 3.26416Z" fill="#141414"/>
<rect x="276.061" y="54.4021" width="4.77094" height="4.35218" fill="#141414"/>
<rect x="2.16895" y="54.4021" width="4.77088" height="4.35218" fill="#141414"/>
<rect x="276.061" y="507.028" width="4.77094" height="4.3522" fill="#141414"/>
<rect x="2.16895" y="507.028" width="4.77088" height="4.3522" fill="#141414"/>
<path fill-rule="evenodd" clip-rule="evenodd" d="M19.627 41.5332C19.627 28.3295 30.3061 17.6257 43.481 17.6257H239.738C252.913 17.6257 263.592 28.3287 263.592 41.5332V523.16C263.592 536.364 252.913 547.068 239.738 547.068H43.481C30.3068 547.068 19.627 536.365 19.627 523.16V41.5332Z" fill="url(#paint0_linear_32_2986)"/>
<path fill-rule="evenodd" clip-rule="evenodd" d="M112.767 26.113C114.204 26.113 115.369 24.9439 115.369 23.5017C115.369 22.0595 114.204 20.8904 112.767 20.8904C111.33 20.8904 110.165 22.0595 110.165 23.5017C110.165 24.9439 111.33 26.113 112.767 26.113Z" fill="#444444"/>
<path fill-rule="evenodd" clip-rule="evenodd" d="M173.053 27.8538C175.449 27.8538 177.391 25.9052 177.391 23.5016C177.391 21.0979 175.449 19.1494 173.053 19.1494C170.658 19.1494 168.716 21.0979 168.716 23.5016C168.716 25.9052 170.658 27.8538 173.053 27.8538Z" fill="#444444"/>
<path fill-rule="evenodd" clip-rule="evenodd" d="M127.079 21.7607H156.138C157.096 21.7607 157.873 22.5402 157.873 23.5016C157.873 24.463 157.096 25.2425 156.138 25.2425H127.079C126.121 25.2425 125.344 24.463 125.344 23.5016C125.344 22.5402 126.121 21.7607 127.079 21.7607Z" fill="#444444"/>
<path fill-rule="evenodd" clip-rule="evenodd" d="M0.000488281 117.942C0.000488281 117.462 0.465727 117.073 1.04395 117.073H2.60279V158.419H1.04395C0.467661 158.419 0.000488281 158.029 0.000488281 157.551V117.942Z" fill="#444444"/>
<path fill-rule="evenodd" clip-rule="evenodd" d="M0.000488281 169.515C0.000488281 169.035 0.465727 168.646 1.04395 168.646H2.60279V209.992H1.04395C0.467661 209.992 0.000488281 209.603 0.000488281 209.124V169.515Z" fill="#444444"/>
<path fill-rule="evenodd" clip-rule="evenodd" d="M0.000488281 77.468C0.000488281 76.9876 0.465727 76.5981 1.04395 76.5981H2.60279V99.2294H1.04395C0.467661 99.2294 0.000488281 98.8414 0.000488281 98.3596V77.468Z" fill="#444444"/>
<path fill-rule="evenodd" clip-rule="evenodd" d="M280.398 130.13H281.7C282.418 130.13 283.001 130.615 283.001 131.217V196.502C283.001 197.102 282.417 197.589 281.7 197.589H280.398V130.13Z" fill="#444444"/>
<path fill-rule="evenodd" clip-rule="evenodd" d="M72.4312 17.626V21.5381C72.4312 30.1825 79.4318 37.1866 88.0675 37.1866H194.934C203.568 37.1866 210.57 30.1806 210.57 21.5381V20.4522V20.2357V17.626H72.4312Z" fill="#212121"/>
<mask id="path-16-outside-1_32_2986" maskUnits="userSpaceOnUse" x="120.9" y="279.375" width="78" height="14" fill="black">
<rect fill="white" x="120.9" y="279.375" width="78" height="14"/>
<path d="M121.9 287.096C121.9 285.987 122.152 284.992 122.655 284.111C123.159 283.219 123.843 282.523 124.707 282.022C125.582 281.522 126.551 281.272 127.612 281.272C128.859 281.272 129.948 281.571 130.878 282.169C131.808 282.767 132.487 283.616 132.913 284.714H131.124C130.807 284.029 130.348 283.501 129.746 283.132C129.155 282.762 128.444 282.577 127.612 282.577C126.813 282.577 126.097 282.762 125.462 283.132C124.827 283.501 124.329 284.029 123.968 284.714C123.607 285.389 123.427 286.182 123.427 287.096C123.427 287.999 123.607 288.793 123.968 289.478C124.329 290.152 124.827 290.674 125.462 291.044C126.097 291.414 126.813 291.599 127.612 291.599C128.444 291.599 129.155 291.419 129.746 291.061C130.348 290.691 130.807 290.163 131.124 289.478H132.913C132.487 290.566 131.808 291.409 130.878 292.007C129.948 292.594 128.859 292.888 127.612 292.888C126.551 292.888 125.582 292.643 124.707 292.154C123.843 291.653 123.159 290.963 122.655 290.082C122.152 289.201 121.9 288.206 121.9 287.096Z"/>
<path d="M139.059 292.937C138.217 292.937 137.451 292.746 136.762 292.366C136.083 291.985 135.547 291.447 135.153 290.751C134.77 290.044 134.579 289.228 134.579 288.303C134.579 287.39 134.776 286.585 135.169 285.889C135.574 285.182 136.121 284.643 136.811 284.274C137.5 283.893 138.272 283.703 139.125 283.703C139.978 283.703 140.75 283.893 141.439 284.274C142.129 284.643 142.67 285.176 143.064 285.873C143.469 286.569 143.671 287.379 143.671 288.303C143.671 289.228 143.463 290.044 143.048 290.751C142.643 291.447 142.09 291.985 141.39 292.366C140.69 292.746 139.913 292.937 139.059 292.937ZM139.059 291.632C139.595 291.632 140.099 291.506 140.569 291.256C141.04 291.006 141.417 290.631 141.702 290.131C141.997 289.63 142.145 289.021 142.145 288.303C142.145 287.586 142.003 286.976 141.718 286.476C141.434 285.976 141.062 285.606 140.602 285.367C140.143 285.117 139.645 284.992 139.109 284.992C138.561 284.992 138.058 285.117 137.599 285.367C137.15 285.606 136.789 285.976 136.515 286.476C136.242 286.976 136.105 287.586 136.105 288.303C136.105 289.032 136.236 289.647 136.499 290.147C136.772 290.647 137.134 291.022 137.582 291.273C138.031 291.512 138.523 291.632 139.059 291.632Z"/>
<path d="M146.406 282.398C146.122 282.398 145.881 282.3 145.684 282.104C145.487 281.908 145.389 281.669 145.389 281.386C145.389 281.103 145.487 280.864 145.684 280.668C145.881 280.472 146.122 280.375 146.406 280.375C146.68 280.375 146.91 280.472 147.096 280.668C147.293 280.864 147.391 281.103 147.391 281.386C147.391 281.669 147.293 281.908 147.096 282.104C146.91 282.3 146.68 282.398 146.406 282.398ZM147.129 283.85V292.79H145.635V283.85H147.129Z"/>
<path d="M154.056 283.686C155.151 283.686 156.037 284.018 156.715 284.682C157.394 285.334 157.733 286.28 157.733 287.52V292.79H156.256V287.732C156.256 286.841 156.031 286.161 155.583 285.693C155.134 285.214 154.521 284.975 153.745 284.975C152.957 284.975 152.328 285.22 151.857 285.709C151.398 286.199 151.168 286.911 151.168 287.847V292.79H149.674V283.85H151.168V285.122C151.463 284.665 151.863 284.312 152.366 284.062C152.88 283.811 153.444 283.686 154.056 283.686Z"/>
<path d="M165.901 286.933C166.316 286.998 166.694 287.167 167.033 287.439C167.383 287.711 167.657 288.048 167.854 288.45C168.062 288.853 168.166 289.282 168.166 289.739C168.166 290.316 168.018 290.838 167.722 291.305C167.427 291.762 166.995 292.126 166.426 292.398C165.868 292.659 165.206 292.79 164.44 292.79H160.173V281.419H164.276C165.053 281.419 165.715 281.549 166.262 281.81C166.809 282.06 167.219 282.403 167.493 282.838C167.766 283.273 167.903 283.763 167.903 284.306C167.903 284.981 167.717 285.541 167.345 285.987C166.984 286.422 166.502 286.737 165.901 286.933ZM161.666 286.329H164.177C164.878 286.329 165.419 286.166 165.802 285.84C166.185 285.514 166.377 285.062 166.377 284.486C166.377 283.909 166.185 283.458 165.802 283.132C165.419 282.805 164.867 282.642 164.144 282.642H161.666V286.329ZM164.309 291.566C165.053 291.566 165.633 291.392 166.048 291.044C166.464 290.696 166.672 290.212 166.672 289.592C166.672 288.961 166.453 288.467 166.016 288.108C165.578 287.738 164.992 287.553 164.259 287.553H161.666V291.566H164.309Z"/>
<path d="M169.68 288.287C169.68 287.373 169.866 286.574 170.238 285.889C170.61 285.193 171.119 284.654 171.765 284.274C172.421 283.893 173.149 283.703 173.948 283.703C174.735 283.703 175.419 283.871 175.999 284.208C176.579 284.546 177.011 284.97 177.296 285.481V283.85H178.806V292.79H177.296V291.126C177 291.648 176.557 292.083 175.966 292.431C175.386 292.768 174.708 292.937 173.931 292.937C173.132 292.937 172.41 292.741 171.765 292.349C171.119 291.958 170.61 291.409 170.238 290.702C169.866 289.995 169.68 289.19 169.68 288.287ZM177.296 288.303C177.296 287.629 177.159 287.042 176.885 286.541C176.612 286.041 176.24 285.66 175.769 285.399C175.31 285.127 174.801 284.992 174.243 284.992C173.685 284.992 173.176 285.122 172.717 285.383C172.257 285.644 171.89 286.025 171.617 286.525C171.343 287.025 171.207 287.613 171.207 288.287C171.207 288.972 171.343 289.57 171.617 290.082C171.89 290.582 172.257 290.968 172.717 291.24C173.176 291.501 173.685 291.632 174.243 291.632C174.801 291.632 175.31 291.501 175.769 291.24C176.24 290.968 176.612 290.582 176.885 290.082C177.159 289.57 177.296 288.978 177.296 288.303Z"/>
<path d="M184.514 292.937C183.824 292.937 183.206 292.823 182.659 292.594C182.112 292.355 181.68 292.029 181.363 291.615C181.045 291.191 180.87 290.707 180.837 290.163H182.38C182.424 290.609 182.632 290.974 183.004 291.256C183.387 291.539 183.885 291.681 184.497 291.681C185.066 291.681 185.515 291.555 185.843 291.305C186.171 291.055 186.336 290.74 186.336 290.359C186.336 289.967 186.161 289.679 185.81 289.494C185.46 289.299 184.919 289.108 184.186 288.923C183.518 288.749 182.971 288.575 182.544 288.401C182.128 288.216 181.767 287.95 181.461 287.602C181.166 287.243 181.018 286.775 181.018 286.199C181.018 285.742 181.155 285.323 181.428 284.943C181.702 284.562 182.09 284.263 182.593 284.045C183.097 283.817 183.671 283.703 184.317 283.703C185.313 283.703 186.117 283.953 186.73 284.453C187.342 284.953 187.671 285.639 187.714 286.509H186.221C186.188 286.041 185.996 285.666 185.646 285.383C185.307 285.1 184.848 284.959 184.268 284.959C183.731 284.959 183.305 285.073 182.987 285.302C182.67 285.53 182.511 285.829 182.511 286.199C182.511 286.492 182.604 286.737 182.79 286.933C182.987 287.118 183.228 287.27 183.513 287.39C183.808 287.499 184.213 287.624 184.727 287.765C185.373 287.939 185.898 288.113 186.303 288.287C186.708 288.45 187.052 288.7 187.337 289.038C187.632 289.375 187.785 289.815 187.796 290.359C187.796 290.848 187.66 291.289 187.386 291.681C187.112 292.072 186.724 292.382 186.221 292.61C185.728 292.828 185.159 292.937 184.514 292.937Z"/>
<path d="M198.111 287.977C198.111 288.26 198.095 288.559 198.062 288.874H190.873C190.928 289.755 191.229 290.446 191.776 290.946C192.334 291.436 193.007 291.681 193.795 291.681C194.44 291.681 194.976 291.534 195.403 291.24C195.841 290.935 196.147 290.533 196.322 290.033H197.931C197.69 290.892 197.208 291.593 196.486 292.137C195.764 292.67 194.867 292.937 193.795 292.937C192.941 292.937 192.175 292.746 191.497 292.366C190.829 291.985 190.304 291.447 189.921 290.751C189.538 290.044 189.347 289.228 189.347 288.303C189.347 287.379 189.533 286.569 189.905 285.873C190.277 285.176 190.797 284.643 191.464 284.274C192.142 283.893 192.919 283.703 193.795 283.703C194.648 283.703 195.403 283.888 196.06 284.257C196.716 284.627 197.219 285.138 197.57 285.791C197.931 286.433 198.111 287.161 198.111 287.977ZM196.568 287.667C196.568 287.102 196.443 286.618 196.191 286.215C195.939 285.802 195.595 285.492 195.157 285.285C194.73 285.068 194.254 284.959 193.729 284.959C192.974 284.959 192.328 285.198 191.792 285.677C191.267 286.155 190.966 286.819 190.89 287.667H196.568Z"/>
</mask>
<path d="M121.9 287.096C121.9 285.987 122.152 284.992 122.655 284.111C123.159 283.219 123.843 282.523 124.707 282.022C125.582 281.522 126.551 281.272 127.612 281.272C128.859 281.272 129.948 281.571 130.878 282.169C131.808 282.767 132.487 283.616 132.913 284.714H131.124C130.807 284.029 130.348 283.501 129.746 283.132C129.155 282.762 128.444 282.577 127.612 282.577C126.813 282.577 126.097 282.762 125.462 283.132C124.827 283.501 124.329 284.029 123.968 284.714C123.607 285.389 123.427 286.182 123.427 287.096C123.427 287.999 123.607 288.793 123.968 289.478C124.329 290.152 124.827 290.674 125.462 291.044C126.097 291.414 126.813 291.599 127.612 291.599C128.444 291.599 129.155 291.419 129.746 291.061C130.348 290.691 130.807 290.163 131.124 289.478H132.913C132.487 290.566 131.808 291.409 130.878 292.007C129.948 292.594 128.859 292.888 127.612 292.888C126.551 292.888 125.582 292.643 124.707 292.154C123.843 291.653 123.159 290.963 122.655 290.082C122.152 289.201 121.9 288.206 121.9 287.096Z" fill="white"/>
<path d="M139.059 292.937C138.217 292.937 137.451 292.746 136.762 292.366C136.083 291.985 135.547 291.447 135.153 290.751C134.77 290.044 134.579 289.228 134.579 288.303C134.579 287.39 134.776 286.585 135.169 285.889C135.574 285.182 136.121 284.643 136.811 284.274C137.5 283.893 138.272 283.703 139.125 283.703C139.978 283.703 140.75 283.893 141.439 284.274C142.129 284.643 142.67 285.176 143.064 285.873C143.469 286.569 143.671 287.379 143.671 288.303C143.671 289.228 143.463 290.044 143.048 290.751C142.643 291.447 142.09 291.985 141.39 292.366C140.69 292.746 139.913 292.937 139.059 292.937ZM139.059 291.632C139.595 291.632 140.099 291.506 140.569 291.256C141.04 291.006 141.417 290.631 141.702 290.131C141.997 289.63 142.145 289.021 142.145 288.303C142.145 287.586 142.003 286.976 141.718 286.476C141.434 285.976 141.062 285.606 140.602 285.367C140.143 285.117 139.645 284.992 139.109 284.992C138.561 284.992 138.058 285.117 137.599 285.367C137.15 285.606 136.789 285.976 136.515 286.476C136.242 286.976 136.105 287.586 136.105 288.303C136.105 289.032 136.236 289.647 136.499 290.147C136.772 290.647 137.134 291.022 137.582 291.273C138.031 291.512 138.523 291.632 139.059 291.632Z" fill="white"/>
<path d="M146.406 282.398C146.122 282.398 145.881 282.3 145.684 282.104C145.487 281.908 145.389 281.669 145.389 281.386C145.389 281.103 145.487 280.864 145.684 280.668C145.881 280.472 146.122 280.375 146.406 280.375C146.68 280.375 146.91 280.472 147.096 280.668C147.293 280.864 147.391 281.103 147.391 281.386C147.391 281.669 147.293 281.908 147.096 282.104C146.91 282.3 146.68 282.398 146.406 282.398ZM147.129 283.85V292.79H145.635V283.85H147.129Z" fill="white"/>
<path d="M154.056 283.686C155.151 283.686 156.037 284.018 156.715 284.682C157.394 285.334 157.733 286.28 157.733 287.52V292.79H156.256V287.732C156.256 286.841 156.031 286.161 155.583 285.693C155.134 285.214 154.521 284.975 153.745 284.975C152.957 284.975 152.328 285.22 151.857 285.709C151.398 286.199 151.168 286.911 151.168 287.847V292.79H149.674V283.85H151.168V285.122C151.463 284.665 151.863 284.312 152.366 284.062C152.88 283.811 153.444 283.686 154.056 283.686Z" fill="white"/>
<path d="M165.901 286.933C166.316 286.998 166.694 287.167 167.033 287.439C167.383 287.711 167.657 288.048 167.854 288.45C168.062 288.853 168.166 289.282 168.166 289.739C168.166 290.316 168.018 290.838 167.722 291.305C167.427 291.762 166.995 292.126 166.426 292.398C165.868 292.659 165.206 292.79 164.44 292.79H160.173V281.419H164.276C165.053 281.419 165.715 281.549 166.262 281.81C166.809 282.06 167.219 282.403 167.493 282.838C167.766 283.273 167.903 283.763 167.903 284.306C167.903 284.981 167.717 285.541 167.345 285.987C166.984 286.422 166.502 286.737 165.901 286.933ZM161.666 286.329H164.177C164.878 286.329 165.419 286.166 165.802 285.84C166.185 285.514 166.377 285.062 166.377 284.486C166.377 283.909 166.185 283.458 165.802 283.132C165.419 282.805 164.867 282.642 164.144 282.642H161.666V286.329ZM164.309 291.566C165.053 291.566 165.633 291.392 166.048 291.044C166.464 290.696 166.672 290.212 166.672 289.592C166.672 288.961 166.453 288.467 166.016 288.108C165.578 287.738 164.992 287.553 164.259 287.553H161.666V291.566H164.309Z" fill="white"/>
<path d="M169.68 288.287C169.68 287.373 169.866 286.574 170.238 285.889C170.61 285.193 171.119 284.654 171.765 284.274C172.421 283.893 173.149 283.703 173.948 283.703C174.735 283.703 175.419 283.871 175.999 284.208C176.579 284.546 177.011 284.97 177.296 285.481V283.85H178.806V292.79H177.296V291.126C177 291.648 176.557 292.083 175.966 292.431C175.386 292.768 174.708 292.937 173.931 292.937C173.132 292.937 172.41 292.741 171.765 292.349C171.119 291.958 170.61 291.409 170.238 290.702C169.866 289.995 169.68 289.19 169.68 288.287ZM177.296 288.303C177.296 287.629 177.159 287.042 176.885 286.541C176.612 286.041 176.24 285.66 175.769 285.399C175.31 285.127 174.801 284.992 174.243 284.992C173.685 284.992 173.176 285.122 172.717 285.383C172.257 285.644 171.89 286.025 171.617 286.525C171.343 287.025 171.207 287.613 171.207 288.287C171.207 288.972 171.343 289.57 171.617 290.082C171.89 290.582 172.257 290.968 172.717 291.24C173.176 291.501 173.685 291.632 174.243 291.632C174.801 291.632 175.31 291.501 175.769 291.24C176.24 290.968 176.612 290.582 176.885 290.082C177.159 289.57 177.296 288.978 177.296 288.303Z" fill="white"/>
<path d="M184.514 292.937C183.824 292.937 183.206 292.823 182.659 292.594C182.112 292.355 181.68 292.029 181.363 291.615C181.045 291.191 180.87 290.707 180.837 290.163H182.38C182.424 290.609 182.632 290.974 183.004 291.256C183.387 291.539 183.885 291.681 184.497 291.681C185.066 291.681 185.515 291.555 185.843 291.305C186.171 291.055 186.336 290.74 186.336 290.359C186.336 289.967 186.161 289.679 185.81 289.494C185.46 289.299 184.919 289.108 184.186 288.923C183.518 288.749 182.971 288.575 182.544 288.401C182.128 288.216 181.767 287.95 181.461 287.602C181.166 287.243 181.018 286.775 181.018 286.199C181.018 285.742 181.155 285.323 181.428 284.943C181.702 284.562 182.09 284.263 182.593 284.045C183.097 283.817 183.671 283.703 184.317 283.703C185.313 283.703 186.117 283.953 186.73 284.453C187.342 284.953 187.671 285.639 187.714 286.509H186.221C186.188 286.041 185.996 285.666 185.646 285.383C185.307 285.1 184.848 284.959 184.268 284.959C183.731 284.959 183.305 285.073 182.987 285.302C182.67 285.53 182.511 285.829 182.511 286.199C182.511 286.492 182.604 286.737 182.79 286.933C182.987 287.118 183.228 287.27 183.513 287.39C183.808 287.499 184.213 287.624 184.727 287.765C185.373 287.939 185.898 288.113 186.303 288.287C186.708 288.45 187.052 288.7 187.337 289.038C187.632 289.375 187.785 289.815 187.796 290.359C187.796 290.848 187.66 291.289 187.386 291.681C187.112 292.072 186.724 292.382 186.221 292.61C185.728 292.828 185.159 292.937 184.514 292.937Z" fill="white"/>
<path d="M198.111 287.977C198.111 288.26 198.095 288.559 198.062 288.874H190.873C190.928 289.755 191.229 290.446 191.776 290.946C192.334 291.436 193.007 291.681 193.795 291.681C194.44 291.681 194.976 291.534 195.403 291.24C195.841 290.935 196.147 290.533 196.322 290.033H197.931C197.69 290.892 197.208 291.593 196.486 292.137C195.764 292.67 194.867 292.937 193.795 292.937C192.941 292.937 192.175 292.746 191.497 292.366C190.829 291.985 190.304 291.447 189.921 290.751C189.538 290.044 189.347 289.228 189.347 288.303C189.347 287.379 189.533 286.569 189.905 285.873C190.277 285.176 190.797 284.643 191.464 284.274C192.142 283.893 192.919 283.703 193.795 283.703C194.648 283.703 195.403 283.888 196.06 284.257C196.716 284.627 197.219 285.138 197.57 285.791C197.931 286.433 198.111 287.161 198.111 287.977ZM196.568 287.667C196.568 287.102 196.443 286.618 196.191 286.215C195.939 285.802 195.595 285.492 195.157 285.285C194.73 285.068 194.254 284.959 193.729 284.959C192.974 284.959 192.328 285.198 191.792 285.677C191.267 286.155 190.966 286.819 190.89 287.667H196.568Z" fill="white"/>
<path d="M121.9 287.096C121.9 285.987 122.152 284.992 122.655 284.111C123.159 283.219 123.843 282.523 124.707 282.022C125.582 281.522 126.551 281.272 127.612 281.272C128.859 281.272 129.948 281.571 130.878 282.169C131.808 282.767 132.487 283.616 132.913 284.714H131.124C130.807 284.029 130.348 283.501 129.746 283.132C129.155 282.762 128.444 282.577 127.612 282.577C126.813 282.577 126.097 282.762 125.462 283.132C124.827 283.501 124.329 284.029 123.968 284.714C123.607 285.389 123.427 286.182 123.427 287.096C123.427 287.999 123.607 288.793 123.968 289.478C124.329 290.152 124.827 290.674 125.462 291.044C126.097 291.414 126.813 291.599 127.612 291.599C128.444 291.599 129.155 291.419 129.746 291.061C130.348 290.691 130.807 290.163 131.124 289.478H132.913C132.487 290.566 131.808 291.409 130.878 292.007C129.948 292.594 128.859 292.888 127.612 292.888C126.551 292.888 125.582 292.643 124.707 292.154C123.843 291.653 123.159 290.963 122.655 290.082C122.152 289.201 121.9 288.206 121.9 287.096Z" stroke="white" stroke-width="0.4" mask="url(#path-16-outside-1_32_2986)"/>
<path d="M139.059 292.937C138.217 292.937 137.451 292.746 136.762 292.366C136.083 291.985 135.547 291.447 135.153 290.751C134.77 290.044 134.579 289.228 134.579 288.303C134.579 287.39 134.776 286.585 135.169 285.889C135.574 285.182 136.121 284.643 136.811 284.274C137.5 283.893 138.272 283.703 139.125 283.703C139.978 283.703 140.75 283.893 141.439 284.274C142.129 284.643 142.67 285.176 143.064 285.873C143.469 286.569 143.671 287.379 143.671 288.303C143.671 289.228 143.463 290.044 143.048 290.751C142.643 291.447 142.09 291.985 141.39 292.366C140.69 292.746 139.913 292.937 139.059 292.937ZM139.059 291.632C139.595 291.632 140.099 291.506 140.569 291.256C141.04 291.006 141.417 290.631 141.702 290.131C141.997 289.63 142.145 289.021 142.145 288.303C142.145 287.586 142.003 286.976 141.718 286.476C141.434 285.976 141.062 285.606 140.602 285.367C140.143 285.117 139.645 284.992 139.109 284.992C138.561 284.992 138.058 285.117 137.599 285.367C137.15 285.606 136.789 285.976 136.515 286.476C136.242 286.976 136.105 287.586 136.105 288.303C136.105 289.032 136.236 289.647 136.499 290.147C136.772 290.647 137.134 291.022 137.582 291.273C138.031 291.512 138.523 291.632 139.059 291.632Z" stroke="white" stroke-width="0.4" mask="url(#path-16-outside-1_32_2986)"/>
<path d="M146.406 282.398C146.122 282.398 145.881 282.3 145.684 282.104C145.487 281.908 145.389 281.669 145.389 281.386C145.389 281.103 145.487 280.864 145.684 280.668C145.881 280.472 146.122 280.375 146.406 280.375C146.68 280.375 146.91 280.472 147.096 280.668C147.293 280.864 147.391 281.103 147.391 281.386C147.391 281.669 147.293 281.908 147.096 282.104C146.91 282.3 146.68 282.398 146.406 282.398ZM147.129 283.85V292.79H145.635V283.85H147.129Z" stroke="white" stroke-width="0.4" mask="url(#path-16-outside-1_32_2986)"/>
<path d="M154.056 283.686C155.151 283.686 156.037 284.018 156.715 284.682C157.394 285.334 157.733 286.28 157.733 287.52V292.79H156.256V287.732C156.256 286.841 156.031 286.161 155.583 285.693C155.134 285.214 154.521 284.975 153.745 284.975C152.957 284.975 152.328 285.22 151.857 285.709C151.398 286.199 151.168 286.911 151.168 287.847V292.79H149.674V283.85H151.168V285.122C151.463 284.665 151.863 284.312 152.366 284.062C152.88 283.811 153.444 283.686 154.056 283.686Z" stroke="white" stroke-width="0.4" mask="url(#path-16-outside-1_32_2986)"/>
<path d="M165.901 286.933C166.316 286.998 166.694 287.167 167.033 287.439C167.383 287.711 167.657 288.048 167.854 288.45C168.062 288.853 168.166 289.282 168.166 289.739C168.166 290.316 168.018 290.838 167.722 291.305C167.427 291.762 166.995 292.126 166.426 292.398C165.868 292.659 165.206 292.79 164.44 292.79H160.173V281.419H164.276C165.053 281.419 165.715 281.549 166.262 281.81C166.809 282.06 167.219 282.403 167.493 282.838C167.766 283.273 167.903 283.763 167.903 284.306C167.903 284.981 167.717 285.541 167.345 285.987C166.984 286.422 166.502 286.737 165.901 286.933ZM161.666 286.329H164.177C164.878 286.329 165.419 286.166 165.802 285.84C166.185 285.514 166.377 285.062 166.377 284.486C166.377 283.909 166.185 283.458 165.802 283.132C165.419 282.805 164.867 282.642 164.144 282.642H161.666V286.329ZM164.309 291.566C165.053 291.566 165.633 291.392 166.048 291.044C166.464 290.696 166.672 290.212 166.672 289.592C166.672 288.961 166.453 288.467 166.016 288.108C165.578 287.738 164.992 287.553 164.259 287.553H161.666V291.566H164.309Z" stroke="white" stroke-width="0.4" mask="url(#path-16-outside-1_32_2986)"/>
<path d="M169.68 288.287C169.68 287.373 169.866 286.574 170.238 285.889C170.61 285.193 171.119 284.654 171.765 284.274C172.421 283.893 173.149 283.703 173.948 283.703C174.735 283.703 175.419 283.871 175.999 284.208C176.579 284.546 177.011 284.97 177.296 285.481V283.85H178.806V292.79H177.296V291.126C177 291.648 176.557 292.083 175.966 292.431C175.386 292.768 174.708 292.937 173.931 292.937C173.132 292.937 172.41 292.741 171.765 292.349C171.119 291.958 170.61 291.409 170.238 290.702C169.866 289.995 169.68 289.19 169.68 288.287ZM177.296 288.303C177.296 287.629 177.159 287.042 176.885 286.541C176.612 286.041 176.24 285.66 175.769 285.399C175.31 285.127 174.801 284.992 174.243 284.992C173.685 284.992 173.176 285.122 172.717 285.383C172.257 285.644 171.89 286.025 171.617 286.525C171.343 287.025 171.207 287.613 171.207 288.287C171.207 288.972 171.343 289.57 171.617 290.082C171.89 290.582 172.257 290.968 172.717 291.24C173.176 291.501 173.685 291.632 174.243 291.632C174.801 291.632 175.31 291.501 175.769 291.24C176.24 290.968 176.612 290.582 176.885 290.082C177.159 289.57 177.296 288.978 177.296 288.303Z" stroke="white" stroke-width="0.4" mask="url(#path-16-outside-1_32_2986)"/>
<path d="M184.514 292.937C183.824 292.937 183.206 292.823 182.659 292.594C182.112 292.355 181.68 292.029 181.363 291.615C181.045 291.191 180.87 290.707 180.837 290.163H182.38C182.424 290.609 182.632 290.974 183.004 291.256C183.387 291.539 183.885 291.681 184.497 291.681C185.066 291.681 185.515 291.555 185.843 291.305C186.171 291.055 186.336 290.74 186.336 290.359C186.336 289.967 186.161 289.679 185.81 289.494C185.46 289.299 184.919 289.108 184.186 288.923C183.518 288.749 182.971 288.575 182.544 288.401C182.128 288.216 181.767 287.95 181.461 287.602C181.166 287.243 181.018 286.775 181.018 286.199C181.018 285.742 181.155 285.323 181.428 284.943C181.702 284.562 182.09 284.263 182.593 284.045C183.097 283.817 183.671 283.703 184.317 283.703C185.313 283.703 186.117 283.953 186.73 284.453C187.342 284.953 187.671 285.639 187.714 286.509H186.221C186.188 286.041 185.996 285.666 185.646 285.383C185.307 285.1 184.848 284.959 184.268 284.959C183.731 284.959 183.305 285.073 182.987 285.302C182.67 285.53 182.511 285.829 182.511 286.199C182.511 286.492 182.604 286.737 182.79 286.933C182.987 287.118 183.228 287.27 183.513 287.39C183.808 287.499 184.213 287.624 184.727 287.765C185.373 287.939 185.898 288.113 186.303 288.287C186.708 288.45 187.052 288.7 187.337 289.038C187.632 289.375 187.785 289.815 187.796 290.359C187.796 290.848 187.66 291.289 187.386 291.681C187.112 292.072 186.724 292.382 186.221 292.61C185.728 292.828 185.159 292.937 184.514 292.937Z" stroke="white" stroke-width="0.4" mask="url(#path-16-outside-1_32_2986)"/>
<path d="M198.111 287.977C198.111 288.26 198.095 288.559 198.062 288.874H190.873C190.928 289.755 191.229 290.446 191.776 290.946C192.334 291.436 193.007 291.681 193.795 291.681C194.44 291.681 194.976 291.534 195.403 291.24C195.841 290.935 196.147 290.533 196.322 290.033H197.931C197.69 290.892 197.208 291.593 196.486 292.137C195.764 292.67 194.867 292.937 193.795 292.937C192.941 292.937 192.175 292.746 191.497 292.366C190.829 291.985 190.304 291.447 189.921 290.751C189.538 290.044 189.347 289.228 189.347 288.303C189.347 287.379 189.533 286.569 189.905 285.873C190.277 285.176 190.797 284.643 191.464 284.274C192.142 283.893 192.919 283.703 193.795 283.703C194.648 283.703 195.403 283.888 196.06 284.257C196.716 284.627 197.219 285.138 197.57 285.791C197.931 286.433 198.111 287.161 198.111 287.977ZM196.568 287.667C196.568 287.102 196.443 286.618 196.191 286.215C195.939 285.802 195.595 285.492 195.157 285.285C194.73 285.068 194.254 284.959 193.729 284.959C192.974 284.959 192.328 285.198 191.792 285.677C191.267 286.155 190.966 286.819 190.89 287.667H196.568Z" stroke="white" stroke-width="0.4" mask="url(#path-16-outside-1_32_2986)"/>
<path d="M105.055 294.612H112.383C113.961 294.612 115.201 293.184 115.201 291.518C115.201 289.852 113.961 288.423 112.383 288.423C111.819 288.423 111.255 288.423 110.691 288.423C112.946 283.306 111.819 272 101.672 272C94.9082 272 91.5261 276.165 91.5261 284.615H90.3987C87.9184 284.615 85.8892 286.876 85.8892 289.614C85.8892 292.351 87.9184 294.612 90.3987 294.612H96.0356H105.055Z" stroke="white" stroke-width="2" stroke-linecap="round" stroke-linejoin="round"/>
<path d="M101.622 283.157L99.7218 283.792L98.7737 280.954L100.645 280.329C101.033 280.199 101.447 280.226 101.81 280.403L101.81 280.403C102.174 280.58 102.442 280.885 102.568 281.264C102.694 281.642 102.664 282.047 102.48 282.407L102.48 282.407C102.3 282.758 101.998 283.023 101.622 283.157ZM97.4825 281.384L97.8778 281.252L100.209 288.232L99.8141 288.364C99.5708 288.445 99.4312 288.708 99.5145 288.958C99.5978 289.207 99.8676 289.334 100.111 289.252L101.766 288.699L101.895 289.083C101.978 289.332 102.248 289.459 102.491 289.377C102.734 289.296 102.874 289.033 102.791 288.784L102.662 288.4L103.04 288.274L103.168 288.657C103.252 288.907 103.522 289.033 103.765 288.952C104.009 288.87 104.147 288.607 104.064 288.358L103.936 287.974C105.324 287.493 106.083 285.999 105.621 284.616C105.276 283.584 104.351 282.912 103.323 282.824C103.607 282.266 103.677 281.602 103.464 280.964C103.113 279.914 102.106 279.269 101.042 279.312L100.882 278.834L100.882 278.834C100.799 278.585 100.53 278.458 100.286 278.54C100.043 278.621 99.9034 278.884 99.9866 279.133L100.115 279.518L99.7374 279.644L99.6089 279.26C99.6089 279.26 99.6089 279.26 99.6089 279.26C99.5256 279.01 99.2556 278.884 99.0126 278.965C98.7695 279.046 98.6296 279.31 98.7128 279.559L98.8413 279.944L98.3422 280.11L98.342 280.11L98.1049 280.189L97.1856 280.496C96.9423 280.577 96.8028 280.841 96.886 281.09C96.9693 281.339 97.2391 281.466 97.4825 281.384ZM104.624 286.226L104.624 286.226C104.414 286.639 104.054 286.947 103.609 287.096L101.105 287.932L100.019 284.681L101.89 284.055C101.902 284.051 101.915 284.047 101.923 284.044L102.522 283.844C102.967 283.695 103.441 283.726 103.857 283.929L103.857 283.929C104.273 284.132 104.581 284.482 104.725 284.915C104.87 285.349 104.835 285.813 104.624 286.226Z" fill="white" stroke="white" stroke-width="0.5"/>
<defs>
<linearGradient id="paint0_linear_32_2986" x1="153.808" y1="-65.7123" x2="218.388" y2="868.67" gradientUnits="userSpaceOnUse">
<stop stop-color="#FD749B"/>
<stop offset="1" stop-color="#281AC8"/>
</linearGradient>
</defs>
</svg>
